<?xml version="1.0" standalone="no"?>
<!DOCTYPE svg PUBLIC "-//W3C//DTD SVG 1.1//EN" "http://www.w3.org/Graphics/SVG/1.1/DTD/svg11.dtd" >
<svg xmlns="http://www.w3.org/2000/svg" xmlns:xlink="http://www.w3.org/1999/xlink" version="1.1">
<metadata>
Created by FontForge 20170731 at Tue Oct 12 00:14:42 2021
 By Aleksey,,,
Copyright (URW)++,Copyright 2009 by (URW)++ Design &#38; Development 
</metadata>
<defs>
<font id="CorporateSPro-Regular" horiz-adv-x="1024" >
  <font-face 
    font-family="Corporate S Pro"
    font-weight="400"
    font-stretch="normal"
    units-per-em="2048"
    panose-1="0 0 5 0 0 0 0 0 0 0"
    ascent="1372"
    descent="-676"
    x-height="971"
    cap-height="1366"
    bbox="-367 -514 2331 2167"
    underline-thickness="133"
    underline-position="-333"
    unicode-range="U+0020-FB04"
  />
<missing-glyph horiz-adv-x="512" 
 />
    <glyph glyph-name="ff" unicode="ff" horiz-adv-x="1163" 
d="M752 971v61q0 107 8 156.5t31 89.5q31 54 89 85.5t128 31.5q73 0 157 -31v-133q-80 37 -137 37q-89 0 -117 -80q-14 -43 -14 -152v-65h242v-117h-236v-854h-151v854h-430v-854h-152v854h-137v117h137v61q0 106 8 156t31 90q31 54 89 85.5t128 31.5q74 0 156 -31v-133
q-75 37 -136 37q-88 0 -116 -80q-15 -46 -15 -152v-65h437z" />
    <glyph glyph-name="fi" unicode="fi" horiz-adv-x="1034" 
d="M315 971h242v-117h-235v-854h-152v854h-137v117h137v61q0 106 8 156t31 90q31 54 89 85.5t128 31.5q76 0 156 -31v-133q-70 37 -136 37q-89 0 -114 -80q-17 -44 -17 -152v-65zM731 971h152v-971h-152v971zM809 1384q44 0 73 -30t29 -76q0 -44 -30 -73t-74 -29
q-45 0 -75 29t-30 73q0 46 30.5 76t76.5 30z" />
    <glyph glyph-name="fl" unicode="fl" horiz-adv-x="1034" 
d="M315 971h242v-117h-235v-854h-152v854h-137v117h137v61q0 106 8 156t31 90q31 54 89 85.5t128 31.5q76 0 156 -31v-133q-70 37 -136 37q-89 0 -114 -80q-17 -44 -17 -152v-65zM731 1372h152v-1372h-152v1372z" />
    <glyph glyph-name="ffi" unicode="ffi" horiz-adv-x="1615" 
d="M752 971v61q0 107 8 156.5t31 89.5q31 54 89 85.5t128 31.5q73 0 157 -31v-133q-80 37 -137 37q-89 0 -117 -80q-14 -43 -14 -152v-65h242v-117h-236v-854h-151v854h-430v-854h-152v854h-137v117h137v61q0 106 8 156t31 90q31 54 89 85.5t128 31.5q74 0 156 -31v-133
q-75 37 -136 37q-88 0 -116 -80q-15 -46 -15 -152v-65h437zM1313 971h151v-971h-151v971zM1391 1384q44 0 73 -30t29 -76q0 -44 -30 -73t-74 -29q-45 0 -75 29t-30 73q0 46 30.5 76t76.5 30z" />
    <glyph glyph-name="ffl" unicode="ffl" horiz-adv-x="1615" 
d="M752 971v61q0 107 8 156.5t31 89.5q31 54 89 85.5t128 31.5q73 0 157 -31v-133q-80 37 -137 37q-89 0 -117 -80q-14 -43 -14 -152v-65h242v-117h-236v-854h-151v854h-430v-854h-152v854h-137v117h137v61q0 106 8 156t31 90q31 54 89 85.5t128 31.5q74 0 156 -31v-133
q-75 37 -136 37q-88 0 -116 -80q-15 -46 -15 -152v-65h437zM1313 1372h151v-1372h-151v1372z" />
    <glyph glyph-name="ft" unicode="ft" horiz-adv-x="1193" 
d="M754 971l6 280h141l-6 -280h231v-117h-233l-8 -492v-100q0 -93 22 -125.5t86 -32.5q67 0 142 35l-2 -127q-85 -32 -172 -32q-148 0 -199 88q-27 45 -27 141q0 33 4 158l13 487h-430v-854h-152v854h-137v117h137v61q0 106 8 156t31 90q31 54 89 85.5t128 31.5
q74 0 156 -31v-133q-78 37 -136 37q-88 0 -116 -80q-15 -46 -15 -152v-65h439z" />
    <glyph glyph-name="fft" unicode="fft" horiz-adv-x="1775" 
d="M752 971v61q0 107 8 156.5t31 89.5q31 54 89 85.5t128 31.5q75 0 157 -31v-133q-75 37 -137 37q-42 0 -73 -21t-44 -59q-14 -43 -14 -152v-65h440l6 280h140l-4 -280h229v-117h-231l-9 -492q-4 -82 -4 -100q0 -93 22.5 -125.5t86.5 -32.5q68 0 143 35l-2 -127
q-85 -32 -172 -32q-147 0 -201 88q-24 44 -24 141q0 51 2 82q1 17 2 35.5t1.5 28t0.5 12.5l12 487h-432v-854h-151v854h-430v-854h-152v854h-137v117h137v61q0 106 8 156t31 90q31 54 89 85.5t128 31.5q74 0 156 -31v-133q-78 37 -136 37q-88 0 -116 -80q-15 -46 -15 -152
v-65h437z" />
    <glyph glyph-name=".notdef" horiz-adv-x="512" 
 />
    <glyph glyph-name=".null" horiz-adv-x="0" 
 />
    <glyph glyph-name="nonmarkingreturn" horiz-adv-x="682" 
 />
    <glyph glyph-name="space" unicode=" " horiz-adv-x="512" 
 />
    <glyph glyph-name="exclam" unicode="!" horiz-adv-x="509" 
d="M178 1339h156l-25 -956h-114zM256 215q48 0 82.5 -35t34.5 -84q0 -47 -35 -81.5t-84 -34.5q-47 0 -82 34.5t-35 81.5q0 50 34.5 84.5t84.5 34.5z" />
    <glyph glyph-name="quotedbl" unicode="&#x22;" horiz-adv-x="720" 
d="M272 817h-104l-25 549h154zM553 817h-104l-23 549h152z" />
    <glyph glyph-name="numbersign" unicode="#" horiz-adv-x="1228" 
d="M1114 547l-18 -113h-234l-69 -434h-129l69 434h-305l-70 -434h-129l70 434h-233l18 113h233l48 297h-234l16 112h234l65 410h129l-65 -410h305l64 410h131l-66 -410h236l-19 -112h-235l-47 -297h235zM797 844h-303l-48 -297h304z" />
    <glyph glyph-name="dollar" unicode="$" horiz-adv-x="1091" 
d="M588 1253v-477q163 -58 239 -106q172 -108 172 -305q0 -163 -111.5 -268t-299.5 -117v-150h-82v147q-195 12 -303 120t-111 294h148q8 -125 75.5 -196.5t190.5 -81.5v530q-170 61 -223 92q-158 100 -158 285q0 155 103.5 255t277.5 114v133h82v-133q159 -10 259 -100.5
t105 -227.5h-153q-6 78 -63 129.5t-148 62.5zM506 805v448q-112 -15 -172 -72.5t-60 -148.5q0 -110 101 -170q20 -13 131 -57zM588 612v-501q120 12 188 74.5t68 162.5q0 120 -96 191q-35 26 -160 73z" />
    <glyph glyph-name="percent" unicode="%" horiz-adv-x="1173" 
d="M924 1366h127l-801 -1366h-127zM868 645q107 0 181.5 -95t74.5 -233t-74.5 -232.5t-183.5 -94.5q-110 0 -185 94.5t-75 232.5q0 140 75 234t187 94zM866 543q-63 0 -103 -63.5t-40 -162.5q0 -98 39.5 -161.5t101.5 -63.5q63 0 103.5 63.5t40.5 161.5q0 97 -40.5 161.5
t-101.5 64.5zM311 1376q107 0 181.5 -95t74.5 -232q0 -138 -74.5 -233t-183.5 -95q-110 0 -185 95t-75 233q0 140 75 233.5t187 93.5zM309 1274q-63 0 -103 -63.5t-40 -161.5q0 -99 40 -162.5t103 -63.5q62 0 102 64t40 162q0 97 -40.5 161t-101.5 64z" />
    <glyph glyph-name="ampersand" unicode="&#x26;" horiz-adv-x="1212" 
d="M893 629h123v-43q0 -115 -20.5 -196t-69.5 -154l176 -236h-166l-94 129q-70 -75 -150.5 -108t-189.5 -33q-186 0 -300 101t-114 265q0 116 59.5 206t214.5 208q-102 133 -129.5 188t-27.5 127q0 118 83.5 192.5t215.5 74.5q126 0 200 -69.5t74 -186.5q0 -95 -50 -175
t-171 -178l287 -391q49 91 49 279zM475 842q91 70 130.5 130t39.5 126q0 60 -40.5 97.5t-104.5 37.5q-66 0 -111 -39.5t-45 -99.5q0 -47 20.5 -88t88.5 -134q12 -16 22 -30zM762 233l-316 422q-80 -59 -127 -106q-86 -86 -86 -199q0 -103 78 -172t195 -69q156 0 256 124z
" />
    <glyph glyph-name="quotesingle" unicode="'" horiz-adv-x="512" 
d="M309 817h-104l-25 549h154z" />
    <glyph glyph-name="parenleft" unicode="(" horiz-adv-x="575" 
d="M395 1376h111q-106 -145 -161.5 -372.5t-55.5 -516.5q0 -586 217 -897h-111q-248 307 -248 893q0 292 63 519.5t185 373.5z" />
    <glyph glyph-name="parenright" unicode=")" horiz-adv-x="575" 
d="M178 -410h-110q217 310 217 891q0 293 -55.5 521.5t-161.5 373.5h110q121 -145 184.5 -373t63.5 -520q0 -583 -248 -893z" />
    <glyph glyph-name="asterisk" unicode="*" 
d="M463 1079v252h96v-252l240 78l28 -92l-237 -78l147 -203l-80 -57l-145 203l-147 -203l-80 57l147 203l-237 78l28 92z" />
    <glyph glyph-name="plus" unicode="+" horiz-adv-x="1091" 
d="M602 741h381v-106h-381v-397h-113v397h-380v106h380v396h113v-396z" />
    <glyph glyph-name="comma" unicode="," horiz-adv-x="489" 
d="M199 -299h-129q64 64 111 149t55 148h-17q-46 0 -78 33t-32 80q0 50 36 84t88 34q59 0 95.5 -43.5t36.5 -115.5q0 -85 -39.5 -173t-126.5 -196z" />
    <glyph glyph-name="hyphen" unicode="-" horiz-adv-x="561" 
d="M0 571h561v-112h-561v112z" />
    <glyph glyph-name="period" unicode="." horiz-adv-x="522" 
d="M262 215q48 0 82.5 -35t34.5 -84q0 -47 -35 -81.5t-84 -34.5q-47 0 -82 34.5t-35 81.5q0 51 34.5 85t84.5 34z" />
    <glyph glyph-name="slash" unicode="/" horiz-adv-x="1167" 
d="M111 -305l802 1671h144l-803 -1671h-143z" />
    <glyph glyph-name="zero" unicode="0" horiz-adv-x="1091" 
d="M551 1352q201 0 316.5 -184t115.5 -502q0 -320 -116.5 -502t-321.5 -182q-90 0 -167 38t-128 107q-141 198 -141 537q0 326 116.5 507t325.5 181zM549 1227q-134 0 -199 -121q-88 -164 -88 -442q0 -276 88 -437q64 -121 195 -121q132 0 196 121q88 164 88 439
q0 133 -23.5 249t-64.5 191q-31 58 -81 89.5t-111 31.5z" />
    <glyph glyph-name="one" unicode="1" horiz-adv-x="1091" 
d="M352 1038v97q128 5 194 52.5t89 153.5h102v-1341h-145v1038h-240z" />
    <glyph glyph-name="two" unicode="2" horiz-adv-x="1091" 
d="M297 946h-135q3 197 103 301.5t286 104.5q164 0 264 -89t100 -235q0 -89 -37.5 -166.5t-158.5 -236.5l-377 -492h594v-133h-782v117l389 508q145 192 182 259.5t37 139.5q0 88 -60.5 141.5t-158.5 53.5q-228 0 -246 -273z" />
    <glyph glyph-name="three" unicode="3" horiz-adv-x="1091" 
d="M307 991h-133q9 171 109.5 266t271.5 95q166 0 267.5 -91.5t101.5 -240.5q0 -207 -201 -295q244 -84 244 -334q0 -186 -116 -297.5t-308 -111.5t-304 101.5t-112 274.5v21h135q5 -129 75.5 -197.5t199.5 -68.5q130 0 204 72t74 200q0 262 -317 262q-26 0 -49 -2v131
l53 -2q125 0 196.5 63t71.5 173q0 97 -60.5 154t-164.5 57q-209 0 -238 -230z" />
    <glyph glyph-name="four" unicode="4" horiz-adv-x="1091" 
d="M778 453h232v-129h-230v-336h-149v336h-547v114l541 903h153v-888zM637 453l2 696l-410 -696h408z" />
    <glyph glyph-name="five" unicode="5" horiz-adv-x="1091" 
d="M266 1331h613l-19 -131h-475l-55 -391q51 51 104 72.5t125 21.5q177 0 284 -119.5t107 -316.5q0 -179 -96 -313q-121 -172 -332 -172q-163 0 -266 92t-113 248h140q17 -103 77.5 -157t157.5 -54q124 0 201.5 96.5t77.5 251.5q0 143 -69 229t-183 86q-82 0 -139 -34.5
t-101 -110.5l-133 14z" />
    <glyph glyph-name="six" unicode="6" horiz-adv-x="1091" 
d="M637 1362h166q-227 -248 -379 -502q73 37 151 37q163 0 268 -126.5t105 -324.5q0 -207 -109 -335.5t-286 -128.5q-181 0 -296.5 130t-115.5 334q0 198 119 418t377 498zM545 774q-110 0 -180 -93t-70 -239t71.5 -239.5t180.5 -93.5q112 0 180 91t68 242q0 146 -70 239
t-180 93z" />
    <glyph glyph-name="seven" unicode="7" horiz-adv-x="1091" 
d="M131 1331h830v-123l-652 -1208h-166l645 1192h-657v139z" />
    <glyph glyph-name="eight" unicode="8" horiz-adv-x="1091" 
d="M334 700q-160 86 -160 285q0 157 106.5 262t266.5 105q158 0 264.5 -105t106.5 -260q0 -201 -160 -287q196 -108 196 -331q0 -170 -114 -278.5t-293 -108.5q-180 0 -294 108.5t-114 278.5q0 227 195 331zM549 1227q-100 0 -160.5 -65t-60.5 -171q0 -103 61 -168t158 -65
t158 65.5t61 169.5q0 102 -61 168t-156 66zM551 637q-117 0 -187.5 -73t-70.5 -193q0 -117 71 -191t183 -74q113 0 183.5 74.5t70.5 192.5q0 115 -70.5 189.5t-179.5 74.5z" />
    <glyph glyph-name="nine" unicode="9" horiz-adv-x="1091" 
d="M453 -31h-166q101 109 206 248.5t173 255.5q-70 -37 -152 -37q-160 0 -266.5 127.5t-106.5 319.5q0 205 114.5 337t293.5 132q180 0 289.5 -128t109.5 -337q0 -394 -495 -918zM551 1225q-114 0 -185 -93.5t-71 -242.5q0 -146 70 -238t180 -92t180 92.5t70 239.5
q0 148 -68.5 241t-175.5 93z" />
    <glyph glyph-name="colon" unicode=":" horiz-adv-x="522" 
d="M262 215q48 0 82.5 -35t34.5 -84q0 -47 -35 -81.5t-84 -34.5q-47 0 -82 34.5t-35 81.5q0 51 34.5 85t84.5 34zM262 971q48 0 82.5 -35t34.5 -84q0 -48 -35 -82.5t-84 -34.5q-47 0 -82 35t-35 82q0 51 34.5 85t84.5 34z" />
    <glyph glyph-name="semicolon" unicode=";" horiz-adv-x="489" 
d="M231 971q48 0 82.5 -35t34.5 -84q0 -48 -35 -82.5t-84 -34.5q-47 0 -81.5 35t-34.5 82q0 51 34 85t84 34zM199 -299h-129q64 64 111 149t55 148h-17q-46 0 -78 33t-32 80q0 50 36 84t88 34q59 0 95.5 -43.5t36.5 -115.5q0 -85 -39.5 -173t-126.5 -196z" />
    <glyph glyph-name="less" unicode="&#x3c;" 
d="M954 1165v-143l-733 -334l733 -332v-143l-886 414v125z" />
    <glyph glyph-name="equal" unicode="=" horiz-adv-x="1091" 
d="M109 879h874v-111h-874v111zM109 606h874v-110h-874v110z" />
    <glyph glyph-name="greater" unicode="&#x3e;" 
d="M70 213v143l733 332l-733 334v143l886 -413v-125z" />
    <glyph glyph-name="question" unicode="?" horiz-adv-x="843" 
d="M385 215q48 0 82.5 -35t34.5 -84q0 -47 -35 -81.5t-84 -34.5q-47 0 -82 34.5t-35 81.5q0 50 35 84.5t84 34.5zM457 387h-142v113q0 93 9.5 138t36 84.5t96.5 111.5q78 80 105.5 127t27.5 102q0 72 -45.5 113t-124.5 41q-91 0 -139.5 -48t-57.5 -149h-127q7 163 93 247.5
t243 84.5q146 0 231 -77.5t85 -211.5q0 -81 -35 -142.5t-140 -164.5q-58 -58 -80 -91.5t-29 -74t-7 -131.5v-72z" />
    <glyph glyph-name="at" unicode="@" horiz-adv-x="1501" 
d="M1016 1012h108l-84 -432q-14 -72 -14 -97q0 -46 21.5 -73t56.5 -27q57 0 110 56t85 148.5t32 192.5q0 230 -151 372t-396 142q-261 0 -432.5 -174.5t-171.5 -439.5q0 -124 42.5 -236t119.5 -196q165 -174 465 -174q224 0 428 94l29 -96q-207 -97 -457 -97
q-338 0 -535 197q-95 94 -148.5 229t-53.5 281q0 200 92.5 362.5t256 254.5t365.5 92q284 0 467 -171t183 -436q0 -128 -46.5 -241.5t-124.5 -181.5t-165 -68q-62 0 -102.5 37.5t-47.5 103.5q-95 -145 -254 -145q-128 0 -209.5 93t-81.5 239q0 173 105 294t256 121
q85 0 140 -37.5t87 -117.5zM772 930q-103 0 -174.5 -91t-71.5 -221q0 -105 50.5 -166t138.5 -61q101 0 168 94.5t67 235.5q0 98 -47.5 153.5t-130.5 55.5z" />
    <glyph glyph-name="A" unicode="A" horiz-adv-x="1159" 
d="M512 1374h133l471 -1374h-160l-120 362h-514l-123 -362h-158zM793 496l-215 680l-216 -680h431z" />
    <glyph glyph-name="B" unicode="B" horiz-adv-x="1124" 
d="M176 1366h250q136 0 206.5 -7t127.5 -26q100 -34 155.5 -114.5t55.5 -192.5q0 -117 -55.5 -189.5t-172.5 -109.5q153 -37 226 -121.5t73 -224.5q0 -126 -62.5 -220t-166.5 -126q-65 -22 -143 -28.5t-256 -6.5h-238v1366zM328 778h129q101 0 157.5 9.5t98.5 33.5
q49 26 75.5 78t26.5 117q0 71 -32.5 122.5t-90.5 73.5q-40 15 -88 20t-155 5h-121v-459zM328 129h137q124 0 186.5 7.5t108.5 27.5q57 25 89 84t32 141q0 86 -42 148.5t-114 87.5q-81 24 -260 24h-137v-520z" />
    <glyph glyph-name="C" unicode="C" horiz-adv-x="1230" 
d="M1120 987h-143q-58 268 -311 268q-183 0 -290.5 -154.5t-107.5 -418.5q0 -266 107 -418.5t293 -152.5q143 0 227.5 90t101.5 262h146q-19 -233 -141.5 -360.5t-327.5 -127.5q-261 0 -415.5 190.5t-154.5 512.5q0 324 154 518.5t410 194.5q190 0 308 -106t144 -298z" />
    <glyph glyph-name="D" unicode="D" horiz-adv-x="1284" 
d="M176 1366h215q198 0 297 -16t182 -62q143 -78 226.5 -240.5t83.5 -363.5q0 -210 -85 -371t-237 -239q-86 -45 -180 -59.5t-303 -14.5h-199v1366zM330 133h100q161 0 231.5 13.5t141.5 56.5q103 63 159 188t56 293q0 175 -62.5 304t-177.5 190q-66 35 -135.5 45t-251.5 10
h-61v-1100z" />
    <glyph glyph-name="E" unicode="E" horiz-adv-x="1028" 
d="M330 774h553v-133h-553v-508h610v-133h-764v1366h750v-133h-596v-459z" />
    <glyph glyph-name="F" unicode="F" horiz-adv-x="997" 
d="M330 774h553v-133h-553v-641h-154v1366h750v-133h-596v-459z" />
    <glyph glyph-name="G" unicode="G" horiz-adv-x="1273" 
d="M729 678h416v-561q-195 -142 -451 -142q-277 0 -433.5 189t-156.5 522q0 323 154.5 514t415.5 191q192 0 310.5 -105t141.5 -297h-143q-31 136 -106 201t-203 65q-189 0 -297.5 -152t-108.5 -419q0 -274 112 -423.5t316 -149.5q157 0 310 90v344h-277v133z" />
    <glyph glyph-name="H" unicode="H" horiz-adv-x="1298" 
d="M330 778h641v588h153v-1366h-153v651h-641v-651h-154v1366h154v-588z" />
    <glyph glyph-name="I" unicode="I" horiz-adv-x="503" 
d="M332 0h-158v1366h158v-1366z" />
    <glyph glyph-name="J" unicode="J" horiz-adv-x="589" 
d="M260 1366h158v-1090q0 -144 -5.5 -195t-27.5 -95q-38 -79 -126 -121.5t-214 -42.5h-49v133h22h13q165 3 209 96q13 29 16.5 67.5t3.5 157.5v1090z" />
    <glyph glyph-name="K" unicode="K" horiz-adv-x="1142" 
d="M885 1366h186l-557 -645l610 -721h-209l-583 717zM176 1366h154v-1366h-154v1366z" />
    <glyph glyph-name="L" unicode="L" horiz-adv-x="972" 
d="M176 1366h158v-1233h584v-133h-742v1366z" />
    <glyph glyph-name="M" unicode="M" horiz-adv-x="1583" 
d="M176 1366h232l383 -1198l385 1198h231v-1366h-145v1212l-394 -1212h-153l-393 1212v-1212h-146v1366z" />
    <glyph glyph-name="N" unicode="N" horiz-adv-x="1316" 
d="M176 1366h166l655 -1137v1137h144v-1366h-168l-651 1135v-1135h-146v1366z" />
    <glyph glyph-name="O" unicode="O" horiz-adv-x="1323" 
d="M662 1391q247 0 401 -196t154 -511t-154 -511t-401 -196q-252 0 -405 196.5t-153 520.5q0 202 70.5 361t198 247.5t289.5 88.5zM662 1255q-177 0 -285.5 -155t-108.5 -408q0 -265 107 -422t287 -157q177 0 284 156.5t107 414.5t-107 414.5t-284 156.5z" />
    <glyph glyph-name="P" unicode="P" horiz-adv-x="1077" 
d="M176 1366h225q154 0 234.5 -7.5t142.5 -29.5q112 -37 177 -137.5t65 -235.5q0 -126 -56.5 -220t-156.5 -134q-64 -26 -143 -35.5t-234 -9.5h-100v-557h-154v1366zM330 690h96q168 0 254 19q86 20 132 84t46 163q0 89 -36.5 153.5t-102.5 90.5q-51 20 -110.5 26.5
t-198.5 6.5h-80v-543z" />
    <glyph glyph-name="Q" unicode="Q" horiz-adv-x="1343" 
d="M1126 272l269 -288h-187l-161 170q-151 -177 -388 -177q-246 0 -400.5 197t-154.5 510q0 314 155.5 510.5t402.5 196.5q161 0 287.5 -89t197 -250t70.5 -366q0 -228 -91 -414zM659 1255q-172 0 -281.5 -158t-109.5 -407q0 -261 108.5 -420t285.5 -159q173 0 282 159
t109 412q0 255 -109.5 414t-284.5 159z" />
    <glyph glyph-name="R" unicode="R" horiz-adv-x="1148" 
d="M176 1366h242q160 0 236 -8.5t143 -34.5q103 -40 162 -131.5t59 -212.5q0 -268 -281 -371l359 -608h-185l-344 584h-237v-584h-154v1366zM330 717h96q128 0 179 4.5t97 21.5q74 26 114 88t40 150q0 78 -34 135.5t-95 83.5q-47 21 -102 27t-203 6h-92v-516z" />
    <glyph glyph-name="S" unicode="S" horiz-adv-x="1120" 
d="M969 1012h-150q-10 117 -79.5 180t-186.5 63q-108 0 -179 -59t-71 -149t82 -144q34 -23 64.5 -38t179.5 -83q130 -58 195 -97.5t102 -82.5q82 -97 82 -235q0 -175 -123.5 -282.5t-323.5 -107.5q-120 0 -214.5 40.5t-153.5 117.5q-43 55 -63 119.5t-26 161.5h150
q11 -148 91 -225.5t222 -77.5q124 0 203.5 66t79.5 169q0 98 -82 168q-32 28 -72 49.5t-141 65.5q-208 93 -279 149q-126 99 -126 254q0 156 115.5 256.5t295.5 100.5q109 0 196.5 -40.5t141.5 -115.5q62 -84 70 -223z" />
    <glyph glyph-name="T" unicode="T" horiz-adv-x="948" 
d="M43 1366h864v-133h-356v-1233h-154v1233h-354v133z" />
    <glyph glyph-name="U" unicode="U" horiz-adv-x="1280" 
d="M158 1366h153v-805q0 -150 8.5 -209.5t34.5 -105.5q37 -62 113.5 -97.5t173.5 -35.5q106 0 185.5 42t111.5 117q19 41 25 97.5t6 191.5v805h153v-807q0 -164 -5 -218.5t-27 -109.5q-50 -120 -168 -187t-281 -67q-164 0 -282.5 67t-168.5 187q-22 55 -27 109.5t-5 218.5
v807z" />
    <glyph glyph-name="V" unicode="V" horiz-adv-x="1148" 
d="M27 1366h161l390 -1188l383 1188h159l-469 -1374h-155z" />
    <glyph glyph-name="W" unicode="W" horiz-adv-x="1591" 
d="M37 1366h145l264 -1163l285 1163h131l285 -1163l266 1163h143l-325 -1374h-166l-270 1067l-269 -1067h-166z" />
    <glyph glyph-name="X" unicode="X" horiz-adv-x="1112" 
d="M66 1366h176l315 -524l320 524h176l-406 -651l426 -715h-174l-342 571l-342 -571h-174l428 715z" />
    <glyph glyph-name="Y" unicode="Y" horiz-adv-x="1048" 
d="M25 1366h176l327 -639l322 639h176l-426 -793l2 -573h-153l2 573z" />
    <glyph glyph-name="Z" unicode="Z" horiz-adv-x="1009" 
d="M106 1366h840v-104l-702 -1129h690v-133h-871v119l697 1116h-654v131z" />
    <glyph glyph-name="bracketleft" unicode="[" horiz-adv-x="575" 
d="M188 1366h308v-119h-172v-1526h172v-118h-308v1763z" />
    <glyph glyph-name="backslash" unicode="\" horiz-adv-x="1167" 
d="M1057 -305h-144l-802 1671h143z" />
    <glyph glyph-name="bracketright" unicode="]" horiz-adv-x="575" 
d="M387 -397h-307v118h172v1526h-172v119h307v-1763z" />
    <glyph glyph-name="asciicircum" unicode="^" 
d="M209 752h-156l365 618h188l365 -618h-158l-303 503z" />
    <glyph glyph-name="underscore" unicode="_" 
d="M0 -135h1024v-133h-1024v133z" />
    <glyph glyph-name="grave" unicode="`" 
d="M639 1120h-121l-297 281h205z" />
    <glyph glyph-name="a" unicode="a" horiz-adv-x="974" 
d="M270 717h-141q15 136 108.5 208t254.5 72q119 0 201 -42t110 -117q13 -36 17.5 -80.5t4.5 -136.5v-365q0 -117 4.5 -160.5t22.5 -95.5h-137q-15 49 -23 131q-86 -156 -284 -156q-142 0 -228 76.5t-86 204.5q0 101 57.5 175.5t167.5 115.5q116 43 365 86v41q0 108 -46 154
t-153 46q-95 0 -147.5 -38t-67.5 -119zM684 430v96q-245 -43 -343.5 -101.5t-98.5 -158.5q0 -75 52 -122.5t136 -47.5q69 0 126 30.5t89 84.5q39 68 39 219z" />
    <glyph glyph-name="b" unicode="b" horiz-adv-x="1040" 
d="M150 1372h143v-543q56 88 122 128t156 40q168 0 272.5 -140.5t104.5 -367.5q0 -232 -108 -373t-285 -141q-90 0 -153.5 38.5t-114.5 123.5q0 -79 -17 -137h-137q11 44 14 96t3 178v1098zM557 872q-121 0 -193.5 -106t-72.5 -285q0 -172 70.5 -276.5t185.5 -104.5
q116 0 185 105.5t69 283.5q0 175 -66 279t-178 104z" />
    <glyph glyph-name="c" unicode="c" horiz-adv-x="952" 
d="M852 655h-141q-20 118 -68.5 168.5t-142.5 50.5q-121 0 -190.5 -103.5t-69.5 -285.5t70 -284.5t194 -102.5q98 0 149.5 57t63.5 179h143q-13 -175 -104.5 -267t-251.5 -92q-187 0 -299.5 139t-112.5 369q0 236 111.5 375t300.5 139q154 0 243.5 -88t104.5 -254z" />
    <glyph glyph-name="d" unicode="d" horiz-adv-x="1040" 
d="M889 1372v-1085q0 -214 18 -287h-141q-14 55 -14 104q0 19 2 35q-52 -88 -116.5 -126t-158.5 -38q-177 0 -283 137t-106 365q0 232 105.5 376t275.5 144q95 0 159 -38t115 -125v538h144zM496 872q-120 0 -189 -104t-69 -285q0 -177 68.5 -280t185.5 -103q118 0 187 104
t69 281t-68.5 282t-183.5 105z" />
    <glyph glyph-name="e" unicode="e" horiz-adv-x="995" 
d="M901 461h-661q4 -177 76 -270t204 -93q80 0 132 34.5t93 113.5l134 -17q-89 -254 -361 -254q-195 0 -310.5 135.5t-115.5 364.5q0 237 114 379.5t304 142.5q180 0 286.5 -134.5t106.5 -360.5q0 -23 -2 -41zM244 573h510q-12 147 -76.5 225.5t-173.5 78.5
q-106 0 -172 -77.5t-88 -226.5z" />
    <glyph glyph-name="f" unicode="f" horiz-adv-x="581" 
d="M315 971h242v-117h-235v-854h-152v854h-137v117h137v61q0 109 8 159t33 91q31 54 88.5 83.5t128.5 29.5q66 0 154 -31v-133q-70 37 -136 37q-88 0 -116 -80q-15 -44 -15 -152v-65z" />
    <glyph glyph-name="g" unicode="g" horiz-adv-x="989" 
d="M944 971v-109l-199 4q40 -37 62 -96t22 -127q0 -69 -25 -126.5t-69 -92.5q-60 -46 -223 -82q-106 -23 -147 -41q-58 -28 -58 -65q0 -31 34 -42.5t161 -23.5q142 -14 200 -26t105 -38q61 -32 95 -90.5t34 -132.5q0 -140 -118 -220.5t-322 -80.5q-198 0 -317.5 77
t-119.5 204q0 88 48.5 144.5t156.5 94.5q-56 21 -80 47.5t-24 65.5q0 50 39.5 85.5t134.5 70.5q-100 40 -147.5 108.5t-47.5 171.5q0 151 98 241.5t259 90.5q73 0 151 -22zM494 868q-97 0 -157.5 -59t-60.5 -154q0 -91 57.5 -145.5t151.5 -54.5q95 0 152 54.5t57 145.5
q0 93 -56.5 153t-143.5 60zM487 39q-141 0 -219 -44t-78 -124q0 -77 84.5 -123.5t223.5 -46.5q138 0 218.5 46t80.5 124q0 82 -79.5 125t-230.5 43z" />
    <glyph glyph-name="h" unicode="h" horiz-adv-x="1028" 
d="M150 1372h143v-516q106 141 278 141q86 0 156.5 -33.5t108.5 -93.5q29 -44 38 -104t9 -209v-557h-144v549q0 101 -5.5 146t-20.5 79q-50 96 -172 96q-65 0 -118 -30.5t-85 -85.5q-45 -74 -45 -219v-535h-143v1372z" />
    <glyph glyph-name="i" unicode="i" horiz-adv-x="452" 
d="M150 971h151v-971h-151v971zM227 1384q44 0 73.5 -30t29.5 -76q0 -44 -29.5 -73t-75.5 -29q-44 0 -74 29t-30 73q0 46 30 76t76 30z" />
    <glyph glyph-name="j" unicode="j" horiz-adv-x="514" 
d="M215 971h152v-887q0 -162 -13.5 -230.5t-54.5 -121.5q-88 -115 -305 -115h-49v127h18h14q157 0 207 84q19 32 25 82.5t6 173.5v887zM293 1384q44 0 73 -30t29 -76q0 -44 -30 -73t-74 -29q-45 0 -75 29t-30 73q0 46 30.5 76t76.5 30z" />
    <glyph glyph-name="k" unicode="k" horiz-adv-x="987" 
d="M705 971h174l-406 -436l436 -535h-198l-416 528zM150 1372h143v-1372h-143v1372z" />
    <glyph glyph-name="l" unicode="l" horiz-adv-x="452" 
d="M150 1372h151v-1372h-151v1372z" />
    <glyph glyph-name="m" unicode="m" horiz-adv-x="1566" 
d="M127 971h141q19 -55 19 -133q46 82 114 120.5t168 38.5q101 0 166.5 -41t102.5 -129q98 170 299 170q86 0 150.5 -32.5t98.5 -92.5q24 -42 30.5 -90t6.5 -188v-594h-143v594q0 93 -5 130t-22 67q-44 77 -161 77q-130 0 -193 -102q-39 -65 -39 -193v-573h-143v571
q0 108 -3.5 143.5t-17.5 63.5q-20 44 -63.5 68t-102.5 24q-64 0 -115.5 -27.5t-80.5 -78.5q-39 -71 -39 -199v-565h-143v670q0 149 -4 194t-21 107z" />
    <glyph glyph-name="n" unicode="n" horiz-adv-x="1032" 
d="M125 971h137q21 -62 21 -142q98 168 292 168q99 0 173 -41.5t106 -115.5q21 -48 26 -94t5 -189v-557h-144v549q0 107 -4.5 148.5t-19.5 76.5q-46 96 -170 96q-65 0 -120 -30t-89 -84q-47 -73 -47 -213v-543h-144v641q0 180 -2.5 222.5t-19.5 107.5z" />
    <glyph glyph-name="o" unicode="o" horiz-adv-x="1032" 
d="M516 997q188 0 306 -142.5t118 -369.5q0 -225 -118.5 -367.5t-305.5 -142.5q-189 0 -306.5 143.5t-117.5 375.5q0 220 119 361.5t305 141.5zM516 874q-123 0 -199.5 -106t-76.5 -276q0 -179 75 -286.5t201 -107.5q124 0 200.5 107t76.5 282q0 173 -76.5 280t-200.5 107z
" />
    <glyph glyph-name="p" unicode="p" horiz-adv-x="1040" 
d="M150 -403v1085q0 194 -19 289h141q15 -53 17 -144q53 89 117.5 129.5t156.5 40.5q173 0 279 -141.5t106 -372.5q0 -229 -103 -368.5t-272 -139.5q-92 0 -159 38.5t-121 121.5v-538h-143zM553 872q-118 0 -190 -106t-72 -281q0 -172 72.5 -278.5t189.5 -106.5t182.5 101
t65.5 278q0 180 -67 286.5t-181 106.5z" />
    <glyph glyph-name="q" unicode="q" horiz-adv-x="1040" 
d="M745 -403v536q-56 -83 -119 -120.5t-149 -37.5q-173 0 -280 138t-107 364q0 234 107 377t284 143q94 0 158.5 -40.5t108.5 -127.5q3 98 18 142h141q-18 -76 -18 -289v-1085h-144zM492 872q-116 0 -185 -107.5t-69 -287.5q0 -172 66.5 -274.5t178.5 -102.5
q120 0 192.5 105t72.5 282q0 172 -71 278.5t-185 106.5z" />
    <glyph glyph-name="r" unicode="r" horiz-adv-x="669" 
d="M135 971h137q19 -78 19 -150l-2 -59q51 121 111.5 178t138.5 57q55 0 116 -30v-144q-83 39 -129 39q-57 0 -105.5 -39t-80.5 -110q-43 -94 -43 -279v-434h-145v637q0 158 -3 208t-14 126z" />
    <glyph glyph-name="s" unicode="s" horiz-adv-x="897" 
d="M793 705h-140q-10 89 -58.5 131.5t-139.5 42.5q-83 0 -135 -40.5t-52 -105.5q0 -60 44 -92t182 -72q117 -34 172 -59t84 -59q59 -68 59 -172q0 -140 -95 -222t-257 -82q-177 0 -272 84.5t-95 241.5h139q18 -205 226 -205q95 0 151 46.5t56 123.5t-62 113q-26 17 -57 28.5
t-160 51.5q-141 43 -200.5 103t-59.5 161q0 123 92.5 198.5t241.5 75.5q155 0 241.5 -75.5t94.5 -216.5z" />
    <glyph glyph-name="t" unicode="t" horiz-adv-x="643" 
d="M348 971h230v-117h-232l-10 -492v-100q0 -93 22 -125.5t86 -32.5q75 0 140 35v-127q-84 -32 -172 -32q-148 0 -199 88q-27 45 -27 141q0 51 2 82q2 41 2 76l13 487h-146v117h150l6 280h139z" />
    <glyph glyph-name="u" unicode="u" horiz-adv-x="1017" 
d="M145 971h144v-594q0 -142 33 -195q53 -78 165 -78q129 0 197 109q41 69 41 207v551h143v-676q0 -161 3 -201.5t20 -93.5h-141q-18 56 -21 129q-43 -82 -103.5 -118t-154.5 -36q-93 0 -168 39.5t-115 108.5q-25 41 -34 96t-9 158v594z" />
    <glyph glyph-name="v" unicode="v" horiz-adv-x="882" 
d="M20 971h150l272 -815l271 815h147l-344 -983h-151z" />
    <glyph glyph-name="w" unicode="w" horiz-adv-x="1353" 
d="M31 971h147l209 -770l227 770h123l228 -770l209 770h147l-281 -983h-141l-223 762l-225 -762h-140z" />
    <glyph glyph-name="x" unicode="x" horiz-adv-x="903" 
d="M63 971h166l224 -346l225 346h174l-311 -455l350 -516h-172l-266 401l-269 -401h-172l355 516z" />
    <glyph glyph-name="y" unicode="y" horiz-adv-x="897" 
d="M33 971h153l265 -809l272 809h149l-319 -903q-66 -190 -94.5 -250.5t-75.5 -112.5q-109 -115 -283 -115q-27 0 -45 2v127q138 -2 198 49.5t118 221.5z" />
    <glyph glyph-name="z" unicode="z" horiz-adv-x="815" 
d="M88 971h684v-107l-557 -745h547v-119h-717v113l551 739h-508v119z" />
    <glyph glyph-name="braceleft" unicode="{" horiz-adv-x="575" 
d="M340 1057v-326q0 -103 -24 -154t-91 -94q67 -41 91 -92t24 -153v-326q0 -90 11.5 -127.5t45.5 -56.5q46 -25 135 -25v-111q-16 -2 -32 -2q-166 0 -228.5 70t-62.5 256v324q0 90 -26 133.5t-89 62.5v96q63 17 89 61.5t26 135.5v322q0 143 33.5 213t115.5 96
q37 11 66.5 13.5t107.5 2.5v-110q-95 0 -143 -31q-28 -19 -38.5 -57t-10.5 -121z" />
    <glyph glyph-name="bar" unicode="|" 
d="M440 1366h144v-1708h-144v1708z" />
    <glyph glyph-name="braceright" unicode="}" horiz-adv-x="575" 
d="M233 -88v326q0 102 24 153t91 92q-67 43 -91 94t-24 154v326q0 129 -30 164q-42 45 -160 45v110q76 0 105.5 -2.5t66.5 -13.5q82 -26 116 -96.5t34 -212.5v-322q0 -91 26 -135.5t90 -61.5v-96q-64 -17 -90 -61t-26 -135v-324q0 -185 -62.5 -255.5t-226.5 -70.5
q-17 0 -33 2v111q118 0 160 45q30 33 30 164z" />
    <glyph glyph-name="asciitilde" unicode="~" horiz-adv-x="1366" 
d="M276 444l-86 56q64 130 126 181.5t153 51.5q77 0 231 -71q93 -44 128 -56t71 -12q59 0 100 31t88 112l87 -53q-58 -118 -128 -172.5t-163 -54.5q-44 0 -97.5 18.5t-189.5 81.5q-79 39 -137 39q-54 0 -97.5 -35.5t-85.5 -116.5z" />
    <glyph glyph-name="uni00A0" unicode="&#xa0;" horiz-adv-x="512" 
 />
    <glyph glyph-name="exclamdown" unicode="&#xa1;" horiz-adv-x="509" 
d="M332 -391h-156l25 956h114zM254 971q47 0 82 -35t35 -82q0 -51 -34.5 -85t-84.5 -34q-48 0 -82.5 35t-34.5 84q0 48 35 82.5t84 34.5z" />
    <glyph glyph-name="cent" unicode="&#xa2;" horiz-adv-x="1091" 
d="M592 1077v-772q173 21 194 234h144q-4 -149 -100.5 -251t-237.5 -108v-209h-82v213q-164 26 -256 158.5t-92 339.5q0 212 92 348t258 168v195h82v-191q145 -8 233 -99t95 -243h-146q-6 103 -49.5 155t-134.5 62zM512 309v762q-96 -32 -150.5 -134.5t-54.5 -250.5
q0 -215 113 -328q32 -32 92 -49z" />
    <glyph glyph-name="sterling" unicode="&#xa3;" horiz-adv-x="1091" 
d="M465 758h307v-121h-328q-54 -360 -143 -516q95 18 197 18q40 0 157 -2h43q94 0 127.5 33.5t38.5 130.5h131q0 -137 -57 -213q-40 -53 -93 -70.5t-171 -17.5h-563q98 147 182 637h-197v121h217q46 270 76 381q38 132 106 191t183 59q78 0 137 -28.5t88 -80.5
q33 -59 39 -172h-135q-7 85 -35.5 118.5t-91.5 33.5q-67 0 -100.5 -40t-59.5 -153q-19 -91 -55 -309z" />
    <glyph glyph-name="currency" unicode="&#xa4;" horiz-adv-x="1366" 
d="M113 252l192 194q-104 125 -104 289q0 80 24.5 148t79.5 143l-196 195l84 84l194 -195q135 100 295 100q163 0 293 -98l194 191l82 -82l-192 -193q104 -130 104 -291q0 -163 -102 -291l194 -194l-81 -84l-195 194q-132 -100 -295 -100q-152 0 -295 100l-192 -194z
M686 1081q-146 0 -247 -100t-101 -246q0 -141 101.5 -242.5t242.5 -101.5t242.5 101.5t101.5 242.5q0 142 -100 244t-240 102z" />
    <glyph glyph-name="yen" unicode="&#xa5;" horiz-adv-x="1091" 
d="M788 870h199v-100h-250l-84 -162h334v-100h-356v-508h-154v508h-373v100h349l-86 162h-263v100h209l-266 496h174l330 -641l328 641h165z" />
    <glyph glyph-name="brokenbar" unicode="&#xa6;" 
d="M440 1366h144v-682h-144v682zM440 313h144v-655h-144v655z" />
    <glyph glyph-name="section" unicode="&#xa7;" 
d="M866 1012h-131q-12 114 -64 166.5t-153 52.5q-92 0 -149.5 -49t-57.5 -127q0 -61 35.5 -98.5t159.5 -106.5q209 -115 276 -164q103 -79 103 -197q0 -84 -42.5 -146.5t-135.5 -113.5q73 -57 105 -115.5t32 -136.5q0 -147 -96.5 -231t-264.5 -84q-180 0 -272.5 88.5
t-95.5 261.5h133q10 -98 41 -145q63 -84 192 -84q104 0 164 51.5t60 142.5q0 56 -26 94.5t-95 82.5q-34 21 -248 145q-108 62 -157.5 125t-49.5 141q0 77 45 137.5t141 112.5q-75 51 -109 107t-34 129q0 131 97.5 216t246.5 85q161 0 252.5 -88.5t97.5 -251.5zM422 750
q-156 -75 -156 -181q0 -62 66 -116.5t270 -161.5q69 34 107.5 82.5t38.5 103.5q0 75 -76 127q-97 64 -250 146z" />
    <glyph glyph-name="dieresis" unicode="&#xa8;" 
d="M338 1376q44 0 75 -31.5t31 -74.5q0 -46 -31 -77.5t-75 -31.5t-76.5 32t-32.5 75q0 46 31.5 77t77.5 31zM686 1376q44 0 75.5 -31.5t31.5 -74.5q0 -46 -31.5 -77.5t-75.5 -31.5t-76 32t-32 75q0 46 31 77t77 31z" />
    <glyph glyph-name="copyright" unicode="&#xa9;" horiz-adv-x="1615" 
d="M1130 866h-104q-19 82 -64.5 120t-125.5 38q-113 0 -178.5 -89t-65.5 -241t65.5 -240.5t178.5 -88.5q90 0 141.5 52.5t60.5 153.5h105q-9 -141 -89.5 -221t-213.5 -80q-166 0 -265.5 115t-99.5 307q0 193 99 309.5t262 116.5q126 0 202.5 -66t91.5 -186zM817 1393
q187 0 348.5 -95.5t256 -258.5t94.5 -353q0 -143 -56 -274t-151 -225.5t-226 -150.5t-274 -56t-274 56t-226 150.5t-151 224.5t-56 273q0 146 56 277t151.5 226t228 150.5t279.5 55.5zM817 1309q-171 0 -313.5 -82.5t-224.5 -226.5t-82 -316q0 -169 82 -312.5t223 -227
t307 -83.5t307 83.5t223 227.5t82 314q0 125 -48.5 240.5t-129.5 199t-193 133.5t-233 50z" />
    <glyph glyph-name="ordfeminine" unicode="&#xaa;" 
d="M379 1198h-100q7 91 67 137.5t168 46.5q76 0 128.5 -26t72.5 -74q14 -36 14 -135v-219q0 -72 3.5 -100t15.5 -62h-97q-11 34 -14 68q-39 -46 -78 -65t-98 -19q-92 0 -147.5 48t-55.5 126q0 63 37.5 110.5t107.5 73.5q59 24 228 55v29q0 54 -29 79t-92 25q-60 0 -91 -23.5
t-40 -74.5zM631 1032v55q-160 -34 -215.5 -65.5t-55.5 -89.5q0 -44 31 -71t82 -27q82 0 120 48t38 150zM236 655h536v-80h-536v80z" />
    <glyph glyph-name="guillemotleft" unicode="&#xab;" horiz-adv-x="780" 
d="M643 0h-106l-185 477l185 494h106l-158 -494zM377 0h-105l-184 477l184 494h105l-156 -494z" />
    <glyph glyph-name="logicalnot" unicode="&#xac;" 
d="M811 0v412h-743v133h886v-545h-143z" />
    <glyph glyph-name="uni00AD" unicode="&#xad;" horiz-adv-x="561" 
d="M0 571h561v-112h-561v112z" />
    <glyph glyph-name="registered" unicode="&#xae;" horiz-adv-x="1615" 
d="M565 1090h160q160 0 240 -27q66 -23 104.5 -79t38.5 -128q0 -161 -172 -223l227 -363h-133l-217 346h-137v-346h-111v820zM676 709h53q78 0 109.5 3t60.5 13q92 28 92 131q0 44 -20.5 76.5t-55.5 46.5q-30 12 -63 15t-125 3h-51v-288zM817 1393q187 0 348.5 -95.5
t256 -258.5t94.5 -353q0 -143 -56 -274t-151 -225.5t-226 -150.5t-274 -56t-274 56t-226 150.5t-151 224.5t-56 273q0 146 56 277t151.5 226t228 150.5t279.5 55.5zM817 1311q-171 0 -314 -83t-225.5 -228t-82.5 -318q0 -169 82.5 -313t224 -228t307.5 -84q167 0 308.5 84
t223.5 228.5t82 314.5q0 168 -82 312.5t-222 229.5t-302 85z" />
    <glyph glyph-name="macron" unicode="&#xaf;" 
d="M233 1319h560v-109h-560v109z" />
    <glyph glyph-name="degree" unicode="&#xb0;" 
d="M510 1391q121 0 206 -83t85 -200q0 -118 -84.5 -201.5t-204.5 -83.5q-122 0 -206.5 84t-84.5 205q0 114 85.5 196.5t203.5 82.5zM510 1296q-78 0 -135.5 -55t-57.5 -131q0 -81 56.5 -136.5t138.5 -55.5q79 0 136 56t57 134t-56.5 133t-138.5 55z" />
    <glyph glyph-name="plusminus" unicode="&#xb1;" horiz-adv-x="1091" 
d="M602 752h381v-107h-381v-383h-113v383h-380v107h380v395h113v-395zM109 170h874v-111h-874v111z" />
    <glyph glyph-name="twosuperior" unicode="&#xb2;" horiz-adv-x="718" 
d="M221 1432h-100q1 124 66 189t188 65q106 0 170.5 -55t64.5 -144q0 -54 -24.5 -100t-102.5 -142q-49 -64 -159 -196q-48 -60 -68 -82h367v-95h-506v80q13 13 139 172q125 152 169 210t59.5 88.5t15.5 64.5q0 48 -35.5 77t-95.5 29q-71 0 -107.5 -39t-40.5 -122z" />
    <glyph glyph-name="threesuperior" unicode="&#xb3;" horiz-adv-x="718" 
d="M209 1460h-96q5 110 68 169t177 59q107 0 173.5 -56t66.5 -147q0 -116 -115 -172q142 -56 142 -201q0 -109 -75.5 -176.5t-197.5 -67.5q-131 0 -200 64t-68 182h98q3 -153 166 -153q78 0 123 39.5t45 109.5q0 147 -190 147q-23 0 -41 -2v95l41 -2q75 0 118 35t43 96
q0 54 -35.5 85t-97.5 31q-66 0 -101 -32.5t-44 -102.5z" />
    <glyph glyph-name="acute" unicode="&#xb4;" 
d="M430 1120l213 281h205l-299 -281h-119z" />
    <glyph glyph-name="mu" unicode="&#xb5;" 
d="M98 -342v1325h144v-559q0 -109 17 -167t63 -101q75 -72 184 -72q127 0 203 98q40 53 56.5 111.5t16.5 150.5v539h144v-983h-144v178q-47 -106 -114.5 -155.5t-165.5 -49.5q-87 0 -148.5 36.5t-111.5 115.5v-467h-144z" />
    <glyph glyph-name="paragraph" unicode="&#xb6;" horiz-adv-x="1185" 
d="M449 -201v846q-69 0 -98 4t-72 19q-110 37 -173 125t-63 206q0 102 45 184t127 128q99 55 305 55h522v-117h-122v-1450h-129v1450h-213v-1450h-129z" />
    <glyph glyph-name="periodcentered" unicode="&#xb7;" horiz-adv-x="522" 
d="M262 631q48 0 82.5 -35t34.5 -84q0 -48 -35 -82.5t-84 -34.5q-47 0 -82 35t-35 82q0 51 34.5 85t84.5 34z" />
    <glyph glyph-name="cedilla" unicode="&#xb8;" 
d="M467 0h98l-55 -115q176 -21 176 -153q0 -75 -54 -122.5t-140 -47.5q-71 0 -154 35v77q5 -2 11 -3.5l10 -2.5t6 -2q50 -14 84 -14q51 0 79.5 25.5t28.5 68.5q0 50 -39 72t-127 22z" />
    <glyph glyph-name="onesuperior" unicode="&#xb9;" horiz-adv-x="718" 
d="M164 1485v71q83 1 123.5 29.5t54.5 93.5h78v-807h-107v613h-149z" />
    <glyph glyph-name="ordmasculine" unicode="&#xba;" 
d="M510 1382q120 0 196 -88.5t76 -226.5q0 -141 -75.5 -229t-198.5 -88q-117 0 -192.5 89.5t-75.5 227.5t76 226.5t194 88.5zM510 1296q-75 0 -121.5 -63.5t-46.5 -167.5q0 -101 46.5 -165t119.5 -64q78 0 125 62.5t47 168.5q0 103 -47 166t-123 63zM244 655h536v-80h-536
v80z" />
    <glyph glyph-name="guillemotright" unicode="&#xbb;" horiz-adv-x="780" 
d="M139 971h105l184 -477l-184 -494h-105l158 494zM403 971h107l184 -477l-184 -494h-107l158 494z" />
    <glyph glyph-name="onequarter" unicode="&#xbc;" horiz-adv-x="1689" 
d="M164 1145v72q84 2 124.5 29t53.5 91h78v-805h-107v613h-149zM1171 1331h125l-778 -1331h-125zM1481 281h145v-91h-143v-198h-109v198h-342v78l342 537h107v-524zM1378 281v378l-235 -378h235z" />
    <glyph glyph-name="onehalf" unicode="&#xbd;" horiz-adv-x="1689" 
d="M164 1145v72q84 2 124.5 29t53.5 91h78v-805h-107v613h-149zM1171 1331h125l-778 -1331h-125zM1194 557h-100q3 125 67 189.5t185 64.5q107 0 172 -55t65 -144q0 -53 -24 -98t-103 -143q-87 -111 -160 -195q-56 -70 -67 -82h366v-94h-505v80q11 14 26.5 32.5t38 46
t39.5 48.5q141 170 192.5 237t69 100.5t17.5 67.5q0 47 -37 77t-95 30q-71 0 -107 -39.5t-40 -122.5z" />
    <glyph glyph-name="threequarters" unicode="&#xbe;" horiz-adv-x="1689" 
d="M209 1120h-96q5 110 68 169t177 59q108 0 174 -56t66 -147q0 -121 -115 -174q142 -56 142 -199q0 -110 -75.5 -178t-197.5 -68q-130 0 -200 64.5t-68 183.5h98q3 -156 166 -156q78 0 123 40.5t45 109.5q0 147 -190 147h-41v95q36 -4 41 -4q75 0 118 35t43 98
q0 54 -35.5 85t-97.5 31q-66 0 -101 -32.5t-44 -102.5zM1171 1331h125l-780 -1331h-123zM1481 281h145v-91h-143v-198h-109v198h-344v78l344 537h107v-524zM1378 281v378l-235 -378h235z" />
    <glyph glyph-name="questiondown" unicode="&#xbf;" horiz-adv-x="843" 
d="M467 971q47 0 82 -35t35 -82q0 -51 -34.5 -85t-84.5 -34q-48 0 -82.5 35t-34.5 84q0 48 35 82.5t84 34.5zM395 561h142v-108q0 -72 -3 -108.5t-19.5 -75.5t-41.5 -68.5t-78 -83.5q-77 -79 -105 -127.5t-28 -102.5q0 -71 45 -112t123 -41q93 0 141.5 47.5t57.5 146.5h127
q-6 -160 -93 -244.5t-245 -84.5q-145 0 -229.5 77.5t-84.5 210.5q0 80 35.5 143t139.5 165q80 80 98 124t18 162v80z" />
    <glyph glyph-name="Agrave" unicode="&#xc0;" horiz-adv-x="1159" 
d="M514 1374h133l471 -1374h-160l-120 362h-514l-123 -362h-158zM795 496l-215 680l-215 -680h430zM690 1497h-149l-340 281h205z" />
    <glyph glyph-name="Aacute" unicode="&#xc1;" horiz-adv-x="1159" 
d="M512 1374h133l471 -1374h-160l-120 362h-514l-123 -362h-158zM793 496l-215 680l-216 -680h431zM467 1497l283 281h204l-340 -281h-147z" />
    <glyph glyph-name="Acircumflex" unicode="&#xc2;" horiz-adv-x="1159" 
d="M512 1374h133l471 -1374h-160l-120 362h-514l-123 -362h-158zM793 496l-215 680l-216 -680h431zM229 1503l267 269h163l267 -269h-142l-206 180l-207 -180h-142z" />
    <glyph glyph-name="Atilde" unicode="&#xc3;" horiz-adv-x="1159" 
d="M512 1374h133l471 -1374h-160l-120 362h-514l-123 -362h-158zM793 496l-215 680l-216 -680h431zM340 1520l-88 32q26 103 71 151t117 48q62 0 154 -53q65 -37 90 -47.5t49 -10.5q77 0 101 119l84 -33q-13 -97 -62 -150.5t-123 -53.5q-34 0 -66.5 12t-105.5 51
q-78 45 -121 45q-74 0 -100 -110z" />
    <glyph glyph-name="Adieresis" unicode="&#xc4;" horiz-adv-x="1159" 
d="M512 1374h133l471 -1374h-160l-120 362h-514l-123 -362h-158zM793 496l-215 680l-216 -680h431zM397 1753q47 0 81 -34.5t34 -80.5q0 -49 -33.5 -82.5t-81.5 -33.5q-49 0 -82.5 33t-33.5 81q0 50 33.5 83.5t82.5 33.5zM762 1753q47 0 81 -34.5t34 -80.5
q0 -49 -33.5 -82.5t-81.5 -33.5q-49 0 -83 33.5t-34 80.5q0 50 33.5 83.5t83.5 33.5z" />
    <glyph glyph-name="Aring" unicode="&#xc5;" horiz-adv-x="1159" 
d="M512 1374h133l471 -1374h-160l-120 362h-514l-123 -362h-158zM793 496l-215 680l-216 -680h431zM580 1843q76 0 131 -55.5t55 -132.5q0 -78 -55 -133.5t-133 -55.5t-133.5 55.5t-55.5 133.5t56 133t135 55zM580 1755q-43 0 -73 -29.5t-30 -70.5t30 -71t71 -30t70.5 30
t29.5 71t-29 70.5t-69 29.5z" />
    <glyph glyph-name="AE" unicode="&#xc6;" horiz-adv-x="1744" 
d="M825 1366h828v-133h-590v-459h541v-133h-541v-508h594v-133h-752v362h-487l-205 -362h-170zM905 496v735l-411 -735h411z" />
    <glyph glyph-name="Ccedilla" unicode="&#xc7;" horiz-adv-x="1230" 
d="M686 -25l-45 -110q95 -11 145 -55t50 -119q0 -83 -60 -135t-155 -52q-67 0 -164 37v86q50 -17 69 -21.5t45 -4.5q55 0 88 28.5t33 75.5q0 100 -149 100h-31l72 179q-229 40 -354.5 222t-125.5 476q0 322 153.5 515.5t408.5 193.5q192 0 310 -105t144 -299h-143
q-58 268 -311 268q-184 0 -291 -154.5t-107 -420.5q0 -262 107.5 -415.5t290.5 -153.5q144 0 229 90.5t104 261.5h144q-15 -227 -136 -355t-321 -133z" />
    <glyph glyph-name="Egrave" unicode="&#xc8;" horiz-adv-x="1028" 
d="M319 774h553v-133h-553v-508h611v-133h-764v1366h749v-133h-596v-459zM684 1497h-149l-340 281h204z" />
    <glyph glyph-name="Eacute" unicode="&#xc9;" horiz-adv-x="1028" 
d="M330 774h553v-133h-553v-508h610v-133h-764v1366h750v-133h-596v-459zM410 1497l282 281h205l-340 -281h-147z" />
    <glyph glyph-name="Ecircumflex" unicode="&#xca;" horiz-adv-x="1028" 
d="M330 774h553v-133h-553v-508h610v-133h-764v1366h750v-133h-596v-459zM209 1503l266 269h164l266 -269h-141l-207 180l-207 -180h-141z" />
    <glyph glyph-name="Edieresis" unicode="&#xcb;" horiz-adv-x="1028" 
d="M330 774h553v-133h-553v-508h610v-133h-764v1366h750v-133h-596v-459zM375 1753q47 0 80.5 -34.5t33.5 -80.5q0 -49 -33 -82.5t-81 -33.5q-49 0 -83 33.5t-34 80.5q0 50 34 83.5t83 33.5zM739 1753q47 0 81 -34.5t34 -80.5q0 -49 -33.5 -82.5t-81.5 -33.5q-49 0 -82.5 33
t-33.5 81q0 50 33.5 83.5t82.5 33.5z" />
    <glyph glyph-name="Igrave" unicode="&#xcc;" horiz-adv-x="503" 
d="M332 0h-158v1366h158v-1366zM358 1497h-135l-284 281h192z" />
    <glyph glyph-name="Iacute" unicode="&#xcd;" horiz-adv-x="503" 
d="M332 0h-158v1366h158v-1366zM145 1497l230 281h190l-284 -281h-136z" />
    <glyph glyph-name="Icircumflex" unicode="&#xce;" horiz-adv-x="503" 
d="M332 0h-158v1366h158v-1366zM-47 1503l217 269h166l217 -269h-135l-164 180l-166 -180h-135z" />
    <glyph glyph-name="Idieresis" unicode="&#xcf;" horiz-adv-x="503" 
d="M330 0h-158v1366h158v-1366zM106 1749q44 0 77.5 -33.5t33.5 -79.5t-33.5 -79t-79.5 -33t-79 33t-33 79q0 48 32.5 80.5t81.5 32.5zM399 1749q44 0 77.5 -33.5t33.5 -79.5t-33.5 -79t-79.5 -33t-79 33t-33 79q0 47 33.5 80t80.5 33z" />
    <glyph glyph-name="Eth" unicode="&#xd0;" horiz-adv-x="1282" 
d="M174 1366h215q198 0 296 -16t181 -62q143 -78 226.5 -240.5t83.5 -363.5q0 -209 -84.5 -370.5t-235.5 -239.5q-87 -45 -181.5 -59.5t-301.5 -14.5h-199v649h-119v129h119v588zM328 133h98q161 0 231.5 13.5t141.5 56.5q103 63 159 188t56 293q0 175 -62 304t-176 190
q-67 35 -137 45t-250 10h-61v-455h323v-129h-323v-516z" />
    <glyph glyph-name="Ntilde" unicode="&#xd1;" horiz-adv-x="1316" 
d="M176 1366h166l655 -1137v1137h144v-1366h-168l-651 1135v-1135h-146v1366zM428 1520l-88 32q26 103 71 151t117 48q62 0 154 -53q65 -37 90 -47.5t49 -10.5q77 0 101 119l84 -33q-13 -97 -62 -150.5t-123 -53.5q-34 0 -66.5 12t-105.5 51q-78 45 -121 45q-74 0 -100 -110
z" />
    <glyph glyph-name="Ograve" unicode="&#xd2;" horiz-adv-x="1323" 
d="M662 1391q247 0 401 -196t154 -511t-154 -511t-401 -196q-252 0 -405 196.5t-153 520.5q0 202 70.5 361t198 247.5t289.5 88.5zM662 1255q-177 0 -285.5 -155t-108.5 -408q0 -265 107 -422t287 -157q177 0 284 156.5t107 414.5t-107 414.5t-284 156.5zM807 1497h-150
l-340 281h205z" />
    <glyph glyph-name="Oacute" unicode="&#xd3;" horiz-adv-x="1323" 
d="M662 1391q247 0 401 -196t154 -511t-154 -511t-401 -196q-252 0 -405 196.5t-153 520.5q0 202 70.5 361t198 247.5t289.5 88.5zM662 1255q-177 0 -285.5 -155t-108.5 -408q0 -265 107 -422t287 -157q177 0 284 156.5t107 414.5t-107 414.5t-284 156.5zM506 1497l282 281
h205l-340 -281h-147z" />
    <glyph glyph-name="Ocircumflex" unicode="&#xd4;" horiz-adv-x="1323" 
d="M662 1391q247 0 401 -196t154 -511t-154 -511t-401 -196q-252 0 -405 196.5t-153 520.5q0 202 70.5 361t198 247.5t289.5 88.5zM662 1255q-177 0 -285.5 -155t-108.5 -408q0 -265 107 -422t287 -157q177 0 284 156.5t107 414.5t-107 414.5t-284 156.5zM313 1503l267 269
h163l267 -269h-142l-206 180l-207 -180h-142z" />
    <glyph glyph-name="Otilde" unicode="&#xd5;" horiz-adv-x="1323" 
d="M662 1391q247 0 401 -196t154 -511t-154 -511t-401 -196q-252 0 -405 196.5t-153 520.5q0 202 70.5 361t198 247.5t289.5 88.5zM662 1255q-177 0 -285.5 -155t-108.5 -408q0 -265 107 -422t287 -157q177 0 284 156.5t107 414.5t-107 414.5t-284 156.5zM422 1520l-88 32
q26 103 71 151t117 48q62 0 154 -53q65 -37 90 -47.5t49 -10.5q76 0 100 119l84 -33q-13 -97 -61.5 -150.5t-122.5 -53.5q-34 0 -66.5 12t-105.5 51q-78 45 -121 45q-74 0 -100 -110z" />
    <glyph glyph-name="Odieresis" unicode="&#xd6;" horiz-adv-x="1323" 
d="M662 1391q247 0 401 -196t154 -511t-154 -511t-401 -196q-252 0 -405 196.5t-153 520.5q0 202 70.5 361t198 247.5t289.5 88.5zM662 1255q-177 0 -285.5 -155t-108.5 -408q0 -265 107 -422t287 -157q177 0 284 156.5t107 414.5t-107 414.5t-284 156.5zM479 1753
q47 0 81 -34.5t34 -80.5q0 -49 -33.5 -82.5t-81.5 -33.5q-49 0 -83 33.5t-34 80.5q0 50 34 83.5t83 33.5zM844 1753q47 0 80.5 -34.5t33.5 -80.5q0 -49 -33 -82.5t-81 -33.5q-49 0 -83 33.5t-34 80.5q0 50 33.5 83.5t83.5 33.5z" />
    <glyph glyph-name="multiply" unicode="&#xd7;" horiz-adv-x="1091" 
d="M623 688l292 -295l-77 -78l-293 293l-293 -293l-78 76l295 295l-293 293l78 78l293 -293l293 293l75 -78z" />
    <glyph glyph-name="Oslash" unicode="&#xd8;" horiz-adv-x="1323" 
d="M1001 1260l80 106h127l-133 -186q142 -207 142 -508q0 -309 -155.5 -502t-404.5 -193q-98 0 -172 29.5t-170 104.5l-77 -111h-125l131 188q-79 134 -109.5 242.5t-30.5 253.5q0 364 201 559q72 71 166 109.5t195 38.5q94 0 165.5 -28t169.5 -103zM344 319l569 822
q-99 116 -258 116q-167 0 -264 -135q-123 -174 -123 -434q0 -204 76 -369zM975 1047l-569 -820q63 -63 118.5 -88.5t128.5 -25.5q181 0 290.5 155t109.5 412q0 223 -78 367z" />
    <glyph glyph-name="Ugrave" unicode="&#xd9;" horiz-adv-x="1280" 
d="M158 1366h153v-805q0 -150 8.5 -209.5t34.5 -105.5q37 -62 113.5 -97.5t173.5 -35.5q106 0 185.5 42t111.5 117q19 41 25 97.5t6 191.5v805h153v-807q0 -164 -5 -218.5t-27 -109.5q-50 -120 -168 -187t-281 -67q-164 0 -282.5 67t-168.5 187q-22 55 -27 109.5t-5 218.5
v807zM786 1497h-149l-340 281h205z" />
    <glyph glyph-name="Uacute" unicode="&#xda;" horiz-adv-x="1280" 
d="M158 1366h153v-805q0 -150 8.5 -209.5t34.5 -105.5q37 -62 113.5 -97.5t173.5 -35.5q106 0 185.5 42t111.5 117q19 41 25 97.5t6 191.5v805h153v-807q0 -164 -5 -218.5t-27 -109.5q-50 -120 -168 -187t-281 -67q-164 0 -282.5 67t-168.5 187q-22 55 -27 109.5t-5 218.5
v807zM492 1497l282 281h205l-340 -281h-147z" />
    <glyph glyph-name="Ucircumflex" unicode="&#xdb;" horiz-adv-x="1280" 
d="M158 1366h153v-805q0 -150 8.5 -209.5t34.5 -105.5q37 -62 113.5 -97.5t173.5 -35.5q106 0 185.5 42t111.5 117q19 41 25 97.5t6 191.5v805h153v-807q0 -164 -5 -218.5t-27 -109.5q-50 -120 -168 -187t-281 -67q-164 0 -282.5 67t-168.5 187q-22 55 -27 109.5t-5 218.5
v807zM293 1503l266 269h164l266 -269h-141l-207 180l-207 -180h-141z" />
    <glyph glyph-name="Udieresis" unicode="&#xdc;" horiz-adv-x="1280" 
d="M158 1366h153v-805q0 -150 8.5 -209.5t34.5 -105.5q37 -62 113.5 -97.5t173.5 -35.5q106 0 185.5 42t111.5 117q19 41 25 97.5t6 191.5v805h153v-807q0 -164 -5 -218.5t-27 -109.5q-50 -120 -168 -187t-281 -67q-164 0 -282.5 67t-168.5 187q-22 55 -27 109.5t-5 218.5
v807zM459 1753q47 0 80.5 -34.5t33.5 -80.5q0 -49 -33 -82.5t-81 -33.5q-49 0 -83 33.5t-34 80.5q0 50 34 83.5t83 33.5zM823 1753q47 0 81 -34.5t34 -80.5q0 -49 -33.5 -82.5t-81.5 -33.5q-49 0 -82.5 33t-33.5 81q0 50 33.5 83.5t82.5 33.5z" />
    <glyph glyph-name="Yacute" unicode="&#xdd;" horiz-adv-x="1048" 
d="M25 1366h176l327 -639l322 639h176l-426 -793l2 -573h-153l2 573zM383 1497l283 281h204l-340 -281h-147z" />
    <glyph glyph-name="Thorn" unicode="&#xde;" horiz-adv-x="1077" 
d="M176 1366h154v-160h71q156 0 235 -7.5t142 -29.5q112 -37 177 -137t65 -235q0 -126 -56.5 -220t-156.5 -135q-65 -26 -142.5 -35.5t-234.5 -9.5h-100v-397h-154v1366zM330 530h96q168 0 254 19q86 20 132 84.5t46 163.5q0 89 -36.5 153t-102.5 90q-49 20 -109.5 26.5
t-199.5 6.5h-80v-543z" />
    <glyph glyph-name="germandbls" unicode="&#xdf;" horiz-adv-x="1036" 
d="M139 0v870q0 167 9 233t38 120q41 75 123.5 116t188.5 41q156 0 254 -90t98 -233q0 -215 -232 -285q160 -31 242 -128t82 -257q0 -174 -99 -287.5t-251 -113.5q-74 0 -152 34v132q70 -37 144 -37q95 0 153 75t58 197q0 155 -102 237.5t-294 84.5v122q16 -2 41 -2
q125 0 195 57.5t70 160.5q0 97 -56.5 153.5t-152.5 56.5q-70 0 -118.5 -28t-68.5 -82q-17 -43 -21.5 -88.5t-4.5 -179.5v-879h-144z" />
    <glyph glyph-name="agrave" unicode="&#xe0;" horiz-adv-x="974" 
d="M270 717h-141q15 136 108.5 208t254.5 72q119 0 201 -42t110 -117q13 -36 17.5 -80.5t4.5 -136.5v-365q0 -117 4.5 -160.5t22.5 -95.5h-137q-15 49 -23 131q-86 -156 -284 -156q-142 0 -228 76.5t-86 204.5q0 101 57.5 175.5t167.5 115.5q116 43 365 86v41q0 108 -46 154
t-153 46q-95 0 -147.5 -38t-67.5 -119zM684 430v96q-245 -43 -343.5 -101.5t-98.5 -158.5q0 -75 52 -122.5t136 -47.5q69 0 126 30.5t89 84.5q39 68 39 219zM616 1120h-120l-297 281h204z" />
    <glyph glyph-name="aacute" unicode="&#xe1;" horiz-adv-x="974" 
d="M270 717h-141q15 136 108.5 208t254.5 72q119 0 201 -42t110 -117q13 -36 17.5 -80.5t4.5 -136.5v-365q0 -117 4.5 -160.5t22.5 -95.5h-137q-15 49 -23 131q-86 -156 -284 -156q-142 0 -228 76.5t-86 204.5q0 101 57.5 175.5t167.5 115.5q116 43 365 86v41q0 108 -46 154
t-153 46q-95 0 -147.5 -38t-67.5 -119zM684 430v96q-245 -43 -343.5 -101.5t-98.5 -158.5q0 -75 52 -122.5t136 -47.5q69 0 126 30.5t89 84.5q39 68 39 219zM371 1120l213 281h204l-299 -281h-118z" />
    <glyph glyph-name="acircumflex" unicode="&#xe2;" horiz-adv-x="974" 
d="M270 717h-141q15 136 108.5 208t254.5 72q119 0 201 -42t110 -117q13 -36 17.5 -80.5t4.5 -136.5v-365q0 -117 4.5 -160.5t22.5 -95.5h-137q-15 49 -23 131q-86 -156 -284 -156q-142 0 -228 76.5t-86 204.5q0 101 57.5 175.5t167.5 115.5q116 43 365 86v41q0 108 -46 154
t-153 46q-95 0 -147.5 -38t-67.5 -119zM684 430v96q-245 -43 -343.5 -101.5t-98.5 -158.5q0 -75 52 -122.5t136 -47.5q69 0 126 30.5t89 84.5q39 68 39 219zM178 1126l232 287h163l234 -287h-139l-176 193l-175 -193h-139z" />
    <glyph glyph-name="atilde" unicode="&#xe3;" horiz-adv-x="974" 
d="M270 717h-141q15 136 108.5 208t254.5 72q119 0 201 -42t110 -117q13 -36 17.5 -80.5t4.5 -136.5v-365q0 -117 4.5 -160.5t22.5 -95.5h-137q-15 49 -23 131q-86 -156 -284 -156q-142 0 -228 76.5t-86 204.5q0 101 57.5 175.5t167.5 115.5q116 43 365 86v41q0 108 -46 154
t-153 46q-95 0 -147.5 -38t-67.5 -119zM684 430v96q-245 -43 -343.5 -101.5t-98.5 -158.5q0 -75 52 -122.5t136 -47.5q69 0 126 30.5t89 84.5q39 68 39 219zM270 1145l-84 20q43 213 174 213q61 0 138 -53q53 -34 78.5 -45.5t48.5 -11.5q66 0 90 118l84 -20
q-13 -101 -59 -160t-111 -59q-58 0 -150 57q-53 33 -76 43t-45 10q-65 0 -88 -112z" />
    <glyph glyph-name="adieresis" unicode="&#xe4;" horiz-adv-x="974" 
d="M270 717h-141q15 136 108.5 208t254.5 72q119 0 201 -42t110 -117q13 -36 17.5 -80.5t4.5 -136.5v-365q0 -117 4.5 -160.5t22.5 -95.5h-137q-15 49 -23 131q-86 -156 -284 -156q-142 0 -228 76.5t-86 204.5q0 101 57.5 175.5t167.5 115.5q116 43 365 86v41q0 108 -46 154
t-153 46q-95 0 -147.5 -38t-67.5 -119zM684 430v96q-245 -43 -343.5 -101.5t-98.5 -158.5q0 -75 52 -122.5t136 -47.5q69 0 126 30.5t89 84.5q39 68 39 219zM322 1376q44 0 75 -31.5t31 -74.5q0 -46 -31 -77.5t-75 -31.5t-76.5 32t-32.5 75q0 46 31.5 77t77.5 31zM670 1376
q44 0 75 -31.5t31 -74.5q0 -46 -31 -77.5t-75 -31.5t-76.5 32t-32.5 75q0 46 31.5 77t77.5 31z" />
    <glyph glyph-name="aring" unicode="&#xe5;" horiz-adv-x="974" 
d="M270 717h-141q15 136 108.5 208t254.5 72q119 0 201 -42t110 -117q13 -36 17.5 -80.5t4.5 -136.5v-365q0 -117 4.5 -160.5t22.5 -95.5h-137q-15 49 -23 131q-86 -156 -284 -156q-142 0 -228 76.5t-86 204.5q0 101 57.5 175.5t167.5 115.5q116 43 365 86v41q0 108 -46 154
t-153 46q-95 0 -147.5 -38t-67.5 -119zM684 430v96q-245 -43 -343.5 -101.5t-98.5 -158.5q0 -75 52 -122.5t136 -47.5q69 0 126 30.5t89 84.5q39 68 39 219zM498 1470q76 0 131 -55.5t55 -132.5q0 -79 -55 -134.5t-133 -55.5t-133.5 55.5t-55.5 132.5q0 79 55.5 134.5
t135.5 55.5zM498 1382q-43 0 -73 -29.5t-30 -70.5q0 -42 29.5 -72t71.5 -30q41 0 70.5 29.5t29.5 72.5q0 41 -29 70.5t-69 29.5z" />
    <glyph glyph-name="ae" unicode="&#xe6;" horiz-adv-x="1579" 
d="M1487 465h-666q3 -177 78 -272t213 -95q152 0 225 148l133 -17q-31 -117 -127.5 -185.5t-230.5 -68.5q-121 0 -214 54.5t-146 156.5q-56 -108 -139 -159.5t-201 -51.5q-140 0 -228 74.5t-88 192.5q0 160 151.5 248t426.5 88v61q0 128 -31 172q-45 63 -156 63
q-177 0 -223 -169h-137q20 139 115.5 215.5t249.5 76.5q238 0 299 -168q60 88 132 128t171 40q106 0 190.5 -51t134.5 -143q36 -69 51.5 -143t16.5 -195zM827 578h502q-9 144 -71 221.5t-168 77.5q-103 0 -173 -79t-90 -220zM674 465h-27h-18q-180 -1 -282.5 -59
t-102.5 -158q0 -68 50 -110t132 -42q68 0 123.5 30t85.5 85q39 62 39 188v66z" />
    <glyph glyph-name="ccedilla" unicode="&#xe7;" horiz-adv-x="952" 
d="M510 -27l-43 -88q176 -21 176 -153q0 -75 -54 -122.5t-140 -47.5q-71 0 -154 35v77q5 -2 11 -3.5l10 -2.5t6 -2q50 -14 84 -14q49 0 78.5 25.5t29.5 68.5q0 50 -39 72t-127 22l68 144q-65 17 -105 38.5t-78 59.5q-141 141 -141 401q0 235 111.5 374.5t300.5 139.5
q154 0 243.5 -88t104.5 -254h-143q-19 118 -67 168.5t-142 50.5q-122 0 -191 -104t-69 -287q0 -182 70 -284.5t194 -102.5q97 0 149 57.5t64 180.5h143q-11 -169 -102 -263.5t-248 -97.5z" />
    <glyph glyph-name="egrave" unicode="&#xe8;" horiz-adv-x="995" 
d="M901 461h-661q4 -177 76 -270t204 -93q80 0 132 34.5t93 113.5l134 -17q-89 -254 -361 -254q-195 0 -310.5 135.5t-115.5 364.5q0 237 114 379.5t304 142.5q180 0 286.5 -134.5t106.5 -360.5q0 -23 -2 -41zM244 573h510q-12 147 -76.5 225.5t-173.5 78.5
q-106 0 -172 -77.5t-88 -226.5zM635 1120h-121l-297 281h205z" />
    <glyph glyph-name="eacute" unicode="&#xe9;" horiz-adv-x="995" 
d="M901 461h-661q4 -177 76 -270t204 -93q80 0 132 34.5t93 113.5l134 -17q-89 -254 -361 -254q-195 0 -310.5 135.5t-115.5 364.5q0 237 114 379.5t304 142.5q180 0 286.5 -134.5t106.5 -360.5q0 -23 -2 -41zM244 573h510q-12 147 -76.5 225.5t-173.5 78.5
q-106 0 -172 -77.5t-88 -226.5zM389 1120l213 281h205l-299 -281h-119z" />
    <glyph glyph-name="ecircumflex" unicode="&#xea;" horiz-adv-x="995" 
d="M901 461h-661q4 -177 76 -270t204 -93q80 0 132 34.5t93 113.5l134 -17q-89 -254 -361 -254q-195 0 -310.5 135.5t-115.5 364.5q0 237 114 379.5t304 142.5q180 0 286.5 -134.5t106.5 -360.5q0 -23 -2 -41zM244 573h510q-12 147 -76.5 225.5t-173.5 78.5
q-106 0 -172 -77.5t-88 -226.5zM195 1126l231 287h164l233 -287h-139l-176 193l-174 -193h-139z" />
    <glyph glyph-name="edieresis" unicode="&#xeb;" horiz-adv-x="995" 
d="M901 461h-661q4 -177 76 -270t204 -93q80 0 132 34.5t93 113.5l134 -17q-89 -254 -361 -254q-195 0 -310.5 135.5t-115.5 364.5q0 237 114 379.5t304 142.5q180 0 286.5 -134.5t106.5 -360.5q0 -23 -2 -41zM244 573h510q-12 147 -76.5 225.5t-173.5 78.5
q-106 0 -172 -77.5t-88 -226.5zM338 1376q44 0 75 -31.5t31 -74.5q0 -46 -31 -77.5t-75 -31.5t-76.5 32t-32.5 75q0 46 31.5 77t77.5 31zM686 1376q44 0 75.5 -31.5t31.5 -74.5q0 -46 -31.5 -77.5t-75.5 -31.5t-76 32t-32 75q0 46 31 77t77 31z" />
    <glyph glyph-name="igrave" unicode="&#xec;" horiz-adv-x="452" 
d="M150 971h151v-971h-151v971zM324 1120h-113l-244 281h193z" />
    <glyph glyph-name="iacute" unicode="&#xed;" horiz-adv-x="452" 
d="M150 971h151v-971h-151v971zM129 1120l164 281h192l-243 -281h-113z" />
    <glyph glyph-name="icircumflex" unicode="&#xee;" horiz-adv-x="452" 
d="M150 971h151v-971h-151v971zM-41 1126l184 287h164l185 -287h-132l-135 193l-133 -193h-133z" />
    <glyph glyph-name="idieresis" unicode="&#xef;" horiz-adv-x="450" 
d="M150 971h151v-971h-151v971zM84 1376q44 0 75 -31.5t31 -74.5q0 -46 -31 -77.5t-75 -31.5t-76.5 32t-32.5 75q0 46 31.5 77t77.5 31zM369 1376q44 0 75 -31.5t31 -74.5q0 -46 -31 -77.5t-75 -31.5t-76.5 32t-32.5 75q0 46 31.5 77t77.5 31z" />
    <glyph glyph-name="eth" unicode="&#xf0;" horiz-adv-x="1032" 
d="M532 1274l142 78l61 -74l-143 -82q96 -107 180 -225q94 -131 131 -234.5t37 -236.5q0 -237 -115 -381t-305 -144q-191 0 -309.5 141.5t-118.5 368.5q0 224 113 366t293 142q39 0 59.5 -6.5t54.5 -28.5l-127 177l-139 -80l-61 78l149 86l-88 112l76 62zM526 874
q-132 0 -209 -104.5t-77 -284.5q0 -173 77 -280t201 -107q122 0 198.5 107.5t76.5 279.5q0 173 -74 281t-193 108z" />
    <glyph glyph-name="ntilde" unicode="&#xf1;" horiz-adv-x="1032" 
d="M125 971h137q21 -62 21 -142q98 168 292 168q99 0 173 -41.5t106 -115.5q21 -48 26 -94t5 -189v-557h-144v549q0 107 -4.5 148.5t-19.5 76.5q-46 96 -170 96q-65 0 -120 -30t-89 -84q-47 -73 -47 -213v-543h-144v641q0 180 -2.5 222.5t-19.5 107.5zM274 1145l-84 20
q43 213 175 213q60 0 137 -53q53 -34 78.5 -45.5t48.5 -11.5q66 0 90 118l84 -20q-13 -101 -59 -160t-111 -59q-58 0 -150 57q-53 33 -76 43t-45 10q-65 0 -88 -112z" />
    <glyph glyph-name="ograve" unicode="&#xf2;" horiz-adv-x="1032" 
d="M516 997q188 0 306 -142.5t118 -369.5q0 -225 -118.5 -367.5t-305.5 -142.5q-189 0 -306.5 143.5t-117.5 375.5q0 220 119 361.5t305 141.5zM516 874q-123 0 -199.5 -106t-76.5 -276q0 -179 75 -286.5t201 -107.5q124 0 200.5 107t76.5 282q0 173 -76.5 280t-200.5 107z
M639 1120h-121l-297 281h205z" />
    <glyph glyph-name="oacute" unicode="&#xf3;" horiz-adv-x="1032" 
d="M516 997q188 0 306 -142.5t118 -369.5q0 -225 -118.5 -367.5t-305.5 -142.5q-189 0 -306.5 143.5t-117.5 375.5q0 220 119 361.5t305 141.5zM516 874q-123 0 -199.5 -106t-76.5 -276q0 -179 75 -286.5t201 -107.5q124 0 200.5 107t76.5 282q0 173 -76.5 280t-200.5 107z
M399 1120l213 281h205l-299 -281h-119z" />
    <glyph glyph-name="ocircumflex" unicode="&#xf4;" horiz-adv-x="1032" 
d="M516 997q188 0 306 -142.5t118 -369.5q0 -225 -118.5 -367.5t-305.5 -142.5q-189 0 -306.5 143.5t-117.5 375.5q0 220 119 361.5t305 141.5zM516 874q-123 0 -199.5 -106t-76.5 -276q0 -179 75 -286.5t201 -107.5q124 0 200.5 107t76.5 282q0 173 -76.5 280t-200.5 107z
M203 1126l231 287h164l233 -287h-139l-176 193l-174 -193h-139z" />
    <glyph glyph-name="otilde" unicode="&#xf5;" horiz-adv-x="1032" 
d="M516 997q188 0 306 -142.5t118 -369.5q0 -225 -118.5 -367.5t-305.5 -142.5q-189 0 -306.5 143.5t-117.5 375.5q0 220 119 361.5t305 141.5zM516 874q-123 0 -199.5 -106t-76.5 -276q0 -179 75 -286.5t201 -107.5q124 0 200.5 107t76.5 282q0 173 -76.5 280t-200.5 107z
M309 1145l-84 20q43 213 174 213q61 0 138 -53q53 -34 78.5 -45.5t48.5 -11.5q66 0 90 118l84 -20q-13 -101 -59 -160t-111 -59q-58 0 -150 57q-53 33 -76 43t-45 10q-65 0 -88 -112z" />
    <glyph glyph-name="odieresis" unicode="&#xf6;" horiz-adv-x="1032" 
d="M516 997q188 0 306 -142.5t118 -369.5q0 -225 -118.5 -367.5t-305.5 -142.5q-189 0 -306.5 143.5t-117.5 375.5q0 220 119 361.5t305 141.5zM516 874q-123 0 -199.5 -106t-76.5 -276q0 -179 75 -286.5t201 -107.5q124 0 200.5 107t76.5 282q0 173 -76.5 280t-200.5 107z
M342 1376q44 0 75.5 -31.5t31.5 -74.5q0 -46 -31.5 -77.5t-75.5 -31.5t-76.5 32t-32.5 75q0 46 31.5 77t77.5 31zM690 1376q44 0 75.5 -31.5t31.5 -74.5q0 -46 -31.5 -77.5t-75.5 -31.5t-76 32t-32 75q0 46 31 77t77 31z" />
    <glyph glyph-name="divide" unicode="&#xf7;" horiz-adv-x="1091" 
d="M547 498q40 0 69 -30t29 -71q0 -40 -29.5 -69t-70.5 -29q-40 0 -69.5 29t-29.5 69q0 41 30 71t71 30zM547 1067q40 0 69 -29.5t29 -70.5q0 -40 -29.5 -69.5t-70.5 -29.5q-40 0 -69.5 29.5t-29.5 69.5q0 41 30 70.5t71 29.5zM109 741h874v-110h-874v110z" />
    <glyph glyph-name="oslash" unicode="&#xf8;" horiz-adv-x="1032" 
d="M55 0l123 154q-86 137 -86 323q0 229 119.5 375.5t306.5 146.5q82 0 142 -23.5t133 -84.5l69 80h115l-123 -152l10 -18q43 -82 59.5 -148t16.5 -159q0 -229 -119.5 -374t-308.5 -145q-76 0 -150 28.5t-118 74.5l-70 -78h-119zM279 268l426 520q-46 48 -88.5 68.5
t-96.5 20.5q-125 0 -202.5 -112t-77.5 -292q0 -108 39 -205zM756 700l-424 -520q26 -35 77 -58.5t103 -23.5q126 0 203.5 110.5t77.5 289.5q0 112 -37 202z" />
    <glyph glyph-name="ugrave" unicode="&#xf9;" horiz-adv-x="1017" 
d="M145 971h144v-594q0 -142 33 -195q53 -78 165 -78q129 0 197 109q41 69 41 207v551h143v-676q0 -161 3 -201.5t20 -93.5h-141q-18 56 -21 129q-43 -82 -103.5 -118t-154.5 -36q-93 0 -168 39.5t-115 108.5q-25 41 -34 96t-9 158v594zM633 1120h-121l-297 281h205z" />
    <glyph glyph-name="uacute" unicode="&#xfa;" horiz-adv-x="1017" 
d="M145 971h144v-594q0 -142 33 -195q53 -78 165 -78q129 0 197 109q41 69 41 207v551h143v-676q0 -161 3 -201.5t20 -93.5h-141q-18 56 -21 129q-43 -82 -103.5 -118t-154.5 -36q-93 0 -168 39.5t-115 108.5q-25 41 -34 96t-9 158v594zM377 1120l213 281h205l-299 -281
h-119z" />
    <glyph glyph-name="ucircumflex" unicode="&#xfb;" horiz-adv-x="1017" 
d="M145 971h144v-594q0 -142 33 -195q53 -78 165 -78q129 0 197 109q41 69 41 207v551h143v-676q0 -161 3 -201.5t20 -93.5h-141q-18 56 -21 129q-43 -82 -103.5 -118t-154.5 -36q-93 0 -168 39.5t-115 108.5q-25 41 -34 96t-9 158v594zM195 1126l231 287h164l233 -287h-139
l-176 193l-174 -193h-139z" />
    <glyph glyph-name="udieresis" unicode="&#xfc;" horiz-adv-x="1017" 
d="M145 971h144v-594q0 -142 33 -195q53 -78 165 -78q129 0 197 109q41 69 41 207v551h143v-676q0 -161 3 -201.5t20 -93.5h-141q-18 56 -21 129q-43 -82 -103.5 -118t-154.5 -36q-93 0 -168 39.5t-115 108.5q-25 41 -34 96t-9 158v594zM334 1376q44 0 75 -31.5t31 -74.5
q0 -46 -31 -77.5t-75 -31.5t-76.5 32t-32.5 75q0 46 31.5 77t77.5 31zM682 1376q44 0 75 -31.5t31 -74.5q0 -46 -31 -77.5t-75 -31.5t-76.5 32t-32.5 75q0 46 31.5 77t77.5 31z" />
    <glyph glyph-name="yacute" unicode="&#xfd;" horiz-adv-x="897" 
d="M33 971h153l265 -809l272 809h149l-319 -903q-66 -190 -94.5 -250.5t-75.5 -112.5q-109 -115 -283 -115q-27 0 -45 2v127q138 -2 198 49.5t118 221.5zM328 1120l213 281h204l-299 -281h-118z" />
    <glyph glyph-name="thorn" unicode="&#xfe;" horiz-adv-x="1040" 
d="M152 -403v1775h143v-545q53 91 115.5 130.5t154.5 39.5q173 0 279 -141t106 -373q0 -229 -103 -368.5t-272 -139.5q-92 0 -159 38.5t-121 121.5v-538h-143zM553 872q-118 0 -189 -106t-71 -283q0 -170 72.5 -276.5t189.5 -106.5t182.5 101t65.5 280t-67.5 285t-182.5 106
z" />
    <glyph glyph-name="ydieresis" unicode="&#xff;" horiz-adv-x="897" 
d="M33 971h153l265 -809l272 809h149l-319 -903q-66 -190 -94.5 -250.5t-75.5 -112.5q-109 -115 -283 -115q-27 0 -45 2v127q138 -2 198 49.5t118 221.5zM279 1376q44 0 75 -31.5t31 -74.5q0 -46 -31 -77.5t-75 -31.5t-76.5 32t-32.5 75q0 46 31.5 77t77.5 31zM627 1376
q44 0 75 -31.5t31 -74.5q0 -46 -31 -77.5t-75 -31.5t-76.5 32t-32.5 75q0 46 31.5 77t77.5 31z" />
    <glyph glyph-name="Amacron" unicode="&#x100;" horiz-adv-x="1159" 
d="M512 1374h133l471 -1374h-160l-120 362h-514l-123 -362h-158zM793 496l-215 680l-216 -680h431zM283 1692h589v-107h-589v107z" />
    <glyph glyph-name="amacron" unicode="&#x101;" horiz-adv-x="974" 
d="M270 717h-141q15 136 108.5 208t254.5 72q119 0 201 -42t110 -117q13 -36 17.5 -80.5t4.5 -136.5v-365q0 -117 4.5 -160.5t22.5 -95.5h-137q-15 49 -23 131q-86 -156 -284 -156q-142 0 -228 76.5t-86 204.5q0 101 57.5 175.5t167.5 115.5q116 43 365 86v41q0 108 -46 154
t-153 46q-95 0 -147.5 -38t-67.5 -119zM684 430v96q-245 -43 -343.5 -101.5t-98.5 -158.5q0 -75 52 -122.5t136 -47.5q69 0 126 30.5t89 84.5q39 68 39 219zM213 1319h559v-109h-559v109z" />
    <glyph glyph-name="Abreve" unicode="&#x102;" horiz-adv-x="1159" 
d="M512 1374h133l471 -1374h-160l-120 362h-514l-123 -362h-158zM793 496l-215 680l-216 -680h431zM299 1774h82q23 -75 75.5 -116.5t123.5 -41.5q69 0 120 41.5t74 116.5h82q-14 -125 -89 -199t-187 -74q-114 0 -190.5 75t-90.5 198z" />
    <glyph glyph-name="abreve" unicode="&#x103;" horiz-adv-x="974" 
d="M270 717h-141q15 136 108.5 208t254.5 72q119 0 201 -42t110 -117q13 -36 17.5 -80.5t4.5 -136.5v-365q0 -117 4.5 -160.5t22.5 -95.5h-137q-15 49 -23 131q-86 -156 -284 -156q-142 0 -228 76.5t-86 204.5q0 101 57.5 175.5t167.5 115.5q116 43 365 86v41q0 108 -46 154
t-153 46q-95 0 -147.5 -38t-67.5 -119zM684 430v96q-245 -43 -343.5 -101.5t-98.5 -158.5q0 -75 52 -122.5t136 -47.5q69 0 126 30.5t89 84.5q39 68 39 219zM238 1397h84q20 -75 65 -117.5t105 -42.5q120 0 165 160h84q-12 -128 -78.5 -202.5t-168.5 -74.5
q-103 0 -173.5 75.5t-82.5 201.5z" />
    <glyph glyph-name="Aogonek" unicode="&#x104;" horiz-adv-x="1159" 
d="M645 1374l471 -1374q-75 -43 -119.5 -94.5t-44.5 -95.5q0 -46 33 -73.5t90 -27.5q34 0 86 17v-95q-71 -26 -129 -26q-94 0 -155.5 52.5t-61.5 131.5q0 63 37.5 112t122.5 99h-17l-124 362h-512l-123 -362h-158l469 1374h135zM793 496l-215 675l-216 -675h431z" />
    <glyph glyph-name="aogonek" unicode="&#x105;" horiz-adv-x="974" 
d="M825 621v-365q0 -117 4 -155.5t23 -100.5q-87 -54 -124.5 -95.5t-37.5 -84.5q0 -41 31 -66.5t82 -25.5q43 0 84 16v-92q-71 -21 -119 -21q-91 0 -148 47.5t-57 122.5q0 62 39 110t125 89h-16q-15 73 -19 131q-82 -156 -284 -156q-141 0 -227.5 76.5t-86.5 202.5
q0 100 58 175t167 116q122 47 365 88v51q0 100 -47.5 145t-151.5 45q-185 0 -215 -157h-141q15 136 108.5 208t254.5 72q119 0 201 -42t110 -117q13 -36 17.5 -80.5t4.5 -136.5zM684 430v96q-244 -43 -343 -101.5t-99 -158.5q0 -77 51 -123.5t135 -46.5q70 0 126.5 30.5
t90.5 84.5q39 68 39 219z" />
    <glyph glyph-name="Cacute" unicode="&#x106;" horiz-adv-x="1230" 
d="M1120 987h-143q-58 268 -311 268q-183 0 -290.5 -154.5t-107.5 -418.5q0 -266 107 -418.5t293 -152.5q143 0 227.5 90t101.5 262h146q-19 -233 -141.5 -360.5t-327.5 -127.5q-261 0 -415.5 190.5t-154.5 512.5q0 324 154 518.5t410 194.5q190 0 308 -106t144 -298z
M514 1497l283 281h204l-339 -281h-148z" />
    <glyph glyph-name="cacute" unicode="&#x107;" horiz-adv-x="952" 
d="M852 655h-141q-20 118 -68.5 168.5t-142.5 50.5q-121 0 -190.5 -103.5t-69.5 -285.5t70 -284.5t194 -102.5q98 0 149.5 57t63.5 179h143q-13 -175 -104.5 -267t-251.5 -92q-187 0 -299.5 139t-112.5 369q0 236 111.5 375t300.5 139q154 0 243.5 -88t104.5 -254zM385 1120
l213 281h205l-299 -281h-119z" />
    <glyph glyph-name="Ccircumflex" unicode="&#x108;" horiz-adv-x="1230" 
d="M1120 987h-143q-58 268 -313 268q-182 0 -289 -154.5t-107 -418.5t106.5 -417.5t289.5 -153.5q196 0 280 161q44 87 53 191h146q-12 -226 -139 -357t-334 -131q-258 0 -412 192t-154 513q0 324 153.5 517.5t408.5 193.5q192 0 310 -105t144 -299zM317 1503l267 269h164
l266 -269h-142l-206 180l-205 -180h-144z" />
    <glyph glyph-name="ccircumflex" unicode="&#x109;" horiz-adv-x="952" 
d="M852 655h-141q-20 118 -68.5 168.5t-142.5 50.5q-121 0 -190.5 -103.5t-69.5 -285.5t70 -284.5t194 -102.5q98 0 149.5 57t63.5 179h143q-13 -175 -104.5 -267t-251.5 -92q-187 0 -299.5 139t-112.5 369q0 236 111.5 375t300.5 139q154 0 243.5 -88t104.5 -254zM180 1126
l232 287h166l231 -287h-139l-174 193l-177 -193h-139z" />
    <glyph glyph-name="Cdotaccent" unicode="&#x10a;" horiz-adv-x="1230" 
d="M662 1765q52 0 89 -37t37 -90q0 -54 -36.5 -91.5t-89.5 -37.5q-54 0 -92 37t-38 90q0 54 38 91.5t92 37.5zM1120 987h-143q-58 268 -313 268q-182 0 -289 -154.5t-107 -418.5t106.5 -417.5t289.5 -153.5q196 0 280 161q44 87 53 191h146q-12 -226 -139 -357t-334 -131
q-258 0 -412 192t-154 513q0 324 153.5 517.5t408.5 193.5q192 0 310 -105t144 -299z" />
    <glyph glyph-name="cdotaccent" unicode="&#x10b;" horiz-adv-x="952" 
d="M506 1376q44 0 75 -31.5t31 -74.5q0 -46 -31 -77.5t-75 -31.5t-76.5 32t-32.5 75q0 46 31.5 77t77.5 31zM852 655h-141q-20 118 -68.5 168.5t-142.5 50.5q-121 0 -190.5 -103.5t-69.5 -285.5t70 -284.5t194 -102.5q98 0 149.5 57t63.5 179h143q-13 -175 -104.5 -267
t-251.5 -92q-187 0 -299.5 139t-112.5 369q0 236 111.5 375t300.5 139q154 0 243.5 -88t104.5 -254z" />
    <glyph glyph-name="Ccaron" unicode="&#x10c;" horiz-adv-x="1230" 
d="M1120 987h-143q-58 268 -311 268q-183 0 -290.5 -154.5t-107.5 -418.5q0 -266 107 -418.5t293 -152.5q143 0 227.5 90t101.5 262h146q-19 -233 -141.5 -360.5t-327.5 -127.5q-261 0 -415.5 190.5t-154.5 512.5q0 324 154 518.5t410 194.5q190 0 308 -106t144 -298z
M1012 1772l-267 -269h-163l-267 269h142l207 -181l206 181h142z" />
    <glyph glyph-name="ccaron" unicode="&#x10d;" horiz-adv-x="952" 
d="M852 655h-141q-20 118 -68.5 168.5t-142.5 50.5q-121 0 -190.5 -103.5t-69.5 -285.5t70 -284.5t194 -102.5q98 0 149.5 57t63.5 179h143q-13 -175 -104.5 -267t-251.5 -92q-187 0 -299.5 139t-112.5 369q0 236 111.5 375t300.5 139q154 0 243.5 -88t104.5 -254zM819 1413
l-231 -287h-166l-232 287h140l174 -192l176 192h139z" />
    <glyph glyph-name="Dcaron" unicode="&#x10e;" horiz-adv-x="1284" 
d="M176 1366h215q198 0 297 -16t182 -62q143 -78 226.5 -240.5t83.5 -363.5q0 -210 -85 -371t-237 -239q-86 -45 -180 -59.5t-303 -14.5h-199v1366zM330 133h100q161 0 231.5 13.5t141.5 56.5q103 63 159 188t56 293q0 175 -62.5 304t-177.5 190q-66 35 -135.5 45t-251.5 10
h-61v-1100zM934 1772l-266 -269h-164l-266 269h141l207 -181l207 181h141z" />
    <glyph glyph-name="dcaron" unicode="&#x10f;" horiz-adv-x="1165" 
d="M889 1372v-1085q0 -214 18 -287h-141q-14 55 -14 104q0 19 2 35q-52 -88 -116.5 -126t-158.5 -38q-177 0 -283 137t-106 365q0 232 105.5 376t275.5 144q95 0 159 -38t115 -125v538h144zM496 872q-120 0 -189 -104t-69 -285q0 -177 68.5 -280t185.5 -103q118 0 187 104
t69 281t-68.5 282t-183.5 105zM1079 993h-92q47 44 81.5 102t39.5 99h-12q-41 0 -69 28t-28 68q0 43 31.5 73t75.5 30q52 0 83.5 -37t31.5 -99q0 -119 -142 -264z" />
    <glyph glyph-name="Dcroat" unicode="&#x110;" horiz-adv-x="1282" 
d="M174 1366h215q198 0 296 -16t181 -62q143 -78 226.5 -240.5t83.5 -363.5q0 -209 -84.5 -370.5t-235.5 -239.5q-87 -45 -181.5 -59.5t-301.5 -14.5h-199v649h-119v129h119v588zM328 133h98q161 0 231.5 13.5t141.5 56.5q103 63 159 188t56 293q0 175 -62 304t-176 190
q-67 35 -137 45t-250 10h-61v-455h323v-129h-323v-516z" />
    <glyph glyph-name="dcroat" unicode="&#x111;" horiz-adv-x="1040" 
d="M889 1372v-133h112v-117h-112v-835q0 -130 4 -187t16 -100h-143q-14 55 -14 104q0 19 2 35q-53 -88 -116 -126t-157 -38q-177 0 -283 137t-106 365q0 233 105.5 376.5t275.5 143.5q94 0 158.5 -38.5t113.5 -124.5v288h-272v117h272v133h144zM498 872q-120 0 -189 -104
t-69 -285q0 -177 68.5 -280t185.5 -103t185.5 104t68.5 281t-68 282t-182 105z" />
    <glyph glyph-name="Emacron" unicode="&#x112;" horiz-adv-x="1028" 
d="M330 774h553v-133h-553v-508h610v-133h-764v1366h750v-133h-596v-459zM262 1692h590v-107h-590v107z" />
    <glyph glyph-name="emacron" unicode="&#x113;" horiz-adv-x="995" 
d="M901 461h-661q4 -177 76 -270t204 -93q80 0 132 34.5t93 113.5l134 -17q-89 -254 -361 -254q-195 0 -310.5 135.5t-115.5 364.5q0 237 114 379.5t304 142.5q180 0 286.5 -134.5t106.5 -360.5q0 -23 -2 -41zM244 573h510q-12 147 -76.5 225.5t-173.5 78.5
q-106 0 -172 -77.5t-88 -226.5zM231 1319h560v-109h-560v109z" />
    <glyph glyph-name="Ebreve" unicode="&#x114;" horiz-adv-x="1028" 
d="M330 774h553v-133h-553v-508h610v-133h-764v1366h750v-133h-596v-459zM279 1774h81q25 -75 77 -116.5t122 -41.5q69 0 120.5 41.5t74.5 116.5h82q-14 -125 -88.5 -199t-188.5 -74q-113 0 -190 75t-90 198z" />
    <glyph glyph-name="ebreve" unicode="&#x115;" horiz-adv-x="995" 
d="M901 461h-661q4 -177 76 -270t204 -93q80 0 132 34.5t93 113.5l134 -17q-89 -254 -361 -254q-195 0 -310.5 135.5t-115.5 364.5q0 237 114 379.5t304 142.5q180 0 286.5 -134.5t106.5 -360.5q0 -23 -2 -41zM244 573h510q-12 147 -76.5 225.5t-173.5 78.5
q-106 0 -172 -77.5t-88 -226.5zM258 1397h86q20 -75 64 -117.5t104 -42.5q124 0 166 160h86q-12 -127 -79.5 -202t-168.5 -75q-104 0 -174 75.5t-84 201.5z" />
    <glyph glyph-name="Edotaccent" unicode="&#x116;" horiz-adv-x="1028" 
d="M330 774h553v-133h-553v-508h610v-133h-764v1366h750v-133h-596v-459zM559 1765q53 0 90 -37.5t37 -89.5q0 -54 -37 -91.5t-90 -37.5q-54 0 -91.5 37t-37.5 90q0 54 37.5 91.5t91.5 37.5z" />
    <glyph glyph-name="edotaccent" unicode="&#x117;" horiz-adv-x="995" 
d="M901 461h-661q4 -177 76 -270t204 -93q80 0 132 34.5t93 113.5l134 -17q-89 -254 -361 -254q-195 0 -310.5 135.5t-115.5 364.5q0 237 114 379.5t304 142.5q180 0 286.5 -134.5t106.5 -360.5q0 -23 -2 -41zM244 573h510q-12 147 -76.5 225.5t-173.5 78.5
q-106 0 -172 -77.5t-88 -226.5zM512 1376q44 0 75 -31.5t31 -74.5q0 -46 -31 -77.5t-75 -31.5t-76.5 32t-32.5 75q0 46 31.5 77t77.5 31z" />
    <glyph glyph-name="Eogonek" unicode="&#x118;" horiz-adv-x="1028" 
d="M940 133v-133q-78 -37 -126 -89.5t-48 -100.5q0 -46 33 -73.5t90 -27.5q34 0 84 17v-95q-68 -26 -129 -26q-94 0 -154.5 52t-60.5 132q0 66 37 115.5t122 95.5h-612v1366h750v-133h-596v-459h553v-133h-553v-508h610z" />
    <glyph glyph-name="eogonek" unicode="&#x119;" horiz-adv-x="995" 
d="M821 -256v-90q-59 -23 -123 -23q-92 0 -150.5 47t-58.5 121q0 57 35 100.5t121 92.5q-64 -17 -121 -17q-200 0 -316 134t-116 366q0 238 113.5 380t302.5 142q114 0 203.5 -58t136.5 -163q53 -117 53 -315h-661q4 -177 76 -270t204 -93q80 0 132 34.5t93 113.5l134 -17
q-21 -62 -48 -100.5t-116 -138.5q-88 -98 -88 -168q0 -43 29.5 -68.5t80.5 -25.5q38 0 84 16zM244 573h508q-12 148 -75.5 226t-172.5 78q-106 0 -172 -77.5t-88 -226.5z" />
    <glyph glyph-name="Ecaron" unicode="&#x11a;" horiz-adv-x="1028" 
d="M330 774h553v-133h-553v-508h610v-133h-764v1366h750v-133h-596v-459zM905 1772l-266 -269h-164l-266 269h141l207 -181l207 181h141z" />
    <glyph glyph-name="ecaron" unicode="&#x11b;" horiz-adv-x="995" 
d="M901 461h-661q4 -177 76 -270t204 -93q80 0 132 34.5t93 113.5l134 -17q-89 -254 -361 -254q-195 0 -310.5 135.5t-115.5 364.5q0 237 114 379.5t304 142.5q180 0 286.5 -134.5t106.5 -360.5q0 -23 -2 -41zM244 573h510q-12 147 -76.5 225.5t-173.5 78.5
q-106 0 -172 -77.5t-88 -226.5zM823 1413l-231 -287h-166l-231 287h139l174 -192l176 192h139z" />
    <glyph glyph-name="Gcircumflex" unicode="&#x11c;" horiz-adv-x="1273" 
d="M326 1503l266 269h166l264 -269h-141l-207 180l-205 -180h-143zM729 678h416v-561q-199 -142 -451 -142q-275 0 -432.5 191t-157.5 524q0 317 155 509t411 192q110 0 202.5 -39t155.5 -113q42 -50 64 -106.5t34 -143.5h-143q-32 138 -108 202t-207 64q-186 0 -293 -152
t-107 -415q0 -274 112.5 -425.5t315.5 -151.5q157 0 310 90v344h-277v133z" />
    <glyph glyph-name="gcircumflex" unicode="&#x11d;" horiz-adv-x="989" 
d="M197 1126l233 287h164l231 -287h-139l-174 193l-176 -193h-139zM944 971v-109l-199 4q40 -37 62 -96t22 -127q0 -69 -25 -126.5t-69 -92.5q-60 -46 -223 -82q-106 -23 -147 -41q-58 -28 -58 -65q0 -31 34 -42.5t161 -23.5q142 -14 200 -26t105 -38q61 -32 95 -90.5
t34 -132.5q0 -140 -118 -220.5t-322 -80.5q-198 0 -317.5 77t-119.5 204q0 88 48.5 144.5t156.5 94.5q-56 21 -80 47.5t-24 65.5q0 50 39.5 85.5t134.5 70.5q-100 40 -147.5 108.5t-47.5 171.5q0 151 98 241.5t259 90.5q73 0 151 -22zM494 868q-97 0 -157.5 -59t-60.5 -154
q0 -91 57.5 -145.5t151.5 -54.5q95 0 152 54.5t57 145.5q0 93 -56.5 153t-143.5 60zM487 39q-141 0 -219 -44t-78 -124q0 -77 84.5 -123.5t223.5 -46.5q138 0 218.5 46t80.5 124q0 82 -79.5 125t-230.5 43z" />
    <glyph glyph-name="Gbreve" unicode="&#x11e;" horiz-adv-x="1273" 
d="M729 678h416v-561q-195 -142 -451 -142q-277 0 -433.5 189t-156.5 522q0 323 154.5 514t415.5 191q192 0 310.5 -105t141.5 -297h-143q-31 136 -106 201t-203 65q-189 0 -297.5 -152t-108.5 -419q0 -274 112 -423.5t316 -149.5q157 0 310 90v344h-277v133zM393 1774h82
q23 -75 75.5 -116.5t123.5 -41.5q69 0 120 41.5t74 116.5h82q-14 -125 -89 -199t-187 -74q-114 0 -190.5 75t-90.5 198z" />
    <glyph glyph-name="gbreve" unicode="&#x11f;" horiz-adv-x="989" 
d="M944 971v-109l-199 4q40 -37 62 -96t22 -127q0 -69 -25 -126.5t-69 -92.5q-60 -46 -223 -82q-106 -23 -147 -41q-58 -28 -58 -65q0 -31 34 -42.5t161 -23.5q142 -14 200 -26t105 -38q61 -32 95 -90.5t34 -132.5q0 -140 -118 -220.5t-322 -80.5q-198 0 -317.5 77
t-119.5 204q0 88 48.5 144.5t156.5 94.5q-56 21 -80 47.5t-24 65.5q0 50 39.5 85.5t134.5 70.5q-100 40 -147.5 108.5t-47.5 171.5q0 151 98 241.5t259 90.5q73 0 151 -22zM494 868q-97 0 -157.5 -59t-60.5 -154q0 -91 57.5 -145.5t151.5 -54.5q95 0 152 54.5t57 145.5
q0 93 -56.5 153t-143.5 60zM487 39q-141 0 -219 -44t-78 -124q0 -77 84.5 -123.5t223.5 -46.5q138 0 218.5 46t80.5 124q0 82 -79.5 125t-230.5 43zM256 1397h84q20 -75 65 -117.5t105 -42.5q121 0 166 160h84q-12 -128 -78.5 -202.5t-169.5 -74.5t-173.5 75.5t-82.5 201.5z
" />
    <glyph glyph-name="Gdotaccent" unicode="&#x120;" horiz-adv-x="1273" 
d="M678 1765q52 0 89.5 -37.5t37.5 -89.5q0 -54 -37 -91.5t-90 -37.5q-54 0 -91.5 37t-37.5 90q0 54 37.5 91.5t91.5 37.5zM729 678h416v-561q-199 -142 -451 -142q-275 0 -432.5 191t-157.5 524q0 317 155 509t411 192q110 0 202.5 -39t155.5 -113q42 -50 64 -106.5
t34 -143.5h-143q-32 138 -108 202t-207 64q-186 0 -293 -152t-107 -415q0 -274 112.5 -425.5t315.5 -151.5q157 0 310 90v344h-277v133z" />
    <glyph glyph-name="gdotaccent" unicode="&#x121;" horiz-adv-x="989" 
d="M944 971v-109l-199 4q40 -37 62 -96t22 -127q0 -69 -25 -126.5t-69 -92.5q-60 -46 -223 -82q-106 -23 -147 -41q-58 -28 -58 -65q0 -31 34 -42.5t161 -23.5q142 -14 200 -26t105 -38q61 -32 95 -90.5t34 -132.5q0 -140 -118 -220.5t-322 -80.5q-198 0 -317.5 77
t-119.5 204q0 88 48.5 144.5t156.5 94.5q-56 21 -80 47.5t-24 65.5q0 50 39.5 85.5t134.5 70.5q-100 40 -147.5 108.5t-47.5 171.5q0 151 98 241.5t259 90.5q73 0 151 -22zM494 868q-97 0 -157.5 -59t-60.5 -154q0 -91 57.5 -145.5t151.5 -54.5q95 0 152 54.5t57 145.5
q0 93 -56.5 153t-143.5 60zM487 39q-141 0 -219 -44t-78 -124q0 -77 84.5 -123.5t223.5 -46.5q138 0 218.5 46t80.5 124q0 82 -79.5 125t-230.5 43zM512 1376q44 0 75 -31.5t31 -74.5q0 -46 -31 -77.5t-75 -31.5t-76.5 32t-32.5 75q0 46 31.5 77t77.5 31z" />
    <glyph glyph-name="Gcommaaccent" unicode="&#x122;" horiz-adv-x="1273" 
d="M729 678h416v-561q-195 -142 -451 -142q-277 0 -433.5 189t-156.5 522q0 323 154.5 514t415.5 191q192 0 310.5 -105t141.5 -297h-143q-31 136 -106 201t-203 65q-189 0 -297.5 -152t-108.5 -419q0 -274 112 -423.5t316 -149.5q157 0 310 90v344h-277v133zM659 -514h-94
q50 48 84.5 104.5t38.5 98.5q-54 1 -82 26t-28 70q0 44 31.5 74t76.5 30q52 0 84.5 -37.5t32.5 -97.5q0 -63 -33.5 -125.5t-110.5 -142.5z" />
    <glyph glyph-name="gcommaaccent" unicode="&#x123;" horiz-adv-x="989" 
d="M944 971v-109l-199 4q40 -37 62 -96t22 -127q0 -69 -25 -126.5t-69 -92.5q-60 -46 -223 -82q-106 -23 -147 -41q-58 -28 -58 -65q0 -31 34 -42.5t161 -23.5q142 -14 200 -26t105 -38q61 -32 95 -90.5t34 -132.5q0 -140 -118 -220.5t-322 -80.5q-198 0 -317.5 77
t-119.5 204q0 88 48.5 144.5t156.5 94.5q-56 21 -80 47.5t-24 65.5q0 50 39.5 85.5t134.5 70.5q-100 40 -147.5 108.5t-47.5 171.5q0 151 98 241.5t259 90.5q73 0 151 -22zM494 868q-97 0 -157.5 -59t-60.5 -154q0 -91 57.5 -145.5t151.5 -54.5q95 0 152 54.5t57 145.5
q0 93 -56.5 153t-143.5 60zM487 39q-141 0 -219 -44t-78 -124q0 -77 84.5 -123.5t223.5 -46.5q138 0 218.5 46t80.5 124q0 82 -79.5 125t-230.5 43zM541 1522h92q-48 -45 -82.5 -102t-38.5 -99q6 2 12 2q40 0 68.5 -28t28.5 -68q0 -44 -31.5 -74.5t-75.5 -30.5
q-52 0 -83.5 36.5t-31.5 98.5q0 120 142 265z" />
    <glyph glyph-name="Hcircumflex" unicode="&#x124;" horiz-adv-x="1298" 
d="M330 778h641v588h153v-1366h-153v651h-641v-651h-154v1366h154v-588zM301 1503l266 269h166l264 -269h-141l-207 180l-205 -180h-143z" />
    <glyph glyph-name="hcircumflex" unicode="&#x125;" horiz-adv-x="1028" 
d="M152 1372h143v-516q106 141 278 141q86 0 156.5 -33.5t108.5 -93.5q29 -44 38 -104t9 -209v-557h-144v549q0 101 -5.5 146t-20.5 79q-50 96 -172 96q-65 0 -118 -30.5t-85 -85.5q-45 -74 -45 -219v-535h-143v1372zM-121 1503l266 269h164l266 -269h-141l-207 180
l-207 -180h-141z" />
    <glyph glyph-name="Hbar" unicode="&#x126;" horiz-adv-x="1298" 
d="M971 1135v231h153v-231h119v-127h-119v-1008h-153v651h-641v-651h-154v1008h-119v127h119v231h154v-231h641zM971 1008h-641v-230h641v230z" />
    <glyph glyph-name="hbar" unicode="&#x127;" horiz-adv-x="1028" 
d="M150 1372h143v-133h285v-117h-285v-266q54 73 121 107t157 34q86 0 156.5 -33.5t108.5 -93.5q29 -44 38 -104t9 -209v-557h-144v549q0 102 -5.5 147t-20.5 78q-50 96 -170 96q-65 0 -119 -30.5t-86 -85.5q-45 -74 -45 -219v-535h-143v1122h-111v117h111v133z" />
    <glyph glyph-name="Itilde" unicode="&#x128;" horiz-adv-x="503" 
d="M330 0h-158v1366h158v-1366zM6 1520l-88 32q26 103 71 151t117 48q62 0 154 -53q65 -37 90 -47.5t49 -10.5q77 0 101 119l84 -33q-13 -97 -62 -150.5t-123 -53.5q-34 0 -66.5 12t-105.5 51q-78 45 -121 45q-74 0 -100 -110z" />
    <glyph glyph-name="itilde" unicode="&#x129;" horiz-adv-x="452" 
d="M150 971h151v-971h-151v971zM4 1145l-84 20q43 213 174 213q60 0 137 -53q53 -34 78.5 -45.5t48.5 -11.5q67 0 91 118l83 -20q-13 -101 -59 -160t-111 -59q-57 0 -149 57q-53 33 -76 43t-45 10q-65 0 -88 -112z" />
    <glyph glyph-name="Imacron" unicode="&#x12a;" horiz-adv-x="503" 
d="M332 0h-158v1366h158v-1366zM12 1692h482v-107h-482v107z" />
    <glyph glyph-name="imacron" unicode="&#x12b;" horiz-adv-x="452" 
d="M150 971h151v-971h-151v971zM14 1319h422v-109h-422v109z" />
    <glyph glyph-name="Ibreve" unicode="&#x12c;" horiz-adv-x="503" 
d="M332 0h-158v1366h158v-1366zM-27 1774h82q23 -75 75.5 -116.5t123.5 -41.5q69 0 120.5 41.5t74.5 116.5h81q-14 -125 -89 -199t-187 -74q-114 0 -190.5 75t-90.5 198z" />
    <glyph glyph-name="ibreve" unicode="&#x12d;" horiz-adv-x="450" 
d="M152 971h151v-971h-151v971zM-10 1389h84q28 -152 153 -152q114 0 152 152h84q-6 -123 -70.5 -196t-165.5 -73q-103 0 -167 73t-70 196z" />
    <glyph glyph-name="Iogonek" unicode="&#x12e;" horiz-adv-x="503" 
d="M240 0h-66v1366h158v-1366q-48 -57 -68 -99t-20 -85q0 -47 28 -77t72 -30q15 0 53 17v-95q-35 -26 -94 -26q-81 0 -139 54.5t-58 129.5q0 55 31.5 104.5t102.5 106.5z" />
    <glyph glyph-name="iogonek" unicode="&#x12f;" horiz-adv-x="452" 
d="M301 971v-971q-90 -115 -90 -193q0 -79 82 -79q27 0 59 14v-88q-46 -25 -96 -25q-77 0 -124.5 47t-47.5 123q0 58 29 101.5t106 99.5h-69v971h151zM227 1384q44 0 73.5 -30t29.5 -76q0 -44 -29.5 -73t-75.5 -29q-44 0 -74 29t-30 73q0 46 30 76t76 30z" />
    <glyph glyph-name="Idotaccent" unicode="&#x130;" horiz-adv-x="503" 
d="M330 0h-158v1366h158v-1366zM252 1765q52 0 89.5 -37.5t37.5 -89.5q0 -54 -37 -91.5t-90 -37.5q-54 0 -91.5 37t-37.5 90q0 54 37.5 91.5t91.5 37.5z" />
    <glyph glyph-name="dotlessi" unicode="&#x131;" horiz-adv-x="452" 
d="M150 971h151v-971h-151v971z" />
    <glyph glyph-name="IJ" unicode="&#x132;" horiz-adv-x="1083" 
d="M332 0h-158v1366h158v-1366zM754 1366h157v-1090q0 -147 -5.5 -196.5t-26.5 -93.5q-38 -79 -125.5 -121.5t-212.5 -42.5h-49v133h22h12q169 3 209 102q12 30 15.5 68.5t3.5 150.5v1090z" />
    <glyph glyph-name="ij" unicode="&#x133;" horiz-adv-x="960" 
d="M150 971h151v-971h-151v971zM227 1384q44 0 73.5 -30t29.5 -76q0 -44 -29.5 -73t-75.5 -29q-44 0 -74 29t-30 73q0 46 30 76t76 30zM659 971h152v-887q0 -162 -13.5 -230.5t-54.5 -121.5q-88 -115 -305 -115h-49v127h19h14q157 0 207 84q19 32 24.5 82t5.5 174v887z
M737 1384q44 0 73.5 -30t29.5 -76q0 -44 -30 -73t-75 -29q-44 0 -74 29t-30 73q0 46 30 76t76 30z" />
    <glyph glyph-name="Jcircumflex" unicode="&#x134;" horiz-adv-x="589" 
d="M260 1366h158v-1090q0 -144 -5.5 -195t-27.5 -95q-38 -79 -126 -121.5t-214 -42.5h-49v133h22h13q165 3 209 96q13 29 16.5 67.5t3.5 157.5v1090zM-12 1503l266 269h164l266 -269h-141l-207 180l-207 -180h-141z" />
    <glyph glyph-name="jcircumflex" unicode="&#x135;" horiz-adv-x="514" 
d="M215 971h152v-887q0 -162 -13.5 -231t-54.5 -123q-88 -113 -305 -113h-49v127h18h17q157 0 204 84q19 32 25 83t6 173v887zM-29 1126l232 287h166l231 -287h-139l-174 193l-176 -193h-140z" />
    <glyph glyph-name="Kcommaaccent" unicode="&#x136;" horiz-adv-x="1142" 
d="M885 1366h186l-557 -645l610 -721h-209l-583 717zM176 1366h154v-1366h-154v1366zM590 -514h-94q50 47 84 103.5t38 99.5q-54 1 -82 26t-28 70q0 44 31.5 74t76.5 30q52 0 84.5 -37.5t32.5 -97.5q0 -63 -33.5 -126t-109.5 -142z" />
    <glyph glyph-name="kcommaaccent" unicode="&#x137;" horiz-adv-x="987" 
d="M705 971h174l-406 -436l436 -535h-198l-416 528zM150 1372h143v-1372h-143v1372zM461 -508h-92q47 44 81.5 101t38.5 100q-6 -2 -12 -2q-40 0 -68 28t-28 68q0 44 31 74t75 30q52 0 83.5 -36.5t31.5 -98.5q0 -120 -141 -264z" />
    <glyph glyph-name="kgreenlandic" unicode="&#x138;" horiz-adv-x="987" 
d="M705 971h174l-406 -436l436 -535h-198l-416 528zM150 971h143v-971h-143v971z" />
    <glyph glyph-name="Lacute" unicode="&#x139;" horiz-adv-x="972" 
d="M174 1366h158v-1233h586v-133h-744v1366zM147 1497l283 281h207l-342 -281h-148z" />
    <glyph glyph-name="lacute" unicode="&#x13a;" horiz-adv-x="452" 
d="M150 1372h151v-1372h-151v1372zM129 1497l229 281h191l-285 -281h-135z" />
    <glyph glyph-name="Lcommaaccent" unicode="&#x13b;" horiz-adv-x="972" 
d="M176 1366h158v-1233h584v-133h-742v1366zM522 -514h-94q50 48 84.5 104.5t38.5 98.5q-54 1 -82.5 26.5t-28.5 69.5t32 74t77 30q52 0 84.5 -37.5t32.5 -97.5q0 -63 -33.5 -125.5t-110.5 -142.5z" />
    <glyph glyph-name="lcommaaccent" unicode="&#x13c;" horiz-adv-x="450" 
d="M141 1372h152v-1372h-152v1372zM182 -508h-92q49 47 82 102t39 99q-6 -2 -12 -2q-40 0 -68.5 28t-28.5 68q0 44 31 74t76 30q51 0 83 -37t32 -96q0 -63 -33.5 -126.5t-108.5 -139.5z" />
    <glyph glyph-name="Lcaron" unicode="&#x13d;" horiz-adv-x="972" 
d="M176 1366h158v-1233h584v-133h-742v1366zM621 989h-95q50 48 84.5 104.5t38.5 98.5q-52 0 -81 25.5t-29 70.5q0 44 31.5 74.5t76.5 30.5q52 0 84.5 -38t32.5 -98q0 -63 -33.5 -126t-109.5 -142z" />
    <glyph glyph-name="lcaron" unicode="&#x13e;" horiz-adv-x="577" 
d="M150 1372h151v-1372h-151v1372zM489 993h-92q47 44 81.5 102t39.5 99h-12q-41 0 -68.5 28t-27.5 68q0 43 31 73t75 30q52 0 83.5 -37t31.5 -99q0 -119 -142 -264z" />
    <glyph glyph-name="Ldot" unicode="&#x13f;" horiz-adv-x="972" 
d="M176 1366h158v-1233h584v-133h-742v1366zM733 817q55 0 94 -38.5t39 -94.5t-39 -94.5t-94 -38.5t-94 38.5t-39 94.5t39 94.5t94 38.5z" />
    <glyph glyph-name="ldot" unicode="&#x140;" horiz-adv-x="684" 
d="M150 1372h151v-1372h-151v1372zM563 834q48 0 82.5 -35t34.5 -84q0 -48 -35 -82.5t-84 -34.5q-47 0 -82 35t-35 82q0 51 34.5 85t84.5 34z" />
    <glyph glyph-name="Lslash" unicode="&#x141;" horiz-adv-x="972" 
d="M176 694v672h158v-586l340 252v-139l-340 -254v-506h586v-133h-744v553l-141 -109v142z" />
    <glyph glyph-name="lslash" unicode="&#x142;" horiz-adv-x="452" 
d="M150 762v610h151v-534l148 110v-131l-148 -108v-709h-151v633l-148 -107v129z" />
    <glyph glyph-name="Nacute" unicode="&#x143;" horiz-adv-x="1316" 
d="M176 1366h166l655 -1137v1137h144v-1366h-168l-651 1135v-1135h-146v1366zM514 1497l283 281h204l-339 -281h-148z" />
    <glyph glyph-name="nacute" unicode="&#x144;" horiz-adv-x="1032" 
d="M125 971h137q21 -62 21 -142q98 168 292 168q99 0 173 -41.5t106 -115.5q21 -48 26 -94t5 -189v-557h-144v549q0 107 -4.5 148.5t-19.5 76.5q-46 96 -170 96q-65 0 -120 -30t-89 -84q-47 -73 -47 -213v-543h-144v641q0 180 -2.5 222.5t-19.5 107.5zM379 1120l213 281h205
l-299 -281h-119z" />
    <glyph glyph-name="Ncommaaccent" unicode="&#x145;" horiz-adv-x="1316" 
d="M176 1366h166l655 -1137v1137h144v-1366h-168l-651 1135v-1135h-146v1366zM616 -514h-94q50 48 84.5 104.5t38.5 98.5q-54 1 -82 26t-28 70q0 44 31.5 74t76.5 30q52 0 84.5 -37.5t32.5 -97.5q0 -63 -33.5 -125.5t-110.5 -142.5z" />
    <glyph glyph-name="ncommaaccent" unicode="&#x146;" horiz-adv-x="1032" 
d="M125 971h137q21 -62 21 -142q98 168 292 168q99 0 173 -41.5t106 -115.5q21 -48 26 -94t5 -189v-557h-144v549q0 107 -4.5 148.5t-19.5 76.5q-46 96 -170 96q-65 0 -120 -30t-89 -84q-47 -73 -47 -213v-543h-144v641q0 180 -2.5 222.5t-19.5 107.5zM481 -508h-92
q48 45 82.5 102t38.5 99q-6 -2 -12 -2q-40 0 -68.5 28t-28.5 68q0 44 31 74t76 30q52 0 83.5 -36.5t31.5 -98.5q0 -119 -142 -264z" />
    <glyph glyph-name="Ncaron" unicode="&#x147;" horiz-adv-x="1316" 
d="M176 1366h166l655 -1137v1137h144v-1366h-168l-651 1135v-1135h-146v1366zM1010 1772l-267 -269h-163l-267 269h142l207 -181l206 181h142z" />
    <glyph glyph-name="ncaron" unicode="&#x148;" horiz-adv-x="1032" 
d="M125 971h137q21 -62 21 -142q98 168 292 168q99 0 173 -41.5t106 -115.5q21 -48 26 -94t5 -189v-557h-144v549q0 107 -4.5 148.5t-19.5 76.5q-46 96 -170 96q-65 0 -120 -30t-89 -84q-47 -73 -47 -213v-543h-144v641q0 180 -2.5 222.5t-19.5 107.5zM813 1413l-231 -287
h-166l-232 287h140l174 -192l176 192h139z" />
    <glyph glyph-name="napostrophe" unicode="&#x149;" horiz-adv-x="1241" 
d="M197 928h-125q59 58 99 123t46 116q-56 0 -88.5 29t-32.5 80q0 47 35 81t84 34q57 0 92 -42t35 -110q0 -141 -145 -311zM334 971h137q21 -62 21 -142q98 168 294 168q99 0 173 -41.5t106 -115.5q21 -48 26 -94t5 -189v-557h-144v549q0 107 -4.5 148.5t-19.5 76.5
q-46 96 -170 96q-65 0 -121 -30t-90 -84q-47 -73 -47 -213v-543h-144v641q0 180 -2.5 222.5t-19.5 107.5z" />
    <glyph glyph-name="Eng" unicode="&#x14a;" horiz-adv-x="1230" 
d="M147 1382h146q26 -64 26 -172q120 179 357 179q116 0 205 -45t133 -127q27 -52 37 -117.5t10 -190.5v-837q0 -146 -5.5 -196.5t-27.5 -94.5q-38 -79 -126 -121.5t-214 -42.5h-49v131q12 2 25 2h10q173 3 217 103q12 29 15 67t3 152v823q0 175 -41 244q-63 116 -227 116
q-83 0 -150 -34t-108 -97q-29 -44 -41 -104t-12 -156v-864h-152v997q0 201 -4 249t-27 136z" />
    <glyph glyph-name="eng" unicode="&#x14b;" horiz-adv-x="1034" 
d="M125 971h139q23 -62 23 -142q98 168 293 168q99 0 172.5 -41.5t105.5 -115.5q21 -48 26 -94t5 -189v-473q0 -162 -13.5 -232t-54.5 -122q-88 -113 -305 -113h-49v127h18h17q161 0 211 84q20 32 26 81t6 175v465q0 107 -4.5 148.5t-19.5 76.5q-46 96 -170 96
q-65 0 -120 -30t-89 -84q-47 -73 -47 -213v-543h-143v641q0 174 -3.5 218.5t-23.5 111.5z" />
    <glyph glyph-name="Omacron" unicode="&#x14c;" horiz-adv-x="1323" 
d="M662 1391q247 0 401 -196t154 -511t-154 -511t-401 -196q-252 0 -405 196.5t-153 520.5q0 202 70.5 361t198 247.5t289.5 88.5zM662 1255q-177 0 -285.5 -155t-108.5 -408q0 -265 107 -422t287 -157q177 0 284 156.5t107 414.5t-107 414.5t-284 156.5zM367 1692h589v-107
h-589v107z" />
    <glyph glyph-name="omacron" unicode="&#x14d;" horiz-adv-x="1032" 
d="M516 997q188 0 306 -142.5t118 -369.5q0 -225 -118.5 -367.5t-305.5 -142.5q-189 0 -306.5 143.5t-117.5 375.5q0 220 119 361.5t305 141.5zM516 874q-123 0 -199.5 -106t-76.5 -276q0 -179 75 -286.5t201 -107.5q124 0 200.5 107t76.5 282q0 173 -76.5 280t-200.5 107z
M238 1319h559v-109h-559v109z" />
    <glyph glyph-name="Obreve" unicode="&#x14e;" horiz-adv-x="1323" 
d="M662 1391q247 0 401 -196t154 -511t-154 -511t-401 -196q-252 0 -405 196.5t-153 520.5q0 202 70.5 361t198 247.5t289.5 88.5zM662 1255q-177 0 -285.5 -155t-108.5 -408q0 -265 107 -422t287 -157q177 0 284 156.5t107 414.5t-107 414.5t-284 156.5zM383 1774h82
q23 -75 75.5 -116.5t121.5 -41.5q70 0 120.5 41t75.5 117h82q-15 -125 -89.5 -199t-186.5 -74q-114 0 -190.5 75t-90.5 198z" />
    <glyph glyph-name="obreve" unicode="&#x14f;" horiz-adv-x="1032" 
d="M516 997q188 0 306 -142.5t118 -369.5q0 -225 -118.5 -367.5t-305.5 -142.5q-189 0 -306.5 143.5t-117.5 375.5q0 220 119 361.5t305 141.5zM516 874q-123 0 -199.5 -106t-76.5 -276q0 -179 75 -286.5t201 -107.5q124 0 200.5 107t76.5 282q0 173 -76.5 280t-200.5 107z
M264 1397h84q20 -75 65 -117.5t105 -42.5q121 0 166 160h84q-12 -127 -79.5 -202t-168.5 -75q-104 0 -174 75.5t-82 201.5z" />
    <glyph glyph-name="Ohungarumlaut" unicode="&#x150;" horiz-adv-x="1323" 
d="M662 1391q247 0 401 -196t154 -511t-154 -511t-401 -196q-252 0 -405 196.5t-153 520.5q0 202 70.5 361t198 247.5t289.5 88.5zM662 1255q-177 0 -285.5 -155t-108.5 -408q0 -265 107 -422t287 -157q177 0 284 156.5t107 414.5t-107 414.5t-284 156.5zM463 1497l217 281
h174l-268 -281h-123zM717 1497l217 281h174l-266 -281h-125z" />
    <glyph glyph-name="ohungarumlaut" unicode="&#x151;" horiz-adv-x="1032" 
d="M516 997q188 0 306 -142.5t118 -369.5q0 -225 -118.5 -367.5t-305.5 -142.5q-189 0 -306.5 143.5t-117.5 375.5q0 220 119 361.5t305 141.5zM516 874q-123 0 -199.5 -106t-76.5 -276q0 -179 75 -286.5t201 -107.5q124 0 200.5 107t76.5 282q0 173 -76.5 280t-200.5 107z
M340 1118l184 281h170l-235 -281h-119zM588 1118l184 281h172l-237 -281h-119z" />
    <glyph glyph-name="OE" unicode="&#x152;" horiz-adv-x="1904" 
d="M1059 1194v172h743v-133h-592v-459h547v-133h-547v-508h605v-133h-756v174q-86 -107 -175 -152t-216 -45q-255 0 -409.5 193t-154.5 512t155.5 514t410.5 195q124 0 216.5 -47t172.5 -150zM670 1255q-186 0 -294 -154.5t-108 -418.5q0 -259 108 -414t288 -155
q183 0 288 153.5t105 417.5q0 259 -106 415t-281 156z" />
    <glyph glyph-name="oe" unicode="&#x153;" horiz-adv-x="1687" 
d="M1593 453h-663q6 -172 79 -263.5t205 -91.5q167 0 230 150l133 -19q-88 -254 -360 -254q-239 0 -361 213q-66 -112 -145.5 -162.5t-192.5 -50.5q-188 0 -307 142.5t-119 367.5q0 227 119 369.5t309 142.5q117 0 199 -53t139 -166q63 113 146 166t198 53q213 0 322 -192
q71 -128 71 -291q0 -34 -2 -61zM934 563h506q-6 148 -71 231t-175 83q-107 0 -173.5 -80.5t-86.5 -233.5zM516 874q-125 0 -200.5 -107t-75.5 -284q0 -172 75.5 -278.5t198.5 -106.5q121 0 194.5 106.5t73.5 280.5q0 172 -74 280.5t-192 108.5z" />
    <glyph glyph-name="Racute" unicode="&#x154;" horiz-adv-x="1148" 
d="M176 1366h242q160 0 236 -8.5t143 -34.5q103 -40 162 -131.5t59 -212.5q0 -268 -281 -371l359 -608h-185l-344 584h-237v-584h-154v1366zM330 717h96q128 0 179 4.5t97 21.5q74 26 114 88t40 150q0 78 -34 135.5t-95 83.5q-47 21 -102 27t-203 6h-92v-516zM401 1497
l283 281h205l-340 -281h-148z" />
    <glyph glyph-name="racute" unicode="&#x155;" horiz-adv-x="669" 
d="M135 971h137q19 -78 19 -150l-2 -59q51 121 111.5 178t138.5 57q55 0 116 -30v-144q-83 39 -129 39q-57 0 -105.5 -39t-80.5 -110q-43 -94 -43 -279v-434h-145v637q0 158 -3 208t-14 126zM266 1120l213 281h205l-299 -281h-119z" />
    <glyph glyph-name="Rcommaaccent" unicode="&#x156;" horiz-adv-x="1148" 
d="M176 1366h242q160 0 236 -8.5t143 -34.5q103 -40 162 -131.5t59 -212.5q0 -268 -281 -371l359 -608h-185l-344 584h-237v-584h-154v1366zM330 717h96q128 0 179 4.5t97 21.5q74 26 114 88t40 150q0 78 -34 135.5t-95 83.5q-47 21 -102 27t-203 6h-92v-516zM573 -514h-94
q50 48 84.5 104.5t38.5 98.5q-54 1 -82 26t-28 70q0 44 31.5 74t76.5 30q52 0 84.5 -37.5t32.5 -97.5q0 -63 -33.5 -125.5t-110.5 -142.5z" />
    <glyph glyph-name="rcommaaccent" unicode="&#x157;" horiz-adv-x="669" 
d="M135 971h137q19 -78 19 -150l-2 -59q51 121 112.5 178t139.5 57q55 0 116 -30v-144q-83 39 -131 39q-57 0 -105.5 -39t-80.5 -110q-43 -94 -43 -279v-434h-145v637q0 158 -3 208t-14 126zM193 -508h-93q48 45 82.5 102t38.5 99q-6 -2 -12 -2q-40 0 -68 28t-28 68
q0 44 31 74t75 30q52 0 83.5 -36.5t31.5 -98.5q0 -120 -141 -264z" />
    <glyph glyph-name="Rcaron" unicode="&#x158;" horiz-adv-x="1148" 
d="M176 1366h242q160 0 236 -8.5t143 -34.5q103 -40 162 -131.5t59 -212.5q0 -268 -281 -371l359 -608h-185l-344 584h-237v-584h-154v1366zM330 717h96q128 0 179 4.5t97 21.5q74 26 114 88t40 150q0 78 -34 135.5t-95 83.5q-47 21 -102 27t-203 6h-92v-516zM905 1772
l-266 -269h-164l-266 269h141l207 -181l207 181h141z" />
    <glyph glyph-name="rcaron" unicode="&#x159;" horiz-adv-x="669" 
d="M137 971h137q19 -78 19 -150l-2 -59q51 121 111.5 178t138.5 57q55 0 116 -30v-144q-83 39 -129 39q-57 0 -105.5 -39t-80.5 -110q-43 -94 -43 -279v-434h-145v637q0 158 -3 208t-14 126zM698 1413l-231 -287h-166l-231 287h139l174 -192l176 192h139z" />
    <glyph glyph-name="Sacute" unicode="&#x15a;" horiz-adv-x="1120" 
d="M969 1012h-150q-10 117 -79.5 180t-186.5 63q-108 0 -179 -59t-71 -149t82 -144q34 -23 64.5 -38t179.5 -83q130 -58 195 -97.5t102 -82.5q82 -97 82 -235q0 -175 -123.5 -282.5t-323.5 -107.5q-120 0 -214.5 40.5t-153.5 117.5q-43 55 -63 119.5t-26 161.5h150
q11 -148 91 -225.5t222 -77.5q124 0 203.5 66t79.5 169q0 98 -82 168q-32 28 -72 49.5t-141 65.5q-208 93 -279 149q-126 99 -126 254q0 156 115.5 256.5t295.5 100.5q109 0 196.5 -40.5t141.5 -115.5q62 -84 70 -223zM414 1497l282 281h205l-340 -281h-147z" />
    <glyph glyph-name="sacute" unicode="&#x15b;" horiz-adv-x="897" 
d="M793 705h-140q-10 89 -58.5 131.5t-139.5 42.5q-83 0 -135 -40.5t-52 -105.5q0 -60 44 -92t182 -72q117 -34 172 -59t84 -59q59 -68 59 -172q0 -140 -95 -222t-257 -82q-177 0 -272 84.5t-95 241.5h139q18 -205 226 -205q95 0 151 46.5t56 123.5t-62 113q-26 17 -57 28.5
t-160 51.5q-141 43 -200.5 103t-59.5 161q0 123 92.5 198.5t241.5 75.5q155 0 241.5 -75.5t94.5 -216.5zM342 1120l213 281h205l-299 -281h-119z" />
    <glyph glyph-name="Scircumflex" unicode="&#x15c;" horiz-adv-x="1120" 
d="M969 1012h-150q-10 117 -79.5 180t-186.5 63q-108 0 -179 -59t-71 -149t82 -144q34 -23 64.5 -38t179.5 -83q130 -58 195 -97.5t102 -82.5q82 -97 82 -235q0 -175 -123.5 -282.5t-323.5 -107.5q-120 0 -214.5 40.5t-153.5 117.5q-43 55 -63 119.5t-26 161.5h150
q11 -148 91 -225.5t222 -77.5q124 0 203.5 66t79.5 169q0 98 -82 168q-32 28 -72 49.5t-141 65.5q-208 93 -279 149q-126 99 -126 254q0 156 115.5 256.5t295.5 100.5q109 0 196.5 -40.5t141.5 -115.5q62 -84 70 -223zM215 1503l266 269h164l266 -269h-141l-207 180
l-207 -180h-141z" />
    <glyph glyph-name="scircumflex" unicode="&#x15d;" horiz-adv-x="897" 
d="M154 1126l231 287h166l231 -287h-139l-176 193l-174 -193h-139zM793 705h-140q-10 89 -58.5 131.5t-139.5 42.5q-83 0 -135 -40.5t-52 -105.5q0 -60 44 -92t182 -72q117 -34 172 -59t84 -59q59 -68 59 -172q0 -140 -95 -222t-257 -82q-177 0 -272 84.5t-95 241.5h139
q18 -205 226 -205q95 0 151 46.5t56 123.5t-62 113q-26 17 -57 28.5t-160 51.5q-141 43 -200.5 103t-59.5 161q0 123 92.5 198.5t241.5 75.5q155 0 241.5 -75.5t94.5 -216.5z" />
    <glyph glyph-name="Scedilla" unicode="&#x15e;" horiz-adv-x="1120" 
d="M584 -23l-45 -110q192 -24 192 -176q0 -83 -59.5 -135t-153.5 -52q-67 0 -164 37v86q75 -26 113 -26q55 0 88 28.5t33 75.5q0 70 -72 92q-31 8 -106 8l69 177q-174 23 -272.5 136t-102.5 298h152q9 -149 88.5 -227t222.5 -78q124 0 203.5 66t79.5 169q0 101 -82 168
q-33 28 -74 50.5t-139 66.5q-210 92 -279 147q-126 99 -126 256q0 156 115.5 256.5t295.5 100.5q110 0 198 -40.5t142 -115.5q60 -85 68 -223h-150q-10 117 -79.5 180t-186.5 63q-108 0 -179 -59t-71 -149t82 -144q35 -25 65.5 -40t178.5 -81q130 -58 195 -97.5t102 -82.5
q82 -97 82 -235q0 -172 -113 -275.5t-311 -114.5z" />
    <glyph glyph-name="scedilla" unicode="&#x15f;" horiz-adv-x="897" 
d="M477 -25l-43 -90q176 -21 176 -153q0 -75 -54 -122.5t-140 -47.5q-71 0 -154 35v77q5 -2 11 -3.5l10 -2.5t6 -2q50 -14 84 -14q49 0 78.5 25.5t29.5 68.5q0 50 -39 72t-127 22l66 140q-291 46 -291 321h139q18 -207 226 -207q95 0 151 47t56 125q0 74 -62 113
q-29 16 -63.5 29t-153.5 49q-141 43 -200.5 104t-59.5 162q0 122 92.5 198t241.5 76q155 0 241.5 -75.5t94.5 -216.5h-140q-11 90 -58.5 132t-139.5 42q-83 0 -135 -40.5t-52 -105.5q0 -60 44 -92t182 -72q117 -34 172 -59.5t84 -60.5q59 -65 59 -170q0 -88 -40.5 -157
t-113.5 -106q-65 -33 -178 -41z" />
    <glyph glyph-name="Scaron" unicode="&#x160;" horiz-adv-x="1120" 
d="M969 1012h-150q-10 117 -79.5 180t-186.5 63q-108 0 -179 -59t-71 -149t82 -144q34 -23 64.5 -38t179.5 -83q130 -58 195 -97.5t102 -82.5q82 -97 82 -235q0 -175 -123.5 -282.5t-323.5 -107.5q-120 0 -214.5 40.5t-153.5 117.5q-43 55 -63 119.5t-26 161.5h150
q11 -148 91 -225.5t222 -77.5q124 0 203.5 66t79.5 169q0 98 -82 168q-32 28 -72 49.5t-141 65.5q-208 93 -279 149q-126 99 -126 254q0 156 115.5 256.5t295.5 100.5q109 0 196.5 -40.5t141.5 -115.5q62 -84 70 -223zM911 1772l-266 -269h-164l-266 269h141l207 -181
l207 181h141z" />
    <glyph glyph-name="scaron" unicode="&#x161;" horiz-adv-x="897" 
d="M793 705h-140q-10 89 -58.5 131.5t-139.5 42.5q-83 0 -135 -40.5t-52 -105.5q0 -60 44 -92t182 -72q117 -34 172 -59t84 -59q59 -68 59 -172q0 -140 -95 -222t-257 -82q-177 0 -272 84.5t-95 241.5h139q18 -205 226 -205q95 0 151 46.5t56 123.5t-62 113q-26 17 -57 28.5
t-160 51.5q-141 43 -200.5 103t-59.5 161q0 123 92.5 198.5t241.5 75.5q155 0 241.5 -75.5t94.5 -216.5zM780 1413l-231 -287h-166l-231 287h139l174 -192l176 192h139z" />
    <glyph glyph-name="Tcommaaccent" unicode="&#x162;" horiz-adv-x="948" 
d="M43 1366h864v-133h-356v-1233h-154v1233h-354v133zM440 -514h-94q50 48 84.5 104.5t38.5 98.5q-54 1 -82.5 26.5t-28.5 69.5t32 74t77 30q52 0 84.5 -37.5t32.5 -97.5q0 -63 -33.5 -125.5t-110.5 -142.5z" />
    <glyph glyph-name="tcommaaccent" unicode="&#x163;" horiz-adv-x="643" 
d="M348 971h230v-117h-232l-10 -492v-100q0 -93 22 -125.5t86 -32.5q75 0 140 35v-127q-84 -32 -172 -32q-148 0 -199 88q-27 45 -27 141q0 51 2 82q2 41 2 76l13 487h-146v117h150l6 280h139zM315 -508h-92q48 45 82.5 102t38.5 99q-6 -2 -12 -2q-40 0 -68 28t-28 68
q0 44 31 74t75 30q52 0 83.5 -36.5t31.5 -98.5q0 -119 -142 -264z" />
    <glyph glyph-name="Tcaron" unicode="&#x164;" horiz-adv-x="948" 
d="M43 1366h864v-133h-356v-1233h-154v1233h-354v133zM823 1772l-266 -269h-164l-266 269h141l207 -181l207 181h141z" />
    <glyph glyph-name="tcaron" unicode="&#x165;" horiz-adv-x="643" 
d="M348 971h230v-117h-232l-10 -492v-100q0 -93 22 -125.5t86 -32.5q75 0 140 35v-127q-84 -32 -172 -32q-148 0 -199 88q-27 45 -27 141q0 51 2 82q2 41 2 76l13 487h-146v117h150l6 280h139zM541 1079h-92q47 44 81 101.5t39 99.5h-12q-41 0 -68.5 28t-27.5 68q0 43 31 73
t75 30q52 0 83.5 -37t31.5 -99q0 -120 -141 -264z" />
    <glyph glyph-name="Tbar" unicode="&#x166;" horiz-adv-x="948" 
d="M551 893h276v-127h-276v-766h-154v766h-274v127h274v340h-354v133h864v-133h-356v-340z" />
    <glyph glyph-name="tbar" unicode="&#x167;" horiz-adv-x="651" 
d="M354 971h230v-117h-232l-4 -145h230v-115h-230l-4 -232q-2 -31 -2 -98q0 -94 22.5 -127t86.5 -33q73 0 141 35l-4 -127q-79 -32 -170 -32q-149 0 -199 90q-26 43 -26 139q0 37 4 158l8 227h-144v115h146l2 145h-148v117h152l6 280h139z" />
    <glyph glyph-name="Utilde" unicode="&#x168;" horiz-adv-x="1280" 
d="M158 1366h153v-805q0 -150 8.5 -209.5t34.5 -105.5q37 -62 113.5 -97.5t173.5 -35.5q106 0 185.5 42t111.5 117q19 41 25 97.5t6 191.5v805h153v-807q0 -164 -5 -218.5t-27 -109.5q-50 -120 -168 -187t-281 -67q-164 0 -282.5 67t-168.5 187q-22 55 -27 109.5t-5 218.5
v807zM395 1520l-88 32q26 103 71.5 151t115.5 48q63 0 155 -53q65 -37 90 -47.5t49 -10.5q77 0 101 119l84 -33q-13 -96 -62.5 -150t-122.5 -54q-34 0 -66.5 12t-105.5 51q-78 45 -120 45q-75 0 -101 -110z" />
    <glyph glyph-name="utilde" unicode="&#x169;" horiz-adv-x="1017" 
d="M289 1145l-84 20q43 213 174 213q59 0 139 -53q86 -57 125 -57q66 0 90 118l84 -20q-14 -102 -59 -160.5t-111 -58.5q-57 0 -149 57q-53 32 -76 42.5t-43 10.5q-66 0 -90 -112zM145 971h144v-594q0 -142 33 -195q53 -78 165 -78q129 0 197 109q41 69 41 207v551h143v-676
q0 -161 3 -201.5t20 -93.5h-141q-18 56 -21 129q-43 -82 -103.5 -118t-154.5 -36q-93 0 -168 39.5t-115 108.5q-25 41 -34 96t-9 158v594z" />
    <glyph glyph-name="Umacron" unicode="&#x16a;" horiz-adv-x="1280" 
d="M158 1366h153v-805q0 -150 8.5 -209.5t34.5 -105.5q37 -62 113.5 -97.5t173.5 -35.5q106 0 185.5 42t111.5 117q19 41 25 97.5t6 191.5v805h153v-807q0 -164 -5 -218.5t-27 -109.5q-50 -120 -168 -187t-281 -67q-164 0 -282.5 67t-168.5 187q-22 55 -27 109.5t-5 218.5
v807zM346 1692h590v-107h-590v107z" />
    <glyph glyph-name="umacron" unicode="&#x16b;" horiz-adv-x="1017" 
d="M145 971h144v-594q0 -142 33 -195q53 -78 165 -78q129 0 197 109q41 69 41 207v551h143v-676q0 -161 3 -201.5t20 -93.5h-141q-18 56 -21 129q-43 -82 -103.5 -118t-154.5 -36q-93 0 -168 39.5t-115 108.5q-25 41 -34 96t-9 158v594zM229 1319h559v-109h-559v109z" />
    <glyph glyph-name="Ubreve" unicode="&#x16c;" horiz-adv-x="1280" 
d="M158 1366h153v-805q0 -150 8.5 -209.5t34.5 -105.5q37 -62 113.5 -97.5t173.5 -35.5q106 0 185.5 42t111.5 117q19 41 25 97.5t6 191.5v805h153v-807q0 -164 -5 -218.5t-27 -109.5q-50 -120 -168 -187t-281 -67q-164 0 -282.5 67t-168.5 187q-22 55 -27 109.5t-5 218.5
v807zM362 1774h82q23 -75 75.5 -116.5t121.5 -41.5q70 0 121 41.5t76 116.5h82q-15 -125 -90 -199t-187 -74q-114 0 -191.5 75t-89.5 198z" />
    <glyph glyph-name="ubreve" unicode="&#x16d;" horiz-adv-x="1017" 
d="M256 1397h84q22 -77 66 -118.5t104 -41.5q122 0 166 160h84q-12 -129 -78.5 -203t-169.5 -74t-173.5 75.5t-82.5 201.5zM145 971h144v-594q0 -142 33 -195q53 -78 165 -78q129 0 197 109q41 69 41 207v551h143v-676q0 -161 3 -201.5t20 -93.5h-141q-18 56 -21 129
q-43 -82 -103.5 -118t-154.5 -36q-93 0 -168 39.5t-115 108.5q-25 41 -34 96t-9 158v594z" />
    <glyph glyph-name="Uring" unicode="&#x16e;" horiz-adv-x="1280" 
d="M158 1366h153v-805q0 -150 8.5 -209.5t34.5 -105.5q37 -62 113.5 -97.5t173.5 -35.5q106 0 185.5 42t111.5 117q19 41 25 97.5t6 191.5v805h153v-807q0 -164 -5 -218.5t-27 -109.5q-50 -120 -168 -187t-281 -67q-164 0 -282.5 67t-168.5 187q-22 55 -27 109.5t-5 218.5
v807zM643 1843q76 0 131 -55.5t55 -132.5q0 -78 -55 -133.5t-133 -55.5t-133 55.5t-55 133.5t55.5 133t134.5 55zM643 1755q-43 0 -72.5 -29.5t-29.5 -70.5t29.5 -71t70.5 -30t70.5 30t29.5 71t-29 70.5t-69 29.5z" />
    <glyph glyph-name="uring" unicode="&#x16f;" horiz-adv-x="1017" 
d="M145 971h144v-594q0 -142 33 -195q53 -78 165 -78q129 0 197 109q41 69 41 207v551h143v-676q0 -161 3 -201.5t20 -93.5h-141q-18 56 -21 129q-43 -82 -103.5 -118t-154.5 -36q-93 0 -168 39.5t-115 108.5q-25 41 -34 96t-9 158v594zM510 1470q76 0 131 -55.5t55 -132.5
q0 -79 -55 -134.5t-133 -55.5t-133.5 55.5t-55.5 132.5q0 79 55.5 134.5t135.5 55.5zM510 1382q-43 0 -72.5 -29.5t-29.5 -70.5q0 -43 29.5 -72.5t70.5 -29.5t70.5 29.5t29.5 72.5q0 41 -29 70.5t-69 29.5z" />
    <glyph glyph-name="Uhungarumlaut" unicode="&#x170;" horiz-adv-x="1280" 
d="M158 1366h153v-805q0 -150 8.5 -209.5t34.5 -105.5q37 -62 113.5 -97.5t173.5 -35.5q106 0 185.5 42t111.5 117q19 41 25 97.5t6 191.5v805h153v-807q0 -164 -5 -218.5t-27 -109.5q-50 -120 -168 -187t-281 -67q-164 0 -282.5 67t-168.5 187q-22 55 -27 109.5t-5 218.5
v807zM428 1497l217 281h174l-268 -281h-123zM682 1497l217 281h174l-266 -281h-125z" />
    <glyph glyph-name="uhungarumlaut" unicode="&#x171;" horiz-adv-x="1017" 
d="M145 971h144v-594q0 -142 33 -195q53 -78 165 -78q129 0 197 109q41 69 41 207v551h143v-676q0 -161 3 -201.5t20 -93.5h-141q-18 56 -21 129q-43 -82 -103.5 -118t-154.5 -36q-93 0 -168 39.5t-115 108.5q-25 41 -34 96t-9 158v594zM328 1118l184 281h170l-236 -281
h-118zM575 1118l185 281h172l-238 -281h-119z" />
    <glyph glyph-name="Uogonek" unicode="&#x172;" horiz-adv-x="1280" 
d="M989 -274v-95q-74 -26 -131 -26q-94 0 -154.5 52t-60.5 134q0 62 33 104t131 103q-87 -21 -158 -21q-170 0 -289.5 66t-169.5 188q-22 55 -27 109.5t-5 218.5v807h153v-805q0 -150 8.5 -209.5t34.5 -105.5q37 -62 113.5 -97.5t173.5 -35.5q106 0 185.5 42t111.5 117
q19 41 25 97.5t6 191.5v805h153v-807q0 -166 -5.5 -224t-26.5 -104q-20 -50 -55 -93t-142 -150q-113 -113 -113 -178q0 -46 33 -73.5t90 -27.5q31 0 86 17z" />
    <glyph glyph-name="uogonek" unicode="&#x173;" horiz-adv-x="1017" 
d="M868 971v-676q0 -161 3 -202.5t20 -92.5q-46 -30 -107 -88q-28 -26 -38.5 -46t-10.5 -46q0 -41 29.5 -66.5t75.5 -25.5q38 0 84 16v-90q-59 -23 -123 -23q-88 0 -145.5 48.5t-57.5 121.5q0 61 38 103.5t140 95.5h-26q-18 56 -21 129q-43 -82 -103.5 -118t-154.5 -36
q-93 0 -168 39.5t-115 108.5q-25 41 -34 96t-9 158v594h144v-594q0 -142 33 -195q53 -78 165 -78q129 0 197 109q41 69 41 207v551h143z" />
    <glyph glyph-name="Wcircumflex" unicode="&#x174;" horiz-adv-x="1591" 
d="M35 1366h145l264 -1163l285 1163h131l285 -1163l266 1163h143l-325 -1374h-166l-270 1067l-269 -1067h-166zM449 1503l266 269h164l266 -269h-141l-207 180l-207 -180h-141z" />
    <glyph glyph-name="wcircumflex" unicode="&#x175;" horiz-adv-x="1353" 
d="M31 971h147l209 -770l227 770h123l228 -770l209 770h147l-281 -983h-141l-223 762l-225 -762h-140zM362 1126l232 287h164l233 -287h-139l-176 193l-174 -193h-140z" />
    <glyph glyph-name="Ycircumflex" unicode="&#x176;" horiz-adv-x="1048" 
d="M176 1503l266 269h166l264 -269h-141l-207 180l-205 -180h-143zM25 1366h176l327 -639l322 639h176l-426 -793l2 -573h-153l2 573z" />
    <glyph glyph-name="ycircumflex" unicode="&#x177;" horiz-adv-x="897" 
d="M33 971h153l265 -809l272 809h149l-319 -903q-66 -190 -94.5 -250.5t-75.5 -112.5q-109 -115 -283 -115q-27 0 -45 2v127q138 -2 198 49.5t118 221.5zM139 1126l232 287h164l231 -287h-137l-176 193l-174 -193h-140z" />
    <glyph glyph-name="Ydieresis" unicode="&#x178;" horiz-adv-x="1048" 
d="M25 1366h176l327 -639l322 639h176l-426 -793l2 -573h-153l2 573zM342 1753q47 0 81 -34.5t34 -80.5q0 -49 -33.5 -82.5t-81.5 -33.5q-49 0 -83 33.5t-34 80.5q0 50 33.5 83.5t83.5 33.5zM707 1753q47 0 80.5 -34.5t33.5 -80.5q0 -49 -33 -82.5t-81 -33.5q-49 0 -83 33.5
t-34 80.5q0 50 34 83.5t83 33.5z" />
    <glyph glyph-name="Zacute" unicode="&#x179;" horiz-adv-x="1009" 
d="M106 1366h840v-104l-702 -1129h690v-133h-871v119l697 1116h-654v131zM375 1497l282 281h205l-340 -281h-147z" />
    <glyph glyph-name="zacute" unicode="&#x17a;" horiz-adv-x="815" 
d="M88 971h684v-107l-557 -745h547v-119h-717v113l551 739h-508v119zM303 1120l213 281h205l-299 -281h-119z" />
    <glyph glyph-name="Zdotaccent" unicode="&#x17b;" horiz-adv-x="1009" 
d="M106 1366h840v-104l-702 -1129h690v-133h-871v119l697 1116h-654v131zM524 1765q52 0 89.5 -37.5t37.5 -89.5q0 -54 -37 -91.5t-90 -37.5q-54 0 -91.5 37t-37.5 90q0 54 37.5 91.5t91.5 37.5z" />
    <glyph glyph-name="zdotaccent" unicode="&#x17c;" horiz-adv-x="815" 
d="M88 971h684v-107l-557 -745h547v-119h-717v113l551 739h-508v119zM430 1376q44 0 75.5 -31.5t31.5 -74.5q0 -46 -31.5 -77.5t-75.5 -31.5t-76 32t-32 75q0 46 31 77t77 31z" />
    <glyph glyph-name="Zcaron" unicode="&#x17d;" horiz-adv-x="1009" 
d="M106 1366h840v-104l-702 -1129h690v-133h-871v119l697 1116h-654v131zM877 1772l-267 -269h-164l-266 269h142l206 -181l207 181h142z" />
    <glyph glyph-name="zcaron" unicode="&#x17e;" horiz-adv-x="815" 
d="M88 971h684v-107l-557 -745h547v-119h-717v113l551 739h-508v119zM745 1413l-231 -287h-166l-231 287h139l174 -192l176 192h139z" />
    <glyph glyph-name="uni017F" unicode="&#x17f;" horiz-adv-x="581" 
d="M170 0v1034q0 108 8 158.5t33 89.5q32 54 89 83.5t128 29.5q72 0 154 -31v-133q-78 37 -136 37q-71 0 -100 -47q-15 -26 -19.5 -61t-4.5 -124v-1036h-152z" />
    <glyph glyph-name="florin" unicode="&#x192;" horiz-adv-x="1091" 
d="M717 971h209v-119h-232l-121 -692q-26 -150 -42.5 -213t-41.5 -107q-68 -127 -223 -127q-103 0 -233 68l26 133q107 -72 197 -72q32 0 52 7.5t37 25t30.5 57.5t25 94t27.5 146l121 680h-193v119h213l25 139q33 182 80 252q75 104 211 104q82 0 172 -43l-21 -125
q-96 43 -149 43q-62 0 -93 -54.5t-59 -209.5z" />
    <glyph glyph-name="Ohorn" unicode="&#x1a0;" horiz-adv-x="1323" 
d="M1149 1280h-12q-41 2 -69 29t-28 67q0 44 31.5 74.5t77.5 30.5q51 0 83 -37t32 -96q0 -63 -31.5 -124.5t-102.5 -136.5q40 -78 63.5 -185.5t23.5 -221.5q0 -206 -70 -366t-196.5 -248.5t-288.5 -88.5q-164 0 -291 88.5t-197 249.5t-70 369t70 369t197 249.5t291 88.5
q264 0 430 -238q51 75 57 127zM662 1255q-177 0 -285.5 -155t-108.5 -408q0 -265 107 -422t287 -157q177 0 284 156.5t107 414.5t-107 414.5t-284 156.5z" />
    <glyph glyph-name="ohorn" unicode="&#x1a1;" horiz-adv-x="1032" 
d="M905 963h-12q-40 0 -68 28t-28 68q0 44 31 74t75 30q52 0 83.5 -36.5t31.5 -98.5t-32 -123t-105 -139q59 -130 59 -281q0 -226 -118 -368t-306 -142t-306 142t-118 368t118.5 369t305.5 143q99 0 184 -44t142 -124q56 74 63 134zM516 874q-123 0 -199.5 -106t-76.5 -276
q0 -179 75 -286.5t201 -107.5q124 0 200.5 107t76.5 282q0 173 -76.5 280t-200.5 107z" />
    <glyph glyph-name="Uhorn" unicode="&#x1af;" horiz-adv-x="1280" 
d="M158 1366h153v-805q0 -150 8.5 -209.5t34.5 -105.5q37 -62 113.5 -97.5t173.5 -35.5q106 0 185.5 42t111.5 117q19 41 25 97.5t6 191.5v805h153v-807q0 -164 -5 -218.5t-27 -109.5q-50 -120 -168 -187t-281 -67q-164 0 -282.5 67t-168.5 187q-22 55 -27 109.5t-5 218.5
v807zM1325 1130h-94q50 48 84.5 104.5t38.5 98.5h-15q-39 0 -67.5 29.5t-28.5 69.5q0 43 32.5 73.5t76.5 30.5q52 0 84 -37.5t32 -97.5q0 -64 -33 -126.5t-110 -144.5z" />
    <glyph glyph-name="uhorn" unicode="&#x1b0;" horiz-adv-x="1017" 
d="M145 971h144v-594q0 -142 33 -195q53 -78 165 -78q129 0 197 109q41 69 41 207v551h143v-676q0 -161 3 -201.5t20 -93.5h-141q-18 56 -21 129q-43 -82 -103.5 -118t-154.5 -36q-93 0 -168 39.5t-115 108.5q-25 41 -34 96t-9 158v594zM1022 774h-94q49 44 82.5 100.5
t38.5 100.5h-13q-41 1 -68.5 28.5t-27.5 67.5q0 43 31.5 73t75.5 30q52 0 83 -37t31 -99q0 -61 -33.5 -124t-105.5 -140z" />
    <glyph glyph-name="uni01CD" unicode="&#x1cd;" horiz-adv-x="1159" 
d="M512 1374h133l471 -1374h-160l-120 362h-514l-123 -362h-158zM793 496l-215 680l-216 -680h431zM926 1772l-264 -269h-166l-267 269h144l205 -181l206 181h142z" />
    <glyph glyph-name="uni01CE" unicode="&#x1ce;" horiz-adv-x="974" 
d="M270 717h-141q15 136 108.5 208t254.5 72q119 0 201 -42t110 -117q13 -36 17.5 -80.5t4.5 -136.5v-365q0 -117 4.5 -160.5t22.5 -95.5h-137q-15 49 -23 131q-86 -156 -284 -156q-142 0 -228 76.5t-86 204.5q0 101 57.5 175.5t167.5 115.5q116 43 365 86v41q0 108 -46 154
t-153 46q-95 0 -147.5 -38t-67.5 -119zM684 430v96q-245 -43 -343.5 -101.5t-98.5 -158.5q0 -75 52 -122.5t136 -47.5q69 0 126 30.5t89 84.5q39 68 39 219zM807 1413l-232 -287h-163l-232 287h137l177 -192l174 192h139z" />
    <glyph glyph-name="uni01D2" unicode="&#x1d2;" horiz-adv-x="1032" 
d="M516 997q188 0 306 -142.5t118 -369.5q0 -225 -118.5 -367.5t-305.5 -142.5q-189 0 -306.5 143.5t-117.5 375.5q0 220 119 361.5t305 141.5zM516 874q-123 0 -199.5 -106t-76.5 -276q0 -179 75 -286.5t201 -107.5q124 0 200.5 107t76.5 282q0 173 -76.5 280t-200.5 107z
M823 1413l-231 -287h-164l-231 287h137l176 -192l174 192h139z" />
    <glyph glyph-name="uni01D3" unicode="&#x1d3;" horiz-adv-x="1280" 
d="M158 1366h153v-805q0 -150 8.5 -209.5t34.5 -105.5q37 -62 113.5 -97.5t173.5 -35.5q106 0 185.5 42t111.5 117q19 41 25 97.5t6 191.5v805h153v-807q0 -164 -5 -218.5t-27 -109.5q-50 -120 -168 -187t-281 -67q-164 0 -282.5 67t-168.5 187q-22 55 -27 109.5t-5 218.5
v807zM989 1772l-266 -269h-164l-266 269h141l207 -181l207 181h141z" />
    <glyph glyph-name="uni01D4" unicode="&#x1d4;" horiz-adv-x="1017" 
d="M145 971h144v-594q0 -142 33 -195q53 -78 165 -78q129 0 197 109q41 69 41 207v551h143v-676q0 -161 3 -201.5t20 -93.5h-141q-18 56 -21 129q-43 -82 -103.5 -118t-154.5 -36q-93 0 -168 39.5t-115 108.5q-25 41 -34 96t-9 158v594zM823 1413l-231 -287h-166l-231 287
h139l174 -192l176 192h139z" />
    <glyph glyph-name="Gcaron" unicode="&#x1e6;" horiz-adv-x="1273" 
d="M1024 1772l-266 -269h-164l-266 269h141l207 -181l205 181h143zM729 678h416v-561q-199 -142 -451 -142q-275 0 -432.5 191t-157.5 524q0 317 155 509t411 192q110 0 202.5 -39t155.5 -113q42 -50 64 -106.5t34 -143.5h-143q-32 138 -108 202t-207 64q-186 0 -293 -152
t-107 -415q0 -274 112.5 -425.5t315.5 -151.5q157 0 310 90v344h-277v133z" />
    <glyph glyph-name="gcaron" unicode="&#x1e7;" horiz-adv-x="989" 
d="M825 1413l-231 -287h-166l-231 287h139l174 -192l176 192h139zM944 971v-109l-199 4q40 -37 62 -96t22 -127q0 -69 -25 -126.5t-69 -92.5q-60 -46 -223 -82q-106 -23 -147 -41q-58 -28 -58 -65q0 -31 34 -42.5t161 -23.5q142 -14 200 -26t105 -38q61 -32 95 -90.5
t34 -132.5q0 -140 -118 -220.5t-322 -80.5q-198 0 -317.5 77t-119.5 204q0 88 48.5 144.5t156.5 94.5q-56 21 -80 47.5t-24 65.5q0 50 39.5 85.5t134.5 70.5q-100 40 -147.5 108.5t-47.5 171.5q0 151 98 241.5t259 90.5q73 0 151 -22zM494 868q-97 0 -157.5 -59t-60.5 -154
q0 -91 57.5 -145.5t151.5 -54.5q95 0 152 54.5t57 145.5q0 93 -56.5 153t-143.5 60zM487 39q-141 0 -219 -44t-78 -124q0 -77 84.5 -123.5t223.5 -46.5q138 0 218.5 46t80.5 124q0 82 -79.5 125t-230.5 43z" />
    <glyph glyph-name="uni01F4" unicode="&#x1f4;" horiz-adv-x="1273" 
d="M520 1497l283 281h205l-340 -281h-148zM729 678h416v-561q-199 -142 -451 -142q-275 0 -432.5 191t-157.5 524q0 317 155 509t411 192q110 0 202.5 -39t155.5 -113q42 -50 64 -106.5t34 -143.5h-143q-32 138 -108 202t-207 64q-186 0 -293 -152t-107 -415
q0 -274 112.5 -425.5t315.5 -151.5q157 0 310 90v344h-277v133z" />
    <glyph glyph-name="Aringacute" unicode="&#x1fa;" horiz-adv-x="1159" 
d="M512 1374h133l471 -1374h-160l-120 362h-514l-123 -362h-158zM793 496l-215 680l-216 -680h431zM584 1774q76 0 131 -56t55 -133q0 -78 -55 -133t-133 -55t-133.5 55t-55.5 133t56 133.5t135 55.5zM584 1686q-43 0 -73 -30t-30 -71t30 -70.5t71 -29.5t70.5 29.5
t29.5 70.5t-29 71t-69 30zM299 1743l283 278h204l-340 -278h-147z" />
    <glyph glyph-name="AEacute" unicode="&#x1fc;" horiz-adv-x="1744" 
d="M825 1366h828v-133h-590v-459h541v-133h-541v-508h594v-133h-752v362h-487l-205 -362h-170zM905 496v735l-411 -735h411zM926 1497l284 281h205l-340 -281h-149z" />
    <glyph glyph-name="aeacute" unicode="&#x1fd;" horiz-adv-x="1579" 
d="M1487 465h-666q3 -177 78 -272t213 -95q152 0 225 148l133 -17q-31 -117 -127.5 -185.5t-230.5 -68.5q-121 0 -214 54.5t-146 156.5q-56 -108 -139 -159.5t-201 -51.5q-140 0 -228 74.5t-88 192.5q0 160 151.5 248t426.5 88v61q0 128 -31 172q-45 63 -156 63
q-177 0 -223 -169h-137q20 139 115.5 215.5t249.5 76.5q238 0 299 -168q60 88 132 128t171 40q106 0 190.5 -51t134.5 -143q36 -69 51.5 -143t16.5 -195zM827 578h502q-9 144 -71 221.5t-168 77.5q-103 0 -173 -79t-90 -220zM674 465h-27h-18q-180 -1 -282.5 -59
t-102.5 -158q0 -68 50 -110t132 -42q68 0 123.5 30t85.5 85q39 62 39 188v66zM711 1120l211 281h206l-299 -281h-118z" />
    <glyph glyph-name="Oslashacute" unicode="&#x1fe;" horiz-adv-x="1323" 
d="M1001 1260l80 106h127l-133 -186q142 -207 142 -508q0 -309 -155.5 -502t-404.5 -193q-98 0 -172 29.5t-170 104.5l-77 -111h-125l131 188q-79 134 -109.5 242.5t-30.5 253.5q0 364 201 559q72 71 166 109.5t195 38.5q94 0 165.5 -28t169.5 -103zM344 319l569 822
q-99 116 -258 116q-167 0 -264 -135q-123 -174 -123 -434q0 -204 76 -369zM975 1047l-569 -820q63 -63 118.5 -88.5t128.5 -25.5q181 0 290.5 155t109.5 412q0 223 -78 367zM559 1497l283 281h207l-342 -281h-148z" />
    <glyph glyph-name="oslashacute" unicode="&#x1ff;" horiz-adv-x="1032" 
d="M55 0l123 154q-86 137 -86 323q0 229 119.5 375.5t306.5 146.5q82 0 142 -23.5t133 -84.5l69 80h115l-123 -152l10 -18q43 -82 59.5 -148t16.5 -159q0 -229 -119.5 -374t-308.5 -145q-76 0 -150 28.5t-118 74.5l-70 -78h-119zM279 268l426 520q-46 48 -88.5 68.5
t-96.5 20.5q-125 0 -202.5 -112t-77.5 -292q0 -108 39 -205zM756 700l-424 -520q26 -35 77 -58.5t103 -23.5q126 0 203.5 110.5t77.5 289.5q0 112 -37 202zM438 1120l213 281h205l-299 -281h-119z" />
    <glyph glyph-name="Scommaaccent" unicode="&#x218;" horiz-adv-x="1120" 
d="M969 1012h-150q-10 117 -79.5 180t-186.5 63q-108 0 -179 -59t-71 -149t82 -144q34 -23 64.5 -38t179.5 -83q130 -58 195 -97.5t102 -82.5q82 -97 82 -235q0 -175 -123.5 -282.5t-323.5 -107.5q-120 0 -214.5 40.5t-153.5 117.5q-43 55 -63 119.5t-26 161.5h150
q11 -148 91 -225.5t222 -77.5q124 0 203.5 66t79.5 169q0 98 -82 168q-32 28 -72 49.5t-141 65.5q-208 93 -279 149q-126 99 -126 254q0 156 115.5 256.5t295.5 100.5q109 0 196.5 -40.5t141.5 -115.5q62 -84 70 -223zM532 -514h-94q50 48 84.5 104.5t38.5 98.5
q-54 1 -82 26t-28 70q0 44 31.5 74t76.5 30q52 0 84.5 -37.5t32.5 -97.5q0 -63 -33.5 -125.5t-110.5 -142.5z" />
    <glyph glyph-name="scommaaccent" unicode="&#x219;" horiz-adv-x="897" 
d="M793 705h-140q-10 89 -58.5 131.5t-139.5 42.5q-83 0 -135 -40.5t-52 -105.5q0 -60 44 -92t182 -72q117 -34 172 -59t84 -59q59 -68 59 -172q0 -140 -95 -222t-257 -82q-177 0 -272 84.5t-95 241.5h139q18 -205 226 -205q95 0 151 46.5t56 123.5t-62 113q-26 17 -57 28.5
t-160 51.5q-141 43 -200.5 103t-59.5 161q0 123 92.5 198.5t241.5 75.5q155 0 241.5 -75.5t94.5 -216.5zM430 -508h-92q48 45 82.5 102t38.5 99q-6 -2 -13 -2q-40 0 -68 28t-28 68q0 44 31 74t76 30q52 0 83 -36.5t31 -98.5q0 -120 -141 -264z" />
    <glyph glyph-name="GID1111" unicode="&#x21a;" horiz-adv-x="948" 
d="M43 1366h864v-133h-356v-1233h-154v1233h-354v133zM440 -514h-94q50 48 84.5 104.5t38.5 98.5q-54 1 -82.5 26.5t-28.5 69.5t32 74t77 30q52 0 84.5 -37.5t32.5 -97.5q0 -63 -33.5 -125.5t-110.5 -142.5z" />
    <glyph glyph-name="GID1112" unicode="&#x21b;" horiz-adv-x="643" 
d="M348 971h230v-117h-232l-10 -492v-100q0 -93 22 -125.5t86 -32.5q75 0 140 35v-127q-84 -32 -172 -32q-148 0 -199 88q-27 45 -27 141q0 51 2 82q2 41 2 76l13 487h-146v117h150l6 280h139zM315 -508h-92q48 45 82.5 102t38.5 99q-6 -2 -12 -2q-40 0 -68 28t-28 68
q0 44 31 74t75 30q52 0 83.5 -36.5t31.5 -98.5q0 -119 -142 -264z" />
    <glyph glyph-name="afii57929" unicode="&#x2bc;" horiz-adv-x="456" 
d="M197 928h-125q59 58 99 123t46 116q-56 0 -88.5 29t-32.5 80q0 47 35 81t84 34q57 0 92 -42t35 -110q0 -141 -145 -311z" />
    <glyph glyph-name="circumflex" unicode="&#x2c6;" 
d="M199 1126l231 287h164l233 -287h-139l-176 193l-174 -193h-139z" />
    <glyph glyph-name="caron" unicode="&#x2c7;" 
d="M827 1413l-231 -287h-166l-231 287h139l174 -192l176 192h139z" />
    <glyph glyph-name="uni02C9" unicode="&#x2c9;" 
d="M233 1319h560v-109h-560v109z" />
    <glyph glyph-name="breve" unicode="&#x2d8;" 
d="M260 1397h84q20 -75 65 -117.5t105 -42.5q121 0 166 160h84q-12 -128 -78.5 -202.5t-169.5 -74.5t-173.5 75.5t-82.5 201.5z" />
    <glyph glyph-name="dotaccent" unicode="&#x2d9;" 
d="M512 1376q44 0 75 -31.5t31 -74.5q0 -46 -31 -77.5t-75 -31.5t-76.5 32t-32.5 75q0 46 31.5 77t77.5 31z" />
    <glyph glyph-name="ring" unicode="&#x2da;" 
d="M514 1470q76 0 131 -55.5t55 -132.5q0 -79 -55 -134.5t-133 -55.5t-133 55.5t-55 132.5q0 80 55 135t135 55zM514 1382q-43 0 -72.5 -29.5t-29.5 -70.5q0 -43 29.5 -72.5t70.5 -29.5t70.5 29.5t29.5 72.5q0 41 -29 70.5t-69 29.5z" />
    <glyph glyph-name="ogonek" unicode="&#x2db;" 
d="M627 0h149q-196 -84 -196 -180q0 -41 30.5 -66.5t79.5 -25.5q38 0 84 16v-90q-59 -23 -121 -23q-88 0 -144 48.5t-56 123.5q0 65 44.5 115.5t129.5 81.5z" />
    <glyph glyph-name="tilde" unicode="&#x2dc;" 
d="M291 1145l-84 20q43 213 174 213q60 0 137 -53q53 -34 78.5 -45.5t48.5 -11.5q66 0 90 118l84 -20q-13 -101 -59 -160t-111 -59q-57 0 -149 57q-53 33 -76 43t-45 10q-65 0 -88 -112z" />
    <glyph glyph-name="hungarumlaut" unicode="&#x2dd;" 
d="M336 1118l184 281h170l-235 -281h-119zM584 1118l184 281h172l-238 -281h-118z" />
    <glyph glyph-name="tonos" unicode="&#x384;" horiz-adv-x="288" 
d="M197 1094h-105l-24 354h153z" />
    <glyph glyph-name="dieresistonos" unicode="&#x385;" horiz-adv-x="829" 
d="M467 1094h-107l-22 354h154zM176 1376q44 0 75.5 -31.5t31.5 -74.5q0 -46 -31.5 -77.5t-75.5 -31.5t-76 32t-32 75q0 46 31 77t77 31zM653 1376q44 0 75.5 -31.5t31.5 -74.5q0 -46 -31.5 -77.5t-75.5 -31.5t-76 32t-32 75q0 46 31 77t77 31z" />
    <glyph glyph-name="Alphatonos" unicode="&#x386;" horiz-adv-x="1171" 
d="M526 1374h133l471 -1374h-159l-121 362h-514l-123 -362h-158zM807 496l-215 680l-215 -680h430zM266 1094h-104l-25 354h154z" />
    <glyph glyph-name="anoteleia" unicode="&#x387;" horiz-adv-x="522" 
d="M262 631q48 0 82.5 -35t34.5 -84q0 -48 -35 -82.5t-84 -34.5q-47 0 -82 35t-35 82q0 51 34.5 85t84.5 34z" />
    <glyph glyph-name="Epsilontonos" unicode="&#x388;" horiz-adv-x="1097" 
d="M401 774h553v-133h-553v-508h609v-133h-762v1366h749v-133h-596v-459zM129 1094h-104l-25 354h154z" />
    <glyph glyph-name="Etatonos" unicode="&#x389;" horiz-adv-x="1370" 
d="M401 778h639v588h154v-1366h-154v651h-639v-651h-153v1366h153v-588zM129 1094h-104l-25 354h154z" />
    <glyph glyph-name="Iotatonos" unicode="&#x38a;" horiz-adv-x="575" 
d="M401 0h-157v1366h157v-1366zM129 1094h-104l-25 354h154z" />
    <glyph glyph-name="Omicrontonos" unicode="&#x38c;" horiz-adv-x="1347" 
d="M686 1391q247 0 401 -196t154 -511t-154 -511t-401 -196q-252 0 -404.5 196.5t-152.5 520.5q0 202 70.5 361t197.5 247.5t289 88.5zM686 1255q-177 0 -285 -154.5t-108 -408.5q0 -265 106.5 -422t286.5 -157q177 0 284 156.5t107 414.5t-107 414.5t-284 156.5zM129 1094
h-104l-25 354h154z" />
    <glyph glyph-name="Upsilontonos" unicode="&#x38e;" horiz-adv-x="1200" 
d="M174 1366h176l328 -639l323 639h175l-426 -793l2 -573h-154l4 573zM115 1094h-105l-24 354h153z" />
    <glyph glyph-name="Omegatonos" unicode="&#x38f;" horiz-adv-x="1359" 
d="M129 1094h-104l-25 354h154zM770 0v252q160 23 252 153.5t92 331.5q0 235 -115 376.5t-305 141.5t-305 -141.5t-115 -376.5q0 -201 92 -331.5t252 -153.5v-252h-507v133h383v39q-187 58 -285 205.5t-98 370.5q0 287 161 465t422 178t422.5 -178t161.5 -465
q0 -223 -98 -370.5t-285 -205.5v-39h383v-133h-508z" />
    <glyph glyph-name="iotadieresistonos" unicode="&#x390;" horiz-adv-x="452" 
d="M150 971h151v-971h-151v971zM279 1094h-107l-22 354h153zM-12 1376q44 0 75 -31.5t31 -74.5q0 -46 -31 -77.5t-75 -31.5t-76.5 32t-32.5 75q0 46 31.5 77t77.5 31zM465 1376q44 0 75 -31.5t31 -74.5q0 -46 -31 -77.5t-75 -31.5t-76.5 32t-32.5 75q0 46 31.5 77t77.5 31z
" />
    <glyph glyph-name="Alpha" unicode="&#x391;" horiz-adv-x="1159" 
d="M512 1374h133l471 -1374h-160l-120 362h-514l-123 -362h-158zM793 496l-215 680l-216 -680h431z" />
    <glyph glyph-name="Beta" unicode="&#x392;" horiz-adv-x="1124" 
d="M176 1366h250q136 0 206.5 -7t127.5 -26q100 -34 155.5 -114.5t55.5 -192.5q0 -117 -55.5 -189.5t-172.5 -109.5q153 -37 226 -121.5t73 -224.5q0 -126 -62.5 -220t-166.5 -126q-65 -22 -143 -28.5t-256 -6.5h-238v1366zM328 778h129q101 0 157.5 9.5t98.5 33.5
q49 26 75.5 78t26.5 117q0 71 -32.5 122.5t-90.5 73.5q-40 15 -88 20t-155 5h-121v-459zM328 129h137q124 0 186.5 7.5t108.5 27.5q57 25 89 84t32 141q0 86 -42 148.5t-114 87.5q-81 24 -260 24h-137v-520z" />
    <glyph glyph-name="Gamma" unicode="&#x393;" horiz-adv-x="958" 
d="M176 0v1366h742v-133h-584v-1233h-158z" />
    <glyph glyph-name="uni0394" unicode="&#x394;" horiz-adv-x="1101" 
d="M14 0l471 1374h133l472 -1374h-1076zM887 133l-336 1043l-336 -1043h672z" />
    <glyph glyph-name="Epsilon" unicode="&#x395;" horiz-adv-x="1028" 
d="M330 774h553v-133h-553v-508h610v-133h-764v1366h750v-133h-596v-459z" />
    <glyph glyph-name="Zeta" unicode="&#x396;" horiz-adv-x="1009" 
d="M106 1366h840v-104l-702 -1129h690v-133h-871v119l697 1116h-654v131z" />
    <glyph glyph-name="Eta" unicode="&#x397;" horiz-adv-x="1298" 
d="M330 778h641v588h153v-1366h-153v651h-641v-651h-154v1366h154v-588z" />
    <glyph glyph-name="Theta" unicode="&#x398;" horiz-adv-x="1323" 
d="M662 1391q247 0 401 -196t154 -511t-154 -511t-401 -196q-252 0 -405 196.5t-153 520.5q0 202 70.5 361t198 247.5t289.5 88.5zM662 1255q-177 0 -285.5 -155t-108.5 -408q0 -265 107 -422t287 -157q177 0 284 156.5t107 414.5t-107 414.5t-284 156.5zM424 752h473v-127
h-473v127z" />
    <glyph glyph-name="Iota" unicode="&#x399;" horiz-adv-x="503" 
d="M332 0h-158v1366h158v-1366z" />
    <glyph glyph-name="Kappa" unicode="&#x39a;" horiz-adv-x="1142" 
d="M885 1366h186l-557 -645l610 -721h-209l-583 717zM176 1366h154v-1366h-154v1366z" />
    <glyph glyph-name="Lambda" unicode="&#x39b;" horiz-adv-x="1134" 
d="M1114 0h-162l-389 1188l-383 -1188h-160l472 1374h153z" />
    <glyph glyph-name="Mu" unicode="&#x39c;" horiz-adv-x="1583" 
d="M176 1366h232l383 -1198l385 1198h231v-1366h-145v1212l-394 -1212h-153l-393 1212v-1212h-146v1366z" />
    <glyph glyph-name="Nu" unicode="&#x39d;" horiz-adv-x="1316" 
d="M176 1366h166l655 -1137v1137h144v-1366h-168l-651 1135v-1135h-146v1366z" />
    <glyph glyph-name="Xi" unicode="&#x39e;" horiz-adv-x="1046" 
d="M131 641v133h784v-133h-784zM76 0v133h897v-133h-897zM88 1233v133h873v-133h-873z" />
    <glyph glyph-name="Omicron" unicode="&#x39f;" horiz-adv-x="1323" 
d="M662 1391q247 0 401 -196t154 -511t-154 -511t-401 -196q-252 0 -405 196.5t-153 520.5q0 202 70.5 361t198 247.5t289.5 88.5zM662 1255q-177 0 -285.5 -155t-108.5 -408q0 -265 107 -422t287 -157q177 0 284 156.5t107 414.5t-107 414.5t-284 156.5z" />
    <glyph glyph-name="Pi" unicode="&#x3a0;" horiz-adv-x="1298" 
d="M330 1239v-1239h-154v1366h948v-1366h-153v1239h-641z" />
    <glyph glyph-name="Rho" unicode="&#x3a1;" horiz-adv-x="1077" 
d="M176 1366h225q154 0 234.5 -7.5t142.5 -29.5q112 -37 177 -137.5t65 -235.5q0 -126 -56.5 -220t-156.5 -134q-64 -26 -143 -35.5t-234 -9.5h-100v-557h-154v1366zM330 690h96q168 0 254 19q86 20 132 84t46 163q0 89 -36.5 153.5t-102.5 90.5q-51 20 -110.5 26.5
t-198.5 6.5h-80v-543z" />
    <glyph glyph-name="Sigma" unicode="&#x3a3;" horiz-adv-x="952" 
d="M522 678l-452 584v104h839v-131h-622l411 -551l-471 -551h670v-133h-870v119z" />
    <glyph glyph-name="Tau" unicode="&#x3a4;" horiz-adv-x="948" 
d="M43 1366h864v-133h-356v-1233h-154v1233h-354v133z" />
    <glyph glyph-name="Upsilon" unicode="&#x3a5;" horiz-adv-x="1048" 
d="M25 1366h176l327 -639l322 639h176l-426 -793l2 -573h-153l2 573z" />
    <glyph glyph-name="Phi" unicode="&#x3a6;" horiz-adv-x="1427" 
d="M784 1366v-137q193 -12 322 -88q122 -74 187 -194t65 -271q0 -164 -77 -292.5t-216 -195.5q-115 -56 -281 -65v-123h-143v123q-199 12 -322 88q-122 74 -186.5 193.5t-64.5 271.5q0 163 76.5 290.5t215.5 196.5q118 57 281 66v137h143zM641 246v860q-144 -9 -235 -68
q-89 -54 -140 -151t-51 -211q0 -126 60.5 -229.5t162.5 -153.5q66 -35 203 -47zM784 1106v-860q145 9 236 65q89 55 139.5 152t50.5 213q0 127 -60 228.5t-163 154.5q-77 38 -203 47z" />
    <glyph glyph-name="Chi" unicode="&#x3a7;" horiz-adv-x="1112" 
d="M66 1366h176l315 -524l320 524h176l-406 -651l426 -715h-174l-342 571l-342 -571h-174l428 715z" />
    <glyph glyph-name="Psi" unicode="&#x3a8;" horiz-adv-x="1249" 
d="M702 295v-295h-157v295q-141 0 -250.5 53.5t-169.5 151.5q-38 64 -47.5 128t-9.5 251v487h153v-485q0 -181 14.5 -247.5t65.5 -115.5q40 -40 104.5 -63.5t139.5 -24.5v936h157v-936q75 1 139.5 24.5t104.5 63.5q51 49 65.5 115.5t14.5 247.5v485h154v-487q0 -130 -3 -175
t-12 -90q-31 -147 -156 -233t-307 -86z" />
    <glyph glyph-name="uni03A9" unicode="&#x3a9;" horiz-adv-x="1331" 
d="M741 0v252q160 23 252 153.5t92 331.5q0 235 -114.5 376.5t-304.5 141.5t-305 -141.5t-115 -376.5q0 -201 92 -331.5t252 -153.5v-252h-508v133h383v39q-187 58 -285 205.5t-98 370.5q0 287 161.5 465t422.5 178t422 -178t161 -465q0 -223 -98 -370.5t-285 -205.5v-39
h383v-133h-508z" />
    <glyph glyph-name="Iotadieresis" unicode="&#x3aa;" horiz-adv-x="503" 
d="M330 0h-158v1366h158v-1366zM106 1749q44 0 77.5 -33.5t33.5 -79.5t-33.5 -79t-79.5 -33t-79 33t-33 79q0 48 32.5 80.5t81.5 32.5zM399 1749q44 0 77.5 -33.5t33.5 -79.5t-33.5 -79t-79.5 -33t-79 33t-33 79q0 47 33.5 80t80.5 33z" />
    <glyph glyph-name="Upsilondieresis" unicode="&#x3ab;" horiz-adv-x="1048" 
d="M344 1755q47 0 81 -35t34 -82q0 -49 -33.5 -82.5t-83.5 -33.5q-47 0 -82 34.5t-35 81.5q0 50 34 83.5t85 33.5zM711 1755q47 0 80.5 -34.5t33.5 -82.5q0 -50 -33.5 -83t-82.5 -33q-47 0 -82 34.5t-35 81.5q0 50 34 83.5t85 33.5zM25 1366h176l327 -639l322 639h176
l-426 -793l2 -573h-153l2 573z" />
    <glyph glyph-name="alphatonos" unicode="&#x3ac;" horiz-adv-x="1110" 
d="M893 0l-51 250q-17 -50 -60 -117q-53 -83 -120.5 -120.5t-165.5 -37.5q-180 0 -292 141.5t-112 368.5q0 230 114 371t300 141q172 0 262 -116q36 -48 76 -144l39 234h143l-100 -486l110 -485h-143zM788 485q-32 117 -51 169.5t-45 99.5q-64 120 -190 120
q-119 0 -190.5 -107t-71.5 -284q0 -169 72 -277t186 -108q126 0 200 148q40 84 90 239zM602 1094h-104l-25 354h154z" />
    <glyph glyph-name="epsilontonos" unicode="&#x3ad;" horiz-adv-x="929" 
d="M827 655h-141q-22 123 -71 172.5t-150 49.5q-88 0 -139.5 -45t-51.5 -121q0 -80 60 -123t172 -43h43v-117q-37 2 -82 2q-110 0 -161.5 -38.5t-51.5 -121.5q0 -82 57 -127t160 -45q104 0 156.5 56t64.5 180h144q-13 -178 -107 -268.5t-264 -90.5q-163 0 -259.5 78
t-96.5 209q0 179 186 227q-86 32 -126 87t-40 141q0 129 90 205.5t242 76.5q110 0 182.5 -35t122.5 -110q50 -74 61 -199zM516 1094h-104l-25 354h154z" />
    <glyph glyph-name="etatonos" unicode="&#x3ae;" horiz-adv-x="1032" 
d="M125 971h137q21 -62 21 -142q98 168 292 168q99 0 173 -41.5t106 -115.5q21 -48 26 -94t5 -189v-960h-144v952q0 107 -4.5 148.5t-19.5 76.5q-46 96 -170 96q-65 0 -120 -30t-89 -84q-47 -73 -47 -213v-543h-144v641q0 180 -2.5 222.5t-19.5 107.5zM567 1094h-104
l-25 354h154z" />
    <glyph glyph-name="iotatonos" unicode="&#x3af;" horiz-adv-x="452" 
d="M152 971h151v-971h-151v971zM279 1094h-105l-24 354h153z" />
    <glyph glyph-name="upsilondieresistonos" unicode="&#x3b0;" horiz-adv-x="1013" 
d="M868 971v-623q0 -177 -95 -275t-265 -98q-172 0 -267.5 98t-95.5 275v623h144v-623q0 -109 37 -164q28 -40 77 -63t105 -23q60 0 111.5 27.5t76.5 73.5q29 56 29 149v623h143zM559 1094h-106l-23 354h154zM268 1376q44 0 75.5 -31.5t31.5 -74.5q0 -46 -31.5 -77.5
t-75.5 -31.5t-76 32t-32 75q0 46 31 77t77 31zM745 1376q44 0 75.5 -31.5t31.5 -74.5q0 -46 -31.5 -77.5t-75.5 -31.5t-76 32t-32 75q0 46 31 77t77 31z" />
    <glyph glyph-name="alpha" unicode="&#x3b1;" horiz-adv-x="1110" 
d="M893 0l-51 250q-17 -50 -60 -117q-53 -83 -120.5 -120.5t-165.5 -37.5q-180 0 -292 141.5t-112 368.5q0 230 114 371t300 141q172 0 262 -116q36 -48 76 -144l39 234h143l-100 -486l110 -485h-143zM788 485q-32 117 -51 169.5t-45 99.5q-64 120 -190 120
q-119 0 -190.5 -107t-71.5 -284q0 -169 72 -277t186 -108q126 0 200 148q40 84 90 239z" />
    <glyph glyph-name="beta" unicode="&#x3b2;" horiz-adv-x="1040" 
d="M152 -403v1290q0 136 11 199.5t46 121.5q107 185 340 185q172 0 271.5 -97t99.5 -264q0 -147 -84 -237q-26 -29 -54 -44.5t-75 -27.5q57 -15 89 -33t64 -53q88 -101 88 -262q0 -180 -99 -291t-259 -111q-193 0 -295 162v-538h-143zM508 659v115h31q101 0 160 67.5
t59 184.5q0 112 -60.5 178t-162.5 66q-78 0 -134 -38.5t-82 -111.5q-12 -29 -20.5 -104.5t-5.5 -118.5v-10v-342q0 -98 15 -186.5t40 -129.5q37 -63 95 -98t126 -35q104 0 168 78.5t64 206.5q0 83 -29.5 146.5t-83.5 97.5q-32 20 -70.5 27t-109.5 7z" />
    <glyph glyph-name="gamma" unicode="&#x3b3;" horiz-adv-x="866" 
d="M506 -12v-391h-144v360l-348 1014h154l262 -809l275 809h149z" />
    <glyph glyph-name="delta" unicode="&#x3b4;" horiz-adv-x="1032" 
d="M512 979l-313 281v106h684v-119h-482l336 -309q203 -188 203 -451q0 -227 -118 -369.5t-306 -142.5q-189 0 -306.5 144t-117.5 373q0 247 133 380q51 51 118 80t134 29zM516 877q-123 0 -199.5 -106.5t-76.5 -276.5q0 -180 75 -288t201 -108q124 0 200.5 107t76.5 282
t-76.5 282.5t-200.5 107.5z" />
    <glyph glyph-name="epsilon" unicode="&#x3b5;" horiz-adv-x="929" 
d="M821 711l-143 -17q-23 100 -71 141.5t-142 41.5q-88 0 -139.5 -45t-51.5 -121q0 -80 60 -123t172 -43h43v-117q-35 2 -82 2q-110 0 -161.5 -38.5t-51.5 -121.5q0 -82 57 -127t160 -45q95 0 143.5 42.5t71.5 144.5l141 -17q-22 -89 -48 -137.5t-72 -85.5q-91 -70 -240 -70
q-164 0 -261 78t-97 209q0 179 186 227q-86 32 -126 87t-40 141q0 129 90 205.5t242 76.5q86 0 144.5 -18.5t105.5 -62.5q44 -38 67 -81.5t43 -125.5z" />
    <glyph glyph-name="zeta" unicode="&#x3b6;" horiz-adv-x="718" 
d="M782 1366v-113q-296 -224 -419 -401.5t-123 -380.5q0 -220 110 -321q39 -36 88.5 -54.5t128.5 -25.5q91 -9 140 -29q37 -19 58 -52.5t21 -74.5q0 -57 -27.5 -129t-94.5 -188h-142q89 167 105 203.5t16 72.5q0 67 -57 82q-4 1 -15 2.5t-42.5 5.5t-73.5 10
q-175 25 -269 153.5t-94 344.5q0 210 121.5 394t394.5 388h-458v113h632z" />
    <glyph glyph-name="eta" unicode="&#x3b7;" horiz-adv-x="1032" 
d="M125 971h137q21 -62 21 -142q98 168 292 168q99 0 173 -41.5t106 -115.5q21 -48 26 -94t5 -189v-960h-144v952q0 107 -4.5 148.5t-19.5 76.5q-46 96 -170 96q-65 0 -120 -30t-89 -84q-47 -73 -47 -213v-543h-144v641q0 180 -2.5 222.5t-19.5 107.5z" />
    <glyph glyph-name="theta" unicode="&#x3b8;" horiz-adv-x="1032" 
d="M242 743h549q-9 243 -83.5 386t-191.5 143t-191 -143t-83 -386zM791 627h-549q9 -244 83 -387.5t191 -143.5t191.5 143.5t83.5 387.5zM516 1395q187 0 305.5 -197.5t118.5 -511.5t-118.5 -511.5t-305.5 -197.5q-189 0 -306.5 199t-117.5 520q0 202 54 361.5t151 248.5
t219 89z" />
    <glyph glyph-name="iota" unicode="&#x3b9;" horiz-adv-x="452" 
d="M150 971h151v-971h-151v971z" />
    <glyph glyph-name="kappa" unicode="&#x3ba;" horiz-adv-x="964" 
d="M705 971h174l-406 -436l436 -535h-198l-416 528zM150 971h143v-971h-143v971z" />
    <glyph glyph-name="lambda" unicode="&#x3bb;" horiz-adv-x="860" 
d="M365 989l-138 377h150l477 -1366h-154l-264 809l-272 -809h-150z" />
    <glyph glyph-name="uni03BC" unicode="&#x3bc;" horiz-adv-x="1017" 
d="M289 23v-426h-144v1374h144v-594q0 -142 33 -195q53 -78 165 -78q129 0 197 109q41 69 41 207v551h143v-676q0 -161 3 -201.5t20 -93.5h-141q-18 56 -21 129q-43 -80 -103.5 -117t-152.5 -37q-102 0 -184 48z" />
    <glyph glyph-name="nu" unicode="&#x3bd;" horiz-adv-x="882" 
d="M20 971h150l272 -815l271 815h147l-344 -983h-151z" />
    <glyph glyph-name="xi" unicode="&#x3be;" horiz-adv-x="788" 
d="M760 1249h-109q-120 0 -168 -9.5t-92 -41.5q-41 -29 -65.5 -74t-24.5 -92q0 -51 28.5 -92t80.5 -66q32 -18 74 -29t71 -11h78v-117h-84q-73 0 -114.5 -10.5t-78.5 -38.5q-51 -38 -78.5 -105.5t-27.5 -152.5q0 -94 37.5 -171.5t101.5 -117.5q64 -38 180 -49
q94 -10 140 -31q79 -36 79 -129q0 -60 -29 -130t-102 -185h-141q80 134 103.5 187.5t23.5 100.5q0 57 -55 68q-29 6 -133 18q-125 18 -203 84q-71 59 -112.5 153.5t-41.5 197.5q0 92 30.5 173t84.5 130q34 31 68 46.5t88 26.5q-89 4 -148 71.5t-59 164.5q0 75 34.5 126
t120.5 105h-184v117h627v-117z" />
    <glyph glyph-name="omicron" unicode="&#x3bf;" horiz-adv-x="1032" 
d="M516 997q188 0 306 -142.5t118 -369.5q0 -225 -118.5 -367.5t-305.5 -142.5q-189 0 -306.5 143.5t-117.5 375.5q0 220 119 361.5t305 141.5zM516 874q-123 0 -199.5 -106t-76.5 -276q0 -179 75 -286.5t201 -107.5q124 0 200.5 107t76.5 282q0 173 -76.5 280t-200.5 107z
" />
    <glyph glyph-name="pi" unicode="&#x3c0;" 
d="M709 852h-396v-852h-143v852h-150v119h984v-119h-152v-852h-143v852z" />
    <glyph glyph-name="rho" unicode="&#x3c1;" horiz-adv-x="1026" 
d="M137 -403v860q0 131 18 208.5t66 149.5q58 89 142 135.5t186 46.5q175 0 281 -141t106 -373q0 -229 -103 -368.5t-272 -139.5q-92 0 -159 38.5t-121 121.5v-538h-144zM541 872q-119 0 -190.5 -106t-71.5 -283q0 -170 72.5 -276.5t189.5 -106.5t182 100.5t65 278.5
q0 180 -66.5 286.5t-180.5 106.5z" />
    <glyph glyph-name="uni03C2" unicode="&#x3c2;" horiz-adv-x="921" 
d="M852 655h-141q-20 118 -68.5 168.5t-142.5 50.5q-122 0 -191 -104t-69 -287q0 -223 110 -327q38 -35 87 -53t132 -27q93 -7 140 -29q79 -36 79 -129q0 -122 -120 -321h-144q79 150 100 200t21 92q0 56 -55 70q-5 1 -15 2.5t-42.5 5.5t-75.5 10q-179 25 -272 154t-93 352
q0 235 111.5 374.5t300.5 139.5q154 0 243.5 -88t104.5 -254z" />
    <glyph glyph-name="sigma" unicode="&#x3c3;" horiz-adv-x="1038" 
d="M1020 971v-117q-59 0 -215 6q62 -53 98.5 -155.5t36.5 -223.5q0 -223 -119 -364.5t-305 -141.5q-188 0 -306 142t-118 368q0 224 117.5 368t300.5 144q39 0 154 -12q112 -14 356 -14zM516 874q-126 0 -201 -107t-75 -286q0 -170 76.5 -276.5t199.5 -106.5
q124 0 200.5 107t76.5 282q0 173 -76.5 280t-200.5 107z" />
    <glyph glyph-name="tau" unicode="&#x3c4;" horiz-adv-x="751" 
d="M745 971v-119h-292v-852h-152v852h-295v119h739z" />
    <glyph glyph-name="upsilon" unicode="&#x3c5;" horiz-adv-x="1013" 
d="M868 971v-623q0 -177 -95 -275t-265 -98q-172 0 -267.5 98t-95.5 275v623h144v-623q0 -109 37 -164q28 -40 77 -63t105 -23q60 0 111.5 27.5t76.5 73.5q29 56 29 149v623h143z" />
    <glyph glyph-name="phi" unicode="&#x3c6;" horiz-adv-x="1236" 
d="M557 88v797q-152 -12 -241 -120t-89 -280t87.5 -277t242.5 -120zM700 883v-793q148 19 231 123.5t83 271.5q0 168 -85 275.5t-229 122.5zM700 1372v-375q206 -17 326.5 -154.5t120.5 -355.5q0 -220 -120.5 -357.5t-326.5 -152.5v-380h-143v378q-159 14 -254 76
q-101 67 -156 181.5t-55 254.5q0 149 64 269.5t176 183.5q80 45 225 57v375h143z" />
    <glyph glyph-name="chi" unicode="&#x3c7;" horiz-adv-x="847" 
d="M504 328l350 -731h-154l-274 579l-279 -579h-153l356 735l-305 639h150l231 -490l233 490h156z" />
    <glyph glyph-name="psi" unicode="&#x3c8;" horiz-adv-x="1316" 
d="M737 -25v-378h-143v378q-217 3 -333 117.5t-116 325.5v553h144v-553q0 -176 90 -246q41 -34 99.5 -54t115.5 -20v873h143v-873q123 6 203 74q90 70 90 246v553h144v-553q0 -207 -112.5 -321.5t-324.5 -121.5z" />
    <glyph glyph-name="omega" unicode="&#x3c9;" horiz-adv-x="1236" 
d="M881 860l65 107q98 -58 149.5 -181.5t51.5 -300.5q0 -232 -86.5 -371t-231.5 -139q-138 0 -211 125q-40 -65 -91 -95t-121 -30q-145 0 -231.5 139t-86.5 371q0 235 96 383q24 34 45 54.5t60 46.5l65 -109q-28 -22 -41.5 -39t-27.5 -47q-52 -113 -52 -287
q0 -183 45.5 -286t127.5 -103q72 0 110.5 70t38.5 199v213h125v-213q0 -129 38.5 -199t110.5 -70q80 0 126 103t46 284q0 287 -120 375z" />
    <glyph glyph-name="iotadieresis" unicode="&#x3ca;" horiz-adv-x="450" 
d="M150 971h151v-971h-151v971zM84 1376q44 0 75 -31.5t31 -74.5q0 -46 -31 -77.5t-75 -31.5t-76.5 32t-32.5 75q0 46 31.5 77t77.5 31zM369 1376q44 0 75 -31.5t31 -74.5q0 -46 -31 -77.5t-75 -31.5t-76.5 32t-32.5 75q0 46 31.5 77t77.5 31z" />
    <glyph glyph-name="upsilondieresis" unicode="&#x3cb;" horiz-adv-x="1013" 
d="M868 971v-623q0 -177 -95 -275t-265 -98q-172 0 -267.5 98t-95.5 275v623h144v-623q0 -109 37 -164q28 -40 77 -63t105 -23q60 0 111.5 27.5t76.5 73.5q29 56 29 149v623h143zM334 1376q44 0 75 -31.5t31 -74.5q0 -46 -31 -77.5t-75 -31.5t-76.5 32t-32.5 75
q0 46 31.5 77t77.5 31zM682 1376q44 0 75 -31.5t31 -74.5q0 -46 -31 -77.5t-75 -31.5t-76.5 32t-32.5 75q0 46 31.5 77t77.5 31z" />
    <glyph glyph-name="omicrontonos" unicode="&#x3cc;" horiz-adv-x="1032" 
d="M516 997q188 0 306 -142.5t118 -369.5q0 -225 -118.5 -367.5t-305.5 -142.5q-189 0 -306.5 143.5t-117.5 375.5q0 220 119 361.5t305 141.5zM516 874q-123 0 -199.5 -106t-76.5 -276q0 -179 75 -286.5t201 -107.5q124 0 200.5 107t76.5 282q0 173 -76.5 280t-200.5 107z
M569 1094h-104l-25 354h154z" />
    <glyph glyph-name="upsilontonos" unicode="&#x3cd;" horiz-adv-x="1013" 
d="M868 971v-623q0 -177 -95 -275t-265 -98q-172 0 -267.5 98t-95.5 275v623h144v-623q0 -109 37 -164q28 -40 77 -63t105 -23q60 0 111.5 27.5t76.5 73.5q29 56 29 149v623h143zM559 1094h-104l-25 354h154z" />
    <glyph glyph-name="omegatonos" unicode="&#x3ce;" horiz-adv-x="1236" 
d="M881 860l65 107q98 -58 149.5 -181.5t51.5 -300.5q0 -232 -86.5 -371t-231.5 -139q-138 0 -211 125q-40 -65 -91 -95t-121 -30q-145 0 -231.5 139t-86.5 371q0 235 96 383q24 34 45 54.5t60 46.5l65 -109q-28 -22 -41.5 -39t-27.5 -47q-52 -113 -52 -287
q0 -183 45.5 -286t127.5 -103q72 0 110.5 70t38.5 199v213h125v-213q0 -129 38.5 -199t110.5 -70q80 0 126 103t46 284q0 287 -120 375zM672 1094h-105l-24 354h153z" />
    <glyph glyph-name="theta1" unicode="&#x3d1;" horiz-adv-x="1036" 
d="M145 336h-110v143h252v-147q0 -75 9 -113.5t34 -66.5q50 -56 137 -56q137 0 218 160t81 430q0 54 -6 113q-159 0 -215.5 5t-122.5 25q-117 34 -179.5 110t-62.5 183q0 123 80 198t209 75q172 0 276.5 -118.5t147.5 -361.5h117v-116h-101q4 -90 4 -115q0 -160 -35.5 -302
t-101.5 -243q-110 -166 -305 -166q-202 0 -283 140q-27 45 -34.5 83t-8.5 140zM745 915q-31 174 -99 265.5t-165 91.5q-67 0 -109 -43t-42 -111q0 -66 42 -112t122 -68q82 -23 251 -23z" />
    <glyph glyph-name="Upsilon1" unicode="&#x3d2;" horiz-adv-x="1013" 
d="M580 0h-148v303q0 299 -94 547q-47 125 -125.5 227t-206.5 205l90 109q332 -223 410 -664q78 442 409 664l91 -109q-128 -102 -206.5 -203.5t-125.5 -228.5q-94 -248 -94 -547v-303z" />
    <glyph glyph-name="phi1" unicode="&#x3d5;" horiz-adv-x="1236" 
d="M557 96v901q29 2 68 2q195 0 313 -77q100 -67 154.5 -181.5t54.5 -255.5q0 -218 -121 -355.5t-326 -152.5v-380h-143v378q-154 11 -254 76q-101 67 -156 181t-55 255q0 145 57 257.5t166 183.5l66 -80q-83 -91 -115.5 -169.5t-32.5 -189.5q0 -172 85.5 -276t238.5 -117z
M700 874v-776q143 17 224.5 120t81.5 267t-83 269t-223 120z" />
    <glyph glyph-name="afii10023" unicode="&#x401;" horiz-adv-x="1028" 
d="M330 774h553v-133h-553v-508h610v-133h-764v1366h750v-133h-596v-459zM375 1753q47 0 80.5 -34.5t33.5 -80.5q0 -49 -33 -82.5t-81 -33.5q-49 0 -83 33.5t-34 80.5q0 50 34 83.5t83 33.5zM739 1753q47 0 81 -34.5t34 -80.5q0 -49 -33.5 -82.5t-81.5 -33.5q-49 0 -82.5 33
t-33.5 81q0 50 33.5 83.5t82.5 33.5z" />
    <glyph glyph-name="afii10051" unicode="&#x402;" horiz-adv-x="1306" 
d="M475 1233v-438q117 94 307 94q126 0 208.5 -37t135.5 -115q33 -52 45.5 -113t12.5 -175v-449q0 -127 -22.5 -191.5t-84.5 -115.5q-87 -76 -268 -76h-49v127h18h15q139 0 194 61q29 32 36 63t7 132v449q0 84 -6.5 122.5t-26.5 73.5q-60 109 -233 109q-200 0 -289 -136
v-618h-158v1233h-311v133h864v-133h-395z" />
    <glyph glyph-name="afii10052" unicode="&#x403;" horiz-adv-x="958" 
d="M176 0v1366h742v-133h-584v-1233h-158zM477 1497l283 281h205l-340 -281h-148z" />
    <glyph glyph-name="afii10053" unicode="&#x404;" horiz-adv-x="1239" 
d="M270 748h490v-127h-490q13 -242 118.5 -376t279.5 -134q143 0 227.5 90t103.5 262h144q-19 -233 -141.5 -360.5t-327.5 -127.5q-261 0 -415.5 190.5t-154.5 514.5q0 323 154 517t410 194q190 0 308 -106t144 -298h-143q-58 268 -311 268q-171 0 -277 -135t-119 -372z" />
    <glyph glyph-name="afii10054" unicode="&#x405;" horiz-adv-x="1120" 
d="M969 1012h-150q-10 117 -79.5 180t-186.5 63q-108 0 -179 -59t-71 -149t82 -144q34 -23 64.5 -38t179.5 -83q130 -58 195 -97.5t102 -82.5q82 -97 82 -235q0 -175 -123.5 -282.5t-323.5 -107.5q-120 0 -214.5 40.5t-153.5 117.5q-43 55 -63 119.5t-26 161.5h150
q11 -148 91 -225.5t222 -77.5q124 0 203.5 66t79.5 169q0 98 -82 168q-32 28 -72 49.5t-141 65.5q-208 93 -279 149q-126 99 -126 254q0 156 115.5 256.5t295.5 100.5q109 0 196.5 -40.5t141.5 -115.5q62 -84 70 -223z" />
    <glyph glyph-name="afii10055" unicode="&#x406;" horiz-adv-x="503" 
d="M332 0h-158v1366h158v-1366z" />
    <glyph glyph-name="afii10056" unicode="&#x407;" horiz-adv-x="503" 
d="M330 0h-158v1366h158v-1366zM106 1749q44 0 77.5 -33.5t33.5 -79.5t-33.5 -79t-79.5 -33t-79 33t-33 79q0 48 32.5 80.5t81.5 32.5zM399 1749q44 0 77.5 -33.5t33.5 -79.5t-33.5 -79t-79.5 -33t-79 33t-33 79q0 47 33.5 80t80.5 33z" />
    <glyph glyph-name="afii10057" unicode="&#x408;" horiz-adv-x="589" 
d="M260 1366h158v-1090q0 -144 -5.5 -195t-27.5 -95q-38 -79 -126 -121.5t-214 -42.5h-49v133h22h13q165 3 209 96q13 29 16.5 67.5t3.5 157.5v1090z" />
    <glyph glyph-name="afii10058" unicode="&#x409;" horiz-adv-x="1765" 
d="M864 1239h-430l-80 -920q-6 -158 -97.5 -243.5t-250.5 -83.5v129q42 2 70.5 8.5t52 22t38 37.5t26 59.5t17.5 84.5t11 116l72 917h727v-557h151q217 0 326 -45q100 -40 156.5 -134t56.5 -220q0 -135 -65 -235.5t-177 -137.5q-62 -22 -142 -29.5t-234 -7.5h-228v1239z
M1018 676v-543h82q139 0 198.5 6.5t110.5 26.5q66 26 102.5 90.5t36.5 153.5q0 131 -78 198.5t-229 67.5h-223z" />
    <glyph glyph-name="afii10059" unicode="&#x40a;" horiz-adv-x="1867" 
d="M971 791v575h153v-575h152q215 0 326 -43q100 -40 156.5 -133t56.5 -216q0 -131 -65 -229t-177 -133q-62 -22 -142.5 -29.5t-234.5 -7.5h-225v664h-641v-664h-154v1366h154v-575h641zM1124 664v-531h80q138 0 198 6.5t111 26.5q66 25 103 87t37 150q0 128 -78 194.5
t-229 66.5h-222z" />
    <glyph glyph-name="afii10060" unicode="&#x40b;" horiz-adv-x="1306" 
d="M1030 0v449q0 84 -6.5 122.5t-26.5 73.5q-60 109 -233 109q-200 0 -289 -136v-618h-158v1233h-311v133h864v-133h-395v-438q117 94 309 94q124 0 206.5 -37t135.5 -115q33 -52 45.5 -113t12.5 -175v-449h-154z" />
    <glyph glyph-name="afii10061" unicode="&#x40c;" horiz-adv-x="1142" 
d="M885 1366h186l-557 -645l610 -721h-209l-583 717zM176 1366h154v-1366h-154v1366zM549 1497l282 281h205l-340 -281h-147z" />
    <glyph glyph-name="afii10062" unicode="&#x40e;" horiz-adv-x="1011" 
d="M532 592l318 774h162l-602 -1366h-154l205 434l-436 932h176zM260 1774h82q23 -75 75.5 -116.5t123.5 -41.5q69 0 120 41.5t74 116.5h82q-14 -125 -89 -199t-187 -74q-114 0 -190.5 75t-90.5 198z" />
    <glyph glyph-name="afii10145" unicode="&#x40f;" horiz-adv-x="1298" 
d="M727 0v-205h-154v205h-397v1366h154v-1239h641v1239h153v-1366h-397z" />
    <glyph glyph-name="afii10017" unicode="&#x410;" horiz-adv-x="1159" 
d="M512 1374h133l471 -1374h-160l-120 362h-514l-123 -362h-158zM793 496l-215 680l-216 -680h431z" />
    <glyph glyph-name="afii10018" unicode="&#x411;" horiz-adv-x="1087" 
d="M330 1233v-424h151q217 0 326 -45q100 -40 156.5 -134t56.5 -220q0 -135 -65 -235.5t-177 -137.5q-62 -22 -142.5 -29.5t-234.5 -7.5h-225v1366h688v-133h-534zM330 676v-543h80q139 0 198.5 6.5t110.5 26.5q66 26 102.5 90.5t36.5 153.5q0 131 -78 198.5t-229 67.5h-221
z" />
    <glyph glyph-name="afii10019" unicode="&#x412;" horiz-adv-x="1124" 
d="M176 1366h250q136 0 206.5 -7t127.5 -26q100 -34 155.5 -114.5t55.5 -192.5q0 -117 -55.5 -189.5t-172.5 -109.5q153 -37 226 -121.5t73 -224.5q0 -126 -62.5 -220t-166.5 -126q-65 -22 -143 -28.5t-256 -6.5h-238v1366zM328 778h129q101 0 157.5 9.5t98.5 33.5
q49 26 75.5 78t26.5 117q0 71 -32.5 122.5t-90.5 73.5q-40 15 -88 20t-155 5h-121v-459zM328 129h137q124 0 186.5 7.5t108.5 27.5q57 25 89 84t32 141q0 86 -42 148.5t-114 87.5q-81 24 -260 24h-137v-520z" />
    <glyph glyph-name="afii10020" unicode="&#x413;" horiz-adv-x="958" 
d="M176 0v1366h742v-133h-584v-1233h-158z" />
    <glyph glyph-name="afii10021" unicode="&#x414;" horiz-adv-x="1212" 
d="M1032 127h139v-332h-153v205h-858v-205h-154v332h14q63 0 109 23.5t66 66.5q18 35 25 73.5t16 158.5l73 917h723v-1239zM879 127v1112h-430l-68 -790q0 -1 -1 -12t-2.5 -29t-2.5 -33q-7 -99 -20.5 -149.5t-43.5 -98.5h568z" />
    <glyph glyph-name="afii10022" unicode="&#x415;" horiz-adv-x="1028" 
d="M330 774h553v-133h-553v-508h610v-133h-764v1366h750v-133h-596v-459z" />
    <glyph glyph-name="afii10024" unicode="&#x416;" horiz-adv-x="1591" 
d="M719 0v651h-96l-457 -651h-180l518 721l-492 645h172l441 -588h94v588h149v-588h95l440 588h172l-492 -645l519 -721h-181l-456 651h-97v-651h-149z" />
    <glyph glyph-name="afii10025" unicode="&#x417;" horiz-adv-x="1130" 
d="M262 987h-143q26 198 146 301t327 103t324.5 -103.5t117.5 -286.5q0 -125 -61.5 -205.5t-175.5 -105.5q239 -52 239 -311q0 -188 -129 -299q-63 -55 -139 -80t-182 -25q-222 0 -346.5 124t-143.5 364h144q38 -352 344 -352q136 0 211 68.5t75 193.5q0 248 -274 248h-117
v127h117q132 0 202 66.5t70 189.5t-73 187t-211 64q-135 0 -213 -65t-109 -203z" />
    <glyph glyph-name="afii10026" unicode="&#x418;" horiz-adv-x="1316" 
d="M1141 1366v-1366h-146v1065l-676 -985v-80h-143v1366h143v-1065l676 985v80h146z" />
    <glyph glyph-name="afii10027" unicode="&#x419;" horiz-adv-x="1316" 
d="M1141 1366v-1366h-146v1065l-676 -985v-80h-143v1366h143v-1065l676 985v80h146zM393 1774h82q23 -75 75.5 -116.5t123.5 -41.5q69 0 120 41.5t74 116.5h82q-14 -125 -89 -199t-187 -74q-114 0 -190.5 75t-90.5 198z" />
    <glyph glyph-name="afii10028" unicode="&#x41a;" horiz-adv-x="1142" 
d="M885 1366h186l-557 -645l610 -721h-209l-583 717zM176 1366h154v-1366h-154v1366z" />
    <glyph glyph-name="afii10029" unicode="&#x41b;" horiz-adv-x="1196" 
d="M6 -8v129q51 3 83.5 12.5t57 29.5t38 59t22 91t14.5 136l74 917h725v-1366h-154v1239h-430l-82 -920q-6 -158 -97 -243.5t-251 -83.5z" />
    <glyph glyph-name="afii10030" unicode="&#x41c;" horiz-adv-x="1583" 
d="M176 1366h232l383 -1198l385 1198h231v-1366h-145v1212l-394 -1212h-153l-393 1212v-1212h-146v1366z" />
    <glyph glyph-name="afii10031" unicode="&#x41d;" horiz-adv-x="1298" 
d="M330 778h641v588h153v-1366h-153v651h-641v-651h-154v1366h154v-588z" />
    <glyph glyph-name="afii10032" unicode="&#x41e;" horiz-adv-x="1323" 
d="M662 1391q247 0 401 -196t154 -511t-154 -511t-401 -196q-252 0 -405 196.5t-153 520.5q0 202 70.5 361t198 247.5t289.5 88.5zM662 1255q-177 0 -285.5 -155t-108.5 -408q0 -265 107 -422t287 -157q177 0 284 156.5t107 414.5t-107 414.5t-284 156.5z" />
    <glyph glyph-name="afii10033" unicode="&#x41f;" horiz-adv-x="1298" 
d="M330 1239v-1239h-154v1366h948v-1366h-153v1239h-641z" />
    <glyph glyph-name="afii10034" unicode="&#x420;" horiz-adv-x="1077" 
d="M176 1366h225q154 0 234.5 -7.5t142.5 -29.5q112 -37 177 -137.5t65 -235.5q0 -126 -56.5 -220t-156.5 -134q-64 -26 -143 -35.5t-234 -9.5h-100v-557h-154v1366zM330 690h96q168 0 254 19q86 20 132 84t46 163q0 89 -36.5 153.5t-102.5 90.5q-51 20 -110.5 26.5
t-198.5 6.5h-80v-543z" />
    <glyph glyph-name="afii10035" unicode="&#x421;" horiz-adv-x="1230" 
d="M1120 987h-143q-58 268 -311 268q-183 0 -290.5 -154.5t-107.5 -418.5q0 -266 107 -418.5t293 -152.5q143 0 227.5 90t101.5 262h146q-19 -233 -141.5 -360.5t-327.5 -127.5q-261 0 -415.5 190.5t-154.5 512.5q0 324 154 518.5t410 194.5q190 0 308 -106t144 -298z" />
    <glyph glyph-name="afii10036" unicode="&#x422;" horiz-adv-x="948" 
d="M43 1366h864v-133h-356v-1233h-154v1233h-354v133z" />
    <glyph glyph-name="afii10037" unicode="&#x423;" horiz-adv-x="1011" 
d="M532 592l318 774h162l-602 -1366h-154l205 434l-436 932h176z" />
    <glyph glyph-name="afii10038" unicode="&#x424;" horiz-adv-x="1427" 
d="M784 1366v-137q193 -12 322 -88q122 -74 187 -194t65 -271q0 -164 -77 -292.5t-216 -195.5q-115 -56 -281 -65v-123h-143v123q-199 12 -322 88q-122 74 -186.5 193.5t-64.5 271.5q0 163 76.5 290.5t215.5 196.5q118 57 281 66v137h143zM784 1106v-860q145 9 236 65
q89 55 139.5 152t50.5 213q0 127 -60 228.5t-163 154.5q-77 38 -203 47zM641 246v860q-144 -9 -235 -68q-89 -54 -140 -151t-51 -211q0 -126 60.5 -229.5t162.5 -153.5q66 -35 203 -47z" />
    <glyph glyph-name="afii10039" unicode="&#x425;" horiz-adv-x="1112" 
d="M66 1366h176l315 -524l320 524h176l-406 -651l426 -715h-174l-342 571l-342 -571h-174l428 715z" />
    <glyph glyph-name="afii10040" unicode="&#x426;" horiz-adv-x="1302" 
d="M1124 127h140v-332h-154v205h-934v1366h154v-1239h641v1239h153v-1239z" />
    <glyph glyph-name="afii10041" unicode="&#x427;" horiz-adv-x="1165" 
d="M831 0v600q-68 -65 -142 -94t-173 -29q-235 0 -336 152q-34 51 -45.5 111t-11.5 178v448h153v-448q0 -84 6.5 -123t26.5 -74q60 -109 234 -109q199 0 288 136v618h158v-1366h-158z" />
    <glyph glyph-name="afii10042" unicode="&#x428;" horiz-adv-x="1820" 
d="M987 127h504v1239h154v-1366h-1469v1366h154v-1239h504v1239h153v-1239z" />
    <glyph glyph-name="afii10043" unicode="&#x429;" horiz-adv-x="1824" 
d="M1630 0h-1454v1366h154v-1239h504v1239h153v-1239h504v1239h154v-1239h139v-332h-154v205z" />
    <glyph glyph-name="afii10044" unicode="&#x42a;" horiz-adv-x="1257" 
d="M0 1366h512v-557h152q216 0 325 -45q100 -40 156.5 -134t56.5 -220q0 -136 -64.5 -236t-176.5 -137q-62 -22 -142.5 -29.5t-234.5 -7.5h-226v1233h-358v133zM512 676v-543h80q139 0 198.5 6.5t110.5 26.5q66 26 102.5 90.5t36.5 153.5q0 131 -78 198.5t-229 67.5h-221z
" />
    <glyph glyph-name="afii10045" unicode="&#x42b;" horiz-adv-x="1499" 
d="M176 0v1366h154v-557h151q217 0 326 -45q100 -40 156.5 -134t56.5 -220q0 -135 -65 -235.5t-177 -137.5q-62 -22 -142.5 -29.5t-234.5 -7.5h-225zM330 676v-543h80q139 0 198.5 6.5t110.5 26.5q66 26 102.5 90.5t36.5 153.5q0 131 -78 198.5t-229 67.5h-221zM1325 0h-158
v1366h158v-1366z" />
    <glyph glyph-name="afii10046" unicode="&#x42c;" horiz-adv-x="1073" 
d="M176 0v1366h154v-557h151q217 0 326 -45q100 -40 156.5 -134t56.5 -220q0 -135 -65 -235.5t-177 -137.5q-62 -22 -142.5 -29.5t-234.5 -7.5h-225zM330 676v-543h80q139 0 198.5 6.5t110.5 26.5q66 26 102.5 90.5t36.5 153.5q0 131 -78 198.5t-229 67.5h-221z" />
    <glyph glyph-name="afii10047" unicode="&#x42d;" horiz-adv-x="1239" 
d="M479 748h490q-13 237 -119 372t-277 135q-253 0 -311 -268h-143q26 192 144 298t308 106q256 0 410 -194t154 -517q0 -324 -154.5 -514.5t-415.5 -190.5q-205 0 -327.5 127.5t-141.5 360.5h144q19 -172 103.5 -262t227.5 -90q174 0 279.5 134t118.5 376h-490v127z" />
    <glyph glyph-name="afii10048" unicode="&#x42e;" horiz-adv-x="1792" 
d="M330 778h250q22 277 174 445t379 168q247 0 401 -196t154 -511t-154 -511t-401 -196q-243 0 -394.5 183t-163.5 491h-245v-651h-154v1366h154v-588zM1133 1255q-177 0 -285.5 -155t-108.5 -408q0 -265 107 -422t287 -157q177 0 284 156.5t107 414.5t-107 414.5
t-284 156.5z" />
    <glyph glyph-name="afii10049" unicode="&#x42f;" horiz-adv-x="1148" 
d="M973 1366v-1366h-154v584h-237l-344 -584h-185l359 608q-281 103 -281 371q0 121 59 212.5t162 131.5q67 26 143 34.5t236 8.5h242zM819 717v516h-92q-148 0 -203 -6t-102 -27q-61 -26 -95 -83.5t-34 -135.5q0 -88 40 -150t113 -88q46 -17 97.5 -21.5t179.5 -4.5h96z" />
    <glyph glyph-name="afii10065" unicode="&#x430;" horiz-adv-x="974" 
d="M270 717h-141q15 136 108.5 208t254.5 72q119 0 201 -42t110 -117q13 -36 17.5 -80.5t4.5 -136.5v-365q0 -117 4.5 -160.5t22.5 -95.5h-137q-15 49 -23 131q-86 -156 -284 -156q-142 0 -228 76.5t-86 204.5q0 101 57.5 175.5t167.5 115.5q116 43 365 86v41q0 108 -46 154
t-153 46q-95 0 -147.5 -38t-67.5 -119zM684 430v96q-245 -43 -343.5 -101.5t-98.5 -158.5q0 -75 52 -122.5t136 -47.5q69 0 126 30.5t89 84.5q39 68 39 219z" />
    <glyph glyph-name="afii10066" unicode="&#x431;" horiz-adv-x="1036" 
d="M856 1372v-127q-23 -17 -44.5 -22.5t-61.5 -5.5q-24 0 -70 10q-71 14 -123 14q-73 0 -124 -30.5t-89 -98.5q-60 -108 -80 -272q110 157 287 157t286 -139.5t109 -365.5q0 -230 -117.5 -373.5t-306.5 -143.5q-171 0 -286 121q-74 77 -107 186t-33 279q0 206 39.5 376.5
t108.5 270.5q58 84 129.5 122t171.5 38q31 0 160 -16q35 -6 63 -6q48 0 88 26zM535 874q-128 0 -208.5 -106.5t-80.5 -275.5q0 -178 75.5 -286t200.5 -108q124 0 200.5 107t76.5 282t-72 281t-192 106z" />
    <glyph glyph-name="afii10067" unicode="&#x432;" horiz-adv-x="890" 
d="M293 436v-319h147q117 0 171.5 38t54.5 121q0 121 -111 152q-33 8 -117 8h-145zM293 854v-303h135q211 0 211 162q0 43 -20.5 76.5t-55.5 48.5q-41 16 -123 16h-147zM150 971h311q146 0 217 -45q104 -69 104 -203q0 -165 -147 -225q172 -55 172 -224q0 -74 -34.5 -134
t-98.5 -97q-65 -43 -217 -43h-307v971z" />
    <glyph glyph-name="afii10068" unicode="&#x433;" horiz-adv-x="720" 
d="M293 854v-854h-143v971h557v-117h-414z" />
    <glyph glyph-name="afii10069" unicode="&#x434;" horiz-adv-x="989" 
d="M244 971h594v-854h129v-322h-144v205h-673v-205h-144v322h19q52 0 93 29t60 79q19 62 29 228zM279 117h415v737h-309l-27 -389q-9 -154 -25 -224t-54 -124z" />
    <glyph glyph-name="afii10070" unicode="&#x435;" horiz-adv-x="995" 
d="M901 461h-661q4 -177 76 -270t204 -93q80 0 132 34.5t93 113.5l134 -17q-89 -254 -361 -254q-195 0 -310.5 135.5t-115.5 364.5q0 237 114 379.5t304 142.5q180 0 286.5 -134.5t106.5 -360.5q0 -23 -2 -41zM244 573h510q-12 147 -76.5 225.5t-173.5 78.5
q-106 0 -172 -77.5t-88 -226.5z" />
    <glyph glyph-name="afii10072" unicode="&#x436;" horiz-adv-x="1204" 
d="M532 971h140v-398h69l295 398h160l-334 -443l348 -528h-159l-297 457h-82v-457h-140v457h-81l-297 -457h-160l348 528l-334 443h160l295 -398h69v398z" />
    <glyph glyph-name="afii10073" unicode="&#x437;" horiz-adv-x="921" 
d="M242 655h-142q11 138 78 222q49 64 118 93t171 29q152 0 242 -76.5t90 -205.5q0 -86 -40 -141t-126 -87q186 -48 186 -227q0 -131 -96.5 -209t-259.5 -78q-170 0 -264.5 91t-106.5 268h144q12 -124 64.5 -180t156.5 -56q103 0 160 45t57 127q0 83 -51.5 121.5
t-161.5 38.5q-45 0 -82 -2v117h43q112 0 171.5 43t59.5 123q0 77 -51 121.5t-139 44.5q-101 0 -150 -49.5t-71 -172.5z" />
    <glyph glyph-name="afii10074" unicode="&#x438;" horiz-adv-x="1038" 
d="M745 971h144v-971h-144v700l-452 -639v-61h-143v971h143v-701l452 639v62z" />
    <glyph glyph-name="afii10075" unicode="&#x439;" horiz-adv-x="1038" 
d="M745 971h144v-971h-144v700l-452 -639v-61h-143v971h143v-701l452 639v62zM289 1397h84q20 -75 65 -117.5t105 -42.5q121 0 166 160h84q-12 -128 -78.5 -202.5t-169.5 -74.5t-173.5 75.5t-82.5 201.5z" />
    <glyph glyph-name="afii10076" unicode="&#x43a;" horiz-adv-x="964" 
d="M705 971h174l-406 -436l436 -535h-198l-416 528zM150 971h143v-971h-143v971z" />
    <glyph glyph-name="afii10077" unicode="&#x43b;" horiz-adv-x="962" 
d="M811 971v-971h-143v854h-310l-26 -393q-6 -169 -39.5 -267t-101.5 -144.5t-185 -53.5v115q68 12 101.5 42t49.5 94.5t23 198.5l37 525h594z" />
    <glyph glyph-name="afii10078" unicode="&#x43c;" horiz-adv-x="1286" 
d="M643 150l277 823h215v-973h-140v829l-278 -829h-150l-278 829v-829h-139v973h215z" />
    <glyph glyph-name="afii10079" unicode="&#x43d;" horiz-adv-x="1038" 
d="M745 457h-452v-457h-143v971h143v-398h452v398h144v-971h-144v457z" />
    <glyph glyph-name="afii10080" unicode="&#x43e;" horiz-adv-x="1032" 
d="M516 997q188 0 306 -142.5t118 -369.5q0 -225 -118.5 -367.5t-305.5 -142.5q-189 0 -306.5 143.5t-117.5 375.5q0 220 119 361.5t305 141.5zM516 874q-123 0 -199.5 -106t-76.5 -276q0 -179 75 -286.5t201 -107.5q124 0 200.5 107t76.5 282q0 173 -76.5 280t-200.5 107z
" />
    <glyph glyph-name="afii10081" unicode="&#x43f;" horiz-adv-x="1038" 
d="M745 854h-452v-854h-143v971h739v-971h-144v854z" />
    <glyph glyph-name="afii10082" unicode="&#x440;" horiz-adv-x="1040" 
d="M150 -403v1085q0 194 -19 289h141q15 -53 17 -144q53 89 117.5 129.5t156.5 40.5q173 0 279 -141.5t106 -372.5q0 -229 -103 -368.5t-272 -139.5q-92 0 -159 38.5t-121 121.5v-538h-143zM553 872q-118 0 -190 -106t-72 -281q0 -172 72.5 -278.5t189.5 -106.5t182.5 101
t65.5 278q0 180 -67 286.5t-181 106.5z" />
    <glyph glyph-name="afii10083" unicode="&#x441;" horiz-adv-x="952" 
d="M852 655h-141q-20 118 -68.5 168.5t-142.5 50.5q-121 0 -190.5 -103.5t-69.5 -285.5t70 -284.5t194 -102.5q98 0 149.5 57t63.5 179h143q-13 -175 -104.5 -267t-251.5 -92q-187 0 -299.5 139t-112.5 369q0 236 111.5 375t300.5 139q154 0 243.5 -88t104.5 -254z" />
    <glyph glyph-name="afii10084" unicode="&#x442;" horiz-adv-x="751" 
d="M745 971v-119h-292v-852h-152v852h-295v119h739z" />
    <glyph glyph-name="afii10085" unicode="&#x443;" horiz-adv-x="897" 
d="M33 971h153l265 -809l272 809h149l-319 -903q-66 -190 -94.5 -250.5t-75.5 -112.5q-109 -115 -283 -115q-27 0 -45 2v127q138 -2 198 49.5t118 221.5z" />
    <glyph glyph-name="afii10086" unicode="&#x444;" horiz-adv-x="1357" 
d="M750 1370v-485q60 112 198 112q148 0 234 -134.5t86 -364.5q0 -236 -90 -380.5t-238 -144.5q-64 0 -109.5 26t-80.5 83v-485h-144v485q-35 -57 -80.5 -83t-109.5 -26q-148 0 -238 144.5t-90 380.5q0 230 86 364.5t234 134.5q138 0 198 -112v485h144zM434 877
q-89 0 -143.5 -107.5t-54.5 -284.5q0 -178 54.5 -284.5t145.5 -106.5q88 0 129 90t41 281q0 216 -40.5 314t-131.5 98zM922 877q-91 0 -131.5 -98t-40.5 -314q0 -190 41.5 -280.5t128.5 -90.5q91 0 145.5 106.5t54.5 284.5q0 177 -54.5 284.5t-143.5 107.5z" />
    <glyph glyph-name="afii10087" unicode="&#x445;" horiz-adv-x="903" 
d="M63 971h166l224 -346l225 346h174l-311 -455l350 -516h-172l-266 401l-269 -401h-172l355 516z" />
    <glyph glyph-name="afii10088" unicode="&#x446;" horiz-adv-x="1040" 
d="M874 0h-724v971h143v-854h452v854h144v-854h129v-322h-144v205z" />
    <glyph glyph-name="afii10089" unicode="&#x447;" horiz-adv-x="952" 
d="M659 0v397q-50 -40 -120.5 -64t-141.5 -24q-149 0 -225 81.5t-76 240.5v340h144v-293q0 -110 20 -154q42 -92 156 -92q78 0 143 37t100 102v400h144v-971h-144z" />
    <glyph glyph-name="afii10090" unicode="&#x448;" horiz-adv-x="1484" 
d="M1192 117v854h143v-971h-1185v971h143v-854h377v854h143v-854h379z" />
    <glyph glyph-name="afii10091" unicode="&#x449;" horiz-adv-x="1486" 
d="M1321 0h-1171v971h143v-854h377v854h143v-854h379v854h143v-854h129v-322h-143v205z" />
    <glyph glyph-name="afii10092" unicode="&#x44a;" horiz-adv-x="921" 
d="M401 971v-398h113q152 0 229 -32q72 -28 112 -94t40 -156q0 -95 -46.5 -166.5t-125.5 -97.5q-77 -27 -266 -27h-199v854h-258v117h401zM401 459v-342h72q87 0 124.5 4t68.5 16q88 37 88 154q0 168 -191 168h-162z" />
    <glyph glyph-name="afii10093" unicode="&#x44b;" horiz-adv-x="1228" 
d="M934 971h143v-971h-143v971zM150 0v971h143v-398h113q152 0 229 -32q72 -28 111.5 -94t39.5 -156q0 -95 -46.5 -166.5t-125.5 -97.5q-77 -27 -266 -27h-198zM293 459v-342h72q87 0 124 4t68 16q88 37 88 154q0 168 -190 168h-162z" />
    <glyph glyph-name="afii10094" unicode="&#x44c;" horiz-adv-x="815" 
d="M150 0v971h143v-398h113q152 0 229 -32q72 -28 111.5 -94t39.5 -156q0 -95 -46.5 -166.5t-125.5 -97.5q-77 -27 -266 -27h-198zM293 459v-342h72q87 0 124 4t68 16q88 37 88 154q0 168 -190 168h-162z" />
    <glyph glyph-name="afii10095" unicode="&#x44d;" horiz-adv-x="952" 
d="M381 545h330q-12 157 -80 243t-178 86q-94 0 -142.5 -50.5t-68.5 -168.5h-142q15 166 105 254t244 88q189 0 300 -139t111 -375q0 -230 -112.5 -369t-298.5 -139q-160 0 -252.5 93t-104.5 266h144q12 -122 63.5 -179t149.5 -57q114 0 182 85.5t80 244.5h-330v117z" />
    <glyph glyph-name="afii10096" unicode="&#x44e;" horiz-adv-x="1413" 
d="M293 573h186q28 198 139.5 311t278.5 113q187 0 305.5 -143t118.5 -369t-118 -368t-306 -142q-180 0 -297.5 133.5t-124.5 348.5h-182v-457h-143v971h143v-398zM899 874q-123 0 -199.5 -106t-76.5 -276q0 -179 75 -286.5t201 -107.5q123 0 199 107t76 280q0 175 -76 282
t-199 107z" />
    <glyph glyph-name="afii10097" unicode="&#x44f;" horiz-adv-x="923" 
d="M80 0l223 408q-95 26 -144.5 94t-49.5 172q0 151 106 235q46 35 99 48.5t147 13.5h311v-971h-143v397h-178l-215 -397h-156zM629 512v342h-152q-118 0 -171.5 -41.5t-53.5 -132.5t47.5 -129.5t157.5 -38.5h172z" />
    <glyph glyph-name="afii10071" unicode="&#x451;" horiz-adv-x="995" 
d="M901 461h-661q4 -177 76 -270t204 -93q80 0 132 34.5t93 113.5l134 -17q-89 -254 -361 -254q-195 0 -310.5 135.5t-115.5 364.5q0 237 114 379.5t304 142.5q180 0 286.5 -134.5t106.5 -360.5q0 -23 -2 -41zM244 573h510q-12 147 -76.5 225.5t-173.5 78.5
q-106 0 -172 -77.5t-88 -226.5zM338 1376q44 0 75 -31.5t31 -74.5q0 -46 -31 -77.5t-75 -31.5t-76.5 32t-32.5 75q0 46 31.5 77t77.5 31zM686 1376q44 0 75.5 -31.5t31.5 -74.5q0 -46 -31.5 -77.5t-75.5 -31.5t-76 32t-32 75q0 46 31 77t77 31z" />
    <glyph glyph-name="afii10099" unicode="&#x452;" horiz-adv-x="1028" 
d="M471 -383v127h18h17q239 0 233 184v70v551v6q3 61 -4.5 126t-21.5 93q-50 96 -170 96q-66 0 -119.5 -30t-85.5 -86q-45 -74 -45 -219v-535h-143v1122h-111v117h111v133h143v-133h285v-117h-285v-266q56 74 122 107.5t156 33.5q86 0 156.5 -33.5t108.5 -93.5
q29 -44 38 -104t9 -209v-557q0 -130 -21 -198t-74 -109q-95 -76 -268 -76h-49z" />
    <glyph glyph-name="afii10100" unicode="&#x453;" horiz-adv-x="720" 
d="M293 854v-854h-143v971h557v-117h-414zM334 1120l213 281h205l-299 -281h-119z" />
    <glyph glyph-name="afii10101" unicode="&#x454;" horiz-adv-x="952" 
d="M242 545h329v-117h-329q12 -159 80 -244.5t182 -85.5q98 0 149.5 57t63.5 179h143q-13 -175 -104.5 -267t-251.5 -92q-186 0 -299 139t-113 369q0 236 111.5 375t300.5 139q154 0 243.5 -88t104.5 -254h-141q-20 118 -68.5 168.5t-142.5 50.5q-110 0 -178 -86t-80 -243z
" />
    <glyph glyph-name="afii10102" unicode="&#x455;" horiz-adv-x="897" 
d="M793 705h-140q-10 89 -58.5 131.5t-139.5 42.5q-83 0 -135 -40.5t-52 -105.5q0 -60 44 -92t182 -72q117 -34 172 -59t84 -59q59 -68 59 -172q0 -140 -95 -222t-257 -82q-177 0 -272 84.5t-95 241.5h139q18 -205 226 -205q95 0 151 46.5t56 123.5t-62 113q-26 17 -57 28.5
t-160 51.5q-141 43 -200.5 103t-59.5 161q0 123 92.5 198.5t241.5 75.5q155 0 241.5 -75.5t94.5 -216.5z" />
    <glyph glyph-name="afii10103" unicode="&#x456;" horiz-adv-x="452" 
d="M150 971h151v-971h-151v971zM227 1384q44 0 73.5 -30t29.5 -76q0 -44 -29.5 -73t-75.5 -29q-44 0 -74 29t-30 73q0 46 30 76t76 30z" />
    <glyph glyph-name="afii10104" unicode="&#x457;" horiz-adv-x="450" 
d="M150 971h151v-971h-151v971zM84 1376q44 0 75 -31.5t31 -74.5q0 -46 -31 -77.5t-75 -31.5t-76.5 32t-32.5 75q0 46 31.5 77t77.5 31zM369 1376q44 0 75 -31.5t31 -74.5q0 -46 -31 -77.5t-75 -31.5t-76.5 32t-32.5 75q0 46 31.5 77t77.5 31z" />
    <glyph glyph-name="afii10105" unicode="&#x458;" horiz-adv-x="514" 
d="M215 971h152v-887q0 -162 -13.5 -230.5t-54.5 -121.5q-88 -115 -305 -115h-49v127h18h14q157 0 207 84q19 32 25 82.5t6 173.5v887zM293 1384q44 0 73 -30t29 -76q0 -44 -30 -73t-74 -29q-45 0 -75 29t-30 73q0 46 30.5 76t76.5 30z" />
    <glyph glyph-name="afii10106" unicode="&#x459;" horiz-adv-x="1333" 
d="M668 0v854h-310l-26 -393q-9 -249 -81 -352t-245 -113v117q68 12 101.5 42t49.5 95t23 199l37 522h594v-398h113q152 0 229 -32q72 -28 112 -94t40 -156q0 -95 -46.5 -166.5t-125.5 -97.5q-77 -27 -267 -27h-198zM811 459v-342h72q87 0 124 4t68 16q88 37 88 154
q0 168 -190 168h-162z" />
    <glyph glyph-name="afii10107" unicode="&#x45a;" horiz-adv-x="1411" 
d="M745 0v457h-452v-457h-143v971h143v-398h452v398h144v-398h112q153 0 230 -32q71 -29 111 -95t40 -155q0 -95 -46.5 -166.5t-125.5 -97.5q-77 -27 -266 -27h-199zM889 457v-340h72q86 0 123.5 4t68.5 16q42 17 65 57t23 95q0 168 -190 168h-162z" />
    <glyph glyph-name="afii10108" unicode="&#x45b;" horiz-adv-x="1028" 
d="M150 1372h143v-133h285v-117h-285v-266q54 73 121 107t157 34q86 0 156.5 -33.5t108.5 -93.5q29 -44 38 -104t9 -209v-557h-144v549q0 102 -5.5 147t-20.5 78q-50 96 -170 96q-65 0 -119 -30.5t-86 -85.5q-45 -74 -45 -219v-535h-143v1122h-111v117h111v133z" />
    <glyph glyph-name="afii10109" unicode="&#x45c;" horiz-adv-x="964" 
d="M705 971h174l-406 -436l436 -535h-198l-416 528zM150 971h143v-971h-143v971zM418 1120l213 281h205l-299 -281h-119z" />
    <glyph glyph-name="afii10110" unicode="&#x45e;" horiz-adv-x="897" 
d="M33 971h153l265 -809l272 809h149l-319 -903q-66 -190 -94.5 -250.5t-75.5 -112.5q-109 -115 -283 -115q-27 0 -45 2v127q138 -2 198 49.5t118 221.5zM217 1397h84q20 -75 65 -117.5t105 -42.5q121 0 166 160h84q-12 -128 -78.5 -202.5t-169.5 -74.5t-173.5 75.5
t-82.5 201.5z" />
    <glyph glyph-name="afii10193" unicode="&#x45f;" horiz-adv-x="1038" 
d="M449 0h-299v971h143v-854h452v854h144v-971h-297v-205h-143v205z" />
    <glyph glyph-name="afii10050" unicode="&#x490;" horiz-adv-x="958" 
d="M918 1534v-301h-584v-1233h-158v1366h588v168h154z" />
    <glyph glyph-name="afii10098" unicode="&#x491;" horiz-adv-x="720" 
d="M563 971v112h144v-229h-414v-854h-143v971h413z" />
    <glyph glyph-name="uni0492" unicode="&#x492;" horiz-adv-x="997" 
d="M330 774h356v-133h-356v-641h-154v641h-149v133h149v592h752v-133h-598v-459z" />
    <glyph glyph-name="uni0493" unicode="&#x493;" horiz-adv-x="720" 
d="M293 637h266v-107h-266v-530h-143v530h-113v107h113v334h557v-117h-414v-217z" />
    <glyph glyph-name="uni0496" unicode="&#x496;" horiz-adv-x="1591" 
d="M1538 92h154v-332h-154v240h-117l-456 651h-97v-651h-149v651h-96l-457 -651h-180l518 721l-492 645h172l441 -588h94v588h149v-588h95l440 588h174l-494 -645z" />
    <glyph glyph-name="uni0497" unicode="&#x497;" horiz-adv-x="1204" 
d="M1149 0h-98l-297 457h-82v-457h-140v457h-81l-297 -457h-160l348 528l-334 443h160l295 -398h69v398h140v-398h69l295 398h162l-336 -443l293 -442h137v-322h-143v236z" />
    <glyph glyph-name="uni049A" unicode="&#x49a;" horiz-adv-x="1142" 
d="M1042 94v2h154v-332h-154v236h-129l-581 717l553 649h184l-557 -647zM176 1366h154v-1366h-154v1366z" />
    <glyph glyph-name="uni049B" unicode="&#x49b;" horiz-adv-x="962" 
d="M836 90h141v-321h-143v231h-123l-416 530l410 441h172l-404 -436zM150 971h143v-971h-143v971z" />
    <glyph glyph-name="uni049C" unicode="&#x49c;" horiz-adv-x="1142" 
d="M506 500v-158h-107v291l-67 84l67 80v280h107v-155l379 444h184l-557 -645l610 -721h-209zM176 1366h154v-1366h-154v1366z" />
    <glyph glyph-name="uni049D" unicode="&#x49d;" horiz-adv-x="964" 
d="M459 319v-94h-107v232l-57 71l57 62v225h107v-108l246 264h172l-404 -436l434 -535h-196zM150 971h143v-971h-143v971z" />
    <glyph glyph-name="uni04A2" unicode="&#x4a2;" horiz-adv-x="1298" 
d="M1124 104h152v-331h-154v227h-151v651h-641v-651h-154v1366h154v-588h641v588h153v-1262z" />
    <glyph glyph-name="uni04A3" unicode="&#x4a3;" horiz-adv-x="1038" 
d="M887 0h-142v457h-452v-457h-143v971h143v-398h452v398h144v-875h141v-321h-143v225z" />
    <glyph glyph-name="uni04AE" unicode="&#x4ae;" horiz-adv-x="1048" 
d="M25 1366h176l327 -639l322 639h176l-426 -793l2 -573h-153l2 573z" />
    <glyph glyph-name="uni04AF" unicode="&#x4af;" horiz-adv-x="897" 
d="M528 -6v-397h-159v397l-336 977h153l265 -809l272 809h151z" />
    <glyph glyph-name="uni04B0" unicode="&#x4b0;" horiz-adv-x="1048" 
d="M600 494h213v-107h-213v-387h-151v387h-213v107h215v79l-426 793h176l325 -639l324 639h176l-426 -793v-79z" />
    <glyph glyph-name="uni04B1" unicode="&#x4b1;" horiz-adv-x="897" 
d="M369 -37v31l-336 977h153l265 -809l272 809h149l-346 -977v-31h222v-106h-220v-260h-159v260h-211v106h211z" />
    <glyph glyph-name="uni04B2" unicode="&#x4b2;" horiz-adv-x="1112" 
d="M1014 96h153v-332h-153v236h-117l-340 571l-344 -571h-174l428 715l-404 651h177l317 -524l317 524h177l-406 -651z" />
    <glyph glyph-name="uni04B3" unicode="&#x4b3;" horiz-adv-x="903" 
d="M823 98v2h144v-321h-144v221h-106l-266 401l-267 -401h-174l355 516l-304 455h168l222 -346l227 346h174l-313 -455z" />
    <glyph glyph-name="uni04B8" unicode="&#x4b8;" horiz-adv-x="1165" 
d="M580 924v-310q172 12 251 134v618h158v-1366h-158v600q-44 -47 -115 -81t-136 -40v-278h-107v278q-83 4 -142 27t-106 69q-60 57 -81 129t-21 214v448h153v-448q0 -97 11.5 -145t44.5 -87q53 -56 141 -70v308h107z" />
    <glyph glyph-name="uni04B9" unicode="&#x4b9;" horiz-adv-x="952" 
d="M483 694v-254q121 27 176 131v400h144v-971h-144v397q-71 -58 -176 -80v-251h-106v243q-78 3 -140.5 35.5t-97.5 89.5q-43 68 -43 199v338h144v-291q0 -79 7 -116.5t29 -67.5q33 -48 101 -62v260h106z" />
    <glyph glyph-name="uni04BA" unicode="&#x4ba;" horiz-adv-x="1138" 
d="M307 1366v-600q68 65 142.5 94t173.5 29q234 0 335 -152q34 -51 46 -111t12 -177v-449h-154v449q0 84 -6.5 122.5t-26.5 73.5q-60 109 -233 109q-200 0 -289 -136v-618h-157v1366h157z" />
    <glyph glyph-name="uni04BB" unicode="&#x4bb;" horiz-adv-x="1028" 
d="M150 1372h143v-516q106 141 278 141q86 0 156.5 -33.5t108.5 -93.5q29 -44 38 -104t9 -209v-557h-144v549q0 102 -5.5 147t-20.5 78q-50 96 -172 96q-65 0 -118 -30.5t-85 -85.5q-45 -74 -45 -219v-535h-143v1372z" />
    <glyph glyph-name="uni04C0" unicode="&#x4c0;" horiz-adv-x="503" 
d="M332 0h-158v1366h158v-1366z" />
    <glyph glyph-name="uni04D8" unicode="&#x4d8;" horiz-adv-x="1325" 
d="M104 733h961q-22 144 -34.5 192.5t-41.5 104.5q-116 225 -325 225q-106 0 -197 -64t-129 -167l-141 72q61 132 190 213.5t275 81.5q117 0 221 -49t170 -134q77 -99 121.5 -243t44.5 -297q0 -149 -41.5 -277.5t-114.5 -219.5t-176 -142.5t-223 -51.5q-117 0 -223 49.5
t-169 133.5q-71 91 -106.5 212t-61.5 361zM1063 625h-797q6 -132 74 -283q99 -229 324 -229q234 0 346 270q47 118 53 242z" />
    <glyph glyph-name="afii10846" unicode="&#x4d9;" horiz-adv-x="995" 
d="M92 512h664q-6 177 -77.5 269.5t-203.5 92.5q-82 0 -133.5 -34t-91.5 -113l-133 16q86 254 360 254q195 0 310.5 -135t115.5 -364q0 -237 -114 -380t-304 -143q-179 0 -286 135t-107 361v41zM752 399h-510q12 -147 76.5 -225t173.5 -78q106 0 172 77t88 226z" />
    <glyph glyph-name="uni04E8" unicode="&#x4e8;" horiz-adv-x="1323" 
d="M662 1391q247 0 401 -196t154 -511t-154 -511t-401 -196q-246 0 -402 195t-156 502q0 322 153.5 519.5t404.5 197.5zM268 723h785q-9 245 -114.5 388.5t-276.5 143.5t-277.5 -143t-116.5 -389zM1051 616h-781q19 -239 122 -371t270 -132q166 0 268 132t121 371z" />
    <glyph glyph-name="uni04E9" unicode="&#x4e9;" horiz-adv-x="1032" 
d="M516 997q187 0 305.5 -143t118.5 -369t-118 -368t-306 -142q-186 0 -305 142t-119 362q0 232 117.5 375t306.5 143zM242 541h549q-12 152 -87 242.5t-188 90.5t-187.5 -90.5t-86.5 -242.5zM791 434h-549q12 -154 86 -245t188 -91t188.5 91t86.5 245z" />
    <glyph glyph-name="Wgrave" unicode="&#x1e80;" horiz-adv-x="1591" 
d="M37 1366h145l264 -1163l285 1163h131l285 -1163l266 1163h143l-325 -1374h-166l-270 1067l-269 -1067h-166zM905 1497h-147l-342 281h207z" />
    <glyph glyph-name="wgrave" unicode="&#x1e81;" horiz-adv-x="1353" 
d="M31 971h147l209 -770l227 770h123l228 -770l209 770h147l-281 -983h-141l-223 762l-225 -762h-140zM784 1120h-118l-297 281h204z" />
    <glyph glyph-name="Wacute" unicode="&#x1e82;" horiz-adv-x="1591" 
d="M37 1366h145l264 -1163l285 1163h131l285 -1163l266 1163h143l-325 -1374h-166l-270 1067l-269 -1067h-166zM705 1497l282 281h205l-340 -281h-147z" />
    <glyph glyph-name="wacute" unicode="&#x1e83;" horiz-adv-x="1353" 
d="M31 971h147l209 -770l227 770h123l228 -770l209 770h147l-281 -983h-141l-223 762l-225 -762h-140zM596 1120l211 281h205l-297 -281h-119z" />
    <glyph glyph-name="Wdieresis" unicode="&#x1e84;" horiz-adv-x="1591" 
d="M35 1366h145l264 -1163l285 1163h131l285 -1163l266 1163h143l-325 -1374h-166l-270 1067l-269 -1067h-166zM616 1755q47 0 81 -35t34 -82q0 -49 -33.5 -82.5t-83.5 -33.5q-48 0 -82 33.5t-34 82.5q0 50 33.5 83.5t84.5 33.5zM981 1755q46 0 80.5 -35t34.5 -82t-35 -81.5
t-82 -34.5q-48 0 -82.5 33.5t-34.5 82.5q0 50 34 83.5t85 33.5z" />
    <glyph glyph-name="wdieresis" unicode="&#x1e85;" horiz-adv-x="1353" 
d="M31 971h147l209 -770l227 770h123l228 -770l209 770h147l-281 -983h-141l-223 762l-225 -762h-140zM502 1376q44 0 75 -31.5t31 -74.5q0 -46 -31 -77.5t-75 -31.5t-76.5 32t-32.5 75q0 46 31.5 77t77.5 31zM852 1376q44 0 75 -31.5t31 -74.5q0 -46 -31 -77.5t-75 -31.5
t-76.5 32t-32.5 75q0 46 31.5 77t77.5 31z" />
    <glyph glyph-name="uni1EA0" unicode="&#x1ea0;" horiz-adv-x="1159" 
d="M512 1374h133l471 -1374h-160l-120 362h-514l-123 -362h-158zM793 496l-215 680l-216 -680h431zM580 -156q52 0 89.5 -37t37.5 -90q0 -54 -37 -91.5t-90 -37.5q-54 0 -91.5 37t-37.5 90q0 54 37.5 91.5t91.5 37.5z" />
    <glyph glyph-name="uni1EA1" unicode="&#x1ea1;" horiz-adv-x="974" 
d="M270 717h-141q15 136 108.5 208t254.5 72q119 0 201 -42t110 -117q13 -36 17.5 -80.5t4.5 -136.5v-365q0 -117 4.5 -160.5t22.5 -95.5h-137q-15 49 -23 131q-86 -156 -284 -156q-142 0 -228 76.5t-86 204.5q0 101 57.5 175.5t167.5 115.5q116 43 365 86v41q0 108 -46 154
t-153 46q-95 0 -147.5 -38t-67.5 -119zM684 430v96q-245 -43 -343.5 -101.5t-98.5 -158.5q0 -75 52 -122.5t136 -47.5q69 0 126 30.5t89 84.5q39 68 39 219zM487 -156q53 0 90 -37t37 -90q0 -54 -37 -91.5t-90 -37.5q-54 0 -91.5 37t-37.5 90q0 54 37.5 91.5t91.5 37.5z" />
    <glyph glyph-name="uni1EA2" unicode="&#x1ea2;" horiz-adv-x="1159" 
d="M512 1374h133l471 -1374h-160l-120 362h-514l-123 -362h-158zM793 496l-215 680l-216 -680h431zM547 1487v147h28q150 0 150 103q0 47 -33 75.5t-88 28.5q-38 0 -115 -29v89q97 36 164 36q95 0 155 -51.5t60 -134.5q0 -92 -75 -139q-32 -22 -67 -29.5t-99 -7.5v-88h-80z
" />
    <glyph glyph-name="uni1EA3" unicode="&#x1ea3;" horiz-adv-x="974" 
d="M270 717h-141q15 136 108.5 208t254.5 72q119 0 201 -42t110 -117q13 -36 17.5 -80.5t4.5 -136.5v-365q0 -117 4.5 -160.5t22.5 -95.5h-137q-15 49 -23 131q-86 -156 -284 -156q-142 0 -228 76.5t-86 204.5q0 101 57.5 175.5t167.5 115.5q116 43 365 86v41q0 108 -46 154
t-153 46q-95 0 -147.5 -38t-67.5 -119zM684 430v96q-245 -43 -343.5 -101.5t-98.5 -158.5q0 -75 52 -122.5t136 -47.5q69 0 126 30.5t89 84.5q39 68 39 219zM471 1182v147h29q149 0 149 103q0 47 -33 75.5t-88 28.5q-25 0 -44 -4.5t-70 -22.5v86q100 37 164 37
q95 0 155 -51.5t60 -134.5q0 -91 -76 -139q-32 -22 -66.5 -29.5t-99.5 -7.5v-88h-80z" />
    <glyph glyph-name="uni1EA4" unicode="&#x1ea4;" horiz-adv-x="1159" 
d="M788 1642l242 238h205l-340 -278h-66l97 -99h-142l-206 180l-205 -180h-144l267 269h166zM512 1374h133l471 -1374h-160l-120 362h-514l-123 -362h-158zM793 496l-215 680l-216 -680h431z" />
    <glyph glyph-name="uni1EA5" unicode="&#x1ea5;" horiz-adv-x="974" 
d="M678 1284l182 240h205l-299 -281h-55l96 -117h-139l-176 193l-175 -193h-139l232 287h165zM270 717h-141q15 136 108.5 208t254.5 72q119 0 201 -42t110 -117q13 -36 17.5 -80.5t4.5 -136.5v-365q0 -117 4.5 -160.5t22.5 -95.5h-137q-15 49 -23 131q-86 -156 -284 -156
q-142 0 -228 76.5t-86 204.5q0 101 57.5 175.5t167.5 115.5q116 43 365 86v41q0 108 -46 154t-153 46q-95 0 -147.5 -38t-67.5 -119zM684 430v96q-245 -43 -343.5 -101.5t-98.5 -158.5q0 -75 52 -122.5t136 -47.5q69 0 126 30.5t89 84.5q39 68 39 219z" />
    <glyph glyph-name="uni1EA6" unicode="&#x1ea6;" horiz-adv-x="1159" 
d="M897 1626l-342 281h207l282 -281h-147zM496 1772h166l264 -269h-142l-206 180l-205 -180h-144zM512 1374h133l471 -1374h-160l-120 362h-514l-123 -362h-158zM793 496l-215 680l-216 -680h431z" />
    <glyph glyph-name="uni1EA7" unicode="&#x1ea7;" horiz-adv-x="974" 
d="M807 1255l-299 279h207l211 -279h-119zM410 1413h165l232 -287h-139l-176 193l-175 -193h-139zM270 717h-141q15 136 108.5 208t254.5 72q119 0 201 -42t110 -117q13 -36 17.5 -80.5t4.5 -136.5v-365q0 -117 4.5 -160.5t22.5 -95.5h-137q-15 49 -23 131
q-86 -156 -284 -156q-142 0 -228 76.5t-86 204.5q0 101 57.5 175.5t167.5 115.5q116 43 365 86v41q0 108 -46 154t-153 46q-95 0 -147.5 -38t-67.5 -119zM684 430v96q-245 -43 -343.5 -101.5t-98.5 -158.5q0 -75 52 -122.5t136 -47.5q69 0 126 30.5t89 84.5q39 68 39 219z
" />
    <glyph glyph-name="uni1EA8" unicode="&#x1ea8;" horiz-adv-x="1159" 
d="M772 1659v88h29q149 0 149 102q0 47 -33 76t-88 29q-24 0 -43 -5t-71 -24v86q60 23 93 31t71 8q95 0 155 -51.5t60 -134.5q0 -92 -76 -140q-32 -21 -67 -28.5t-99 -7.5v-89h-21l95 -96h-140l-208 180l-205 -180h-144l267 269h163zM512 1374h133l471 -1374h-160l-120 362
h-514l-123 -362h-158zM793 496l-215 680l-216 -680h431z" />
    <glyph glyph-name="uni1EA9" unicode="&#x1ea9;" horiz-adv-x="974" 
d="M662 1305v88h28q72 0 111 26.5t39 75.5q0 47 -33 75.5t-88 28.5q-27 0 -46 -4t-67 -22v86q97 37 162 37q95 0 155 -52t60 -135q0 -91 -76 -139q-32 -20 -67 -27.5t-99 -7.5v-88h-32l96 -123h-137l-174 195l-177 -195h-139l234 289h163zM270 717h-141q15 136 108.5 208
t254.5 72q119 0 201 -42t110 -117q13 -36 17.5 -80.5t4.5 -136.5v-365q0 -117 4.5 -160.5t22.5 -95.5h-137q-15 49 -23 131q-86 -156 -284 -156q-142 0 -228 76.5t-86 204.5q0 101 57.5 175.5t167.5 115.5q116 43 365 86v41q0 108 -46 154t-153 46q-95 0 -147.5 -38
t-67.5 -119zM684 430v96q-245 -43 -343.5 -101.5t-98.5 -158.5q0 -75 52 -122.5t136 -47.5q69 0 126 30.5t89 84.5q39 68 39 219z" />
    <glyph glyph-name="uni1EAA" unicode="&#x1eaa;" horiz-adv-x="1159" 
d="M512 1374h133l471 -1374h-160l-120 362h-514l-123 -362h-158zM793 496l-215 680l-216 -680h431zM229 1503l267 269h166l264 -269h-142l-206 180l-205 -180h-144zM334 1812l-88 33q25 102 70 150.5t116 48.5q64 0 154 -53q64 -37 90 -47.5t51 -10.5q76 0 100 121l84 -33
q-13 -98 -62.5 -152t-123.5 -54q-34 0 -65.5 11.5t-104.5 51.5q-78 45 -123 45q-72 0 -98 -111z" />
    <glyph glyph-name="uni1EAB" unicode="&#x1eab;" horiz-adv-x="974" 
d="M270 717h-141q15 136 108.5 208t254.5 72q119 0 201 -42t110 -117q13 -36 17.5 -80.5t4.5 -136.5v-365q0 -117 4.5 -160.5t22.5 -95.5h-137q-15 49 -23 131q-86 -156 -284 -156q-142 0 -228 76.5t-86 204.5q0 101 57.5 175.5t167.5 115.5q116 43 365 86v41q0 108 -46 154
t-153 46q-95 0 -147.5 -38t-67.5 -119zM684 430v96q-245 -43 -343.5 -101.5t-98.5 -158.5q0 -75 52 -122.5t136 -47.5q69 0 126 30.5t89 84.5q39 68 39 219zM178 1126l232 287h165l232 -287h-139l-176 193l-175 -193h-139zM293 1470l-84 19q40 213 174 213q60 0 137 -53
q54 -35 79 -46.5t48 -11.5q66 0 90 119l82 -20q-12 -101 -57.5 -160.5t-110.5 -59.5q-55 0 -149 58q-53 33 -76 43t-45 10q-65 0 -88 -111z" />
    <glyph glyph-name="uni1EAC" unicode="&#x1eac;" horiz-adv-x="1159" 
d="M512 1374h133l471 -1374h-160l-120 362h-514l-123 -362h-158zM793 496l-215 680l-216 -680h431zM229 1503l267 269h166l264 -269h-142l-206 180l-205 -180h-144zM580 -156q52 0 89.5 -37t37.5 -90q0 -54 -37 -91.5t-90 -37.5q-54 0 -91.5 37t-37.5 90q0 54 37.5 91.5
t91.5 37.5z" />
    <glyph glyph-name="uni1EAD" unicode="&#x1ead;" horiz-adv-x="974" 
d="M270 717h-141q15 136 108.5 208t254.5 72q119 0 201 -42t110 -117q13 -36 17.5 -80.5t4.5 -136.5v-365q0 -117 4.5 -160.5t22.5 -95.5h-137q-15 49 -23 131q-86 -156 -284 -156q-142 0 -228 76.5t-86 204.5q0 101 57.5 175.5t167.5 115.5q116 43 365 86v41q0 108 -46 154
t-153 46q-95 0 -147.5 -38t-67.5 -119zM684 430v96q-245 -43 -343.5 -101.5t-98.5 -158.5q0 -75 52 -122.5t136 -47.5q69 0 126 30.5t89 84.5q39 68 39 219zM178 1126l232 287h165l232 -287h-139l-176 193l-175 -193h-139zM487 -156q53 0 90 -37t37 -90q0 -54 -37 -91.5
t-90 -37.5q-54 0 -91.5 37t-37.5 90q0 54 37.5 91.5t91.5 37.5z" />
    <glyph glyph-name="uni1EAE" unicode="&#x1eae;" horiz-adv-x="1159" 
d="M512 1374h133l471 -1374h-160l-120 362h-514l-123 -362h-158zM793 496l-215 680l-216 -680h431zM299 1774h82q23 -74 76 -116t123 -42q69 0 120.5 41.5t73.5 116.5h82q-13 -126 -87 -199.5t-187 -73.5q-114 0 -192 75t-91 198zM485 1720l283 281h207l-342 -281h-148z" />
    <glyph glyph-name="uni1EAF" unicode="&#x1eaf;" horiz-adv-x="974" 
d="M270 717h-141q15 136 108.5 208t254.5 72q119 0 201 -42t110 -117q13 -36 17.5 -80.5t4.5 -136.5v-365q0 -117 4.5 -160.5t22.5 -95.5h-137q-15 49 -23 131q-86 -156 -284 -156q-142 0 -228 76.5t-86 204.5q0 101 57.5 175.5t167.5 115.5q116 43 365 86v41q0 108 -46 154
t-153 46q-95 0 -147.5 -38t-67.5 -119zM684 430v96q-245 -43 -343.5 -101.5t-98.5 -158.5q0 -75 52 -122.5t136 -47.5q69 0 126 30.5t89 84.5q39 68 39 219zM238 1397h84q22 -77 66 -118.5t104 -41.5q121 0 165 160h84q-12 -129 -78 -203t-169 -74t-173.5 76.5t-82.5 200.5z
M406 1380l212 281h205l-297 -281h-120z" />
    <glyph glyph-name="uni1EB0" unicode="&#x1eb0;" horiz-adv-x="1159" 
d="M512 1374h133l471 -1374h-160l-120 362h-514l-123 -362h-158zM793 496l-215 680l-216 -680h431zM299 1774h82q23 -74 76 -116t123 -42q69 0 120.5 41.5t73.5 116.5h82q-13 -126 -87 -199.5t-187 -73.5q-114 0 -192 75t-91 198zM686 1720h-147l-340 281h204z" />
    <glyph glyph-name="uni1EB1" unicode="&#x1eb1;" horiz-adv-x="974" 
d="M270 717h-141q15 136 108.5 208t254.5 72q119 0 201 -42t110 -117q13 -36 17.5 -80.5t4.5 -136.5v-365q0 -117 4.5 -160.5t22.5 -95.5h-137q-15 49 -23 131q-86 -156 -284 -156q-142 0 -228 76.5t-86 204.5q0 101 57.5 175.5t167.5 115.5q116 43 365 86v41q0 108 -46 154
t-153 46q-95 0 -147.5 -38t-67.5 -119zM684 430v96q-245 -43 -343.5 -101.5t-98.5 -158.5q0 -75 52 -122.5t136 -47.5q69 0 126 30.5t89 84.5q39 68 39 219zM238 1397h84q22 -77 66 -118.5t104 -41.5q121 0 165 160h84q-12 -129 -78 -203t-169 -74t-173.5 76.5t-82.5 200.5z
M614 1350h-118l-299 280h206z" />
    <glyph glyph-name="uni1EB2" unicode="&#x1eb2;" horiz-adv-x="1159" 
d="M512 1374h133l471 -1374h-160l-120 362h-514l-123 -362h-158zM793 496l-215 680l-216 -680h431zM299 1774h82q23 -74 76 -116t123 -42q69 0 120.5 41.5t73.5 116.5h82q-13 -126 -87 -199.5t-187 -73.5q-114 0 -192 75t-91 198zM541 1716v148h28q150 0 150 102
q0 47 -33 76t-88 29q-38 0 -115 -29v88q100 37 164 37q95 0 155 -52t60 -135q0 -91 -76 -139q-32 -22 -67 -29.5t-98 -7.5v-88h-80z" />
    <glyph glyph-name="uni1EB3" unicode="&#x1eb3;" horiz-adv-x="974" 
d="M270 717h-141q15 136 108.5 208t254.5 72q119 0 201 -42t110 -117q13 -36 17.5 -80.5t4.5 -136.5v-365q0 -117 4.5 -160.5t22.5 -95.5h-137q-15 49 -23 131q-86 -156 -284 -156q-142 0 -228 76.5t-86 204.5q0 101 57.5 175.5t167.5 115.5q116 43 365 86v41q0 108 -46 154
t-153 46q-95 0 -147.5 -38t-67.5 -119zM684 430v96q-245 -43 -343.5 -101.5t-98.5 -158.5q0 -75 52 -122.5t136 -47.5q69 0 126 30.5t89 84.5q39 68 39 219zM238 1397h84q22 -77 66 -118.5t104 -41.5q121 0 165 160h84q-12 -129 -78 -203t-169 -74t-173.5 76.5t-82.5 200.5z
M455 1348v147h28q150 0 150 102q0 47 -33 76t-88 29q-38 0 -115 -29v88q100 37 164 37q95 0 155 -51.5t60 -134.5q0 -91 -76 -139q-32 -22 -66 -29.5t-99 -7.5v-88h-80z" />
    <glyph glyph-name="uni1EB4" unicode="&#x1eb4;" horiz-adv-x="1159" 
d="M512 1374h133l471 -1374h-160l-120 362h-514l-123 -362h-158zM793 496l-215 680l-216 -680h431zM299 1774h82q23 -74 76 -116t123 -42q69 0 120.5 41.5t73.5 116.5h82q-13 -126 -87 -199.5t-187 -73.5q-114 0 -192 75t-91 198zM358 1815l-90 32q26 103 71.5 151t117.5 48
q59 0 153 -51q64 -36 90.5 -47t51.5 -11q76 0 100 119l84 -33q-15 -97 -64 -150.5t-122 -53.5q-34 0 -66.5 12t-103.5 51q-79 43 -123 43q-73 0 -99 -110z" />
    <glyph glyph-name="uni1EB5" unicode="&#x1eb5;" horiz-adv-x="974" 
d="M270 717h-141q15 136 108.5 208t254.5 72q119 0 201 -42t110 -117q13 -36 17.5 -80.5t4.5 -136.5v-365q0 -117 4.5 -160.5t22.5 -95.5h-137q-15 49 -23 131q-86 -156 -284 -156q-142 0 -228 76.5t-86 204.5q0 101 57.5 175.5t167.5 115.5q116 43 365 86v41q0 108 -46 154
t-153 46q-95 0 -147.5 -38t-67.5 -119zM684 430v96q-245 -43 -343.5 -101.5t-98.5 -158.5q0 -75 52 -122.5t136 -47.5q69 0 126 30.5t89 84.5q39 68 39 219zM238 1397h84q22 -77 66 -118.5t104 -41.5q121 0 165 160h84q-12 -129 -78 -203t-169 -74t-173.5 76.5t-82.5 200.5z
M281 1475l-84 20q40 211 174 211q60 0 137 -53q54 -35 79 -46.5t48 -11.5q66 0 90 119l84 -18q-13 -102 -59 -161.5t-111 -59.5q-58 0 -150 57q-53 33 -76 43t-44 10q-65 0 -88 -110z" />
    <glyph glyph-name="uni1EB6" unicode="&#x1eb6;" horiz-adv-x="1159" 
d="M512 1374h133l471 -1374h-160l-120 362h-514l-123 -362h-158zM793 496l-215 680l-216 -680h431zM299 1774h82q23 -74 76 -116t123 -42q69 0 120.5 41.5t73.5 116.5h82q-13 -126 -87 -199.5t-187 -73.5q-114 0 -192 75t-91 198zM580 -156q52 0 89.5 -37t37.5 -90
q0 -54 -37 -91.5t-90 -37.5q-54 0 -91.5 37t-37.5 90q0 54 37.5 91.5t91.5 37.5z" />
    <glyph glyph-name="uni1EB7" unicode="&#x1eb7;" horiz-adv-x="974" 
d="M270 717h-141q15 136 108.5 208t254.5 72q119 0 201 -42t110 -117q13 -36 17.5 -80.5t4.5 -136.5v-365q0 -117 4.5 -160.5t22.5 -95.5h-137q-15 49 -23 131q-86 -156 -284 -156q-142 0 -228 76.5t-86 204.5q0 101 57.5 175.5t167.5 115.5q116 43 365 86v41q0 108 -46 154
t-153 46q-95 0 -147.5 -38t-67.5 -119zM684 430v96q-245 -43 -343.5 -101.5t-98.5 -158.5q0 -75 52 -122.5t136 -47.5q69 0 126 30.5t89 84.5q39 68 39 219zM238 1397h84q22 -77 66 -118.5t104 -41.5q121 0 165 160h84q-12 -129 -78 -203t-169 -74t-173.5 76.5t-82.5 200.5z
M487 -156q53 0 90 -37t37 -90q0 -54 -37 -91.5t-90 -37.5q-54 0 -91.5 37t-37.5 90q0 54 37.5 91.5t91.5 37.5z" />
    <glyph glyph-name="uni1EB8" unicode="&#x1eb8;" horiz-adv-x="1028" 
d="M330 774h553v-133h-553v-508h610v-133h-764v1366h750v-133h-596v-459zM514 -156q52 0 89.5 -37t37.5 -90q0 -54 -37 -91.5t-90 -37.5q-54 0 -91.5 37t-37.5 90q0 54 37.5 91.5t91.5 37.5z" />
    <glyph glyph-name="uni1EB9" unicode="&#x1eb9;" horiz-adv-x="995" 
d="M901 461h-661q4 -177 76 -270t204 -93q80 0 132 34.5t93 113.5l134 -17q-89 -254 -361 -254q-195 0 -310.5 135.5t-115.5 364.5q0 237 114 379.5t304 142.5q180 0 286.5 -134.5t106.5 -360.5q0 -23 -2 -41zM244 573h510q-12 147 -76.5 225.5t-173.5 78.5
q-106 0 -172 -77.5t-88 -226.5zM498 -156q52 0 89.5 -37t37.5 -90q0 -54 -37 -91.5t-90 -37.5q-54 0 -91.5 37t-37.5 90q0 54 37.5 91.5t91.5 37.5z" />
    <glyph glyph-name="uni1EBA" unicode="&#x1eba;" horiz-adv-x="1028" 
d="M330 774h553v-133h-553v-508h610v-133h-764v1366h750v-133h-596v-459zM498 1534v147h28q150 0 150 103q0 47 -33 75.5t-88 28.5q-41 0 -115 -28v88q100 37 164 37q95 0 155 -52t60 -135q0 -91 -76 -139q-32 -22 -67 -29.5t-98 -7.5v-88h-80z" />
    <glyph glyph-name="uni1EBB" unicode="&#x1ebb;" horiz-adv-x="995" 
d="M901 461h-661q4 -177 76 -270t204 -93q80 0 132 34.5t93 113.5l134 -17q-89 -254 -361 -254q-195 0 -310.5 135.5t-115.5 364.5q0 237 114 379.5t304 142.5q180 0 286.5 -134.5t106.5 -360.5q0 -23 -2 -41zM244 573h510q-12 147 -76.5 225.5t-173.5 78.5
q-106 0 -172 -77.5t-88 -226.5zM479 1182v147h29q149 0 149 103q0 47 -32.5 75.5t-87.5 28.5q-26 0 -44.5 -4.5t-68.5 -22.5v86q94 37 162 37q95 0 155 -51.5t60 -134.5q0 -91 -76 -139q-32 -22 -66.5 -29.5t-99.5 -7.5v-88h-80z" />
    <glyph glyph-name="uni1EBC" unicode="&#x1ebc;" horiz-adv-x="1028" 
d="M330 774h553v-133h-553v-508h610v-133h-764v1366h750v-133h-596v-459zM344 1520l-88 32q25 103 69.5 151t116.5 48q64 0 154 -53q64 -37 90 -47.5t51 -10.5q77 0 101 119l84 -33q-15 -97 -64 -150.5t-123 -53.5q-34 0 -66.5 12t-103.5 51q-78 45 -123 45q-72 0 -98 -110z
" />
    <glyph glyph-name="uni1EBD" unicode="&#x1ebd;" horiz-adv-x="995" 
d="M901 461h-661q4 -177 76 -270t204 -93q80 0 132 34.5t93 113.5l134 -17q-89 -254 -361 -254q-195 0 -310.5 135.5t-115.5 364.5q0 237 114 379.5t304 142.5q180 0 286.5 -134.5t106.5 -360.5q0 -23 -2 -41zM244 573h510q-12 147 -76.5 225.5t-173.5 78.5
q-106 0 -172 -77.5t-88 -226.5zM274 1145l-81 20q40 213 172 213q59 0 139 -53q53 -34 78 -45.5t47 -11.5q66 0 90 118l84 -20q-12 -101 -58 -160t-112 -59q-58 0 -150 57q-51 32 -74.5 42.5t-43.5 10.5q-68 0 -91 -112z" />
    <glyph glyph-name="uni1EBE" unicode="&#x1ebe;" horiz-adv-x="1028" 
d="M754 1657l237 235h205l-340 -280h-59l108 -109h-141l-207 180l-205 -180h-143l266 269h164zM330 774h553v-133h-553v-508h610v-133h-764v1366h750v-133h-596v-459z" />
    <glyph glyph-name="uni1EBF" unicode="&#x1ebf;" horiz-adv-x="995" 
d="M700 1278l181 238h204l-297 -281h-53l88 -109h-139l-174 193l-176 -193h-139l231 287h166zM901 461h-661q4 -177 76 -270t204 -93q80 0 132 34.5t93 113.5l134 -17q-89 -254 -361 -254q-195 0 -310.5 135.5t-115.5 364.5q0 237 114 379.5t304 142.5q180 0 286.5 -134.5
t106.5 -360.5q0 -23 -2 -41zM244 573h510q-12 147 -76.5 225.5t-173.5 78.5q-106 0 -172 -77.5t-88 -226.5z" />
    <glyph glyph-name="uni1EC0" unicode="&#x1ec0;" horiz-adv-x="1028" 
d="M895 1610l-342 278h207l282 -278h-147zM475 1772h164l266 -269h-141l-207 180l-205 -180h-143zM330 774h553v-133h-553v-508h610v-133h-764v1366h750v-133h-596v-459z" />
    <glyph glyph-name="uni1EC1" unicode="&#x1ec1;" horiz-adv-x="995" 
d="M784 1284l-299 279h207l211 -279h-119zM426 1413h166l231 -287h-139l-174 193l-176 -193h-139zM901 461h-661q4 -177 76 -270t204 -93q80 0 132 34.5t93 113.5l134 -17q-89 -254 -361 -254q-195 0 -310.5 135.5t-115.5 364.5q0 237 114 379.5t304 142.5
q180 0 286.5 -134.5t106.5 -360.5q0 -23 -2 -41zM244 573h510q-12 147 -76.5 225.5t-173.5 78.5q-106 0 -172 -77.5t-88 -226.5z" />
    <glyph glyph-name="uni1EC2" unicode="&#x1ec2;" horiz-adv-x="1028" 
d="M768 1645v92h29q149 0 149 100q0 47 -33 76t-88 29q-37 0 -114 -27v86q95 37 163 37q95 0 155.5 -52t60.5 -135q0 -89 -76 -137q-32 -22 -67 -29.5t-99 -7.5v-88h-27l86 -86h-141l-209 180l-205 -180h-141l264 269h166zM330 774h553v-133h-553v-508h610v-133h-764v1366
h750v-133h-596v-459z" />
    <glyph glyph-name="uni1EC3" unicode="&#x1ec3;" horiz-adv-x="995" 
d="M672 1313v88h28q72 0 111 26.5t39 75.5q0 47 -33 76t-88 29q-39 0 -113 -27v86q97 37 162 37q95 0 155 -51.5t60 -134.5q0 -93 -75 -140q-32 -20 -67 -27.5t-99 -7.5v-88h-33l104 -131h-139l-174 195l-174 -195h-139l231 289h164zM901 461h-661q4 -177 76 -270t204 -93
q80 0 132 34.5t93 113.5l134 -17q-89 -254 -361 -254q-195 0 -310.5 135.5t-115.5 364.5q0 237 114 379.5t304 142.5q180 0 286.5 -134.5t106.5 -360.5q0 -23 -2 -41zM244 573h510q-12 147 -76.5 225.5t-173.5 78.5q-106 0 -172 -77.5t-88 -226.5z" />
    <glyph glyph-name="uni1EC4" unicode="&#x1ec4;" horiz-adv-x="1028" 
d="M330 774h553v-133h-553v-508h610v-133h-764v1366h750v-133h-596v-459zM209 1503l266 269h164l266 -269h-141l-207 180l-205 -180h-143zM340 1804l-88 33q25 102 70 150.5t116 48.5q63 0 154 -54q63 -36 89.5 -46.5t51.5 -10.5q77 0 101 119l84 -33q-15 -97 -64.5 -151
t-122.5 -54q-34 0 -66 12t-104 52q-78 45 -123 45q-72 0 -98 -111z" />
    <glyph glyph-name="uni1EC5" unicode="&#x1ec5;" horiz-adv-x="995" 
d="M195 1126l231 287h166l231 -287h-139l-174 193l-176 -193h-139zM901 461h-661q4 -177 76 -270t204 -93q80 0 132 34.5t93 113.5l134 -17q-89 -254 -361 -254q-195 0 -310.5 135.5t-115.5 364.5q0 237 114 379.5t304 142.5q180 0 286.5 -134.5t106.5 -360.5q0 -23 -2 -41z
M244 573h510q-12 147 -76.5 225.5t-173.5 78.5q-106 0 -172 -77.5t-88 -226.5zM334 1464l-84 21q43 211 174 211q58 0 137 -54q53 -34 78.5 -45.5t48.5 -11.5q66 0 90 119l84 -18q-14 -103 -59 -162.5t-111 -59.5q-55 0 -149 58q-53 32 -76 42.5t-43 10.5q-67 0 -90 -111z
" />
    <glyph glyph-name="uni1EC6" unicode="&#x1ec6;" horiz-adv-x="1028" 
d="M330 774h553v-133h-553v-508h610v-133h-764v1366h750v-133h-596v-459zM209 1503l266 269h164l266 -269h-141l-207 180l-205 -180h-143zM514 -156q52 0 89.5 -37t37.5 -90q0 -54 -37 -91.5t-90 -37.5q-54 0 -91.5 37t-37.5 90q0 54 37.5 91.5t91.5 37.5z" />
    <glyph glyph-name="uni1EC7" unicode="&#x1ec7;" horiz-adv-x="995" 
d="M195 1126l231 287h166l231 -287h-139l-174 193l-176 -193h-139zM901 461h-661q4 -177 76 -270t204 -93q80 0 132 34.5t93 113.5l134 -17q-89 -254 -361 -254q-195 0 -310.5 135.5t-115.5 364.5q0 237 114 379.5t304 142.5q180 0 286.5 -134.5t106.5 -360.5q0 -23 -2 -41z
M244 573h510q-12 147 -76.5 225.5t-173.5 78.5q-106 0 -172 -77.5t-88 -226.5zM498 -156q52 0 89.5 -37t37.5 -90q0 -54 -37 -91.5t-90 -37.5q-54 0 -91.5 37t-37.5 90q0 54 37.5 91.5t91.5 37.5z" />
    <glyph glyph-name="uni1EC8" unicode="&#x1ec8;" horiz-adv-x="503" 
d="M332 0h-158v1366h158v-1366zM217 1495v147h29q149 0 149 103q0 47 -33 75.5t-88 28.5q-40 0 -114 -28v88q100 37 164 37q95 0 155 -52t60 -135q0 -91 -76 -139q-32 -22 -67 -29.5t-99 -7.5v-88h-80z" />
    <glyph glyph-name="uni1EC9" unicode="&#x1ec9;" horiz-adv-x="452" 
d="M150 971h151v-971h-151v971zM193 1182v147h28q150 0 150 103q0 47 -33 75.5t-88 28.5q-26 0 -45 -4.5t-70 -22.5v86q100 37 164 37q95 0 155 -51.5t60 -134.5q0 -91 -76 -139q-32 -22 -66.5 -29.5t-99.5 -7.5v-88h-79z" />
    <glyph glyph-name="uni1ECA" unicode="&#x1eca;" horiz-adv-x="503" 
d="M330 0h-158v1366h158v-1366zM252 -156q52 0 89.5 -37t37.5 -90q0 -54 -37 -91.5t-90 -37.5q-54 0 -91.5 37t-37.5 90q0 54 37.5 91.5t91.5 37.5z" />
    <glyph glyph-name="uni1ECB" unicode="&#x1ecb;" horiz-adv-x="452" 
d="M152 971h151v-971h-151v971zM229 1384q44 0 73.5 -30t29.5 -76q0 -44 -29.5 -73t-75.5 -29q-44 0 -74 29t-30 73q0 46 30 76t76 30zM227 -156q53 0 90 -37t37 -90q0 -54 -37 -91.5t-90 -37.5q-54 0 -91.5 37t-37.5 90q0 54 37.5 91.5t91.5 37.5z" />
    <glyph glyph-name="uni1ECC" unicode="&#x1ecc;" horiz-adv-x="1323" 
d="M662 1391q247 0 401 -196t154 -511t-154 -511t-401 -196q-252 0 -405 196.5t-153 520.5q0 202 70.5 361t198 247.5t289.5 88.5zM662 1255q-177 0 -285.5 -155t-108.5 -408q0 -265 107 -422t287 -157q177 0 284 156.5t107 414.5t-107 414.5t-284 156.5zM662 -156
q52 0 89 -37t37 -90q0 -54 -36.5 -91.5t-89.5 -37.5q-54 0 -92 37t-38 90q0 54 38 91.5t92 37.5z" />
    <glyph glyph-name="uni1ECD" unicode="&#x1ecd;" horiz-adv-x="1032" 
d="M516 997q188 0 306 -142.5t118 -369.5q0 -225 -118.5 -367.5t-305.5 -142.5q-189 0 -306.5 143.5t-117.5 375.5q0 220 119 361.5t305 141.5zM516 874q-123 0 -199.5 -106t-76.5 -276q0 -179 75 -286.5t201 -107.5q124 0 200.5 107t76.5 282q0 173 -76.5 280t-200.5 107z
M516 -156q52 0 89.5 -37t37.5 -90q0 -54 -37 -91.5t-90 -37.5q-54 0 -91.5 37t-37.5 90q0 54 37.5 91.5t91.5 37.5z" />
    <glyph glyph-name="uni1ECE" unicode="&#x1ece;" horiz-adv-x="1323" 
d="M662 1391q247 0 401 -196t154 -511t-154 -511t-401 -196q-252 0 -405 196.5t-153 520.5q0 202 70.5 361t198 247.5t289.5 88.5zM662 1255q-177 0 -285.5 -155t-108.5 -408q0 -265 107 -422t287 -157q177 0 284 156.5t107 414.5t-107 414.5t-284 156.5zM618 1534v147h29
q150 0 150 103q0 47 -33 75.5t-88 28.5q-41 0 -115 -28v88q100 37 164 37q95 0 155 -52t60 -135q0 -91 -76 -139q-32 -22 -67 -29.5t-99 -7.5v-88h-80z" />
    <glyph glyph-name="uni1ECF" unicode="&#x1ecf;" horiz-adv-x="1032" 
d="M516 997q188 0 306 -142.5t118 -369.5q0 -225 -118.5 -367.5t-305.5 -142.5q-189 0 -306.5 143.5t-117.5 375.5q0 220 119 361.5t305 141.5zM516 874q-123 0 -199.5 -106t-76.5 -276q0 -179 75 -286.5t201 -107.5q124 0 200.5 107t76.5 282q0 173 -76.5 280t-200.5 107z
M500 1182v147h28q150 0 150 103q0 47 -33 75.5t-88 28.5q-26 0 -45 -4.5t-70 -22.5v86q100 37 164 37q95 0 155 -51.5t60 -134.5q0 -91 -76 -139q-32 -22 -66 -29.5t-99 -7.5v-88h-80z" />
    <glyph glyph-name="uni1ED0" unicode="&#x1ed0;" horiz-adv-x="1323" 
d="M866 1649l244 239h205l-340 -278h-70l105 -107h-142l-206 180l-207 -180h-142l267 269h163zM662 1391q246 0 400.5 -197t154.5 -510q0 -340 -183 -541q-149 -166 -366 -166q-253 0 -408.5 195.5t-155.5 513.5q0 205 70.5 366t198 250t289.5 89zM662 1255
q-180 0 -287 -155t-107 -416q0 -258 106 -414.5t281 -156.5q184 0 291 154.5t107 418.5q0 260 -106.5 414.5t-284.5 154.5z" />
    <glyph glyph-name="uni1ED1" unicode="&#x1ed1;" horiz-adv-x="1032" 
d="M684 1307l180 235h205l-297 -278h-53l110 -138h-137l-176 193l-174 -193h-139l231 287h164zM516 997q187 0 305.5 -143t118.5 -369t-118 -368t-306 -142q-186 0 -305 142t-119 362q0 232 117.5 375t306.5 143zM516 874q-123 0 -199.5 -106t-76.5 -276q0 -179 75 -286.5
t201 -107.5q124 0 200.5 107t76.5 282q0 173 -76.5 280t-200.5 107z" />
    <glyph glyph-name="uni1ED2" unicode="&#x1ed2;" horiz-adv-x="1323" 
d="M979 1622l-340 281h205l284 -281h-149zM580 1772h163l267 -269h-142l-206 180l-207 -180h-142zM662 1391q246 0 400.5 -197t154.5 -510q0 -340 -183 -541q-149 -166 -366 -166q-253 0 -408.5 195.5t-155.5 513.5q0 205 70.5 366t198 250t289.5 89zM662 1255
q-180 0 -287 -155t-107 -416q0 -258 106 -414.5t281 -156.5q184 0 291 154.5t107 418.5q0 260 -106.5 414.5t-284.5 154.5z" />
    <glyph glyph-name="uni1ED3" unicode="&#x1ed3;" horiz-adv-x="1032" 
d="M819 1284l-299 279h207l211 -279h-119zM434 1413h164l231 -287h-137l-176 193l-174 -193h-139zM516 997q187 0 305.5 -143t118.5 -369t-118 -368t-306 -142q-186 0 -305 142t-119 362q0 232 117.5 375t306.5 143zM516 874q-123 0 -199.5 -106t-76.5 -276
q0 -179 75 -286.5t201 -107.5q124 0 200.5 107t76.5 282q0 173 -76.5 280t-200.5 107z" />
    <glyph glyph-name="uni1ED4" unicode="&#x1ed4;" horiz-adv-x="1323" 
d="M866 1649v110h29q149 0 149 101q0 47 -32.5 75.5t-87.5 28.5q-35 0 -115 -27v86q59 23 91 30t73 7q95 0 155 -51.5t60 -134.5q0 -89 -76 -137q-32 -22 -67 -29.5t-99 -7.5v-88h-45l109 -109h-142l-209 180l-204 -180h-144l267 269h163zM662 1391q246 0 400.5 -197
t154.5 -510q0 -340 -183 -541q-149 -166 -366 -166q-253 0 -408.5 195.5t-155.5 513.5q0 205 70.5 366t198 250t289.5 89zM662 1255q-180 0 -287 -155t-107 -416q0 -258 106 -414.5t281 -156.5q184 0 291 154.5t107 418.5q0 260 -106.5 414.5t-284.5 154.5z" />
    <glyph glyph-name="uni1ED5" unicode="&#x1ed5;" horiz-adv-x="1032" 
d="M672 1323v84h28q150 0 150 102q0 47 -33 76t-88 29q-24 0 -43.5 -5t-71.5 -24v86q60 23 93 31t71 8q95 0 155 -51.5t60 -134.5q0 -93 -75 -140q-32 -21 -67 -28.5t-99 -7.5v-88h-29l108 -134h-139l-176 193l-174 -193h-139l231 287h164zM516 997q187 0 305.5 -143
t118.5 -369t-118 -368t-306 -142q-186 0 -305 142t-119 362q0 232 117.5 375t306.5 143zM516 874q-123 0 -199.5 -106t-76.5 -276q0 -179 75 -286.5t201 -107.5q124 0 200.5 107t76.5 282q0 173 -76.5 280t-200.5 107z" />
    <glyph glyph-name="uni1ED6" unicode="&#x1ed6;" horiz-adv-x="1323" 
d="M313 1503l267 269h163l267 -269h-142l-206 180l-207 -180h-142zM662 1391q162 0 288.5 -89t196.5 -249.5t70 -366.5q0 -318 -155.5 -513.5t-408.5 -195.5q-159 0 -284.5 90t-195 251t-69.5 366q0 314 155.5 510.5t402.5 196.5zM662 1255q-180 0 -287 -155t-107 -416
q0 -258 106 -414.5t281 -156.5q184 0 291 154.5t107 418.5q0 260 -106.5 414.5t-284.5 154.5zM436 1790l-88 33q26 103 71.5 150.5t117.5 47.5q61 0 153 -53q63 -36 89 -46.5t50 -10.5q80 0 101 119l86 -33q-15 -97 -64.5 -151t-122.5 -54q-34 0 -66.5 12t-103.5 51
q-82 46 -122 46q-72 0 -101 -111z" />
    <glyph glyph-name="uni1ED7" unicode="&#x1ed7;" horiz-adv-x="1032" 
d="M203 1126l231 287h164l231 -287h-137l-176 193l-174 -193h-139zM516 997q188 0 306 -142.5t118 -369.5q0 -225 -118.5 -367.5t-305.5 -142.5q-189 0 -306.5 143.5t-117.5 375.5q0 220 119 361.5t305 141.5zM516 874q-123 0 -199.5 -106t-76.5 -276q0 -179 75 -286.5
t201 -107.5q124 0 200.5 107t76.5 282q0 173 -76.5 280t-200.5 107zM293 1442l-82 20q40 213 174 213q60 0 137 -53q52 -35 77.5 -47t47.5 -12q69 0 90 120l84 -20q-12 -102 -58 -161.5t-112 -59.5q-55 0 -147 57q-52 33 -76 44t-45 11q-66 0 -90 -112z" />
    <glyph glyph-name="uni1ED8" unicode="&#x1ed8;" horiz-adv-x="1323" 
d="M313 1503l267 269h163l267 -269h-142l-206 180l-207 -180h-142zM662 1391q162 0 288.5 -89t196.5 -249.5t70 -366.5q0 -318 -155.5 -513.5t-408.5 -195.5q-159 0 -284.5 90t-195 251t-69.5 366q0 314 155.5 510.5t402.5 196.5zM662 1255q-180 0 -287 -155t-107 -416
q0 -258 106 -414.5t281 -156.5q184 0 291 154.5t107 418.5q0 260 -106.5 414.5t-284.5 154.5zM662 -156q52 0 89 -37t37 -90q0 -54 -36.5 -91.5t-89.5 -37.5q-54 0 -92 37t-38 90q0 54 38 91.5t92 37.5z" />
    <glyph glyph-name="uni1ED9" unicode="&#x1ed9;" horiz-adv-x="1032" 
d="M203 1126l231 287h164l231 -287h-137l-176 193l-174 -193h-139zM516 997q188 0 306 -142.5t118 -369.5q0 -225 -118.5 -367.5t-305.5 -142.5q-189 0 -306.5 143.5t-117.5 375.5q0 220 119 361.5t305 141.5zM516 874q-123 0 -199.5 -106t-76.5 -276q0 -179 75 -286.5
t201 -107.5q124 0 200.5 107t76.5 282q0 173 -76.5 280t-200.5 107zM516 -156q52 0 89.5 -37t37.5 -90q0 -54 -37 -91.5t-90 -37.5q-54 0 -91.5 37t-37.5 90q0 54 37.5 91.5t91.5 37.5z" />
    <glyph glyph-name="uni1EDA" unicode="&#x1eda;" horiz-adv-x="1323" 
d="M1149 1280h-12q-41 2 -69 29t-28 67q0 44 31.5 74.5t77.5 30.5q51 0 83 -37t32 -96q0 -63 -31.5 -124.5t-102.5 -136.5q40 -78 63.5 -185.5t23.5 -221.5q0 -206 -70 -366t-196.5 -248.5t-288.5 -88.5q-164 0 -291 88.5t-197 249.5t-70 369t70 369t197 249.5t291 88.5
q264 0 430 -238q51 75 57 127zM662 1255q-177 0 -285.5 -155t-108.5 -408q0 -265 107 -422t287 -157q177 0 284 156.5t107 414.5t-107 414.5t-284 156.5zM569 1497l283 281h205l-340 -281h-148z" />
    <glyph glyph-name="uni1EDB" unicode="&#x1edb;" horiz-adv-x="1032" 
d="M905 963h-12q-40 0 -68 28t-28 68q0 44 31 74t75 30q52 0 83.5 -36.5t31.5 -98.5t-32 -123t-105 -139q59 -130 59 -281q0 -226 -118 -368t-306 -142t-306 142t-118 368t118.5 369t305.5 143q99 0 184 -44t142 -124q56 74 63 134zM516 874q-123 0 -199.5 -106t-76.5 -276
q0 -179 75 -286.5t201 -107.5q124 0 200.5 107t76.5 282q0 173 -76.5 280t-200.5 107zM434 1120l213 281h205l-297 -281h-121z" />
    <glyph glyph-name="uni1EDC" unicode="&#x1edc;" horiz-adv-x="1323" 
d="M1149 1280h-12q-41 2 -69 29t-28 67q0 44 31.5 74.5t77.5 30.5q51 0 83 -37t32 -96q0 -63 -31.5 -124.5t-102.5 -136.5q40 -78 63.5 -185.5t23.5 -221.5q0 -206 -70 -366t-196.5 -248.5t-288.5 -88.5q-164 0 -291 88.5t-197 249.5t-70 369t70 369t197 249.5t291 88.5
q264 0 430 -238q51 75 57 127zM662 1255q-177 0 -285.5 -155t-108.5 -408q0 -265 107 -422t287 -157q177 0 284 156.5t107 414.5t-107 414.5t-284 156.5zM770 1497h-149l-340 281h204z" />
    <glyph glyph-name="uni1EDD" unicode="&#x1edd;" horiz-adv-x="1032" 
d="M905 963h-12q-40 0 -68 28t-28 68q0 44 31 74t75 30q52 0 83.5 -36.5t31.5 -98.5t-32 -123t-105 -139q59 -130 59 -281q0 -226 -118 -368t-306 -142t-306 142t-118 368t118.5 369t305.5 143q99 0 184 -44t142 -124q56 74 63 134zM516 874q-123 0 -199.5 -106t-76.5 -276
q0 -179 75 -286.5t201 -107.5q124 0 200.5 107t76.5 282q0 173 -76.5 280t-200.5 107zM643 1120h-119l-299 281h205z" />
    <glyph glyph-name="uni1EDE" unicode="&#x1ede;" horiz-adv-x="1323" 
d="M1149 1280h-12q-41 2 -69 29t-28 67q0 44 31.5 74.5t77.5 30.5q51 0 83 -37t32 -96q0 -63 -31.5 -124.5t-102.5 -136.5q40 -78 63.5 -185.5t23.5 -221.5q0 -206 -70 -366t-196.5 -248.5t-288.5 -88.5q-164 0 -291 88.5t-197 249.5t-70 369t70 369t197 249.5t291 88.5
q264 0 430 -238q51 75 57 127zM662 1255q-177 0 -285.5 -155t-108.5 -408q0 -265 107 -422t287 -157q177 0 284 156.5t107 414.5t-107 414.5t-284 156.5zM614 1479v147h29q150 0 150 103q0 47 -33 75.5t-88 28.5q-38 0 -115 -29v88q100 37 164 37q95 0 155 -51.5t60 -134.5
q0 -91 -76 -139q-32 -22 -67 -29.5t-99 -7.5v-88h-80z" />
    <glyph glyph-name="uni1EDF" unicode="&#x1edf;" horiz-adv-x="1032" 
d="M905 963h-12q-40 0 -68 28t-28 68q0 44 31 74t75 30q52 0 83.5 -36.5t31.5 -98.5t-32 -123t-105 -139q59 -130 59 -281q0 -226 -118 -368t-306 -142t-306 142t-118 368t118.5 369t305.5 143q99 0 184 -44t142 -124q56 74 63 134zM516 874q-123 0 -199.5 -106t-76.5 -276
q0 -179 75 -286.5t201 -107.5q124 0 200.5 107t76.5 282q0 173 -76.5 280t-200.5 107zM479 1143v147h29q149 0 149 103q0 47 -32.5 75.5t-87.5 28.5q-38 0 -115 -29v88q100 37 164 37q95 0 155 -51.5t60 -134.5q0 -91 -76 -139q-32 -22 -67 -29.5t-99 -7.5v-88h-80z" />
    <glyph glyph-name="uni1EE0" unicode="&#x1ee0;" horiz-adv-x="1323" 
d="M1149 1280h-12q-41 2 -69 29t-28 67q0 44 31.5 74.5t77.5 30.5q51 0 83 -37t32 -96q0 -63 -31.5 -124.5t-102.5 -136.5q40 -78 63.5 -185.5t23.5 -221.5q0 -206 -70 -366t-196.5 -248.5t-288.5 -88.5q-164 0 -291 88.5t-197 249.5t-70 369t70 369t197 249.5t291 88.5
q264 0 430 -238q51 75 57 127zM662 1255q-177 0 -285.5 -155t-108.5 -408q0 -265 107 -422t287 -157q177 0 284 156.5t107 414.5t-107 414.5t-284 156.5zM416 1520l-88 32q26 103 71 151t117 48q62 0 154 -53q65 -37 90 -47.5t49 -10.5q76 0 100 119l84 -33
q-13 -97 -61.5 -150.5t-122.5 -53.5q-34 0 -66.5 12t-105.5 51q-78 45 -121 45q-74 0 -100 -110z" />
    </font>
</defs>
</svg>
