<?xml version="1.0" standalone="no"?>
<!DOCTYPE svg PUBLIC "-//W3C//DTD SVG 1.1//EN" "http://www.w3.org/Graphics/SVG/1.1/DTD/svg11.dtd" >
<svg xmlns="http://www.w3.org/2000/svg" xmlns:xlink="http://www.w3.org/1999/xlink" version="1.1">
<metadata>
Created by FontForge 20170731 at Thu Aug 18 11:21:15 2005
 By Aleksey,,,
(c) COPYRIGHT H. BERTHOLD AG 1992 Alle Rechte vorbehalten.
</metadata>
<defs>
<font id="CorporateSBQ-Light" horiz-adv-x="250" >
  <font-face 
    font-family="Corporate S BQ"
    font-weight="400"
    font-stretch="normal"
    units-per-em="1000"
    panose-1="2 0 5 3 4 0 0 2 0 4"
    ascent="800"
    descent="-200"
    x-height="502"
    cap-height="706"
    bbox="-165 -261 922 928"
    underline-thickness="50"
    underline-position="-150"
    unicode-range="U+000C-2122"
  />
<missing-glyph 
 />
    <glyph glyph-name=".notdef" 
 />
    <glyph glyph-name=".null" horiz-adv-x="0" 
 />
    <glyph glyph-name="nonmarkingreturn" 
 />
    <glyph glyph-name="caron" 
d="M92 592h-79l-117 144h56l100 -102l100 102h57z" />
    <glyph glyph-name="dotlessi" unicode="&#xd;" horiz-adv-x="219" 
d="M140 502v-502h-61v502h61z" />
    <glyph glyph-name="fraction" horiz-adv-x="125" 
d="M291 689l-406 -689h-50l404 689h52z" />
    <glyph glyph-name="fi" horiz-adv-x="505" 
d="M274 502v-46h-123v-456h-60v456h-73v46h73v33v44t5 44.5t15.5 40.5t31.5 33q16 11 35.5 16t39.5 5q21 0 41.5 -5t25.5 -7l-1 -57q-2 1 -4 3q-2 1 -3.5 2t-3.5 2q-5 3 -19.5 7.5t-33.5 4.5q-25 0 -38 -9.5t-19 -18.5q-10 -15 -12.5 -37.5t-3.5 -59.5v-41h127zM427 502
v-502h-61v502h61zM394 715q21 1 35 -13t14 -35q0 -20 -13.5 -33t-33.5 -13q-20 1 -33.5 13.5t-13.5 32.5q1 20 13 33t32 15z" />
    <glyph glyph-name="fl" horiz-adv-x="505" 
d="M274 502v-46h-123v-456h-60v456h-73v46h73v33v44t5 44.5t15.5 40.5t31.5 33q16 11 35.5 16t39.5 5q21 0 41.5 -5t25.5 -7l-1 -57q-2 1 -4 3q-2 1 -3.5 2t-3.5 2q-5 3 -19.5 7.5t-33.5 4.5q-25 0 -38 -9.5t-19 -18.5q-10 -15 -12.5 -37.5t-3.5 -59.5v-41h127zM426 709
v-709h-61v709h61z" />
    <glyph glyph-name="space" unicode=" " 
 />
    <glyph glyph-name="space" unicode="&#xa0;" 
 />
    <glyph glyph-name="exclam" unicode="!" horiz-adv-x="260" 
d="M161 695l-12 -508h-43l-7 508h62zM130 97q22 0 38.5 -16t16.5 -39t-16.5 -38.5t-38.5 -15.5q-23 0 -38.5 16t-15.5 38q0 23 15.5 38.5t38.5 16.5z" />
    <glyph glyph-name="quotedbl" unicode="&#x22;" horiz-adv-x="396" 
d="M271 452l-28 241q-1 14 0.5 26.5t14.5 21.5q3 2 9 5t16 3q5 0 18 -4.5t18 -21.5q1 -5 1 -7.5v-9.5l-32 -254h-17zM104 452l-27 241q0 3 -1 8.5t-0.5 12.5t4 14t11.5 13q3 2 9 5t16 3q6 0 19 -5t18 -23q1 -5 0 -15l-31 -254h-18z" />
    <glyph glyph-name="numbersign" unicode="#" horiz-adv-x="583" 
d="M379 263l-38 -263h-42l38 263h-117l-38 -263h-42l37 263h-171v40h177l15 112h-169v41h175l34 248h43l-33 -248h116l36 248h40l-33 -248h170v-41h-176l-16 -112h171v-40h-177zM358 415h-116l-16 -112h116z" />
    <glyph glyph-name="dollar" unicode="$" horiz-adv-x="552" 
d="M294 394q14 -5 27.5 -11t27.5 -12q24 -10 46 -21.5t41 -27t33 -35.5t22 -46q2 -8 5 -22.5t3 -35.5q0 -63 -35 -111t-93 -68q-26 -10 -46 -12t-31 -3v-71h-36v71q-42 2 -78 13.5t-68 40.5q-30 26 -45 62q-6 16 -10 34.5t-6 51.5h59q1 -8 2.5 -20.5t6 -27t13.5 -30.5
t25 -31q5 -5 14.5 -12.5t24.5 -13.5q20 -9 37.5 -10.5t24.5 -2.5v297q-15 6 -32 12.5t-34 14t-33 15.5t-29 18q-8 6 -19 17t-20.5 27.5t-16 38t-6.5 48.5q0 68 39 115t104 64q10 3 19 4t28 3v66h36v-65q30 -2 55 -9q30 -8 58.5 -27t45.5 -46q14 -22 17.5 -43t4.5 -29h-64
q0 3 -1 12t-5 18q-7 17 -18.5 29t-23.5 19.5t-22.5 11t-15.5 4.5q-10 3 -16 3.5t-15 1.5v-269zM258 663q-34 -4 -63 -17.5t-48 -42.5q-5 -8 -12 -25.5t-7 -40.5q0 -31 11.5 -50.5t19.5 -27.5q20 -20 48 -31.5t51 -20.5v256zM294 43q15 2 25.5 3.5t16.5 3.5q45 13 72.5 45.5
t27.5 80.5q0 9 -2 24t-10 35q-9 20 -23.5 34.5t-32 25t-36.5 18t-38 14.5v-284z" />
    <glyph glyph-name="percent" unicode="%" horiz-adv-x="557" 
d="M513 706l-417 -706h-51l417 706h51zM406 -6q-24 0 -46 11q-22 10 -37.5 28t-25.5 39.5t-15 45.5t-5 46q0 8 1.5 27.5t9.5 42.5q10 30 25 49t31.5 30.5t32.5 15.5t29 4q17 0 31 -4.5t25 -11t18 -13.5l11 -11q13 -14 28.5 -47t15.5 -83q0 -30 -6 -53.5t-15.5 -41.5
t-20.5 -30.5t-20 -19.5q-14 -11 -32 -17.5t-35 -6.5zM406 41q13 0 21.5 5t11.5 7q16 12 25 29.5t13 34.5t4.5 30.5t0.5 16.5q0 40 -11.5 66t-22.5 37q-13 13 -23.5 16t-18.5 3q-4 0 -11 -1.5t-16 -6.5q-14 -8 -23.5 -21.5t-15 -29.5t-8 -33t-2.5 -31q0 -25 4 -40.5t7 -24.5
q13 -33 31 -45t34 -12zM151 373q-8 0 -20 2t-28 10q-21 11 -36.5 28.5t-25.5 39t-14.5 45t-4.5 45.5q0 19 3.5 39.5t11 40t19.5 37t28 29.5q20 15 39 19t29 4q26 0 44.5 -10t25.5 -16q21 -17 32.5 -39.5t17 -43.5t7 -38t1.5 -23q0 -19 -3.5 -40t-11.5 -40.5t-20 -37
t-28 -29.5q-7 -5 -24.5 -13.5t-41.5 -8.5zM152 420q4 0 11 1.5t15 6.5q14 8 23.5 21.5t15 29.5t8 33t2.5 31q0 41 -11.5 66.5t-23.5 37.5q-18 18 -41 18q-4 0 -11.5 -1t-15.5 -6q-14 -8 -23.5 -21.5t-15 -30t-8 -33.5t-2.5 -31q0 -40 12 -67t24 -38t23.5 -14t17.5 -3z" />
    <glyph glyph-name="ampersand" unicode="&#x26;" horiz-adv-x="630" 
d="M515 316v-19.5t-1 -31.5t-4 -39t-9 -41q-7 -24 -15 -39t-14 -23l91 -123h-70l-55 73q-5 -6 -10.5 -12t-11.5 -11q-10 -9 -24 -18.5t-33.5 -17.5t-44.5 -13.5t-56 -5.5q-32 0 -53.5 4.5t-33.5 9.5q-58 20 -89 65.5t-31 105.5q0 39 12.5 70t33 56.5t47 47.5t54.5 43
q-5 7 -10.5 13.5t-10.5 14.5q-25 32 -44 65t-19 75q0 8 2 24.5t11 35.5q6 12 16 25t26.5 24t39.5 18t54 7q59 0 96.5 -32t37.5 -95q0 -42 -17.5 -75t-45.5 -62q-10 -10 -21.5 -21t-34.5 -28l159 -215q3 5 5 8.5t5 13.5q8 20 12 48.5t6 74.5h50zM245 431q28 21 52 44.5
t37 57.5q2 4 4.5 15t2.5 25q0 5 -1.5 15.5t-7.5 23.5q-11 20 -30.5 29.5t-42.5 9.5q-5 0 -12 -0.5t-18 -4.5q-27 -8 -43 -27.5t-16 -48.5q0 -6 1.5 -16t6.5 -24q8 -20 24.5 -42t42.5 -57zM232 350q-10 -7 -19 -13.5t-19 -14.5q-7 -5 -20.5 -16.5t-27 -29.5t-24 -42
t-10.5 -54q0 -32 12.5 -57t33.5 -42.5t48 -27t56 -9.5q34 0 65.5 13t57.5 37q8 7 13.5 14t7.5 10z" />
    <glyph glyph-name="quotesingle" unicode="'" horiz-adv-x="208" 
d="M94 452l-28 241q-1 14 0.5 26.5t13.5 21.5q3 2 9.5 5t16.5 3q11 0 20.5 -5.5t13.5 -16.5q3 -8 3 -21l-32 -254h-17z" />
    <glyph glyph-name="parenleft" unicode="(" horiz-adv-x="286" 
d="M252 712q-4 -5 -14.5 -20.5t-20.5 -34.5q-30 -58 -46 -123.5t-23 -123.5t-8 -101.5t-1 -58.5q0 -78 7.5 -152.5t29.5 -149.5q14 -45 26.5 -73.5t23.5 -46.5q6 -11 12.5 -20.5t13.5 -19.5h-44q-6 8 -17.5 22.5t-24.5 36.5q-16 27 -31.5 65.5t-27.5 89t-19.5 112.5
t-7.5 136q0 9 0.5 32t2.5 55.5t7.5 72t15 81.5t24.5 84t37 80q14 24 23.5 35.5t17.5 21.5h44z" />
    <glyph glyph-name="parenright" unicode=")" horiz-adv-x="286" 
d="M34 -212q4 5 14.5 21t20.5 34q30 58 46.5 123.5t23.5 123.5t8 101.5t1 58.5q0 78 -8 153t-30 149q-14 46 -26.5 74.5t-22.5 45.5q-11 19 -27 40h44q9 -11 16 -19.5t15 -19.5q18 -28 35.5 -68t31 -92.5t22 -118t8.5 -144.5q0 -12 -1 -57t-9.5 -106t-27.5 -128.5
t-54 -123.5q-12 -18 -21 -29t-15 -18h-44z" />
    <glyph glyph-name="asterisk" unicode="*" horiz-adv-x="531" 
d="M242 689h48v-132l125 41l14 -46l-125 -40l77 -107l-38 -28l-77 107l-78 -107l-38 28l77 107l-125 40l15 46l125 -41v132z" />
    <glyph glyph-name="plus" unicode="+" horiz-adv-x="552" 
d="M494 376v-40h-196v-204h-43v204h-197v40h197v204h43v-204h196z" />
    <glyph glyph-name="comma" unicode="," 
d="M42 -126q5 5 11 10.5t11 11.5q12 13 27 33t23 37q5 11 7 19t3 13q-7 -1 -11.5 -0.5t-11.5 2.5q-17 5 -27 19t-10 32q0 11 2.5 17t4.5 10q11 20 27.5 24.5t23.5 4.5q8 0 18.5 -3.5t20.5 -11.5t16.5 -22.5t6.5 -35.5q0 -3 -0.5 -10.5t-2.5 -17.5q-8 -38 -28.5 -71
t-44.5 -61h-66z" />
    <glyph glyph-name="hyphen" unicode="-" horiz-adv-x="297" 
d="M296 290v-46h-295v46h295z" />
    <glyph glyph-name="period" unicode="." horiz-adv-x="271" 
d="M135 97q23 0 39.5 -16t15.5 -39q0 -23 -16 -38.5t-39 -15.5t-38.5 16t-15.5 39q0 22 15.5 37.5t38.5 16.5z" />
    <glyph glyph-name="slash" unicode="/" horiz-adv-x="609" 
d="M474 706h66l-405 -847h-66z" />
    <glyph glyph-name="zero" unicode="0" horiz-adv-x="552" 
d="M276 698q15 0 35.5 -3.5t43 -14t44.5 -30.5t41 -53q15 -26 25.5 -58t16.5 -66t9 -67t3 -62q0 -6 -1 -37.5t-8 -74t-21.5 -89t-42.5 -81.5q-19 -24 -39.5 -38t-40 -21.5t-36.5 -9.5t-29 -2q-38 0 -66 11.5t-47.5 28t-32 33.5t-18.5 28q-15 26 -25.5 58t-16.5 66t-9 67
t-3 62q0 5 1 36.5t7.5 74.5t21.5 89t43 81q19 24 39.5 38.5t40 22t36.5 9.5t29 2zM276 647q-65 0 -102 -56q-3 -4 -10 -16t-13 -27q-10 -25 -21 -78.5t-11 -125.5q0 -79 18 -157q1 -5 4.5 -18t10 -30t17.5 -35t26 -32q10 -8 29.5 -19t51.5 -11q34 0 59 14.5t43 40.5
q3 5 10 17t13 26q10 26 21 79.5t11 125.5q0 20 -2.5 61.5t-15.5 95.5q-1 4 -4.5 17.5t-10.5 30t-17.5 34.5t-25.5 33q-10 8 -29.5 19t-51.5 11z" />
    <glyph glyph-name="one" unicode="1" horiz-adv-x="552" 
d="M130 594q4 1 21.5 2t34.5 6q25 7 40.5 18.5t24.5 25t13 26.5t6 23h41v-695h-56v552h-125v42z" />
    <glyph glyph-name="two" unicode="2" horiz-adv-x="552" 
d="M94 488q0 7 0.5 21.5t3.5 33t10 39t20 40.5q2 3 9 12t17 18q16 14 49.5 30t87.5 16q8 0 28.5 -2t44.5 -10q12 -4 30.5 -14t36 -27.5t29.5 -44.5t12 -65q0 -29 -8 -54.5t-24 -53t-40 -60.5t-57 -76l-90 -120q-22 -30 -44 -59.5t-44 -59.5h319v-52h-392l1 45q24 32 47.5 65
t47.5 65q25 35 50 68.5t51 67.5q29 39 51.5 69.5t38 56.5t23.5 49.5t8 49.5q0 27 -10 47.5t-27 34t-39.5 20.5t-47.5 7q-13 0 -32 -3.5t-38 -15t-35.5 -32.5t-23.5 -56q-4 -17 -5 -31t-2 -19h-56z" />
    <glyph glyph-name="three" unicode="3" horiz-adv-x="552" 
d="M84 515q3 40 14 73t41 61q16 15 48.5 32t86.5 17q38 0 72 -11t59 -32t39.5 -52.5t14.5 -71.5q0 -31 -8 -54.5t-19 -40t-24.5 -27.5t-23.5 -18q-7 -5 -12.5 -7.5t-13.5 -6.5q6 -2 15.5 -5.5t22.5 -10.5q31 -18 49 -40t27 -44.5t11 -42t2 -32.5q0 -8 -1 -22t-5 -31.5
t-12 -37.5t-22 -39q-9 -14 -23 -28t-34.5 -26t-49 -19.5t-65.5 -7.5q-8 0 -31 1t-48 8q-53 15 -86 53t-41 92q-2 8 -3 19t0 29l54 -1q0 -14 1 -26t5 -26q4 -15 13.5 -32t26.5 -31t42.5 -23.5t62.5 -9.5q6 0 17.5 1t25.5 4t30 9.5t31 18.5q17 13 33.5 41.5t16.5 79.5
q0 13 -4 40t-27 56q-16 20 -35.5 30.5t-38 15t-33.5 5t-23 0.5h-11.5t-15.5 -2v56q12 -2 38.5 -2t57.5 15q24 12 37 28t20 32.5t8.5 31t1.5 23.5q0 6 -2 22t-10 33q-5 10 -13.5 21.5t-22 20.5t-33 15t-46.5 6q-4 0 -13.5 -0.5t-22 -3.5t-26 -9t-25.5 -16
q-14 -12 -22.5 -27.5t-13 -30.5t-6.5 -27t-3 -16h-55z" />
    <glyph glyph-name="four" unicode="4" horiz-adv-x="552" 
d="M504 229v-54h-117v-181h-60v181h-282v44l286 476h54v-466h119zM331 609l-226 -380h224z" />
    <glyph glyph-name="five" unicode="5" horiz-adv-x="552" 
d="M452 689l-9 -52h-246l-30 -224q5 5 9 9.5t9 9.5q13 11 38.5 23t66.5 12q31 0 53 -6.5t33 -11.5q40 -19 62.5 -50t33.5 -62.5t13 -58.5t2 -38t-2 -38t-13 -59q-14 -44 -43.5 -81t-73.5 -55q-26 -11 -48.5 -13.5t-33.5 -2.5t-29.5 1.5t-42.5 10.5q-9 3 -23.5 10.5t-30 20
t-29.5 31.5t-22 46q-3 10 -4.5 18.5t-2.5 27.5l55 -1q2 -15 4.5 -22.5t5.5 -15.5q4 -10 12.5 -23t22.5 -25t34 -20t49 -8q8 0 25.5 2t37.5 11q25 12 42.5 33t28.5 45.5t16 52t5 53.5q0 37 -11.5 74.5t-38.5 64.5q-26 26 -51 31t-39 5q-41 -1 -65.5 -15t-35.5 -26
q-7 -7 -13 -15.5t-15 -25.5l-54 5l42 352h306z" />
    <glyph glyph-name="six" unicode="6" horiz-adv-x="552" 
d="M417 706q-45 -48 -86.5 -100.5t-78.5 -107.5q-11 -16 -20 -31.5t-19 -31.5q13 8 33.5 16.5t54.5 8.5q11 0 26 -2t32.5 -9t36 -19t36.5 -33q21 -24 32.5 -49.5t17 -48.5t6.5 -41.5t1 -29.5q0 -53 -13 -91.5t-32.5 -66t-42.5 -44t-43 -24.5q-21 -8 -39.5 -9.5t-26.5 -1.5
q-32 0 -52 6t-31 12q-31 15 -53 39t-36.5 53t-21 61.5t-6.5 64.5q0 19 4 54t20 80q15 43 49 104.5t100 142.5q40 51 86 98h66zM290 409q-7 0 -18 -1.5t-24 -6t-27 -14t-26 -24.5q-22 -28 -32 -65.5t-10 -72.5q0 -5 1.5 -24.5t8 -44.5t20.5 -50.5t38 -42.5q31 -21 70 -21
q20 0 35.5 5t27.5 12.5t20 15.5t12 14q21 26 31 65t10 72q0 6 -1.5 25t-8 43.5t-20 49.5t-37.5 43q-8 6 -25.5 14t-44.5 8z" />
    <glyph glyph-name="seven" unicode="7" horiz-adv-x="552" 
d="M525 689v-52l-341 -637h-66l341 634h-351v55h417z" />
    <glyph glyph-name="eight" unicode="8" horiz-adv-x="552" 
d="M180 362q-11 6 -17 10t-11 8q-20 16 -31.5 36.5t-17 40t-7 35.5t-1.5 22q0 10 2 30.5t13 44.5q21 51 66.5 80t99.5 29q42 0 69.5 -13.5t39.5 -22.5q9 -7 21.5 -19.5t24 -30.5t19 -43t7.5 -56q0 -6 -1 -20.5t-6 -33t-15 -38t-27 -35.5q-8 -7 -14 -11.5t-22 -12.5
q5 -2 15 -8t21 -15q35 -29 51.5 -68.5t16.5 -84.5q0 -40 -11.5 -73.5t-39.5 -62.5q-30 -31 -68.5 -45t-80.5 -14q-36 0 -68 9.5t-61 32.5q-26 20 -40 42t-21 43t-8.5 39t-1.5 29q0 30 6 53.5t15.5 41.5t20 31t19.5 21q11 11 20 16.5t23 12.5zM276 647q-22 0 -43 -8
q-11 -4 -24.5 -12.5t-25 -23.5t-19 -36.5t-7.5 -51.5q0 -8 1.5 -24.5t9.5 -36.5q15 -34 44 -52t64 -18q28 0 50.5 10.5t38 28.5t23.5 42t8 51q0 35 -14 65.5t-45 48.5q-20 12 -36 14.5t-25 2.5zM276 335q-8 0 -24.5 -1.5t-36.5 -10.5q-12 -5 -25.5 -15t-25 -26.5
t-19.5 -39.5t-8 -54q0 -7 1.5 -24.5t8.5 -36.5q4 -11 13 -25.5t24.5 -27.5t38 -22.5t53.5 -9.5q22 0 38 4.5t23 7.5q12 5 25.5 15t25 26.5t19.5 39.5t8 54q0 21 -4 37.5t-6 23.5q-16 42 -50.5 63.5t-78.5 21.5z" />
    <glyph glyph-name="nine" unicode="9" horiz-adv-x="552" 
d="M135 -17q45 48 87 100.5t78 107.5q11 15 20.5 30.5t18.5 31.5q-12 -7 -33 -15.5t-55 -8.5q-11 0 -26 2t-32 8.5t-36 19t-37 33.5q-21 24 -32.5 49.5t-16.5 48.5t-6 41.5t-1 29.5q0 52 12.5 91t32 66.5t42.5 43.5t43 24q22 8 40 10t26 2q32 0 52 -6.5t31 -11.5
q31 -15 53 -39t36.5 -53t21 -61.5t6.5 -64.5q0 -20 -3.5 -54.5t-20.5 -80.5q-15 -42 -49 -103.5t-100 -142.5q-20 -26 -41.5 -50.5t-44.5 -48.5zM262 280q7 0 18.5 1.5t24.5 6t26.5 14t25.5 24.5q22 28 32 65.5t10 72.5q0 5 -1.5 24.5t-8 44.5t-20.5 50t-38 42
q-31 22 -69 22q-20 0 -36 -5t-28 -12.5t-20 -15.5t-12 -14q-21 -27 -31 -65.5t-10 -71.5q0 -6 1.5 -25t8 -43.5t20 -50t37.5 -42.5q8 -6 26 -14t44 -8z" />
    <glyph glyph-name="colon" unicode=":" horiz-adv-x="271" 
d="M135 97q23 0 39.5 -16t15.5 -39q0 -23 -16 -38.5t-39 -15.5t-38.5 16t-15.5 39q0 22 15.5 37.5t38.5 16.5zM135 500q23 1 39.5 -15t15.5 -39q0 -23 -16 -38.5t-39 -15.5t-38.5 16t-15.5 39q0 21 15.5 37t38.5 16z" />
    <glyph glyph-name="semicolon" unicode=";" 
d="M118 500q23 1 39.5 -15t16.5 -39t-16.5 -38.5t-39.5 -15.5t-38.5 16t-15.5 39q0 22 15.5 37.5t38.5 15.5zM42 -126q5 5 11 10.5t11 11.5q12 13 27 33t23 37q5 11 7 19t3 13q-7 -1 -11.5 -0.5t-11.5 2.5q-17 5 -27 19t-10 32q0 11 2.5 17t4.5 10q11 20 27.5 24.5t23.5 4.5
q8 0 18.5 -3.5t20.5 -11.5t16.5 -22.5t6.5 -35.5q0 -3 -0.5 -10.5t-2.5 -17.5q-8 -38 -28.5 -71t-44.5 -61h-66z" />
    <glyph glyph-name="less" unicode="&#x3c;" horiz-adv-x="500" 
d="M0 325v59l500 254v-50l-456 -233l456 -238v-49z" />
    <glyph glyph-name="equal" unicode="=" horiz-adv-x="552" 
d="M494 442v-42h-436v42h436zM494 313v-43h-436v43h436z" />
    <glyph glyph-name="greater" unicode="&#x3e;" horiz-adv-x="500" 
d="M0 117l456 238l-456 233v50l500 -254v-59l-500 -257v49z" />
    <glyph glyph-name="question" unicode="?" horiz-adv-x="432" 
d="M189 97q23 0 39.5 -16t15.5 -39q0 -23 -16 -38.5t-39 -15.5q-22 0 -38 16t-16 38q0 3 0.5 7.5t2.5 11.5q6 16 20 25.5t31 10.5zM162 190q-1 20 -0.5 38.5t0.5 38.5q0 19 1 37.5t7 36.5q8 25 29 49q9 11 18.5 20.5t20.5 19.5q8 8 15.5 17t15.5 18q19 22 24 33q5 7 10 21
t5 35q0 12 -3.5 27t-14 28.5t-29 22.5t-48.5 9q-36 0 -58 -11.5t-33.5 -28t-15.5 -35t-5 -31.5h-53q2 23 4 35.5t5 23.5q5 15 16 33.5t29.5 34t46.5 26t67 10.5q31 0 53.5 -6.5t39 -16.5t27 -22t17.5 -24q14 -25 16.5 -46.5t2.5 -31.5q0 -7 -0.5 -16.5t-5.5 -24.5
q-4 -15 -11 -28t-17.5 -27t-25.5 -29.5t-36 -35.5l-18.5 -18.5t-15.5 -19.5q-10 -14 -14.5 -26.5t-6.5 -25.5t-2 -26.5v-29.5v-27t1 -27h-58z" />
    <glyph glyph-name="at" unicode="@" horiz-adv-x="896" 
d="M589 490h53l-32 -144q-6 -30 -12.5 -60t-11.5 -60q-4 -20 -5 -32.5t-1 -22.5q0 -1 0.5 -10t4 -19.5t11.5 -19t24 -8.5q20 0 45.5 19t51.5 56q24 34 38 70.5t21.5 69t9.5 58t2 38.5t-3 45.5t-19 68.5q-22 49 -56.5 76t-70.5 40.5t-67 16.5t-46 3q-23 0 -68 -6t-100 -31
q-57 -27 -103.5 -70.5t-79 -96.5t-50.5 -114t-18 -124q0 -17 4.5 -57t24.5 -85q21 -46 55 -79.5t75.5 -55.5t88.5 -32.5t95 -10.5q16 0 39.5 2t52.5 8t62.5 17.5t70.5 31.5q34 17 67 43q17 13 31 26t19 18l23 -26q-11 -11 -22 -21t-22 -19q-17 -13 -46 -33t-69.5 -38.5
t-92 -32t-112.5 -13.5q-17 0 -52 3t-78 16t-89 38t-84 70q-12 15 -26 35.5t-26 48.5t-19.5 64.5t-7.5 81.5q0 21 3 53.5t13.5 72.5t31 85t55.5 90q17 21 47 51.5t74.5 58.5t104 48t134.5 20q11 0 31 -1t44.5 -6t52.5 -15.5t56 -29.5q17 -12 36.5 -31t36 -47.5t27.5 -67
t11 -88.5q0 -38 -7 -77.5t-20.5 -77.5t-33 -73t-45.5 -63q-35 -38 -67 -50t-54 -12q-37 0 -57.5 22t-20.5 57q0 5 0.5 9t0.5 9q-5 -7 -10 -13.5t-11 -13.5q-38 -43 -74.5 -56t-59.5 -13q-20 0 -34 5t-20 8q-13 6 -25.5 17.5t-23 29t-17 41.5t-6.5 56q0 13 2.5 39.5t12 59
t28.5 67.5t51 66q5 4 15 12.5t25 16.5t33.5 14.5t40.5 6.5q8 0 20 -1.5t25.5 -7.5t27.5 -16.5t26 -28.5q8 -11 12.5 -22.5t9.5 -24.5zM553 347q0 5 -0.5 18t-4.5 27q-2 6 -7 18.5t-15.5 25.5t-27 22.5t-40.5 9.5q-20 0 -37.5 -7.5t-31.5 -18.5q-22 -17 -38 -42t-26.5 -53
t-16 -57.5t-5.5 -55.5q0 -33 9.5 -55t23 -34.5t29.5 -18t31 -5.5q9 0 23 3t33 14q12 8 25.5 19.5t25.5 28.5t22.5 41t18.5 56q1 5 4.5 24.5t4.5 39.5z" />
    <glyph glyph-name="A" unicode="A" horiz-adv-x="589" 
d="M318 712l244 -712h-63l-69 201h-271l-70 -201h-63l245 712h47zM294 626l-118 -372h236z" />
    <glyph glyph-name="B" unicode="B" horiz-adv-x="568" 
d="M201 706q33 0 59 -0.5t46 -2t37 -5t32 -8.5t34 -15.5t36 -29.5t29 -47t12 -68q0 -9 -1.5 -24.5t-7.5 -34t-19 -37.5t-35 -34q-14 -9 -27 -14.5t-27 -10.5q30 -8 55 -18t48 -32q9 -8 17.5 -19.5t16 -27.5t12 -36.5t4.5 -47.5q0 -50 -20.5 -94.5t-65.5 -69.5
q-38 -20 -92.5 -25t-142.5 -5h-108v706h108zM222 396q25 0 52 1t52 7.5t46 20t35 39.5q8 15 12 32.5t4 34.5q0 7 -1.5 19.5t-7 27.5t-16.5 29.5t-31 25.5q-13 7 -27 11t-31.5 6t-39 2.5t-50.5 0.5h-66v-257h69zM227 53q60 1 98 4t64 15q29 14 40.5 32.5t16.5 30.5
q2 8 6 24.5t4 39.5q0 7 -1.5 22t-8 32t-19 34.5t-34.5 30.5q-14 8 -29.5 13t-35.5 7.5t-45 3.5t-57 1h-73v-290h74z" />
    <glyph glyph-name="C" unicode="C" horiz-adv-x="635" 
d="M513 522q-2 10 -4.5 19t-6.5 17q-9 25 -21.5 41.5t-25.5 27.5t-26 17.5t-23 9.5q-9 3 -25 6.5t-40 3.5q-11 0 -35.5 -3t-52.5 -17q-25 -14 -48 -37.5t-41 -59t-28.5 -84t-10.5 -110.5q0 -8 1 -39t10 -71.5t28 -83t55 -73.5q19 -16 37.5 -25t35 -13t30 -5t22.5 -1
q59 0 94 24.5t54 56.5t25.5 63.5t8.5 46.5l59 -1q-3 -29 -9 -55q-10 -42 -30 -78t-54 -63q-19 -15 -53.5 -31.5t-92.5 -16.5q-13 0 -33.5 1.5t-44.5 8t-51 20.5t-53 39q-20 18 -38.5 44t-33.5 62t-24 82.5t-9 105.5q0 9 0.5 30t4 49t11.5 60.5t23 65.5t38 63t57 54
q18 12 55.5 28.5t94.5 16.5q32 0 63 -7t58 -22t49.5 -37.5t37.5 -53.5q6 -12 11.5 -29.5t9.5 -46.5h-59z" />
    <glyph glyph-name="D" unicode="D" horiz-adv-x="656" 
d="M182 706h64t65.5 -3.5t63.5 -11.5t60 -23q19 -11 49 -35t58 -71q9 -14 18.5 -33.5t17.5 -45.5t13.5 -58.5t5.5 -71.5q0 -15 -2.5 -45.5t-12.5 -68t-30.5 -78t-56.5 -76.5q-51 -50 -121 -69q-47 -14 -97.5 -15t-98.5 -1h-86v706h90zM201 53h46t34 0.5t27.5 2.5t26.5 5
q35 8 61 22.5t45 31t30.5 32.5t18.5 28q14 24 27.5 68t13.5 110q0 10 -1.5 38.5t-10.5 64t-27.5 73t-52.5 67.5q-27 24 -58 36t-63 16.5t-66 4.5h-67h-33v-600h49z" />
    <glyph glyph-name="E" unicode="E" horiz-adv-x="521" 
d="M443 392v-53h-289v-286h314v-53h-374v706h370v-53h-310v-261h289z" />
    <glyph glyph-name="F" unicode="F" horiz-adv-x="505" 
d="M442 392v-53h-286v-339h-63v706h369v-53h-309v-261h289z" />
    <glyph glyph-name="G" unicode="G" horiz-adv-x="651" 
d="M582 346v-289q-22 -16 -36.5 -24t-26.5 -13q-20 -9 -61.5 -20.5t-98.5 -11.5q-13 0 -35 1.5t-49.5 8.5t-57 22t-57.5 41q-18 18 -36 44t-32.5 62t-23 82.5t-8.5 105.5q0 10 0.5 29t3.5 43t9 52.5t17 57.5q23 60 57.5 96t71.5 54.5t71.5 24.5t58.5 6q15 0 42.5 -3.5
t58 -16.5t59.5 -39t47 -71q5 -13 9 -26t8 -39h-59q-2 8 -8.5 29.5t-20.5 42.5q-6 10 -17.5 22t-28.5 22.5t-40 17.5t-53 7q-7 0 -19.5 -1t-27.5 -4t-32 -10t-34 -19q-22 -15 -41.5 -38.5t-34 -57.5t-23 -79t-8.5 -102v-23t3 -43.5t10 -56.5t20.5 -61t35 -56.5t53.5 -44.5
q17 -9 43 -17.5t68 -8.5q30 0 56 5t47 12.5t36.5 15.5t25.5 13v201h-144v57h202z" />
    <glyph glyph-name="H" unicode="H" horiz-adv-x="656" 
d="M503 395v311h60v-706h-60v345h-350v-345h-60v706h60v-311h350z" />
    <glyph glyph-name="I" unicode="I" horiz-adv-x="245" 
d="M91 0v706h63v-706h-63z" />
    <glyph glyph-name="J" unicode="J" horiz-adv-x="286" 
d="M196 706v-564q0 -20 -0.5 -47.5t-3.5 -47.5q-1 -8 -3.5 -18.5t-8.5 -23t-16 -25t-27 -24.5q-16 -11 -44 -21.5t-73 -10.5h-22v53h12t11 1q5 0 16.5 1t25 5t27.5 12.5t25 24.5q14 20 16 47.5t2 75.5v562h63z" />
    <glyph glyph-name="K" unicode="K" horiz-adv-x="568" 
d="M525 706l-296 -336l328 -370h-88l-314 369l295 337h75zM153 706v-706h-60v706h60z" />
    <glyph glyph-name="L" unicode="L" horiz-adv-x="490" 
d="M156 706v-653h301v-53h-364v706h63z" />
    <glyph glyph-name="M" unicode="M" horiz-adv-x="807" 
d="M190 706l214 -638l213 638h97v-706h-60v652l-220 -652h-60l-221 652v-652h-60v706h97z" />
    <glyph glyph-name="N" unicode="N" horiz-adv-x="667" 
d="M161 706l356 -618v618h56v-706h-70l-352 616v-616h-57v706h67z" />
    <glyph glyph-name="O" unicode="O" horiz-adv-x="677" 
d="M61 353q0 15 2 51t13.5 80.5t36 92t69.5 84.5q9 8 23 18t33.5 18.5t44.5 14.5t55 6q19 0 55.5 -6t77.5 -33q40 -26 67.5 -63.5t45 -81t25 -90t7.5 -91.5q0 -14 -2.5 -50.5t-14.5 -82t-37 -93.5t-70 -85q-9 -8 -23 -17t-33 -17.5t-43.5 -14t-54.5 -5.5q-15 0 -36.5 2.5
t-46 11.5t-51.5 26t-52 46q-33 38 -51.5 81.5t-27.5 83t-10.5 70.5t-1.5 44zM127 353q0 -10 1 -33.5t6.5 -53.5t16.5 -64t31 -65q19 -31 40.5 -50t42.5 -29t39.5 -13t33.5 -3q12 0 28 2t34.5 9.5t38 21t38.5 36.5q27 33 41.5 71t21.5 72.5t8.5 61.5t1.5 37q0 11 -1.5 38
t-8.5 61.5t-22 72.5t-42 71q-19 23 -38 36.5t-37 20.5t-34.5 9t-28.5 2t-27.5 -2t-34 -9t-38 -21t-38.5 -37q-27 -32 -41.5 -70t-21.5 -73t-8.5 -62t-1.5 -37z" />
    <glyph glyph-name="P" unicode="P" horiz-adv-x="542" 
d="M193 706q52 0 91 -2t69 -8t53 -17.5t44 -30.5q8 -8 21.5 -24.5t23.5 -44.5q5 -12 9 -32t4 -49q0 -11 -2 -32.5t-11 -46t-27 -49.5t-51 -43q-23 -13 -49.5 -19t-54 -8.5t-54.5 -2.5h-52h-52v-297h-63v706h101zM205 350q22 -1 43.5 -0.5t44.5 2.5q28 2 48 7t34 12t24.5 16
t18.5 21q8 14 16 34.5t8 56.5q0 34 -11 66.5t-39 54.5q-31 23 -77.5 28.5t-123.5 4.5h-39v-303h53z" />
    <glyph glyph-name="Q" unicode="Q" horiz-adv-x="682" 
d="M700 -12h-75l-93 95q-9 -12 -25.5 -28t-40.5 -31t-56 -25.5t-73 -10.5q-15 0 -37 2.5t-47 12t-52 27.5t-53 48q-15 17 -30.5 42t-28 59t-21 77.5t-8.5 96.5q0 42 6.5 86t21.5 85t39 77.5t59 64.5q23 18 45.5 28.5t42.5 15.5t36.5 6.5t27.5 1.5q19 0 54.5 -5.5t76.5 -32.5
q40 -26 68 -63t45 -80.5t25 -90t8 -91.5q0 -42 -4.5 -76t-12 -61t-16.5 -48.5t-17 -37.5zM126 353q0 -10 1.5 -33.5t7 -54.5t16.5 -65t31 -65q19 -30 40.5 -48.5t42 -28.5t39.5 -13t34 -3q14 0 40.5 5t55.5 25q32 22 54 55.5t35.5 71.5t19.5 78t6 76q0 11 -1.5 37t-8 59.5
t-20.5 70.5t-39 70q-19 25 -39 39.5t-38.5 22t-35.5 10t-30 2.5q-14 0 -39.5 -4.5t-54.5 -24.5q-33 -22 -55.5 -55.5t-36 -71.5t-19.5 -78.5t-6 -76.5z" />
    <glyph glyph-name="R" unicode="R" horiz-adv-x="583" 
d="M200 706h45t48.5 -1.5t48.5 -5.5t44 -11q60 -20 90 -66.5t30 -109.5q0 -14 -3 -34.5t-12.5 -44t-29 -46.5t-52.5 -42q-11 -6 -21.5 -10.5t-33.5 -12.5l194 -322h-75l-190 313h-131v-313h-60v706h108zM255 366q22 1 46 3t45.5 9t40.5 19.5t33 34.5q7 11 13.5 30.5
t6.5 50.5q0 48 -16.5 73.5t-33.5 37.5q-15 10 -32 16t-39.5 9t-51 3.5t-64.5 0.5h-51v-287h103z" />
    <glyph glyph-name="S" unicode="S" horiz-adv-x="573" 
d="M427 532q-3 24 -7 38t-9 24q-20 37 -55 53.5t-74 16.5q-16 0 -33 -3t-31 -9q-32 -14 -53 -42.5t-20 -63.5q0 -24 8 -38.5t14 -22.5q12 -14 28.5 -25t38.5 -22t49.5 -23.5t62.5 -29.5q45 -22 70.5 -38.5t40.5 -33.5q7 -7 15.5 -18.5t16 -27.5t13 -36.5t5.5 -45.5
q0 -24 -5.5 -47.5t-16.5 -44.5q-15 -28 -37.5 -48t-49 -32.5t-56 -18.5t-59.5 -6q-14 0 -41.5 3t-58 15t-59.5 37.5t-47 70.5q-9 24 -12 45.5t-5 47.5h60q0 -10 2.5 -30t11.5 -42t27 -43.5t51 -34.5q10 -5 29 -10t45 -5q7 0 24.5 2t37.5 8.5t40.5 20t35.5 37.5q6 9 13 26.5
t7 44.5q0 35 -15 60t-41 45q-26 19 -65 36.5t-100 48.5q-3 1 -10.5 4.5t-17 9t-21 11.5t-21.5 13q-23 17 -37 36t-21.5 37t-9.5 34t-2 27q0 29 7 48t12 30q28 51 79 74t106 23q8 0 25.5 -1t39.5 -7q12 -3 29.5 -10.5t36 -22t35.5 -36.5t26 -55q4 -14 5 -27t2 -27h-59z" />
    <glyph glyph-name="T" unicode="T" horiz-adv-x="479" 
d="M453 706v-53h-183v-653h-60v653h-184v53h427z" />
    <glyph glyph-name="U" unicode="U" horiz-adv-x="646" 
d="M143 706v-419v-59.5t2 -44t6.5 -35.5t14.5 -32q8 -15 25.5 -32.5t53.5 -29.5q27 -8 47.5 -10t30.5 -2q5 0 16.5 0.5t26 3t31 7.5t32.5 14q24 12 40 32t24 46q8 27 8.5 57.5t0.5 84.5v419h61v-420v-76t-4 -50q-2 -11 -6 -26.5t-12 -32.5t-22.5 -35t-37.5 -34t-47.5 -25
t-46 -13t-38.5 -5t-26 -1q-11 0 -34.5 1.5t-50.5 9.5q-11 3 -31 10.5t-41.5 22t-41 37.5t-30.5 58q-5 15 -7 30.5t-3 33.5t-1 41v54v420h60z" />
    <glyph glyph-name="V" unicode="V" horiz-adv-x="578" 
d="M80 706l212 -635l208 635h62l-243 -712h-59l-243 712h63z" />
    <glyph glyph-name="W" unicode="W" horiz-adv-x="792" 
d="M81 706l137 -618l152 618h52l152 -618l139 618h58l-165 -712h-62l-148 583l-148 -583h-62l-164 712h59z" />
    <glyph glyph-name="X" unicode="X" horiz-adv-x="562" 
d="M107 706l175 -288l176 288h71l-212 -336l222 -370h-69l-188 313l-188 -313h-68l222 370l-212 336h71z" />
    <glyph glyph-name="Y" unicode="Y" horiz-adv-x="526" 
d="M88 706l176 -346l174 346h71l-217 -403l1 -303h-60l2 303l-218 403h71z" />
    <glyph glyph-name="Z" unicode="Z" horiz-adv-x="521" 
d="M484 706v-41l-377 -612h370v-53h-441v47l373 606h-353v53h428z" />
    <glyph glyph-name="bracketleft" unicode="[" horiz-adv-x="286" 
d="M243 706v-47h-85v-818h85v-47h-141v912h141z" />
    <glyph glyph-name="backslash" unicode="\" horiz-adv-x="354" 
d="M44 706h43l229 -724h-44z" />
    <glyph glyph-name="bracketright" unicode="]" horiz-adv-x="286" 
d="M44 -206v47h85v818h-85v47h140v-912h-140z" />
    <glyph glyph-name="asciicircum" unicode="^" horiz-adv-x="729" 
d="M504 363l-138 288l-141 -288h-55l173 343h49l168 -343h-56z" />
    <glyph glyph-name="underscore" unicode="_" horiz-adv-x="500" 
d="M-10 -199v45h520v-45h-520z" />
    <glyph glyph-name="grave" unicode="`" 
d="M58 592l-140 136h88l102 -136h-50z" />
    <glyph glyph-name="a" unicode="a" horiz-adv-x="490" 
d="M68 376q1 5 2.5 16t6.5 24q6 18 17.5 35.5t31.5 32t49.5 23.5t70.5 9q6 0 26.5 -1t45 -9t48 -25t35.5 -49q10 -30 10 -110v-183v-48.5t1.5 -35t4 -28t7.5 -27.5h-55q-2 8 -4 14.5t-3.5 14t-3 17.5t-2.5 25q-2 -5 -6 -11.5t-12 -15.5q-25 -30 -58.5 -43.5t-71.5 -12.5
q-8 0 -26 1t-38 9q-12 4 -28 13t-30.5 24.5t-24.5 39.5t-10 57q0 9 1.5 22t6.5 28t15 31.5t28 31.5q8 6 20 14t32 17q19 9 45 16.5t54 14t55 12t48 8.5v26q0 34 -4.5 50.5t-16.5 30.5q-11 12 -24.5 18.5t-26.5 9.5t-23.5 3.5t-14.5 0.5q-34 0 -56 -8.5t-35.5 -21.5t-20 -29
t-9.5 -31h-57zM356 283q-23 -5 -44.5 -10t-44.5 -11q-24 -6 -52 -15t-51.5 -23.5t-39 -36t-15.5 -54.5q0 -5 1 -15t6 -22q3 -9 10 -19t18.5 -18.5t28 -14.5t39.5 -6q7 0 21 1.5t30.5 7t33.5 17t31 31.5q20 29 23.5 63t4.5 67v58z" />
    <glyph glyph-name="b" unicode="b" horiz-adv-x="526" 
d="M135 709v-283q6 10 17 25.5t28.5 29.5t42.5 24.5t58 10.5q13 0 37 -4t52 -21q19 -12 37.5 -31.5t33 -49t23.5 -68.5t9 -90q0 -47 -8 -83.5t-20.5 -64.5t-29 -47.5t-32.5 -32.5q-13 -11 -39.5 -23.5t-68.5 -12.5q-8 0 -20.5 1t-27 5t-30.5 13t-31 24q-11 10 -17 19.5
t-14 21.5q1 -11 0.5 -29t-8.5 -43h-57l3.5 10.5t3.5 15.5q2 19 2.5 47.5t1.5 71.5v564h54zM282 466q-45 0 -80 -29q-26 -22 -40 -52t-20 -58.5t-7 -50.5t-1 -28q0 -39 7.5 -71t18.5 -56t25 -40.5t28 -25.5t30 -13t33 -4q35 0 62 17q30 20 53.5 68t23.5 129q0 6 -0.5 23.5
t-4 40t-11 48t-22.5 47.5q-12 18 -25 28.5t-26 16.5t-24 8t-20 2z" />
    <glyph glyph-name="c" unicode="c" horiz-adv-x="495" 
d="M383 340q-6 38 -19.5 62.5t-30.5 38.5t-36.5 19.5t-37.5 5.5q-8 0 -24 -2t-35 -13q-35 -18 -53 -50t-26.5 -63.5t-9.5 -56.5t-1 -31q0 -5 1 -26t7 -48t19 -56t37 -50q20 -17 41.5 -24.5t47.5 -7.5q35 0 54.5 11.5t29.5 22.5q11 12 23.5 36t15.5 62h57q-4 -35 -9.5 -54.5
t-13.5 -34.5q-11 -22 -19 -30q-25 -33 -60 -48t-76 -15q-36 0 -59 7.5t-37 14.5q-20 11 -41 29.5t-38 47t-27.5 68t-10.5 92.5q0 35 4 60t8 39q9 37 26.5 68t42 53.5t57 35.5t72.5 13q12 0 32 -3t42.5 -12.5t44.5 -29t37 -52.5q6 -13 11 -31t8 -49z" />
    <glyph glyph-name="d" unicode="d" horiz-adv-x="526" 
d="M445 145v-43t2 -43q1 -24 3 -35.5t6 -23.5h-57q-3 9 -6 23t-3 36v6.5t1 6.5q-6 -11 -16.5 -25t-27 -27.5t-40.5 -22.5t-57 -9q-9 0 -27 1.5t-41 10.5q-24 9 -47 28t-41.5 49t-29.5 72t-11 98q0 9 1 35t8.5 59t23.5 68.5t46 63.5q6 6 16 13t24.5 14t32.5 11.5t41 4.5
q7 0 20 -1t28.5 -5.5t33 -14t33.5 -25.5q11 -11 17 -21t13 -23v283h54v-564zM251 466q-36 0 -60.5 -16t-40 -40t-23.5 -52t-11.5 -52t-4 -40l-0.5 -16q0 -13 1.5 -38t10.5 -57q2 -8 9 -27.5t21.5 -39.5t38 -35t59.5 -15q27 0 47 9t33.5 21t21.5 25t12 21q8 17 17.5 52.5
t9.5 84.5q0 12 -2 37.5t-11 57.5q-2 8 -9 28t-21 40.5t-38 36t-60 15.5z" />
    <glyph glyph-name="e" unicode="e" horiz-adv-x="505" 
d="M110 244q0 -5 1 -27.5t7.5 -51.5t22 -58.5t45.5 -47.5q10 -7 29 -14t48 -7q31 0 52.5 9t35.5 22t22 27t13 24l54 -10q-3 -8 -9 -21t-18 -30q-26 -37 -65.5 -54t-84.5 -17q-33 0 -70.5 11.5t-68.5 40t-51.5 78t-20.5 125.5q0 9 1.5 38.5t11 66t30 74.5t59.5 64
q46 30 104 30q38 0 66 -12t48 -28.5t32 -34t18 -29.5q14 -26 19 -50.5t7 -33.5q1 -7 3 -24.5t2 -37.5v-11t-1 -11h-342zM394 291q-1 6 -2 20t-5.5 32t-12.5 38t-22 38q-4 5 -13 15t-24 18q-8 5 -22.5 9.5t-37.5 4.5q-25 0 -41 -6.5t-25 -12.5q-25 -16 -40 -40.5t-23 -48.5
t-10.5 -43t-3.5 -25z" />
    <glyph glyph-name="f" unicode="f" horiz-adv-x="286" 
d="M274 502v-46h-123v-456h-60v456h-73v46h73v33v44t5 44.5t15.5 40.5t31.5 33q16 11 35.5 16t39.5 5q21 0 41.5 -5t25.5 -7l-1 -57q-2 1 -4 3q-2 1 -3.5 2t-3.5 2q-5 3 -19.5 7.5t-33.5 4.5q-25 0 -38 -9.5t-19 -18.5q-10 -15 -12.5 -37.5t-3.5 -59.5v-41h127z" />
    <glyph glyph-name="g" unicode="g" horiz-adv-x="495" 
d="M471 457l-103 3q2 -2 4.5 -4t4.5 -4q13 -14 26.5 -42.5t13.5 -73.5q0 -51 -18 -78t-36 -40q-13 -9 -30.5 -16t-35.5 -12.5t-36 -10.5t-33 -9q-30 -8 -48.5 -17t-26.5 -21q-5 -9 -5 -16q1 -8 4 -11.5t5 -5.5q10 -8 26 -10.5t42 -4.5q25 -2 49 -4.5t48 -5.5q60 -9 89.5 -28
t43.5 -45q5 -8 11.5 -25.5t6.5 -41.5q0 -9 -3 -28t-16 -41q-20 -32 -52.5 -48.5t-64.5 -24t-57 -8.5t-29 -1q-24 0 -50.5 3.5t-52.5 11.5t-49 21t-39 33q-18 23 -22 43.5t-4 31.5q0 34 13.5 57t31.5 37.5t35.5 21.5t26.5 10q-11 5 -17.5 8t-11.5 6q-16 11 -19.5 23.5
t-3.5 20.5q0 13 4 21.5t7 12.5q17 23 78 46q-13 5 -25.5 11.5t-23.5 14.5q-9 6 -18.5 16t-17.5 24.5t-13.5 34t-5.5 45.5q0 8 1 25.5t9 38.5q6 15 17.5 33.5t31 34.5t48.5 26.5t69 10.5q11 0 28.5 -1.5t43.5 -8.5l149 6v-45zM243 460q-25 -2 -44 -11q-23 -10 -36.5 -25.5
t-20.5 -32t-8.5 -31t-1.5 -22.5q0 -7 1.5 -22t10.5 -32q10 -20 25 -31.5t30 -17.5t28 -7.5t19 -1.5q4 0 13 0.5t20.5 3.5t24 8.5t23.5 15.5q17 16 25 39.5t8 45.5q0 25 -8 47.5t-23 39t-37 26t-49 8.5zM251 24h-18t-29.5 -2t-35.5 -7t-36 -15q-4 -3 -11.5 -8t-14.5 -14
t-12.5 -21t-5.5 -28q0 -41 43 -68.5t121 -27.5q10 0 28.5 1.5t43.5 6.5q53 12 73 37.5t20 51.5q0 27 -17 49q-17 23 -53 34t-96 11z" />
    <glyph glyph-name="h" unicode="h" horiz-adv-x="516" 
d="M135 709l1 -267q2 2 7.5 10t13.5 16q17 17 35.5 26.5t35 14.5t30.5 6t22 1q7 0 23.5 -1.5t36 -8t39.5 -19.5t35 -36q17 -27 20.5 -63.5t3.5 -99.5v-288h-55v327q0 17 -1.5 34t-6 33t-13 29.5t-24.5 24.5q-14 10 -30 14t-34 4q-8 0 -21.5 -1.5t-28.5 -7.5t-31 -17.5
t-29 -31.5q-20 -29 -24 -60.5t-5 -65.5v-282h-54v709h54z" />
    <glyph glyph-name="i" unicode="i" horiz-adv-x="219" 
d="M140 502v-502h-61v502h61zM107 715q21 1 35 -13t14 -35q0 -20 -13.5 -33t-33.5 -13q-20 1 -33.5 13.5t-13.5 32.5q1 20 13 33t32 15z" />
    <glyph glyph-name="j" unicode="j" horiz-adv-x="260" 
d="M180 502v-468q0 -30 -0.5 -52.5t-2 -40.5t-5 -33t-9.5 -29q-11 -23 -27.5 -38.5t-37 -24.5t-43.5 -12.5t-46 -3.5h-16.5t-16.5 1v49q3 0 13 -0.5t24 0.5t29 4t28 10q3 2 11 7.5t15 13.5q18 22 20.5 57t3.5 92v468h60zM147 715q21 1 35 -13t14 -35q0 -20 -13 -33t-33 -13
q-20 1 -34 13.5t-14 32.5q1 20 13 33t32 15z" />
    <glyph glyph-name="k" unicode="k" horiz-adv-x="490" 
d="M424 502l-216 -224l231 -278h-78l-225 275l220 227h68zM134 709v-709h-55v709h55z" />
    <glyph glyph-name="l" unicode="l" horiz-adv-x="219" 
d="M140 709v-709h-61v709h61z" />
    <glyph glyph-name="m" unicode="m" horiz-adv-x="786" 
d="M122 501q6 -17 7.5 -34t2.5 -35q5 9 9 16.5t11 15.5q14 17 43 34.5t80 17.5q35 0 59 -9t39 -22t24 -29t14 -29q2 2 5 8.5t8 14.5q7 10 18.5 21.5t29 21.5t40 16.5t52.5 6.5q27 0 48 -6t36.5 -15t26 -20t16.5 -21q8 -15 12 -33t5.5 -36.5t1 -37t-0.5 -34.5v-313h-55v313
q1 23 0 47q0 13 -2.5 31t-13 34.5t-31 28.5t-57.5 12q-5 0 -19.5 -1.5t-29.5 -7.5q-17 -7 -29 -16.5t-19.5 -20t-12 -19.5t-6.5 -15q-8 -20 -9.5 -41.5t-1.5 -43.5v-301h-57v302q1 45 -0.5 71t-12.5 47q-3 7 -10 16t-22 17q-25 13 -56 13q-44 0 -75 -24q-19 -13 -29.5 -29.5
t-16 -35t-7.5 -39t-2 -41.5v-297h-55v335q-1 44 -1 84t-11 83z" />
    <glyph glyph-name="n" unicode="n" horiz-adv-x="521" 
d="M122 501q3 -10 5 -16.5t3 -14t1.5 -18t0.5 -26.5q4 9 16 26q26 33 61 48.5t77 15.5q48 0 76.5 -14.5t42.5 -28.5q3 -4 8 -9.5t10 -15.5q7 -14 11.5 -29t6.5 -34t2.5 -42.5t0.5 -54.5v-288h-55v291q0 48 -2 75t-12 49q-3 6 -9.5 15.5t-20.5 18.5q-19 12 -37.5 14.5
t-25.5 2.5q-30 0 -49.5 -8t-29.5 -15q-27 -17 -41 -40.5t-20 -46t-6.5 -41t-0.5 -27.5v-288h-55v334v78.5t-4 52.5q-2 9 -4 18.5t-4 18.5z" />
    <glyph glyph-name="o" unicode="o" horiz-adv-x="521" 
d="M51 251q0 45 9.5 89.5t34.5 83.5q7 10 20 26t33.5 30.5t48.5 25t64 10.5q33 0 57 -9t35 -14q33 -18 55 -45.5t36 -59.5t20 -67.5t6 -69.5q0 -13 -1.5 -38.5t-10.5 -57.5q-9 -36 -26.5 -66.5t-42.5 -53t-57.5 -35t-71.5 -12.5q-11 0 -35 2.5t-51 16.5q-21 10 -43 29.5
t-39.5 49t-29 70.5t-11.5 95zM109 250q0 -7 1 -28.5t7 -48.5t20 -55.5t40 -50.5q11 -8 31 -18.5t53 -10.5q26 0 44 7.5t26 12.5q31 20 47.5 50.5t24 60t8.5 53t1 29.5q0 7 -1 29.5t-8 51t-22 58t-43 50.5q-9 7 -28 16.5t-50 9.5q-9 0 -28 -3t-40 -16q-32 -20 -48.5 -51
t-24.5 -61t-9 -54.5t-1 -30.5z" />
    <glyph glyph-name="p" unicode="p" horiz-adv-x="526" 
d="M81 356q0 22 -0.5 43t-1.5 43q-1 23 -3 35.5t-6 24.5l57 -1q5 -17 6.5 -31.5t3.5 -45.5q8 17 13.5 24.5t11.5 15.5q6 7 16.5 16.5t25 17t34 13t43.5 5.5q14 0 40.5 -4.5t56.5 -26.5q27 -20 45.5 -47.5t29.5 -59t15.5 -65t4.5 -64.5q0 -28 -3.5 -58.5t-12.5 -59.5
t-24 -55.5t-37 -46.5q-13 -12 -39.5 -26.5t-71.5 -14.5q-26 0 -47 6t-37 14.5t-27 18t-17 17.5q-4 5 -8.5 11.5t-11.5 17.5v-282h-56v565zM283 38q10 0 23 2t27 9t28 20t25 35q10 18 20 55t10 89q0 30 -6 68t-21 71.5t-41.5 56t-68.5 22.5q-17 0 -35 -5t-32 -16
q-14 -9 -27.5 -26t-25 -41t-18.5 -55.5t-7 -70.5q0 -7 1 -28.5t7 -49t19.5 -56.5t39.5 -51q26 -21 47 -25.5t35 -3.5z" />
    <glyph glyph-name="q" unicode="q" horiz-adv-x="526" 
d="M389 73q-6 -11 -11 -17.5t-8 -10.5q-6 -7 -16.5 -17t-26 -19t-35.5 -15t-45 -6q-54 0 -97 28q-36 24 -56 59.5t-29 70.5t-10.5 62.5t-1.5 36.5q0 59 12.5 104.5t33 77.5t45.5 52t50 28q9 3 22 6t33 3q7 0 19.5 -1t27.5 -5.5t31 -13t31 -24.5q9 -9 15 -18t17 -29
q0 16 0.5 26.5t1.5 18.5t2.5 15t4.5 17l57 -1q-2 -5 -3 -10t-3 -14q-3 -19 -3.5 -48t-1.5 -73v-565h-56v282zM244 38q7 -1 20 0.5t30 8.5q18 8 36 24.5t31.5 41.5t22 59.5t8.5 78.5q0 7 -1 25.5t-5.5 42.5t-14.5 50.5t-28 49.5q-25 32 -51 39.5t-42 7.5q-9 0 -27.5 -3.5
t-37.5 -17.5q-28 -20 -51 -70t-23 -130q0 -5 0.5 -25t5.5 -46.5t16.5 -55t33.5 -49.5q23 -21 44 -26t33 -5z" />
    <glyph glyph-name="r" unicode="r" horiz-adv-x="328" 
d="M124 501q6 -26 7.5 -46t1.5 -31q0 -8 -0.5 -15.5t-1.5 -15.5q5 12 10.5 23.5t11.5 22.5q17 30 42 53.5t63 23.5q10 0 27.5 -3.5t39.5 -14.5l-1 -55q-14 7 -30.5 13t-33.5 6q-23 0 -40.5 -11.5t-29.5 -26t-19.5 -27t-8.5 -15.5q-8 -16 -12.5 -31t-7.5 -33t-4 -41t-2 -55
v-222h-57v323q0 29 0.5 57t-1.5 57q-1 17 -2.5 32.5t-3.5 32.5z" />
    <glyph glyph-name="s" unicode="s" horiz-adv-x="448" 
d="M338 368q-2 11 -2.5 16.5t-3.5 16.5q-8 26 -25.5 40.5t-43.5 20.5q-6 1 -14.5 2.5t-21.5 1.5q-19 0 -37.5 -5t-33.5 -15.5t-24 -26.5t-9 -38q0 -5 1.5 -13.5t6.5 -18.5q9 -17 24.5 -25t32.5 -15q35 -14 72 -23.5t71 -26.5q71 -35 71 -117q0 -39 -13.5 -68t-37.5 -48
t-55.5 -28.5t-67.5 -9.5q-9 0 -32 1.5t-49.5 11t-51 30t-37.5 57.5q-7 20 -8 38t-1 25l55 -1q1 -13 2.5 -22t6.5 -22q4 -11 12.5 -23t22 -22t33.5 -16.5t47 -6.5q23 0 44 5.5t36.5 17.5t25 30.5t9.5 44.5q0 20 -7 37q-7 14 -19 24t-39 21q-26 9 -52 16.5t-52 16.5
q-20 8 -40.5 18t-36.5 26q-9 10 -20 30.5t-11 54.5q0 9 2.5 27t14.5 38q7 11 18.5 23.5t29 23t41.5 17.5t56 7q9 0 28 -2t42 -10q33 -11 51.5 -29.5t28 -38t12 -38t2.5 -30.5h-54z" />
    <glyph glyph-name="t" unicode="t" horiz-adv-x="318" 
d="M286 502v-46h-126l-5 -275q0 -18 -0.5 -35.5t0.5 -34.5v-17.5t5 -26.5q4 -11 11.5 -16.5t16 -8.5t15 -3.5t9.5 -0.5q9 0 29 3.5t43 13.5l-1 -51q-10 -4 -31 -9t-50 -5q-3 0 -16.5 0.5t-29.5 5t-31.5 15.5t-22.5 31q-3 9 -4.5 21t-1.5 32q0 23 1 44.5t2 44.5l6 272h-75
l1 46h75l3 144h54l-2 -144h125z" />
    <glyph glyph-name="u" unicode="u" horiz-adv-x="505" 
d="M131 502v-314q0 -19 0.5 -38.5t4.5 -37.5t14 -33.5t30 -26.5q8 -5 22.5 -9.5t37.5 -4.5q33 0 52 10.5t29 18.5q4 3 11.5 11t15.5 19q6 10 10.5 21t7.5 24.5t4.5 30.5t1.5 40v289h54v-350v-52t1 -39t3.5 -31.5t7.5 -29.5h-56q-3 11 -5 19t-3 16t-1.5 16.5t-0.5 19.5
q-6 -12 -15 -26.5t-24.5 -27t-38 -21t-55.5 -8.5q-8 0 -23.5 1.5t-34 7t-38 17t-35.5 32.5q-13 16 -19.5 33.5t-9.5 35.5t-3 37v39v311h55z" />
    <glyph glyph-name="v" unicode="v" horiz-adv-x="432" 
d="M69 502l148 -442l148 442h56l-177 -509h-56l-177 509h58z" />
    <glyph glyph-name="w" unicode="w" horiz-adv-x="667" 
d="M74 502l112 -412l122 412h50l122 -412l113 412h58l-144 -509h-50l-124 425l-123 -425h-50l-145 509h59z" />
    <glyph glyph-name="x" unicode="x" horiz-adv-x="448" 
d="M99 502l126 -193l127 193h68l-161 -235l180 -267h-66l-148 221l-150 -221h-66l182 267l-156 235h64z" />
    <glyph glyph-name="y" unicode="y" horiz-adv-x="443" 
d="M77 502l144 -430l150 430h58l-164 -460l-12 -36t-13 -36q-14 -36 -32 -76t-49 -66q-18 -16 -38.5 -24t-38.5 -11.5t-32.5 -3.5h-21.5v50h13.5t12.5 1q7 0 18 1.5t23 6.5t24 14.5t23 26.5q15 22 27.5 54.5t20.5 57.5l-173 501h60z" />
    <glyph glyph-name="z" unicode="z" horiz-adv-x="411" 
d="M392 502v-40l-304 -416h296v-46h-361v44l300 412h-280v46h349z" />
    <glyph glyph-name="braceleft" unicode="{" horiz-adv-x="354" 
d="M161 542v24.5t1 24.5q0 6 1.5 24.5t9 41t22.5 44t44 34.5q13 6 25.5 7.5t39.5 5.5l-1 -5q-23 -7 -40 -15.5t-31 -29.5q-8 -12 -12 -23t-6 -24.5t-2.5 -31t-1.5 -42.5v-100q0 -71 -2 -119t-21 -75q-12 -19 -27 -25.5t-23 -9.5q8 -3 18 -7.5t19.5 -13t17.5 -22t13 -33.5
t5.5 -55t0.5 -85v-112q0 -17 0.5 -33.5t2.5 -33t8 -32t17 -29.5q14 -17 29.5 -24t35.5 -13l-1 -5q-27 3 -48.5 7.5t-44.5 22.5q-19 15 -28.5 34.5t-14 41t-5 44t-0.5 43.5v131q0 29 -1 65t-13 63q-11 24 -26.5 33t-25.5 12v5q13 4 24 9.5t19 16.5q16 21 19 53t3 83v128z" />
    <glyph glyph-name="bar" unicode="|" horiz-adv-x="229" 
d="M93 -250v998h43v-998h-43z" />
    <glyph glyph-name="braceright" unicode="}" horiz-adv-x="354" 
d="M193 -44v-25t-1 -25q0 -6 -1.5 -24.5t-9 -41t-23 -44t-43.5 -34.5q-7 -3 -13 -4.5t-13 -3t-16.5 -2.5t-22.5 -2l1 5q23 6 40 14.5t31 29.5q18 27 19.5 59t2.5 63v100q0 71 2 118.5t21 75.5q12 18 27.5 25t22.5 9q-9 4 -27.5 13.5t-30.5 34.5q-13 27 -14.5 66t-1.5 102
v112q0 33 -2.5 66t-24.5 61q-13 17 -29.5 25t-36.5 14l1 5q5 -1 11 -1.5t12 -1.5q5 -1 14 -2.5t20 -5t23.5 -10.5t23.5 -19q15 -15 22.5 -34t10.5 -39.5t3.5 -41t0.5 -39.5v-131q0 -23 0.5 -47.5t4 -47t13.5 -41t30 -29.5q5 -3 11 -5t7 -3v-5q-23 -6 -36 -18.5t-19.5 -32
t-8 -47t-1.5 -64.5v-127z" />
    <glyph glyph-name="asciitilde" unicode="~" horiz-adv-x="729" 
d="M343 276q-2 1 -10.5 5.5t-20.5 9t-26.5 8.5t-28.5 4q-16 0 -29 -6q-22 -9 -33.5 -24.5t-25.5 -32.5l-24 38q20 31 46.5 52.5t66.5 21.5q31 0 60.5 -12t55.5 -25l30 -14q1 0 7 -3t15 -6.5t20 -6.5t20 -3q5 0 14.5 1.5t21.5 6.5q8 5 25.5 18.5t32.5 37.5l24 -39
q-2 -3 -8 -11t-16 -18t-22.5 -20.5t-26.5 -16.5q-7 -3 -17 -6t-27 -3q-11 0 -21 1.5t-20.5 5.5t-24 10.5t-32.5 15.5z" />
    <glyph glyph-name="exclamdown" unicode="&#xa1;" horiz-adv-x="260" 
d="M99 -206l12 508h43l7 -508h-62zM131 392q-23 0 -39.5 16t-16.5 39q1 23 17 38t39 15q22 0 38 -16t16 -38t-15.5 -38t-38.5 -16z" />
    <glyph glyph-name="sterling" unicode="&#xa3;" horiz-adv-x="552" 
d="M393 384v-51l-165 -1q-2 -11 -4 -21.5t-4 -21.5q0 -3 -4 -25t-10.5 -52t-15.5 -64t-19 -61q-4 -10 -8 -19.5t-9 -19.5q18 3 40 5t62 2q27 0 54 -0.5t53 -0.5q29 1 43 5.5t25 15.5q14 14 17.5 30t4.5 34l56 -1q0 -20 -2 -30q-1 -6 -4 -17.5t-9.5 -24t-17.5 -25.5t-28 -23
q-12 -7 -24 -10.5t-26.5 -5t-33.5 -2t-44 -0.5h-244q6 11 10.5 20t12.5 30q16 40 33.5 110t34.5 173h-106v51l116 1q5 40 12 79.5t15 79.5q0 1 3 15t8 33.5t12.5 40t18.5 35.5q5 7 14 16t22 16.5t30 12.5t40 5q4 0 14.5 -0.5t24 -4t28 -11t25.5 -20.5q19 -21 22.5 -45.5
t5.5 -50.5l-56 1q-2 14 -3.5 27.5t-9.5 26.5q-6 9 -14 14.5t-16 7.5t-14.5 2.5t-9.5 0.5q-18 0 -30 -6t-20 -14.5t-12 -17.5t-6 -15q-11 -34 -21 -90.5t-24 -138.5h157z" />
    <glyph glyph-name="currency" unicode="&#xa4;" horiz-adv-x="667" 
d="M597 108l-34 -33l-72 72q-6 -5 -12 -9l-12 -8q-16 -11 -49.5 -25t-84.5 -14q-8 0 -22.5 1t-32.5 5t-38.5 11.5t-39.5 20.5q-14 9 -25 19l-72 -72l-34 33l73 72l-18 24q-10 14 -25 49t-15 86q1 50 15 83.5t24 48.5q5 7 9.5 13t9.5 13l-71 71l33 33l71 -71q7 5 13.5 10
t14.5 10q15 10 48.5 23.5t83.5 13.5q9 0 23 -1t32 -5t37.5 -11.5t39.5 -20.5q14 -9 25 -19l72 72l33 -34l-71 -72q5 -6 9 -12t9 -13q13 -20 20.5 -39.5t11.5 -37t5 -32t1 -23.5q0 -51 -13.5 -84t-24.5 -48q-8 -13 -20 -27zM537 340q0 9 -1 23t-5 31t-13 35.5t-24 38.5
q-8 10 -21 23t-33 25t-46.5 20.5t-60.5 8.5q-11 0 -32 -2t-48 -13q-58 -24 -91 -75.5t-32 -114.5q0 -44 15.5 -81.5t43 -65t65 -43.5t81.5 -16q10 0 25 1.5t33 6.5t37.5 15t39.5 28q9 8 20.5 21.5t21.5 32.5t17.5 44t7.5 57z" />
    <glyph glyph-name="brokenbar" unicode="&#xa6;" horiz-adv-x="229" 
d="M136 190v-381h-43v381h43zM93 689h43v-381h-43v381z" />
    <glyph glyph-name="section" unicode="&#xa7;" horiz-adv-x="531" 
d="M387 530q0 3 -1 13.5t-4 21.5q-8 36 -25.5 51.5t-31.5 21.5q-8 4 -22.5 7.5t-35.5 3.5q-23 0 -44 -6.5t-37 -19.5t-25.5 -32.5t-9.5 -44.5q0 -21 7 -36.5t21.5 -28.5t37 -26.5t52.5 -30.5q18 -10 35.5 -20t35.5 -20q8 -5 16.5 -10.5t17.5 -10.5q32 -20 53.5 -47t21.5 -68
q0 -8 -2.5 -25.5t-13.5 -37.5q-8 -15 -20 -27t-23 -20.5t-20.5 -14t-13.5 -7.5q8 -6 20 -16t23.5 -25.5t19.5 -37t8 -49.5q0 -51 -25 -92t-74 -59q-27 -10 -51.5 -11.5t-33.5 -1.5q-7 0 -21 0.5t-32 4t-37 12t-37 23.5q-8 7 -20 21.5t-20 38.5q-8 23 -10 45t-2 29h56
q2 -21 3.5 -31.5t5.5 -21.5q4 -12 12 -25t22 -23.5t34.5 -17.5t49.5 -7q8 0 32 2.5t47 18.5t34.5 41.5t11.5 51.5q0 5 -1.5 18.5t-9.5 26.5q-14 26 -42.5 44.5t-51.5 32.5q-22 13 -43 25.5t-43 26.5q-13 8 -25.5 15.5t-24.5 17.5q-26 20 -41.5 44.5t-15.5 58.5q0 38 23 67
q19 25 43.5 39l31.5 18q-7 4 -20 13.5t-26 24.5t-22.5 36.5t-9.5 50.5q1 11 3.5 28.5t14.5 40.5q7 13 19 27.5t31 27t45 21t61 8.5q6 0 19.5 -1t30.5 -4.5t35 -11.5t35 -22q20 -17 31 -36.5t16.5 -37.5t7 -33.5t1.5 -22.5zM217 392q-3 -2 -13 -6.5t-21 -11.5q-4 -2 -12.5 -8
t-17.5 -15.5t-15.5 -23t-6.5 -31.5q0 -14 3.5 -23t6.5 -14q7 -11 20.5 -22t28.5 -21t30 -18.5t26 -15.5q17 -11 33.5 -20t33.5 -18q5 2 17.5 9t26 19.5t24 30.5t10.5 42q0 6 -2 18t-12 26q-7 9 -18 17.5t-23.5 16.5t-25 15t-21.5 13q-18 11 -35.5 21t-36.5 20z" />
    <glyph glyph-name="dieresis" unicode="&#xa8;" 
d="M-55 727q21 0 35.5 -15t14.5 -36t-15 -35.5t-36 -14.5q-21 1 -35.5 15.5t-14.5 35.5t15 35.5t36 14.5zM160 727q21 0 35.5 -15t14.5 -36q0 -2 -0.5 -7.5t-2.5 -11.5q-6 -14 -19 -22.5t-28 -8.5q-22 1 -36.5 15.5t-14.5 35.5q1 21 16 35.5t35 14.5z" />
    <glyph glyph-name="copyright" unicode="&#xa9;" horiz-adv-x="833" 
d="M773 351q0 -16 -2.5 -40.5t-11 -54.5t-24.5 -63.5t-43 -66.5q-36 -43 -76 -68.5t-77.5 -39t-70 -17.5t-51.5 -4q-71 0 -139 28q-51 21 -91 54.5t-68 76.5t-43 93.5t-15 104.5q0 44 8.5 80.5t21 65t26.5 49t25 33.5q14 16 37.5 38t57.5 41.5t79 33.5t102 14q14 0 37 -2
t51.5 -8.5t60 -20.5t63.5 -38q18 -13 42.5 -37t47 -60t38 -84t15.5 -108zM740 352q0 15 -2 39.5t-10.5 54t-25 62t-44.5 64.5q-13 13 -33.5 31.5t-50.5 34.5t-68.5 27.5t-87.5 11.5q-13 0 -33.5 -1.5t-46 -8t-54.5 -19t-58 -33.5q-16 -12 -39 -33.5t-44 -54t-35.5 -76
t-14.5 -98.5q0 -65 24 -123q18 -46 49 -83t70.5 -63.5t85.5 -40.5t96 -14q35 0 60 5.5t38 10.5q51 16 92 46t70.5 70.5t45.5 89t16 101.5zM574 459q-7 8 -19 21.5t-30.5 26.5t-43 22.5t-56.5 9.5q-12 0 -34 -3t-49 -17q-33 -17 -53 -40t-30.5 -47t-13.5 -44.5t-3 -32.5
q0 -37 14 -71q15 -37 38.5 -59.5t48 -34.5t47 -15.5t34.5 -3.5q8 0 24 1.5t36 9.5q39 14 59.5 34.5t30.5 33.5l33 -27q-10 -14 -17 -21.5t-12 -12.5q-8 -8 -21.5 -18.5t-33.5 -20t-45.5 -16.5t-56.5 -7q-30 0 -53.5 6.5t-33.5 11.5q-65 26 -101.5 82.5t-36.5 125.5
q0 13 3.5 41t18.5 60q29 60 84.5 94.5t121.5 34.5q12 0 30 -2t39.5 -8.5t44.5 -20t46 -36.5q6 -6 12 -13l12 -14z" />
    <glyph glyph-name="guillemotleft" unicode="&#xab;" horiz-adv-x="365" 
d="M255 0l-89 247l89 253h36l-77 -253l77 -247h-36zM139 0l-89 247l89 253h36l-77 -253l77 -247h-36z" />
    <glyph glyph-name="logicalnot" unicode="&#xac;" horiz-adv-x="667" 
d="M0 268v46h667v-314h-44v268h-623z" />
    <glyph glyph-name="minus" unicode="&#xad;" horiz-adv-x="552" 
d="M494 378v-43h-436v43h436z" />
    <glyph glyph-name="registered" unicode="&#xae;" horiz-adv-x="833" 
d="M521 134q-5 9 -5.5 10.5l-2.5 7.5q-4 11 -8 33.5t-9 52.5q-5 41 -14 60.5t-29 30.5q-21 12 -41 14t-44 2h-37v-211h-49v440h128h38.5t38.5 -3.5t35.5 -12t30.5 -25.5q6 -8 14 -23.5t8 -41.5q0 -8 -2 -24t-13 -33q-15 -23 -39.5 -35.5t-50.5 -15.5q14 -5 22.5 -9.5
t12.5 -7.5q13 -9 21 -21t12.5 -23t6 -21t2.5 -15q6 -35 10.5 -65.5t21.5 -63.5h-58zM416 386q40 0 60.5 7t32.5 23q11 14 13 27.5t2 18.5q0 6 -1.5 18.5t-11.5 26.5q-9 12 -22.5 18t-28 8.5t-29.5 2t-28 -0.5h-70v-149h83zM773 351q-1 -60 -20.5 -117t-57.5 -105
q-36 -44 -76.5 -70.5t-78.5 -40t-71 -17.5t-52 -4q-71 0 -139 28q-51 21 -91 54.5t-68 76.5t-43 93.5t-15 104.5q0 44 8.5 80.5t21 65t26.5 49t25 33.5q14 16 37.5 38t57.5 41.5t79 33.5t102 14q85 0 159.5 -36.5t126.5 -106.5q35 -48 52.5 -102t16.5 -113zM741 352
q0 14 -2 36.5t-9 49.5t-21.5 57.5t-38.5 60.5q-12 15 -33 36t-52.5 40t-73 32t-93.5 13q-13 0 -33.5 -1.5t-46 -8t-54.5 -19t-58 -33.5q-16 -12 -39 -33.5t-44 -54t-35.5 -76t-14.5 -98.5q0 -65 24 -123q18 -46 49 -83t70.5 -63.5t85.5 -40.5t96 -14q15 0 48.5 4t73.5 20
q46 18 83 49t63 70t40.5 85t14.5 95z" />
    <glyph glyph-name="degree" unicode="&#xb0;" horiz-adv-x="354" 
d="M177 744q30 0 55.5 -11t45 -30.5t30.5 -45t11 -55.5t-11 -55.5t-30.5 -45t-45 -30.5t-55.5 -11t-55.5 11t-45 30.5t-30.5 45.5t-11 56q0 14 3.5 28.5t8.5 27.5q17 39 52 62t78 23zM177 699q-20 0 -37.5 -7.5t-31 -21t-21 -31t-7.5 -38.5q0 -14 3 -24t5 -15
q8 -19 21 -30.5t26 -17.5t25 -8t18 -2q41 0 69 28.5t28 69.5t-28 69t-70 28z" />
    <glyph glyph-name="plusminus" unicode="&#xb1;" horiz-adv-x="500" 
d="M229 143v197h-199v45h199v197h45v-197h196v-45h-196v-197h-45zM30 0v46h440v-46h-440z" />
    <glyph glyph-name="acute" unicode="&#xb4;" 
d="M126 728h88l-140 -136h-50z" />
    <glyph glyph-name="mu" unicode="&#xb5;" horiz-adv-x="562" 
d="M529 136q8 -23 10 -39t2 -27q0 -3 -1 -16.5t-7 -28t-18.5 -26t-36.5 -11.5q-14 0 -24 5t-15 8q-19 12 -32.5 35t-18.5 43q-2 -2 -6 -8q-5 -7 -16 -21.5t-28.5 -28.5t-41.5 -25t-55 -11q-11 0 -21.5 1.5t-20.5 5.5q-21 8 -39 24t-30 33q-3 5 -5.5 9.5t-5.5 9.5
q-1 -19 -1.5 -53t9.5 -82q1 -5 5 -20.5t10 -31.5q7 -15 15 -28.5t17 -27.5q6 -11 13.5 -24.5t7.5 -24.5q-1 -16 -9.5 -26.5t-25.5 -10.5q-12 0 -20.5 5t-14.5 12t-9 13.5t-4 8.5q-11 27 -19.5 69.5t-8.5 108.5q0 42 4 83.5t9 83.5q-6 33 -10 73.5t-6 77t-2.5 62.5t-0.5 29
q0 31 2.5 49t12.5 31q7 10 14 12t12 2q12 0 21 -9q10 -11 12 -25.5t2 -28.5q0 -23 -3.5 -63t-11.5 -95l-6 -56t-8 -54q5 -15 9 -22.5t8 -14.5q14 -24 38 -40t53 -16q21 0 37.5 7.5t28.5 17.5t19.5 20t11.5 15q23 36 29.5 71.5t8.5 76.5q3 33 3 65q0 11 -0.5 26.5t-1 32t0 32
t2.5 26.5q5 22 15.5 28t20.5 6q24 0 32.5 -24.5t8.5 -63.5q0 -8 -0.5 -36t-5 -66t-14 -80.5t-27.5 -78.5q8 -18 17.5 -29.5t16.5 -16.5q4 -2 10.5 -4.5t16.5 -2.5q34 0 42 32q4 10 4 24q0 6 -0.5 11.5t-1.5 10.5z" />
    <glyph glyph-name="paragraph" unicode="&#xb6;" horiz-adv-x="667" 
d="M455 -167v836h-164v-836h-39v505q-8 1 -24 3.5t-36 10.5q-14 6 -31 18t-32 32t-25.5 48t-10.5 67q0 63 33 110.5t94 67.5q23 7 47.5 9t48.5 2h211v-37h-33v-836h-39z" />
    <glyph glyph-name="periodcentered" unicode="&#xb7;" horiz-adv-x="276" 
d="M138 403q20 0 35 -14t14 -35q0 -20 -15 -34.5t-35 -14.5t-34 14.5t-14 34.5t14 34.5t35 14.5z" />
    <glyph glyph-name="periodcentered" unicode="&#x2219;" horiz-adv-x="276" 
d="M138 403q20 0 35 -14t14 -35q0 -20 -15 -34.5t-35 -14.5t-34 14.5t-14 34.5t14 34.5t35 14.5z" />
    <glyph glyph-name="cedilla" unicode="&#xb8;" 
d="M110 0l-32 -74q17 -2 25.5 -3.5t17.5 -4.5q6 -2 15 -7t17.5 -14t14.5 -22t6 -32q0 -6 -2 -20t-13 -29q-11 -14 -32 -26t-60 -12q-26 0 -45.5 5t-29.5 8v40q16 -5 26.5 -7t27.5 -2q18 0 30 5t18.5 12.5t9.5 16t3 16.5q0 13 -7 23q-11 15 -29 19t-50 6l43 102h46z" />
    <glyph glyph-name="guillemotright" unicode="&#xbb;" horiz-adv-x="365" 
d="M109 500l89 -247l-89 -253h-35l76 253l-76 247h35zM226 500l88 -247l-88 -253h-36l76 253l-76 247h36z" />
    <glyph glyph-name="questiondown" unicode="&#xbf;" horiz-adv-x="432" 
d="M243 392q-22 0 -39 16t-16 39q0 23 16.5 38t39.5 15t38 -16t15 -37q0 -23 -15.5 -39t-38.5 -16zM270 298q1 -17 0.5 -34t-0.5 -34q0 -21 -0.5 -38t-4 -32.5t-11 -30.5t-21.5 -31q-16 -19 -39 -40q-20 -21 -33.5 -37t-21.5 -30.5t-11.5 -28t-3.5 -28.5q0 -20 8 -38
q8 -17 27 -33t59 -16q37 0 58.5 11.5t33.5 28t16 34.5t5 32h53q-1 -17 -2.5 -30t-7.5 -30q-18 -54 -61 -78t-97 -24q-8 0 -24.5 1t-36.5 7.5t-40 20.5t-35 39q-6 10 -13 29.5t-7 48.5q0 8 0.5 17.5t5.5 24.5q10 32 32 58t45 49q19 18 29 28t18 21q10 14 15 27t6.5 26
t1.5 26.5v30.5v53h57z" />
    <glyph glyph-name="Agrave" unicode="&#xc0;" horiz-adv-x="589" 
d="M318 712l244 -712h-63l-69 201h-271l-70 -201h-63l245 712h47zM294 626l-118 -372h236zM278 756l-163 136h88l137 -136h-62z" />
    <glyph glyph-name="Aacute" unicode="&#xc1;" horiz-adv-x="589" 
d="M318 712l244 -712h-63l-69 201h-271l-70 -201h-63l245 712h47zM294 626l-118 -372h236zM391 892h88l-163 -136h-61z" />
    <glyph glyph-name="Acircumflex" unicode="&#xc2;" horiz-adv-x="589" 
d="M318 712l244 -712h-63l-69 201h-271l-70 -201h-63l245 712h47zM294 626l-118 -372h236zM255 892h79l135 -136h-57l-118 98l-117 -98h-57z" />
    <glyph glyph-name="Atilde" unicode="&#xc3;" horiz-adv-x="589" 
d="M318 712l244 -712h-63l-69 201h-271l-70 -201h-63l245 712h47zM294 626l-118 -372h236zM120 797q1 5 5 21.5t14.5 34t28.5 31t47 13.5q15 0 33 -6t45 -24q14 -9 33.5 -22t37.5 -13q5 0 12.5 1.5t15.5 8.5q9 6 14 15t7.5 18t3.5 16t1 9l40 -18q-2 -18 -4.5 -27.5
t-5.5 -17.5q-11 -25 -33.5 -41t-50.5 -16q-24 0 -44.5 10.5t-40.5 23.5q-13 9 -30 19.5t-34 9.5q-11 0 -17.5 -3.5t-9.5 -5.5q-14 -10 -19 -25t-9 -29z" />
    <glyph glyph-name="Adieresis" unicode="&#xc4;" horiz-adv-x="589" 
d="M318 712l244 -712h-63l-69 201h-271l-70 -201h-63l245 712h47zM294 626l-118 -372h236zM202 879q23 -1 38 -16.5t15 -38.5q0 -11 -2.5 -17t-4.5 -10q-10 -18 -25.5 -22.5t-21.5 -4.5q-23 0 -38.5 16t-15.5 39t16 38.5t39 15.5zM388 879q23 -1 38.5 -16.5t15.5 -38.5
q-1 -23 -17 -38.5t-38 -15.5q-5 0 -10 1t-13 5q-20 9 -25.5 25t-5.5 24q0 23 16 38.5t39 15.5z" />
    <glyph glyph-name="Aring" unicode="&#xc5;" horiz-adv-x="589" 
d="M318 712l244 -712h-63l-69 201h-271l-70 -201h-63l245 712h47zM294 626l-118 -372h236zM295 928q20 0 37 -7.5t30 -20.5t20 -30.5t7 -36.5q0 -40 -27.5 -67.5t-67.5 -27.5t-67.5 28t-27.5 68q0 19 7.5 36.5t20.5 30t30.5 20t37.5 7.5zM294 886q-22 -1 -37 -16t-15 -37
t15.5 -37t37.5 -15q21 0 36.5 15.5t15.5 37.5t-15.5 37t-37.5 15z" />
    <glyph glyph-name="AE" unicode="&#xc6;" horiz-adv-x="880" 
d="M829 706v-53h-307v-260h282v-53h-282v-287h307v-53h-370v202h-252l-113 -202h-69l399 706h405zM459 655l-223 -400h223v400z" />
    <glyph glyph-name="Ccedilla" unicode="&#xc7;" horiz-adv-x="635" 
d="M356 -74q6 -1 11.5 -1.5t11.5 -1.5q8 -2 25.5 -8t32.5 -25q15 -21 15 -47q0 -29 -17.5 -51t-45.5 -30q-14 -5 -26.5 -5.5t-17.5 -0.5q-14 0 -31 2t-45 11v40q16 -5 26.5 -7t27.5 -2q35 0 48.5 17t13.5 32q0 10 -3 16t-6 9q-10 14 -28.5 18t-49.5 6l38 90q-39 3 -63.5 9.5
t-40.5 13.5q-32 14 -62.5 40.5t-55.5 67.5t-40 98.5t-15 133.5q0 9 0.5 30t4 49t11.5 60.5t23 65.5t38 63t57 54q19 12 56 28.5t94 16.5q11 0 34 -2t52 -12q10 -3 25 -10t32.5 -19.5t34.5 -31t30 -45.5q6 -12 11.5 -29.5t9.5 -46.5h-59q-2 9 -7 26.5t-15.5 36.5t-29 37
t-46.5 29q-10 4 -29 8.5t-45 4.5q-11 0 -37 -3t-54 -19q-24 -14 -47 -37.5t-40 -59t-27.5 -83.5t-10.5 -109q0 -8 1 -39t10 -71.5t28 -83t55 -73.5q19 -16 37.5 -25t35 -13t30 -5t22.5 -1q59 0 94 24.5t54 56.5t25.5 63.5t8.5 46.5l59 -1q-2 -12 -5 -36t-13.5 -53t-30 -59
t-52.5 -54q-32 -23 -59 -30t-42 -9z" />
    <glyph glyph-name="Egrave" unicode="&#xc8;" horiz-adv-x="521" 
d="M443 392v-53h-289v-286h314v-53h-374v706h370v-53h-310v-261h289zM245 756l-164 136h88l137 -136h-61z" />
    <glyph glyph-name="Eacute" unicode="&#xc9;" horiz-adv-x="521" 
d="M443 392v-53h-289v-286h314v-53h-374v706h370v-53h-310v-261h289zM358 892h88l-164 -136h-61z" />
    <glyph glyph-name="Ecircumflex" unicode="&#xca;" horiz-adv-x="521" 
d="M443 392v-53h-289v-286h314v-53h-374v706h370v-53h-310v-261h289zM227 892h78l135 -136h-57l-117 98l-118 -98h-56z" />
    <glyph glyph-name="Edieresis" unicode="&#xcb;" horiz-adv-x="521" 
d="M443 392v-53h-289v-286h314v-53h-374v706h370v-53h-310v-261h289zM173 879q23 -1 38.5 -16.5t15.5 -38.5q0 -11 -3 -17l-5 -10q-10 -18 -25 -22.5t-22 -4.5q-23 0 -38.5 16t-15.5 39q1 23 16.5 38.5t38.5 15.5zM359 879q23 -1 38.5 -16.5t15.5 -38.5t-16 -38.5t-39 -15.5
q-5 0 -9.5 1t-12.5 5q-20 9 -25.5 25t-5.5 24q0 23 15.5 38.5t38.5 15.5z" />
    <glyph glyph-name="Igrave" unicode="&#xcc;" horiz-adv-x="245" 
d="M91 0v706h63v-706h-63zM106 756l-163 136h88l137 -136h-62z" />
    <glyph glyph-name="Iacute" unicode="&#xcd;" horiz-adv-x="245" 
d="M91 0v706h63v-706h-63zM220 892h88l-164 -136h-61z" />
    <glyph glyph-name="Icircumflex" unicode="&#xce;" horiz-adv-x="245" 
d="M91 0v706h63v-706h-63zM83 892h79l135 -136h-57l-118 98l-117 -98h-57z" />
    <glyph glyph-name="Idieresis" unicode="&#xcf;" horiz-adv-x="245" 
d="M91 0v706h63v-706h-63zM30 879q23 -1 38.5 -16.5t15.5 -38.5q-1 -11 -3.5 -17t-4.5 -10q-10 -18 -25.5 -22.5t-21.5 -4.5q-23 0 -38.5 16t-15.5 39t16 38.5t39 15.5zM216 879q23 -1 38.5 -16.5t15.5 -38.5q-1 -23 -16.5 -38.5t-38.5 -15.5q-5 0 -10 1t-13 5
q-20 9 -25.5 25t-5.5 24q0 23 16 38.5t39 15.5z" />
    <glyph glyph-name="Ntilde" unicode="&#xd1;" horiz-adv-x="667" 
d="M161 706l356 -618v618h56v-706h-70l-352 616v-616h-57v706h67zM159 797q1 5 5 21.5t14.5 34t28.5 31t47 13.5q16 0 33.5 -6t44.5 -24q14 -9 33.5 -22t37.5 -13q5 0 12.5 1.5t15.5 8.5q9 6 14 15t7.5 18t3.5 16t1 9l40 -18q-2 -18 -4.5 -27.5t-5.5 -17.5
q-11 -25 -33.5 -41t-50.5 -16q-24 0 -44.5 10.5t-40.5 23.5q-12 9 -29.5 19.5t-34.5 9.5q-11 0 -17.5 -3.5t-9.5 -5.5q-14 -10 -19 -25t-9 -29z" />
    <glyph glyph-name="Ograve" unicode="&#xd2;" horiz-adv-x="677" 
d="M61 353q0 15 2 51t13.5 80.5t36 92t69.5 84.5q9 8 23 18t33.5 18.5t44.5 14.5t55 6q19 0 55.5 -6t77.5 -33q40 -26 67.5 -63.5t45 -81t25 -90t7.5 -91.5q0 -14 -2.5 -50.5t-14.5 -82t-37 -93.5t-70 -85q-9 -8 -23 -17t-33 -17.5t-43.5 -14t-54.5 -5.5q-15 0 -36.5 2.5
t-46 11.5t-51.5 26t-52 46q-33 38 -51.5 81.5t-27.5 83t-10.5 70.5t-1.5 44zM127 353q0 -10 1 -33.5t6.5 -53.5t16.5 -64t31 -65q19 -31 40.5 -50t42.5 -29t39.5 -13t33.5 -3q12 0 28 2t34.5 9.5t38 21t38.5 36.5q27 33 41.5 71t21.5 72.5t8.5 61.5t1.5 37q0 11 -1.5 38
t-8.5 61.5t-22 72.5t-42 71q-19 23 -38 36.5t-37 20.5t-34.5 9t-28.5 2t-27.5 -2t-34 -9t-38 -21t-38.5 -37q-27 -32 -41.5 -70t-21.5 -73t-8.5 -62t-1.5 -37zM323 756l-164 136h88l137 -136h-61z" />
    <glyph glyph-name="Oacute" unicode="&#xd3;" horiz-adv-x="677" 
d="M61 353q0 15 2 51t13.5 80.5t36 92t69.5 84.5q9 8 23 18t33.5 18.5t44.5 14.5t55 6q19 0 55.5 -6t77.5 -33q40 -26 67.5 -63.5t45 -81t25 -90t7.5 -91.5q0 -14 -2.5 -50.5t-14.5 -82t-37 -93.5t-70 -85q-9 -8 -23 -17t-33 -17.5t-43.5 -14t-54.5 -5.5q-15 0 -36.5 2.5
t-46 11.5t-51.5 26t-52 46q-33 38 -51.5 81.5t-27.5 83t-10.5 70.5t-1.5 44zM127 353q0 -10 1 -33.5t6.5 -53.5t16.5 -64t31 -65q19 -31 40.5 -50t42.5 -29t39.5 -13t33.5 -3q12 0 28 2t34.5 9.5t38 21t38.5 36.5q27 33 41.5 71t21.5 72.5t8.5 61.5t1.5 37q0 11 -1.5 38
t-8.5 61.5t-22 72.5t-42 71q-19 23 -38 36.5t-37 20.5t-34.5 9t-28.5 2t-27.5 -2t-34 -9t-38 -21t-38.5 -37q-27 -32 -41.5 -70t-21.5 -73t-8.5 -62t-1.5 -37zM436 892h88l-164 -136h-61z" />
    <glyph glyph-name="Ocircumflex" unicode="&#xd4;" horiz-adv-x="677" 
d="M61 353q0 15 2 51t13.5 80.5t36 92t69.5 84.5q9 8 23 18t33.5 18.5t44.5 14.5t55 6q19 0 55.5 -6t77.5 -33q40 -26 67.5 -63.5t45 -81t25 -90t7.5 -91.5q0 -14 -2.5 -50.5t-14.5 -82t-37 -93.5t-70 -85q-9 -8 -23 -17t-33 -17.5t-43.5 -14t-54.5 -5.5q-15 0 -36.5 2.5
t-46 11.5t-51.5 26t-52 46q-33 38 -51.5 81.5t-27.5 83t-10.5 70.5t-1.5 44zM127 353q0 -10 1 -33.5t6.5 -53.5t16.5 -64t31 -65q19 -31 40.5 -50t42.5 -29t39.5 -13t33.5 -3q12 0 28 2t34.5 9.5t38 21t38.5 36.5q27 33 41.5 71t21.5 72.5t8.5 61.5t1.5 37q0 11 -1.5 38
t-8.5 61.5t-22 72.5t-42 71q-19 23 -38 36.5t-37 20.5t-34.5 9t-28.5 2t-27.5 -2t-34 -9t-38 -21t-38.5 -37q-27 -32 -41.5 -70t-21.5 -73t-8.5 -62t-1.5 -37zM299 892h79l135 -136h-57l-117 98l-118 -98h-56z" />
    <glyph glyph-name="Otilde" unicode="&#xd5;" horiz-adv-x="677" 
d="M61 353q0 15 2 51t13.5 80.5t36 92t69.5 84.5q9 8 23 18t33.5 18.5t44.5 14.5t55 6q19 0 55.5 -6t77.5 -33q40 -26 67.5 -63.5t45 -81t25 -90t7.5 -91.5q0 -14 -2.5 -50.5t-14.5 -82t-37 -93.5t-70 -85q-9 -8 -23 -17t-33 -17.5t-43.5 -14t-54.5 -5.5q-15 0 -36.5 2.5
t-46 11.5t-51.5 26t-52 46q-33 38 -51.5 81.5t-27.5 83t-10.5 70.5t-1.5 44zM127 353q0 -10 1 -33.5t6.5 -53.5t16.5 -64t31 -65q19 -31 40.5 -50t42.5 -29t39.5 -13t33.5 -3q12 0 28 2t34.5 9.5t38 21t38.5 36.5q27 33 41.5 71t21.5 72.5t8.5 61.5t1.5 37q0 11 -1.5 38
t-8.5 61.5t-22 72.5t-42 71q-19 23 -38 36.5t-37 20.5t-34.5 9t-28.5 2t-27.5 -2t-34 -9t-38 -21t-38.5 -37q-27 -32 -41.5 -70t-21.5 -73t-8.5 -62t-1.5 -37zM164 797q1 5 5 21.5t14.5 34t28.5 31t47 13.5q16 0 33.5 -6t45.5 -24q14 -9 33.5 -22t37.5 -13q4 0 11.5 1.5
t15.5 8.5q9 6 14 15t7.5 18t3.5 16t1 9l40 -18q-2 -18 -4.5 -27.5t-5.5 -17.5q-11 -25 -33.5 -41t-49.5 -16q-25 0 -45.5 10.5t-40.5 23.5q-12 9 -29.5 19.5t-34.5 9.5q-10 0 -17 -3.5t-10 -5.5q-13 -10 -18.5 -25t-8.5 -29z" />
    <glyph glyph-name="Odieresis" unicode="&#xd6;" horiz-adv-x="677" 
d="M338 -12q-14 0 -33.5 2t-42.5 9.5t-49 22.5t-51 40q-38 37 -58.5 82.5t-30 87.5t-11 75t-1.5 46q0 44 6.5 89t22.5 87.5t41.5 79.5t63.5 64q32 23 68.5 34t75.5 11q34 0 62.5 -8t50 -19t37 -23.5t24.5 -21.5q18 -18 36.5 -44t33 -62t24 -82.5t9.5 -104.5q0 -42 -6.5 -86
t-21 -85t-38.5 -77.5t-60 -64.5q-9 -7 -22.5 -16t-32.5 -17t-43.5 -13.5t-53.5 -5.5zM339 42q23 0 47.5 7t44.5 19q23 14 44.5 38t38 59t26.5 81.5t10 106.5q0 9 -1 40t-9.5 70.5t-27.5 81.5t-55 73q-35 31 -68 38.5t-51 7.5q-13 0 -32 -3t-40 -12.5t-43 -27t-41 -45.5
q-20 -29 -37.5 -84t-17.5 -139q0 -9 1 -31.5t5.5 -52.5t14 -63.5t27.5 -63.5q6 -10 18.5 -27t32.5 -33t48 -28t65 -12zM246 879q23 -1 38.5 -16.5t15.5 -38.5q-1 -23 -16.5 -38.5t-38.5 -15.5q-5 0 -9.5 1t-12.5 5q-21 9 -26.5 25t-5.5 24q0 23 16 38.5t39 15.5zM432 879
q23 -1 38.5 -16.5t15.5 -38.5q0 -11 -2.5 -17t-4.5 -10q-11 -18 -26 -22.5t-22 -4.5q-23 0 -38 16t-15 39t16 38.5t38 15.5z" />
    <glyph glyph-name="multiply" unicode="&#xd7;" horiz-adv-x="500" 
d="M403 107l-153 154l-153 -154l-31 32l152 153l-152 153l31 32l153 -153l153 153l31 -32l-151 -153l151 -153z" />
    <glyph glyph-name="Oslash" unicode="&#xd8;" horiz-adv-x="677" 
d="M549 706h52l-59 -88q12 -17 25.5 -40t24 -54t17.5 -70t7 -88q0 -14 -2 -54.5t-15.5 -90.5t-42 -101.5t-82.5 -88.5q-8 -5 -21 -12.5t-30.5 -14.5t-39.5 -11.5t-48 -4.5q-12 0 -31 2t-42 9t-48 20.5t-49 35.5l-37 -55h-52l59 88q-12 17 -25.5 40.5t-24 54t-17.5 70
t-7 88.5q0 9 0.5 29.5t4 48t11.5 59.5t22 65t35.5 64t52.5 56q9 7 23 16.5t33.5 18t44.5 14.5t55 6q34 0 61 -7.5t48 -18t36 -21.5t24 -19zM479 603q-6 7 -18 17t-29 20t-39 17t-50 7q-38 0 -63 -11.5t-37 -19.5q-23 -15 -43.5 -40.5t-37 -62t-26 -84.5t-9.5 -109
q0 -12 1 -32.5t5 -46.5t13 -55.5t25 -60.5zM198 104q19 -20 38.5 -32.5t37.5 -19t33.5 -8.5t26.5 -2q15 0 35.5 4t43 15t45.5 31t42 53q17 29 33.5 84.5t16.5 136.5q0 8 -0.5 24.5t-3 37.5t-7.5 45.5t-14 48.5q-6 16 -10.5 25.5t-8.5 16.5z" />
    <glyph glyph-name="Ugrave" unicode="&#xd9;" horiz-adv-x="646" 
d="M143 706v-419v-59.5t2 -44t6.5 -35.5t14.5 -32q8 -15 25.5 -32.5t53.5 -29.5q27 -8 47.5 -10t30.5 -2q5 0 16.5 0.5t26 3t31 7.5t32.5 14q24 12 40 32t24 46q8 27 8.5 57.5t0.5 84.5v419h61v-420v-76t-4 -50q-2 -11 -6 -26.5t-12 -32.5t-22.5 -35t-37.5 -34t-47.5 -25
t-46 -13t-38.5 -5t-26 -1q-11 0 -34.5 1.5t-50.5 9.5q-11 3 -31 10.5t-41.5 22t-41 37.5t-30.5 58q-5 15 -7 30.5t-3 33.5t-1 41v54v420h60zM307 756l-163 136h88l137 -136h-62z" />
    <glyph glyph-name="Uacute" unicode="&#xda;" horiz-adv-x="646" 
d="M143 706v-419v-59.5t2 -44t6.5 -35.5t14.5 -32q8 -15 25.5 -32.5t53.5 -29.5q27 -8 47.5 -10t30.5 -2q5 0 16.5 0.5t26 3t31 7.5t32.5 14q24 12 40 32t24 46q8 27 8.5 57.5t0.5 84.5v419h61v-420v-76t-4 -50q-2 -11 -6 -26.5t-12 -32.5t-22.5 -35t-37.5 -34t-47.5 -25
t-46 -13t-38.5 -5t-26 -1q-11 0 -34.5 1.5t-50.5 9.5q-11 3 -31 10.5t-41.5 22t-41 37.5t-30.5 58q-5 15 -7 30.5t-3 33.5t-1 41v54v420h60zM420 892h88l-163 -136h-62z" />
    <glyph glyph-name="Ucircumflex" unicode="&#xdb;" horiz-adv-x="646" 
d="M143 706v-419v-59.5t2 -44t6.5 -35.5t14.5 -32q8 -15 25.5 -32.5t53.5 -29.5q27 -8 47.5 -10t30.5 -2q5 0 16.5 0.5t26 3t31 7.5t32.5 14q24 12 40 32t24 46q8 27 8.5 57.5t0.5 84.5v419h61v-420v-76t-4 -50q-2 -11 -6 -26.5t-12 -32.5t-22.5 -35t-37.5 -34t-47.5 -25
t-46 -13t-38.5 -5t-26 -1q-11 0 -34.5 1.5t-50.5 9.5q-11 3 -31 10.5t-41.5 22t-41 37.5t-30.5 58q-5 15 -7 30.5t-3 33.5t-1 41v54v420h60zM284 892h78l135 -136h-56l-118 98l-117 -98h-57z" />
    <glyph glyph-name="Udieresis" unicode="&#xdc;" horiz-adv-x="646" 
d="M143 706v-419v-59.5t2 -44t6.5 -35.5t14.5 -32q8 -15 25.5 -32.5t53.5 -29.5q27 -8 47.5 -10t30.5 -2q5 0 16.5 0.5t26 3t31 7.5t32.5 14q24 12 40 32t24 46q8 27 8.5 57.5t0.5 84.5v419h61v-420v-76t-4 -50q-2 -11 -6 -26.5t-12 -32.5t-22.5 -35t-37.5 -34t-47.5 -25
t-46 -13t-38.5 -5t-26 -1q-11 0 -34.5 1.5t-50.5 9.5q-11 3 -31 10.5t-41.5 22t-41 37.5t-30.5 58q-5 15 -7 30.5t-3 33.5t-1 41v54v420h60zM230 879q23 -1 38.5 -16.5t15.5 -38.5t-16 -38.5t-38 -15.5q-23 0 -38.5 16t-15.5 39t16 38.5t38 15.5zM416 879q8 0 13.5 -1.5
t8.5 -3.5q8 -3 20 -15t12 -35q0 -2 -0.5 -8t-2.5 -12q-5 -11 -12 -17.5t-14.5 -10.5t-14.5 -5t-10 -1q-9 0 -16 2.5t-9 3.5q-29 16 -29 49q0 23 16 38.5t38 15.5z" />
    <glyph glyph-name="germandbls" unicode="&#xdf;" horiz-adv-x="521" 
d="M76 453q0 19 -0.5 41t1 44t5 43.5t11.5 39.5q20 48 63.5 70t92.5 22q10 0 30 -2t42.5 -10.5t45 -25.5t38.5 -47q19 -37 19 -81q0 -10 -2 -25.5t-9.5 -33.5t-22 -36t-38.5 -32q-11 -6 -21.5 -10.5t-33.5 -10.5q14 -2 38.5 -8t53.5 -26q13 -8 27 -21t26 -32.5t20 -47
t8 -63.5q0 -10 -2 -33t-11 -49q-18 -56 -62.5 -91t-105.5 -35q-14 0 -31.5 2.5t-43.5 13.5v53q10 -5 28 -12t46 -7q20 0 33 4.5t21 8.5q12 6 24.5 18t22.5 30t16.5 42.5t6.5 56.5q0 7 -0.5 18.5t-3.5 25.5t-10 29.5t-19 31.5q-11 14 -29.5 28t-54.5 25q-35 11 -60 12.5
t-40 2.5v47q9 0 18 -0.5t19 0.5q26 1 50 8t45 24q5 5 14.5 15t15.5 25q3 7 6 19.5t3 29.5q0 55 -31.5 87t-86.5 32q-6 0 -17.5 -1t-26 -5.5t-28.5 -14t-24 -26.5q-15 -26 -18.5 -63.5t-2.5 -99.5v-453h-55v453z" />
    <glyph glyph-name="agrave" unicode="&#xe0;" horiz-adv-x="490" 
d="M68 376q1 5 2.5 16t6.5 24q6 18 17.5 35.5t31.5 32t49.5 23.5t70.5 9q6 0 26.5 -1t45 -9t48 -25t35.5 -49q10 -30 10 -110v-183v-48.5t1.5 -35t4 -28t7.5 -27.5h-55q-2 8 -4 14.5t-3.5 14t-3 17.5t-2.5 25q-2 -5 -6 -11.5t-12 -15.5q-25 -30 -58.5 -43.5t-71.5 -12.5
q-8 0 -26 1t-38 9q-12 4 -28 13t-30.5 24.5t-24.5 39.5t-10 57q0 9 1.5 22t6.5 28t15 31.5t28 31.5q8 6 20 14t32 17q19 9 45 16.5t54 14t55 12t48 8.5v26q0 34 -4.5 50.5t-16.5 30.5q-11 12 -24.5 18.5t-26.5 9.5t-23.5 3.5t-14.5 0.5q-34 0 -56 -8.5t-35.5 -21.5t-20 -29
t-9.5 -31h-57zM356 283q-23 -5 -44.5 -10t-44.5 -11q-24 -6 -52 -15t-51.5 -23.5t-39 -36t-15.5 -54.5q0 -5 1 -15t6 -22q3 -9 10 -19t18.5 -18.5t28 -14.5t39.5 -6q7 0 21 1.5t30.5 7t33.5 17t31 31.5q20 29 23.5 63t4.5 67v58zM251 592l-140 136h88l101 -136h-49z" />
    <glyph glyph-name="aacute" unicode="&#xe1;" horiz-adv-x="490" 
d="M68 376q1 5 2.5 16t6.5 24q6 18 17.5 35.5t31.5 32t49.5 23.5t70.5 9q6 0 26.5 -1t45 -9t48 -25t35.5 -49q10 -30 10 -110v-183v-48.5t1.5 -35t4 -28t7.5 -27.5h-55q-2 8 -4 14.5t-3.5 14t-3 17.5t-2.5 25q-2 -5 -6 -11.5t-12 -15.5q-25 -30 -58.5 -43.5t-71.5 -12.5
q-8 0 -26 1t-38 9q-12 4 -28 13t-30.5 24.5t-24.5 39.5t-10 57q0 9 1.5 22t6.5 28t15 31.5t28 31.5q8 6 20 14t32 17q19 9 45 16.5t54 14t55 12t48 8.5v26q0 34 -4.5 50.5t-16.5 30.5q-11 12 -24.5 18.5t-26.5 9.5t-23.5 3.5t-14.5 0.5q-34 0 -56 -8.5t-35.5 -21.5t-20 -29
t-9.5 -31h-57zM356 283q-23 -5 -44.5 -10t-44.5 -11q-24 -6 -52 -15t-51.5 -23.5t-39 -36t-15.5 -54.5q0 -5 1 -15t6 -22q3 -9 10 -19t18.5 -18.5t28 -14.5t39.5 -6q7 0 21 1.5t30.5 7t33.5 17t31 31.5q20 29 23.5 63t4.5 67v58zM318 728h88l-139 -136h-50z" />
    <glyph glyph-name="acircumflex" unicode="&#xe2;" horiz-adv-x="490" 
d="M68 376q1 5 2.5 16t6.5 24q6 18 17.5 35.5t31.5 32t49.5 23.5t70.5 9q6 0 26.5 -1t45 -9t48 -25t35.5 -49q10 -30 10 -110v-183v-48.5t1.5 -35t4 -28t7.5 -27.5h-55q-2 8 -4 14.5t-3.5 14t-3 17.5t-2.5 25q-2 -5 -6 -11.5t-12 -15.5q-25 -30 -58.5 -43.5t-71.5 -12.5
q-8 0 -26 1t-38 9q-12 4 -28 13t-30.5 24.5t-24.5 39.5t-10 57q0 9 1.5 22t6.5 28t15 31.5t28 31.5q8 6 20 14t32 17q19 9 45 16.5t54 14t55 12t48 8.5v26q0 34 -4.5 50.5t-16.5 30.5q-11 12 -24.5 18.5t-26.5 9.5t-23.5 3.5t-14.5 0.5q-34 0 -56 -8.5t-35.5 -21.5t-20 -29
t-9.5 -31h-57zM356 283q-23 -5 -44.5 -10t-44.5 -11q-24 -6 -52 -15t-51.5 -23.5t-39 -36t-15.5 -54.5q0 -5 1 -15t6 -22q3 -9 10 -19t18.5 -18.5t28 -14.5t39.5 -6q7 0 21 1.5t30.5 7t33.5 17t31 31.5q20 29 23.5 63t4.5 67v58zM206 736h78l117 -144h-56l-100 103
l-100 -103h-56z" />
    <glyph glyph-name="atilde" unicode="&#xe3;" horiz-adv-x="490" 
d="M68 376q1 5 2.5 16t6.5 24q6 18 17.5 35.5t31.5 32t49.5 23.5t70.5 9q6 0 26.5 -1t45 -9t48 -25t35.5 -49q10 -30 10 -110v-183v-48.5t1.5 -35t4 -28t7.5 -27.5h-55q-2 8 -4 14.5t-3.5 14t-3 17.5t-2.5 25q-2 -5 -6 -11.5t-12 -15.5q-25 -30 -58.5 -43.5t-71.5 -12.5
q-8 0 -26 1t-38 9q-12 4 -28 13t-30.5 24.5t-24.5 39.5t-10 57q0 9 1.5 22t6.5 28t15 31.5t28 31.5q8 6 20 14t32 17q19 9 45 16.5t54 14t55 12t48 8.5v26q0 34 -4.5 50.5t-16.5 30.5q-11 12 -24.5 18.5t-26.5 9.5t-23.5 3.5t-14.5 0.5q-34 0 -56 -8.5t-35.5 -21.5t-20 -29
t-9.5 -31h-57zM356 283q-23 -5 -44.5 -10t-44.5 -11q-24 -6 -52 -15t-51.5 -23.5t-39 -36t-15.5 -54.5q0 -5 1 -15t6 -22q3 -9 10 -19t18.5 -18.5t28 -14.5t39.5 -6q7 0 21 1.5t30.5 7t33.5 17t31 31.5q20 29 23.5 63t4.5 67v58zM90 610q1 7 2.5 17t6.5 24q2 5 7 16t14 22.5
t23.5 20.5t35.5 9q24 0 42.5 -11.5t37.5 -25.5q9 -8 25 -18t30 -10q5 0 13 2.5t16 12.5q9 11 12.5 25t5.5 28l41 -9q-2 -18 -3 -24.5t-4 -16.5q-13 -43 -37 -57.5t-43 -14.5q-14 0 -27 5t-23.5 11t-18 11.5t-9.5 7.5q-11 9 -27 20t-32 11q-13 0 -21.5 -6.5t-14 -16.5
t-8.5 -21t-5 -20z" />
    <glyph glyph-name="adieresis" unicode="&#xe4;" horiz-adv-x="490" 
d="M68 376q1 5 2.5 16t6.5 24q6 18 17.5 35.5t31.5 32t49.5 23.5t70.5 9q6 0 26.5 -1t45 -9t48 -25t35.5 -49q10 -30 10 -110v-183v-48.5t1.5 -35t4 -28t7.5 -27.5h-55q-2 8 -4 14.5t-3.5 14t-3 17.5t-2.5 25q-2 -5 -6 -11.5t-12 -15.5q-25 -30 -58.5 -43.5t-71.5 -12.5
q-8 0 -26 1t-38 9q-12 4 -28 13t-30.5 24.5t-24.5 39.5t-10 57q0 9 1.5 22t6.5 28t15 31.5t28 31.5q8 6 20 14t32 17q19 9 45 16.5t54 14t55 12t48 8.5v26q0 34 -4.5 50.5t-16.5 30.5q-11 12 -24.5 18.5t-26.5 9.5t-23.5 3.5t-14.5 0.5q-34 0 -56 -8.5t-35.5 -21.5t-20 -29
t-9.5 -31h-57zM356 283q-23 -5 -44.5 -10t-44.5 -11q-24 -6 -52 -15t-51.5 -23.5t-39 -36t-15.5 -54.5q0 -5 1 -15t6 -22q3 -9 10 -19t18.5 -18.5t28 -14.5t39.5 -6q7 0 21 1.5t30.5 7t33.5 17t31 31.5q20 29 23.5 63t4.5 67v58zM137 727q22 0 36 -15t14 -36t-15 -35.5
t-35 -14.5q-21 1 -35.5 15.5t-14.5 35.5t15 35.5t35 14.5zM353 727q21 0 35.5 -15t14.5 -36t-15 -35.5t-36 -14.5q-21 1 -35.5 15.5t-14.5 35.5t15 35.5t36 14.5z" />
    <glyph glyph-name="aring" unicode="&#xe5;" horiz-adv-x="490" 
d="M68 376q1 5 2.5 16t6.5 24q6 18 17.5 35.5t31.5 32t49.5 23.5t70.5 9q6 0 26.5 -1t45 -9t48 -25t35.5 -49q10 -30 10 -110v-183v-48.5t1.5 -35t4 -28t7.5 -27.5h-55q-2 8 -4 14.5t-3.5 14t-3 17.5t-2.5 25q-2 -5 -6 -11.5t-12 -15.5q-25 -30 -58.5 -43.5t-71.5 -12.5
q-8 0 -26 1t-38 9q-12 4 -28 13t-30.5 24.5t-24.5 39.5t-10 57q0 9 1.5 22t6.5 28t15 31.5t28 31.5q8 6 20 14t32 17q19 9 45 16.5t54 14t55 12t48 8.5v26q0 34 -4.5 50.5t-16.5 30.5q-11 12 -24.5 18.5t-26.5 9.5t-23.5 3.5t-14.5 0.5q-34 0 -56 -8.5t-35.5 -21.5t-20 -29
t-9.5 -31h-57zM356 283q-23 -5 -44.5 -10t-44.5 -11q-24 -6 -52 -15t-51.5 -23.5t-39 -36t-15.5 -54.5q0 -5 1 -15t6 -22q3 -9 10 -19t18.5 -18.5t28 -14.5t39.5 -6q7 0 21 1.5t30.5 7t33.5 17t31 31.5q20 29 23.5 63t4.5 67v58zM255 773q40 0 67.5 -28t27.5 -68
q0 -20 -7.5 -37t-20.5 -30t-30.5 -20.5t-36.5 -7.5q-20 0 -37.5 8t-30 21t-20 30t-7.5 37t7.5 37.5t20.5 30t30 20t37 7.5zM255 730q-22 0 -37.5 -15.5t-14.5 -37.5q0 -22 15.5 -37t37.5 -15t37 15.5t15 37.5q-1 23 -16 37.5t-37 14.5z" />
    <glyph glyph-name="ae" unicode="&#xe6;" horiz-adv-x="802" 
d="M409 247v-27q2 -44 16.5 -85.5t52.5 -69.5q10 -8 31.5 -17.5t54.5 -9.5q30 0 51.5 9.5t36 22.5t23 27t13.5 23l53 -10q-2 -7 -6.5 -19t-14.5 -26q-7 -11 -19.5 -24.5t-31.5 -25t-44.5 -19.5t-59.5 -8q-12 0 -30.5 1.5t-40.5 9t-45 22.5t-43 41q-9 11 -22 35
q-2 -3 -10.5 -17.5t-18.5 -26.5q-18 -23 -39.5 -36t-42 -19.5t-37.5 -8t-26 -1.5q-8 0 -23 1t-35 7q-45 13 -72.5 45.5t-27.5 80.5q0 31 11 54t26 39.5t30 26t23 13.5q26 14 56 21.5t57 11.5t47.5 4.5t27.5 0.5h20v67q-1 29 -9 54.5t-37 39.5q-8 4 -22 8t-36 4
q-13 0 -40.5 -5t-53.5 -30q-15 -17 -22 -32q-4 -8 -6 -14t-4 -14l-52 1q3 19 6 28.5t7 18.5q6 15 18.5 32t32 31.5t48 24t67.5 9.5q4 0 16 -0.5t27 -3.5t31.5 -8.5t31.5 -15.5q4 -2 13 -10t17 -19q9 -13 11.5 -22.5t4.5 -15.5q7 12 12 20t10 13q7 8 18 19t27.5 20.5t38.5 16
t50 6.5q11 0 29 -2.5t38.5 -10.5t41.5 -23t39 -41q19 -27 33 -72.5t13 -119.5h-340zM686 293q-3 46 -9 66q-11 45 -42.5 76t-80.5 31q-8 0 -26 -3t-38 -16q-24 -15 -48.5 -52t-30.5 -102h275zM350 247h-23.5t-46 -2.5t-56 -9t-53.5 -19.5q-20 -11 -32 -23.5t-18.5 -24.5
t-8.5 -24t-2 -21q0 -23 9 -39t23 -26t32.5 -15t38.5 -5q24 0 45 6q20 7 34.5 17.5t24 21.5t15 22t8.5 18q7 20 8 40l2 40v44z" />
    <glyph glyph-name="ccedilla" unicode="&#xe7;" horiz-adv-x="495" 
d="M262 -74q24 -3 44 -8.5t36 -25.5q5 -6 10.5 -18t5.5 -31q0 -14 -5 -29t-17.5 -28t-33 -21.5t-51.5 -8.5q-14 0 -31 2t-45 11l1 40q15 -5 26 -7t28 -2q34 0 47.5 17t13.5 32q0 10 -3 16t-5 9q-11 14 -29.5 18t-49.5 6l38 91q-13 1 -35 6t-49 22q-19 11 -38 30t-34 46.5
t-24.5 65.5t-9.5 88q0 11 2 39t10 60q9 37 26.5 68t42 53.5t57 35.5t72.5 13q12 0 32 -3t42.5 -12.5t44.5 -29t37 -52.5q6 -13 11 -31t8 -49l-54 1q-6 38 -19.5 62.5t-30.5 38.5t-36.5 19.5t-37.5 5.5q-8 0 -24 -2t-35 -13q-35 -18 -53 -50t-26.5 -63.5t-9.5 -56.5t-1 -31
q0 -5 1 -26t7 -48t19 -56t37 -50q20 -17 41.5 -24.5t47.5 -7.5q35 0 54.5 11.5t29.5 22.5q11 12 23.5 36t15.5 62h57q-1 -7 -2 -18t-5 -26q-2 -8 -7 -23.5t-15.5 -33t-26.5 -35t-40 -29.5q-11 -5 -23.5 -9t-35.5 -7z" />
    <glyph glyph-name="egrave" unicode="&#xe8;" horiz-adv-x="505" 
d="M110 244q0 -5 1 -27.5t7.5 -51.5t22 -58.5t45.5 -47.5q10 -7 29 -14t48 -7q31 0 52.5 9t35.5 22t22 27t13 24l54 -10q-3 -8 -9 -21t-18 -30q-26 -37 -65.5 -54t-84.5 -17q-33 0 -70.5 11.5t-68.5 40t-51.5 78t-20.5 125.5q0 9 1.5 38.5t11 66t30 74.5t59.5 64
q46 30 104 30q38 0 66 -12t48 -28.5t32 -34t18 -29.5q14 -26 19 -50.5t7 -33.5q1 -7 3 -24.5t2 -37.5v-11t-1 -11h-342zM394 291q-1 6 -2 20t-5.5 32t-12.5 38t-22 38q-4 5 -13 15t-24 18q-8 5 -22.5 9.5t-37.5 4.5q-25 0 -41 -6.5t-25 -12.5q-25 -16 -40 -40.5t-23 -48.5
t-10.5 -43t-3.5 -25zM258 592l-139 136h88l101 -136h-50z" />
    <glyph glyph-name="eacute" unicode="&#xe9;" horiz-adv-x="505" 
d="M110 244q0 -5 1 -27.5t7.5 -51.5t22 -58.5t45.5 -47.5q10 -7 29 -14t48 -7q31 0 52.5 9t35.5 22t22 27t13 24l54 -10q-3 -8 -9 -21t-18 -30q-26 -37 -65.5 -54t-84.5 -17q-33 0 -70.5 11.5t-68.5 40t-51.5 78t-20.5 125.5q0 9 1.5 38.5t11 66t30 74.5t59.5 64
q46 30 104 30q38 0 66 -12t48 -28.5t32 -34t18 -29.5q14 -26 19 -50.5t7 -33.5q1 -7 3 -24.5t2 -37.5v-11t-1 -11h-342zM394 291q-1 6 -2 20t-5.5 32t-12.5 38t-22 38q-4 5 -13 15t-24 18q-8 5 -22.5 9.5t-37.5 4.5q-25 0 -41 -6.5t-25 -12.5q-25 -16 -40 -40.5t-23 -48.5
t-10.5 -43t-3.5 -25zM326 728h88l-140 -136h-49z" />
    <glyph glyph-name="ecircumflex" unicode="&#xea;" horiz-adv-x="505" 
d="M110 244q0 -5 1 -27.5t7.5 -51.5t22 -58.5t45.5 -47.5q10 -7 29 -14t48 -7q31 0 52.5 9t35.5 22t22 27t13 24l54 -10q-3 -8 -9 -21t-18 -30q-26 -37 -65.5 -54t-84.5 -17q-33 0 -70.5 11.5t-68.5 40t-51.5 78t-20.5 125.5q0 9 1.5 38.5t11 66t30 74.5t59.5 64
q46 30 104 30q38 0 66 -12t48 -28.5t32 -34t18 -29.5q14 -26 19 -50.5t7 -33.5q1 -7 3 -24.5t2 -37.5v-11t-1 -11h-342zM394 291q-1 6 -2 20t-5.5 32t-12.5 38t-22 38q-4 5 -13 15t-24 18q-8 5 -22.5 9.5t-37.5 4.5q-25 0 -41 -6.5t-25 -12.5q-25 -16 -40 -40.5t-23 -48.5
t-10.5 -43t-3.5 -25zM224 736h78l118 -144h-57l-100 103l-100 -103h-56z" />
    <glyph glyph-name="edieresis" unicode="&#xeb;" horiz-adv-x="505" 
d="M110 244q0 -5 1 -27.5t7.5 -51.5t22 -58.5t45.5 -47.5q10 -7 29 -14t48 -7q31 0 52.5 9t35.5 22t22 27t13 24l54 -10q-3 -8 -9 -21t-18 -30q-26 -37 -65.5 -54t-84.5 -17q-33 0 -70.5 11.5t-68.5 40t-51.5 78t-20.5 125.5q0 9 1.5 38.5t11 66t30 74.5t59.5 64
q46 30 104 30q38 0 66 -12t48 -28.5t32 -34t18 -29.5q14 -26 19 -50.5t7 -33.5q1 -7 3 -24.5t2 -37.5v-11t-1 -11h-342zM394 291q-1 6 -2 20t-5.5 32t-12.5 38t-22 38q-4 5 -13 15t-24 18q-8 5 -22.5 9.5t-37.5 4.5q-25 0 -41 -6.5t-25 -12.5q-25 -16 -40 -40.5t-23 -48.5
t-10.5 -43t-3.5 -25zM156 727q21 0 35.5 -15t14.5 -36t-15.5 -35.5t-35.5 -14.5q-21 1 -35.5 15.5t-14.5 35.5t15 35.5t36 14.5zM371 727q21 0 35.5 -15t14.5 -36q0 -2 -0.5 -7.5t-2.5 -11.5q-6 -14 -19.5 -22.5t-28.5 -8.5q-21 1 -35.5 15.5t-14.5 35.5q1 21 15.5 35.5
t35.5 14.5z" />
    <glyph glyph-name="igrave" unicode="&#xec;" horiz-adv-x="219" 
d="M140 502v-502h-61v502h61zM115 592l-140 136h88l102 -136h-50z" />
    <glyph glyph-name="iacute" unicode="&#xed;" horiz-adv-x="219" 
d="M140 502v-502h-61v502h61zM183 728h88l-140 -136h-50z" />
    <glyph glyph-name="icircumflex" unicode="&#xee;" horiz-adv-x="219" 
d="M140 502v-502h-61v502h61zM70 736h79l117 -144h-57l-100 103l-99 -103h-57z" />
    <glyph glyph-name="idieresis" unicode="&#xef;" horiz-adv-x="219" 
d="M140 502v-502h-61v502h61zM2 727q21 0 35.5 -15t14.5 -36t-15 -35.5t-36 -14.5q-21 1 -35.5 15.5t-14.5 35.5t15 35.5t36 14.5zM217 727q22 0 36 -15t14 -36q0 -2 -0.5 -7.5t-2.5 -11.5q-6 -14 -19 -22.5t-28 -8.5q-21 1 -35.5 15.5t-14.5 35.5t15 35.5t35 14.5z" />
    <glyph glyph-name="ntilde" unicode="&#xf1;" horiz-adv-x="521" 
d="M122 501q3 -10 5 -16.5t3 -14t1.5 -18t0.5 -26.5q4 9 16 26q26 33 61 48.5t77 15.5q48 0 76.5 -14.5t42.5 -28.5q3 -4 8 -9.5t10 -15.5q7 -14 11.5 -29t6.5 -34t2.5 -42.5t0.5 -54.5v-288h-55v291q0 48 -2 75t-12 49q-3 6 -9.5 15.5t-20.5 18.5q-19 12 -37.5 14.5
t-25.5 2.5q-30 0 -49.5 -8t-29.5 -15q-27 -17 -41 -40.5t-20 -46t-6.5 -41t-0.5 -27.5v-288h-55v334v78.5t-4 52.5q-2 9 -4 18.5t-4 18.5zM106 610q1 7 2.5 17t6.5 24q2 5 7 16t14 22.5t23.5 20.5t35.5 9q24 0 42.5 -11.5t36.5 -25.5q10 -8 26 -18t30 -10q5 0 13 2.5
t16 12.5q8 11 11.5 25t5.5 28l42 -9q-2 -18 -3.5 -24.5t-4.5 -16.5q-13 -43 -37 -57.5t-43 -14.5q-13 0 -26 5t-23.5 11t-18 11.5t-9.5 7.5q-12 9 -28 20t-32 11q-13 0 -21.5 -6.5t-13.5 -16.5t-8 -21t-5 -20z" />
    <glyph glyph-name="ograve" unicode="&#xf2;" horiz-adv-x="521" 
d="M51 251q0 45 9.5 89.5t34.5 83.5q7 10 20 26t33.5 30.5t48.5 25t64 10.5q33 0 57 -9t35 -14q33 -18 55 -45.5t36 -59.5t20 -67.5t6 -69.5q0 -13 -1.5 -38.5t-10.5 -57.5q-9 -36 -26.5 -66.5t-42.5 -53t-57.5 -35t-71.5 -12.5q-11 0 -35 2.5t-51 16.5q-21 10 -43 29.5
t-39.5 49t-29 70.5t-11.5 95zM109 250q0 -7 1 -28.5t7 -48.5t20 -55.5t40 -50.5q11 -8 31 -18.5t53 -10.5q26 0 44 7.5t26 12.5q31 20 47.5 50.5t24 60t8.5 53t1 29.5q0 7 -1 29.5t-8 51t-22 58t-43 50.5q-9 7 -28 16.5t-50 9.5q-9 0 -28 -3t-40 -16q-32 -20 -48.5 -51
t-24.5 -61t-9 -54.5t-1 -30.5zM266 592l-139 136h88l101 -136h-50z" />
    <glyph glyph-name="oacute" unicode="&#xf3;" horiz-adv-x="521" 
d="M51 251q0 45 9.5 89.5t34.5 83.5q7 10 20 26t33.5 30.5t48.5 25t64 10.5q33 0 57 -9t35 -14q33 -18 55 -45.5t36 -59.5t20 -67.5t6 -69.5q0 -13 -1.5 -38.5t-10.5 -57.5q-9 -36 -26.5 -66.5t-42.5 -53t-57.5 -35t-71.5 -12.5q-11 0 -35 2.5t-51 16.5q-21 10 -43 29.5
t-39.5 49t-29 70.5t-11.5 95zM109 250q0 -7 1 -28.5t7 -48.5t20 -55.5t40 -50.5q11 -8 31 -18.5t53 -10.5q26 0 44 7.5t26 12.5q31 20 47.5 50.5t24 60t8.5 53t1 29.5q0 7 -1 29.5t-8 51t-22 58t-43 50.5q-9 7 -28 16.5t-50 9.5q-9 0 -28 -3t-40 -16q-32 -20 -48.5 -51
t-24.5 -61t-9 -54.5t-1 -30.5zM334 728h88l-140 -136h-50z" />
    <glyph glyph-name="ocircumflex" unicode="&#xf4;" horiz-adv-x="521" 
d="M51 251q0 45 9.5 89.5t34.5 83.5q7 10 20 26t33.5 30.5t48.5 25t64 10.5q33 0 57 -9t35 -14q33 -18 55 -45.5t36 -59.5t20 -67.5t6 -69.5q0 -13 -1.5 -38.5t-10.5 -57.5q-9 -36 -26.5 -66.5t-42.5 -53t-57.5 -35t-71.5 -12.5q-11 0 -35 2.5t-51 16.5q-21 10 -43 29.5
t-39.5 49t-29 70.5t-11.5 95zM109 250q0 -7 1 -28.5t7 -48.5t20 -55.5t40 -50.5q11 -8 31 -18.5t53 -10.5q26 0 44 7.5t26 12.5q31 20 47.5 50.5t24 60t8.5 53t1 29.5q0 7 -1 29.5t-8 51t-22 58t-43 50.5q-9 7 -28 16.5t-50 9.5q-9 0 -28 -3t-40 -16q-32 -20 -48.5 -51
t-24.5 -61t-9 -54.5t-1 -30.5zM221 736h79l117 -144h-56l-101 103l-99 -103h-57z" />
    <glyph glyph-name="otilde" unicode="&#xf5;" horiz-adv-x="521" 
d="M51 251q0 45 9.5 89.5t34.5 83.5q7 10 20 26t33.5 30.5t48.5 25t64 10.5q33 0 57 -9t35 -14q33 -18 55 -45.5t36 -59.5t20 -67.5t6 -69.5q0 -13 -1.5 -38.5t-10.5 -57.5q-9 -36 -26.5 -66.5t-42.5 -53t-57.5 -35t-71.5 -12.5q-11 0 -35 2.5t-51 16.5q-21 10 -43 29.5
t-39.5 49t-29 70.5t-11.5 95zM109 250q0 -7 1 -28.5t7 -48.5t20 -55.5t40 -50.5q11 -8 31 -18.5t53 -10.5q26 0 44 7.5t26 12.5q31 20 47.5 50.5t24 60t8.5 53t1 29.5q0 7 -1 29.5t-8 51t-22 58t-43 50.5q-9 7 -28 16.5t-50 9.5q-9 0 -28 -3t-40 -16q-32 -20 -48.5 -51
t-24.5 -61t-9 -54.5t-1 -30.5zM106 610q1 7 2.5 17t6.5 24q2 5 7 16t14 22.5t23.5 20.5t35.5 9q24 0 42.5 -11.5t36.5 -25.5q10 -8 26 -18t30 -10q5 0 13 2.5t16 12.5q8 11 11.5 25t5.5 28l42 -9q-2 -18 -3.5 -24.5t-4.5 -16.5q-13 -43 -37 -57.5t-43 -14.5q-13 0 -26 5
t-23.5 11t-18 11.5t-9.5 7.5q-12 9 -28 20t-32 11q-13 0 -21.5 -6.5t-13.5 -16.5t-8 -21t-5 -20z" />
    <glyph glyph-name="odieresis" unicode="&#xf6;" horiz-adv-x="521" 
d="M51 251q0 45 9.5 89.5t34.5 83.5q7 10 20 26t33.5 30.5t48.5 25t64 10.5q33 0 57 -9t35 -14q33 -18 55 -45.5t36 -59.5t20 -67.5t6 -69.5q0 -13 -1.5 -38.5t-10.5 -57.5q-9 -36 -26.5 -66.5t-42.5 -53t-57.5 -35t-71.5 -12.5q-11 0 -35 2.5t-51 16.5q-21 10 -43 29.5
t-39.5 49t-29 70.5t-11.5 95zM109 250q0 -7 1 -28.5t7 -48.5t20 -55.5t40 -50.5q11 -8 31 -18.5t53 -10.5q26 0 44 7.5t26 12.5q31 20 47.5 50.5t24 60t8.5 53t1 29.5q0 7 -1 29.5t-8 51t-22 58t-43 50.5q-9 7 -28 16.5t-50 9.5q-9 0 -28 -3t-40 -16q-32 -20 -48.5 -51
t-24.5 -61t-9 -54.5t-1 -30.5zM153 727q21 0 35.5 -15t14.5 -36t-15 -35.5t-36 -14.5q-8 0 -12 1t-7 3q-7 3 -19 13.5t-12 33.5q1 21 16 35.5t35 14.5zM369 727q21 0 35.5 -15t14.5 -36q-1 -21 -16 -35.5t-35 -14.5q-21 1 -35.5 15.5t-14.5 35.5t15 35.5t36 14.5z" />
    <glyph glyph-name="divide" unicode="&#xf7;" horiz-adv-x="500" 
d="M291 169q0 -16 -11 -27t-28 -10q-17 0 -28 10.5t-11 27.5q0 3 1.5 9.5t6 13t12.5 11.5t20 5q17 0 28 -11.5t10 -28.5zM291 410q0 -16 -11 -27t-28 -10q-17 0 -28 10.5t-11 27.5t11.5 28t28.5 11t28 -11.5t10 -28.5zM0 268v46h500v-46h-500z" />
    <glyph glyph-name="oslash" unicode="&#xf8;" horiz-adv-x="521" 
d="M434 500h47l-57 -72q4 -7 6.5 -11t4.5 -7.5t4.5 -8t5.5 -11.5q8 -17 16.5 -50.5t8.5 -81.5q0 -13 -2 -43t-13 -65t-29 -64.5t-43 -51.5t-56.5 -34t-69.5 -12q-36 0 -59.5 8.5t-36.5 15.5q-15 8 -24.5 16t-14.5 13l-32 -41h-50l57 72q-5 8 -9 15t-11 22q-8 18 -17 52
t-9 84q0 10 1 28.5t5 42t13 50.5t26 53q6 11 19 27.5t33.5 32t48.5 26.5t65 11q7 0 19.5 -1t28 -5t32.5 -11.5t34 -19.5q8 -6 15 -12.5t9 -8.5zM366 415q-5 6 -13.5 14.5t-21 17t-29.5 14t-39 5.5q-24 0 -39.5 -5.5t-23.5 -10.5q-17 -10 -33.5 -27t-29.5 -42.5t-21 -60
t-8 -77.5q0 -49 8 -76.5t18 -47.5zM156 84q13 -16 28 -25.5t29 -14t25.5 -6t19.5 -1.5t25.5 2.5t37.5 13.5q17 10 33.5 27t29 42.5t20.5 60t8 78.5q0 46 -8 74t-17 46z" />
    <glyph glyph-name="ugrave" unicode="&#xf9;" horiz-adv-x="505" 
d="M131 502v-314q0 -19 0.5 -38.5t4.5 -37.5t14 -33.5t30 -26.5q8 -5 22.5 -9.5t37.5 -4.5q33 0 52 10.5t29 18.5q4 3 11.5 11t15.5 19q6 10 10.5 21t7.5 24.5t4.5 30.5t1.5 40v289h54v-350v-52t1 -39t3.5 -31.5t7.5 -29.5h-56q-3 11 -5 19t-3 16t-1.5 16.5t-0.5 19.5
q-6 -12 -15 -26.5t-24.5 -27t-38 -21t-55.5 -8.5q-8 0 -23.5 1.5t-34 7t-38 17t-35.5 32.5q-13 16 -19.5 33.5t-9.5 35.5t-3 37v39v311h55zM258 592l-139 136h88l101 -136h-50z" />
    <glyph glyph-name="uacute" unicode="&#xfa;" horiz-adv-x="505" 
d="M131 502v-314q0 -19 0.5 -38.5t4.5 -37.5t14 -33.5t30 -26.5q8 -5 22.5 -9.5t37.5 -4.5q33 0 52 10.5t29 18.5q4 3 11.5 11t15.5 19q6 10 10.5 21t7.5 24.5t4.5 30.5t1.5 40v289h54v-350v-52t1 -39t3.5 -31.5t7.5 -29.5h-56q-3 11 -5 19t-3 16t-1.5 16.5t-0.5 19.5
q-6 -12 -15 -26.5t-24.5 -27t-38 -21t-55.5 -8.5q-8 0 -23.5 1.5t-34 7t-38 17t-35.5 32.5q-13 16 -19.5 33.5t-9.5 35.5t-3 37v39v311h55zM326 728h88l-140 -136h-49z" />
    <glyph glyph-name="ucircumflex" unicode="&#xfb;" horiz-adv-x="505" 
d="M131 502v-314q0 -19 0.5 -38.5t4.5 -37.5t14 -33.5t30 -26.5q8 -5 22.5 -9.5t37.5 -4.5q33 0 52 10.5t29 18.5q4 3 11.5 11t15.5 19q6 10 10.5 21t7.5 24.5t4.5 30.5t1.5 40v289h54v-350v-52t1 -39t3.5 -31.5t7.5 -29.5h-56q-3 11 -5 19t-3 16t-1.5 16.5t-0.5 19.5
q-6 -12 -15 -26.5t-24.5 -27t-38 -21t-55.5 -8.5q-8 0 -23.5 1.5t-34 7t-38 17t-35.5 32.5q-13 16 -19.5 33.5t-9.5 35.5t-3 37v39v311h55zM213 736h79l117 -144h-56l-100 103l-100 -103h-57z" />
    <glyph glyph-name="udieresis" unicode="&#xfc;" horiz-adv-x="505" 
d="M131 502v-314q0 -19 0.5 -38.5t4.5 -37.5t14 -33.5t30 -26.5q8 -5 22.5 -9.5t37.5 -4.5q33 0 52 10.5t29 18.5q4 3 11.5 11t15.5 19q6 10 10.5 21t7.5 24.5t4.5 30.5t1.5 40v289h54v-350v-52t1 -39t3.5 -31.5t7.5 -29.5h-56q-3 11 -5 19t-3 16t-1.5 16.5t-0.5 19.5
q-6 -12 -15 -26.5t-24.5 -27t-38 -21t-55.5 -8.5q-8 0 -23.5 1.5t-34 7t-38 17t-35.5 32.5q-13 16 -19.5 33.5t-9.5 35.5t-3 37v39v311h55zM145 727q22 0 36 -15t14 -36t-15 -35.5t-35 -14.5q-21 1 -35.5 15.5t-14.5 35.5t15 35.5t35 14.5zM361 727q21 0 35.5 -15t14.5 -36
t-15 -35.5t-36 -14.5q-21 1 -35.5 15.5t-14.5 35.5q0 20 14.5 35t36.5 15z" />
    <glyph glyph-name="ydieresis" unicode="&#xff;" horiz-adv-x="443" 
d="M77 502l144 -430l150 430h58l-164 -460l-12 -36t-13 -36q-14 -36 -32 -76t-49 -66q-18 -16 -38.5 -24t-38.5 -11.5t-32.5 -3.5h-21.5v50h13.5t12.5 1q7 0 18 1.5t23 6.5t24 14.5t23 26.5q15 22 27.5 54.5t20.5 57.5l-173 501h60zM114 727q21 0 35.5 -15t14.5 -36
t-15 -35.5t-36 -14.5q-21 1 -35.5 15.5t-14.5 35.5q1 21 15.5 35.5t35.5 14.5zM329 727q22 0 36 -15t14 -36q0 -2 -0.5 -7.5t-2.5 -11.5q-6 -14 -19 -22.5t-28 -8.5q-21 1 -35.5 15.5t-14.5 35.5t15 35.5t35 14.5z" />
    <glyph glyph-name="OE" unicode="&#x152;" horiz-adv-x="974" 
d="M552 706h365v-53h-305v-261h284v-53h-284v-286h310v-53h-370v103q-7 -10 -21 -28t-39 -38q-23 -18 -44 -27.5t-40 -14.5t-35 -6t-28 -1q-55 0 -100.5 18t-84.5 57q-37 37 -57.5 82t-30 86t-11 73.5t-1.5 46.5q0 78 16.5 137t42 101.5t57.5 69t64 39.5q35 15 64 17.5
t43 2.5q28 0 46.5 -3.5t29.5 -7.5q28 -9 49.5 -23.5t37 -29.5t26 -28.5t16.5 -21.5v102zM126 358q0 -51 7 -92.5t19 -74t27 -56t32 -39.5q7 -7 18.5 -16t28 -17.5t37.5 -14.5t47 -6q29 0 52 7.5t40 18t29 21.5t19 19q25 31 47 91.5t22 152.5q0 7 -1 37t-9 69.5t-25 81.5
t-49 73q-7 7 -18.5 15.5t-27 16.5t-36.5 13.5t-46 5.5q-14 0 -42.5 -4.5t-60.5 -27.5q-21 -14 -40.5 -37.5t-34.5 -57.5t-24.5 -78.5t-10.5 -100.5z" />
    <glyph glyph-name="oe" unicode="&#x153;" horiz-adv-x="859" 
d="M468 238q0 -6 1.5 -26.5t7.5 -46t19.5 -53t38.5 -46.5q11 -8 32 -18t54 -10q7 0 18.5 1t25 5t28 12t27.5 23q12 14 17 24l9 18l54 -11q-2 -5 -9.5 -20.5t-18.5 -30.5q-27 -38 -66 -54.5t-84 -16.5q-12 0 -31 2t-41 9.5t-45 22.5t-43 42q-11 15 -16.5 25t-9.5 17
q-2 -4 -9.5 -17.5t-17.5 -26.5q-8 -10 -20 -22.5t-30 -24t-42 -19.5t-56 -8q-87 0 -144 64q-12 13 -23.5 30.5t-21 41.5t-15.5 54.5t-6 69.5q0 69 15 111t32 67q20 32 54 55q34 24 65.5 29.5t46.5 5.5q12 0 29.5 -2t37.5 -10t40.5 -23t39.5 -41q8 -11 12 -19l14 -28
q5 10 8.5 17.5t9.5 16.5q7 10 19.5 25t32 29.5t46 24.5t61.5 10q40 0 77 -17q32 -15 54.5 -40t36.5 -55.5t20.5 -64t6.5 -66.5q0 -9 -0.5 -17.5t-1.5 -16.5zM744 285q0 18 -0.5 25t-2.5 17q-1 8 -6.5 31t-19.5 47t-39 42.5t-66 18.5q-39 0 -64 -18.5t-40 -42t-22 -45.5
t-9 -29q-2 -11 -3.5 -23t-3.5 -23h276zM257 466q-27 -1 -53.5 -13.5t-47.5 -39t-34 -66.5t-13 -96q0 -7 1 -29t7 -49.5t20.5 -56.5t41.5 -50q9 -7 29.5 -17.5t51.5 -10.5q23 0 41 7t31.5 16.5t22 19.5t13.5 17q13 20 25.5 58.5t12.5 95.5q0 6 -0.5 22t-4 37.5t-11 45
t-20.5 44.5q-4 7 -13 18t-23 21.5t-33 18t-44 7.5z" />
    <glyph glyph-name="Ydieresis" unicode="&#x178;" horiz-adv-x="526" 
d="M88 706l176 -346l174 346h71l-217 -403l1 -303h-60l2 303l-218 403h71zM170 879q23 -1 38.5 -16.5t15.5 -38.5q0 -11 -2.5 -17t-4.5 -10q-11 -18 -26 -22.5t-21 -4.5q-23 0 -38.5 16t-15.5 39t16 38.5t38 15.5zM356 879q23 -1 38.5 -16.5t15.5 -38.5t-16 -38.5t-38 -15.5
q-5 0 -10 1t-13 5q-20 9 -25.5 25t-5.5 24q0 23 16 38.5t38 15.5z" />
    <glyph glyph-name="circumflex" unicode="&#x2c6;" 
d="M13 736h79l117 -144h-57l-100 103l-100 -103h-56z" />
    <glyph glyph-name="tilde" unicode="&#x2dc;" 
d="M-103 610q2 7 3.5 17t6.5 24q1 5 6 16t14.5 22.5t23.5 20.5t35 9q25 0 43.5 -11.5t36.5 -25.5q9 -8 25 -18t30 -10q5 0 13 2.5t16 12.5q9 11 12.5 25t5.5 28l42 -9q-2 -18 -3.5 -24.5t-4.5 -16.5q-13 -43 -37 -57.5t-43 -14.5q-14 0 -27 5t-23.5 11t-18 11.5t-8.5 7.5
q-12 9 -28 20t-32 11q-13 0 -21.5 -6.5t-14 -16.5t-8.5 -21t-5 -20z" />
    <glyph glyph-name="endash" unicode="&#x2013;" horiz-adv-x="531" 
d="M447 290v-46h-363v46h363z" />
    <glyph glyph-name="emdash" unicode="&#x2014;" horiz-adv-x="552" 
d="M494 378v-43h-436v43h436z" />
    <glyph glyph-name="quoteleft" unicode="&#x2018;" 
d="M208 718q-30 -29 -46.5 -52t-24.5 -38q-6 -11 -8 -20t-3 -14q2 0 6 0.5t10 -0.5q20 -3 32 -18t12 -35q0 -25 -17 -40.5t-41 -15.5q-9 0 -19.5 3.5t-20 11.5t-15.5 22.5t-6 35.5q0 29 10 56t23 48.5t25.5 36t16.5 19.5h66z" />
    <glyph glyph-name="quoteright" unicode="&#x2019;" 
d="M42 486q6 5 12 11l12 12q1 2 7 8.5t13.5 16.5t15 21.5t12.5 22.5q5 8 6.5 15t3.5 17q-5 -1 -8.5 -1.5t-8.5 1.5q-20 3 -31.5 18t-11.5 34q0 5 1 11.5t6 15.5q11 20 27 24.5t24 4.5t18.5 -3t20.5 -11.5t16.5 -22.5t6.5 -35q0 -10 -3 -29q-5 -24 -15 -46t-21.5 -39.5
t-22 -29.5t-14.5 -17z" />
    <glyph glyph-name="quotesinglbase" unicode="&#x201a;" 
d="M42 -126q5 5 11 10.5t11 11.5q12 13 27 33t23 37q5 11 7 19t3 13q-7 -1 -11.5 -0.5t-11.5 2.5q-17 5 -27 19t-10 32q0 11 2.5 17t4.5 10q11 20 27.5 24.5t23.5 4.5q8 0 18.5 -3.5t20.5 -11.5t16.5 -22.5t6.5 -35.5q0 -3 -0.5 -10.5t-2.5 -17.5q-8 -38 -28.5 -71
t-44.5 -61h-66z" />
    <glyph glyph-name="quotedblleft" unicode="&#x201c;" horiz-adv-x="406" 
d="M366 718q-30 -29 -47 -52t-25 -38q-5 -11 -7 -20t-3 -14q3 0 8.5 0.5t13.5 -1.5q17 -5 27.5 -19.5t10.5 -32.5q0 -25 -17.5 -40.5t-41.5 -15.5q-13 0 -22 5t-13 7q-10 8 -18 21t-8 39q0 47 23.5 87.5t52.5 73.5h66zM207 718q-30 -29 -47 -52t-25 -38q-5 -11 -7 -20
t-3 -14q3 0 8.5 0.5t13.5 -1.5q17 -5 27.5 -19.5t10.5 -32.5q0 -25 -17.5 -40.5t-41.5 -15.5q-13 0 -22 5t-13 7q-10 8 -18 21t-8 39q0 47 23.5 87.5t52.5 73.5h66z" />
    <glyph glyph-name="quotedblright" unicode="&#x201d;" horiz-adv-x="422" 
d="M41 486q12 9 24 23q1 2 7 8.5t13.5 16.5t15.5 21.5t13 22.5q4 8 5.5 15t3.5 17q-5 -1 -8.5 -1.5t-8.5 1.5q-19 3 -31 18t-12 34q0 5 1 11.5t6 15.5q11 19 27.5 24t23.5 5q8 0 19 -3t20.5 -11.5t16 -22.5t6.5 -35q0 -10 -3 -29q-5 -24 -15 -46t-21.5 -39.5t-22 -29.5
t-14.5 -17zM214 486q12 9 24 23q1 2 7 8.5t13.5 16.5t15.5 21.5t13 22.5q4 8 5.5 15t3.5 17q-5 -1 -8.5 -1.5t-8.5 1.5q-19 3 -31 18t-12 34q0 5 1 11.5t6 15.5q11 19 27.5 24t23.5 5q8 0 19 -3t20.5 -11.5t16 -22.5t6.5 -35q0 -4 -0.5 -11.5t-2.5 -17.5q-5 -24 -15 -46
t-21.5 -39.5t-21.5 -29.5t-14 -17z" />
    <glyph glyph-name="quotedblbase" unicode="&#x201e;" horiz-adv-x="422" 
d="M41 -126q12 10 22 22q13 13 28 33t23 37q5 11 6.5 19t2.5 13q-7 -1 -11.5 -0.5t-10.5 2.5q-17 5 -27.5 19t-10.5 32q0 11 2.5 17t4.5 10q11 19 27.5 24t23.5 5q8 0 19 -3.5t20.5 -11.5t16 -22.5t6.5 -35.5q0 -3 -0.5 -10.5t-2.5 -17.5q-7 -38 -27.5 -71t-45.5 -61h-66z
M214 -126q12 10 22 22q13 13 28 33t23 37q9 22 9 32q-7 -1 -11 -0.5t-11 2.5q-17 5 -27.5 19t-10.5 32q0 11 2.5 17t4.5 10q11 19 27.5 24t23.5 5q8 0 19 -3.5t20.5 -11.5t16 -22.5t6.5 -35.5q0 -3 -0.5 -10.5t-2.5 -17.5q-7 -38 -27.5 -71t-44.5 -61h-67z" />
    <glyph glyph-name="dagger" unicode="&#x2020;" horiz-adv-x="531" 
d="M295 689v-189h201v-49h-201v-592h-55v592h-205v49h205v189h55z" />
    <glyph glyph-name="bullet" unicode="&#x2022;" horiz-adv-x="333" 
d="M279 353q0 -24 -8.5 -44.5t-23 -35.5t-35 -23.5t-44.5 -8.5q-7 0 -18.5 1.5t-26.5 7.5q-32 13 -50.5 41t-18.5 62q0 6 1.5 18.5t8.5 27.5q14 31 42 48.5t62 17.5q5 0 18 -1.5t27 -7.5q8 -3 19 -11t21.5 -20.5t18 -30t7.5 -41.5z" />
    <glyph glyph-name="ellipsis" unicode="&#x2026;" horiz-adv-x="1000" 
d="M874 34q-1 -16 -12 -28t-28 -12t-29 11.5t-12 28.5t12 28.5t29 11.5q18 0 29 -11.5t11 -28.5zM540 34q0 -16 -11.5 -28t-28.5 -12t-28.5 12t-11.5 29t12 28t29 11q4 0 10.5 -1.5t13 -6t11 -12t4.5 -20.5zM207 34q0 -16 -11.5 -28t-28.5 -12t-28.5 12t-11.5 29t12 28
t29 11t28 -11.5t11 -28.5z" />
    <glyph glyph-name="trademark" unicode="&#x2122;" horiz-adv-x="688" 
d="M569 374l1 226q0 17 0.5 33.5t0.5 33.5q-5 -14 -9 -29t-9 -29l-75 -235h-35l-74 235q-5 15 -9 29.5t-9 28.5q1 -17 0.5 -33.5t0.5 -33.5l1 -226h-39v332h60l88 -278l88 278h59v-332h-40zM138 374v296h-110v36h258v-36h-108v-296h-40z" />
    <glyph glyph-name="Tilde" 
d="M-122 797q1 5 5 21.5t14 34t28 31t47 13.5q16 0 34 -6t45 -24q14 -9 33.5 -22t37.5 -13q5 0 12.5 1.5t15.5 8.5q9 6 14 15t7.5 18t3 16t0.5 9l40 -18q-2 -18 -4 -27.5t-6 -17.5q-11 -25 -33 -41t-50 -16q-24 0 -45 10.5t-40 23.5q-13 9 -30 19.5t-34 9.5q-11 0 -18 -3.5
t-9 -5.5q-14 -10 -19 -25t-9 -29z" />
    <glyph glyph-name="Dieresis" 
d="M-41 879q23 -1 38.5 -16.5t15.5 -38.5q0 -11 -2.5 -17t-4.5 -10q-11 -18 -26 -22.5t-21 -4.5q-23 0 -38.5 16t-15.5 39t16 38.5t38 15.5zM145 879q23 -1 38.5 -16.5t15.5 -38.5t-16 -38.5t-38 -15.5q-5 0 -10 1t-13 5q-20 9 -25.5 25t-5.5 24q0 23 16 38.5t38 15.5z" />
    <glyph glyph-name="Caron" 
d="M92 756h-79l-135 136h57l117 -97l118 97h56z" />
    <glyph glyph-name="Circumflex" 
d="M13 892h79l134 -136h-56l-118 98l-117 -98h-57z" />
    <glyph glyph-name="onefitted" horiz-adv-x="333" 
d="M18 594q29 2 58.5 8.5t51.5 28.5q14 14 19.5 30t10.5 34h41v-695h-57v552h-125z" />
    <glyph glyph-name="Grave" 
d="M36 756l-163 136h88l137 -136h-62z" />
    <glyph glyph-name="Acute" 
d="M149 892h88l-163 -136h-62z" />
    </font>
</defs>
</svg>
